<?xml version="1.0" encoding="UTF-8" standalone="no"?>
<!-- Created with Inkscape (http://www.inkscape.org/) -->

<svg
   width="11.999999in"
   height="20in"
   viewBox="0 0 304.79998 508"
   version="1.1"
   id="svg5"
   xml:space="preserve"
   inkscape:version="1.1 (c68e22c387, 2021-05-23)"
   sodipodi:docname="SidePanel-JSA.svg"
   xmlns:inkscape="http://www.inkscape.org/namespaces/inkscape"
   xmlns:sodipodi="http://sodipodi.sourceforge.net/DTD/sodipodi-0.dtd"
   xmlns="http://www.w3.org/2000/svg"
   xmlns:svg="http://www.w3.org/2000/svg"><sodipodi:namedview
     id="namedview7"
     pagecolor="#ffffff"
     bordercolor="#000000"
     borderopacity="0.25"
     inkscape:showpageshadow="2"
     inkscape:pageopacity="0.0"
     inkscape:pagecheckerboard="0"
     inkscape:deskcolor="#d1d1d1"
     inkscape:document-units="in"
     showgrid="false"
     showguides="false"
     inkscape:lockguides="false"
     inkscape:zoom="0.41708255"
     inkscape:cx="70.729403"
     inkscape:cy="760.04139"
     inkscape:window-width="1368"
     inkscape:window-height="860"
     inkscape:window-x="-6"
     inkscape:window-y="-6"
     inkscape:window-maximized="1"
     inkscape:current-layer="g8305"
     inkscape:pageshadow="2" /><defs
     id="defs2"><rect
       x="-176.63367"
       y="-294.38943"
       width="127.9954"
       height="325.10831"
       id="rect412" /><clipPath
       clipPathUnits="userSpaceOnUse"
       id="clipPath2393"><rect
         style="fill:none;stroke:#ff0000;stroke-width:0.154683"
         id="rect2395"
         height="482.44531"
         x="-2.9075851"
         y="670.05542"
         inkscape:label="frame1"
         transform="scale(-1,1)"
         width="88.747604" /></clipPath><clipPath
       clipPathUnits="userSpaceOnUse"
       id="clipPath2393-2"><rect
         style="fill:none;stroke:#ff0000;stroke-width:0.154683"
         id="rect2395-8"
         height="482.44531"
         x="-2.9075851"
         y="670.05542"
         inkscape:label="frame1"
         transform="scale(-1,1)"
         width="88.747604" /></clipPath><filter
       style="color-interpolation-filters:sRGB"
       inkscape:label="Greyscale"
       id="filter3545"
       x="0"
       y="0"
       width="1"
       height="1"><feColorMatrix
         values="0.21 0.72 0.072 0 0 0.21 0.72 0.072 0 0 0.21 0.72 0.072 0 0 0 0 0 1 0 "
         id="feColorMatrix3543" /></filter></defs><g
     inkscape:groupmode="layer"
     id="layer1"
     inkscape:label="letterpanel-jsa"
     inkscape:highlight-color="#ab4a4a"
     style="display:inline"><rect
       style="fill:none;stroke:#ff0000;stroke-width:0.154683"
       id="rect993"
       width="88.757957"
       height="482.44531"
       x="-278.26434"
       y="12.777349"
       inkscape:label="jsa-letterframe"
       transform="scale(-1,1)" /><path
       id="path595"
       style="fill:#0000ff;stroke-width:0.181231"
       d="m 228.36076,346.06687 c 0.55737,-0.23278 2.02215,-1.96081 2.8717,-3.38778 0.23242,-0.39042 0.44373,-0.73789 0.46956,-0.77218 0.0257,-0.0342 0.32305,0.13542 0.66055,0.37722 0.3375,0.24169 1.33723,0.76141 2.22166,1.15491 0.88442,0.39348 2.29576,1.17232 3.13632,1.73073 l 1.5283,1.01529 1.4903,-0.11836 c 1.68222,-0.1336 2.78536,-0.6636 2.98733,-1.43536 0.19529,-0.7461 -0.0172,-0.97615 -0.90176,-0.97615 -0.73353,0 -0.8309,-0.0535 -1.10633,-0.60733 -0.16611,-0.33407 -1.05596,-1.77964 -1.97745,-3.21244 -0.92151,-1.43278 -1.67544,-2.68619 -1.67544,-2.78534 0,-0.19782 0.21414,-0.15927 2.12423,0.38228 0.71029,0.2014 1.76921,0.36617 2.35313,0.36617 0.92364,0 1.14675,-0.0715 1.71586,-0.55081 0.79276,-0.6675 0.82656,-0.96904 0.12372,-1.10381 -0.29175,-0.0559 -2.14471,-0.67359 -4.1177,-1.37247 -4.10659,-1.45468 -6.29072,-2.02945 -8.39894,-2.21027 -1.10375,-0.0946 -1.58539,-0.21907 -1.89257,-0.48889 l -0.41207,-0.36193 -0.70829,0.4707 c -0.38954,0.25891 -0.80788,0.47071 -0.92966,0.47071 -0.12181,0 -0.22138,0.0773 -0.22138,0.17181 0,0.0945 -0.22286,0.28378 -0.49524,0.42064 -0.27236,0.1368 -0.51539,0.39897 -0.54002,0.58245 -0.0247,0.18349 -0.0973,0.49336 -0.16135,0.68858 -0.0642,0.19522 -0.009,0.49311 0.12356,0.66197 0.2207,0.28209 0.4239,0.29026 2.50223,0.10061 2.54719,-0.23252 4.00212,-0.0925 6.34166,0.61014 l 1.37765,0.41377 -0.4103,0.39347 c -0.22569,0.21641 -0.41328,0.49333 -0.41687,0.61534 -0.002,0.122 -0.11994,0.41812 -0.25841,0.658 -0.34111,0.59077 -0.1769,0.93493 1.27709,2.67612 0.67117,0.80372 1.19648,1.48415 1.16737,1.51206 -0.0291,0.0279 -0.7604,-0.14594 -1.62514,-0.38631 -0.86471,-0.24038 -2.19681,-0.52424 -2.96021,-0.63079 -0.7634,-0.10664 -1.41892,-0.21946 -1.45673,-0.25087 -0.0377,-0.0314 0.15307,-0.42005 0.42419,-0.8637 0.27112,-0.44367 0.42233,-0.80665 0.33602,-0.80665 -0.0863,0 -0.65757,0.16213 -1.26946,0.36029 -0.9428,0.30533 -1.41444,0.637 -3.09151,2.17405 -1.91994,1.75963 -1.97978,1.83775 -2.00545,2.61746 -0.0347,1.05159 0.45211,1.95112 1.04833,1.9375 0.10186,-0.002 0.43995,-0.11068 0.75146,-0.24079 z m 21.36381,-12.61646 c 0.25446,-0.13945 0.81659,-0.25646 1.2492,-0.25992 1.26634,-0.01 0.98966,-0.38816 -1.08367,-1.48058 -0.75435,-0.39746 -1.67063,-1.10351 -2.39279,-1.84385 -1.52821,-1.56667 -3.9785,-4.54436 -4.57158,-5.55557 -0.25761,-0.43925 -0.90511,-1.51742 -1.4389,-2.3959 -1.31175,-2.1589 -2.35831,-4.18441 -2.22706,-4.31029 0.14515,-0.13917 -1.02215,-1.28017 -1.30969,-1.28017 -0.12532,0 -0.40639,0.21764 -0.62457,0.48364 -0.29725,0.3624 -0.38182,0.6753 -0.33728,1.24805 l 0.0594,0.76438 -1.48052,0.57566 c -1.99216,0.77459 -3.50275,1.79616 -5.82656,3.94044 -3.30488,3.0495 -5.86231,4.49201 -11.47594,6.473 -1.67017,0.58939 -2.3301,0.90513 -2.37669,1.13705 -0.11978,0.59607 0.16837,1.52243 0.53136,1.70873 0.62333,0.3199 3.18187,0.41771 4.53272,0.17329 1.12436,-0.20347 1.28007,-0.19671 1.479,0.0643 0.23455,0.30758 0.64423,0.39683 0.64423,0.14033 0,-0.0831 0.49087,-0.52113 1.09084,-0.97319 0.59997,-0.45202 3.49391,-3.10714 6.431,-5.90031 2.9371,-2.79318 5.63164,-5.28567 5.9879,-5.53892 0.35625,-0.25322 0.75096,-0.57895 0.87714,-0.7238 0.12619,-0.14486 0.2579,-0.22927 0.29271,-0.18762 0.0349,0.0417 0.84301,1.47341 1.79601,3.1816 2.15448,3.86179 2.89372,5.03664 4.29943,6.83276 1.7232,2.20186 2.85473,3.23678 3.98059,3.64074 1.1551,0.41447 1.28428,0.42033 1.89372,0.0862 z m -9.51469,-1.86807 c 0.80818,-0.16442 0.97153,-0.29251 1.28211,-1.00532 0.3743,-0.85908 0.35563,-0.92076 -0.27344,-0.90361 -0.68327,0.0186 -4.18124,-1.62731 -5.20991,-2.4515 -0.41478,-0.33235 -0.85923,-0.60425 -0.98764,-0.60425 -0.35967,0 -1.91276,1.19828 -2.03609,1.57097 -0.0603,0.18218 -0.062,0.44231 -0.002,0.57809 0.12705,0.29551 5.08605,2.60302 6.00934,2.79628 0.35624,0.0746 0.90482,0.0833 1.21907,0.0193 z m 7.07673,-24.43891 c 1.2239,-0.64274 3.20577,-2.94649 2.9184,-3.39239 -0.0995,-0.15442 -0.7663,-0.0679 -2.40374,0.3118 -0.77363,0.17941 -1.3544,0.0596 -6.31208,-1.30162 -3.60663,-0.99029 -3.23863,-0.66414 -3.23863,-2.87038 0,-1.87408 0.002,-1.88712 0.41639,-1.77158 1.95969,0.54785 2.30107,0.54949 3.46335,0.017 1.14387,-0.52431 2.02064,-1.23657 1.79203,-1.45579 -0.0707,-0.0678 -0.8135,-0.31151 -1.65089,-0.54174 -0.83738,-0.23024 -2.08467,-0.57786 -2.7717,-0.77248 l -1.24918,-0.35385 v -1.39011 c 0,-1.88457 0.14892,-2.55348 0.53409,-2.39883 0.16427,0.066 0.69577,0.16053 1.18108,0.21011 1.3371,0.13653 2.37053,-0.32659 3.81349,-1.70911 l 1.2262,-1.17494 -1.85065,-0.10382 c -1.21373,-0.068 -2.32835,-0.25405 -3.23864,-0.5404 l -1.38796,-0.43662 0.0684,-3.98521 c 0.0754,-4.38268 0.0347,-4.20827 1.42309,-6.09061 0.87412,-1.18503 0.83897,-1.35536 -0.2796,-1.35536 -2.0554,0 -3.80638,0.61512 -5.01356,1.76127 -0.96154,0.91295 -1.20115,1.81612 -0.83827,3.1599 0.24722,0.91543 0.65543,3.71947 0.65937,4.52935 0.001,0.26496 -0.1819,0.31102 -1.24765,0.3135 -2.20913,0.005 -3.24898,0.91295 -2.72382,2.3779 0.34625,0.96587 0.79877,1.38027 1.37477,1.25897 0.26279,-0.0554 0.97254,0.0437 1.57725,0.22031 1.29563,0.3783 1.34553,0.47733 1.37267,2.7258 l 0.0185,1.52787 -1.46496,-0.0193 c -1.5816,-0.0207 -2.08046,0.1851 -2.85369,1.17827 -0.76747,0.98579 0.38576,2.07524 2.21837,2.09569 0.49356,0.005 1.18884,0.10536 1.54509,0.22184 0.61014,0.19953 0.65473,0.2685 0.76823,1.18794 0.0662,0.53686 0.12867,1.38283 0.13886,1.87995 l 0.0184,0.9038 -3.28489,0.1178 c -3.38344,0.1213 -6.32136,0.54834 -7.51729,1.09255 -0.73448,0.33424 -2.08263,1.7953 -2.3596,2.55719 -0.13348,0.36701 -0.12894,0.63176 0.0148,0.88949 0.20093,0.36 1.44906,1.078 1.87402,1.078 0.11874,0 0.89233,-0.39346 1.7192,-0.87438 2.94139,-1.71067 7.25631,-2.40788 10.47906,-1.6932 0.66162,0.14673 2.91014,0.81805 4.99675,1.49186 4.46557,1.442 5.20764,1.57926 6.07504,1.1237 z m 1.28481,-17.94293 c 0.29245,-0.17909 0.0713,-0.81366 -1.13946,-3.26998 -0.94979,-1.92681 -1.05959,-2.73402 -0.49316,-3.62486 l 0.35895,-0.56455 -0.84771,0.0762 c -1.56429,0.14061 -2.33464,0.43989 -3.15329,1.22497 -0.98099,0.94075 -1.0136,1.44321 -0.18825,2.90175 1.11822,1.97613 2.18835,2.85769 3.71996,3.06447 0.5241,0.0707 1.07784,0.17524 1.23053,0.23221 0.15267,0.0571 0.38326,0.0388 0.51243,-0.0403 z m -10.45566,-19.60995 c 0.0435,-0.11459 0.0559,-0.85236 0.0278,-1.63939 l -0.0514,-1.43095 0.91208,-0.57262 c 1.45314,-0.91231 1.15598,-1.56557 -0.41698,-0.91665 -0.69495,0.2867 -0.99018,0.33468 -1.14536,0.18614 -0.29994,-0.28713 -0.37429,-3.45491 -0.12866,-5.48127 0.18809,-1.55158 0.61285,-3.50087 0.80248,-3.68271 0.1269,-0.12171 2.34054,0.63461 4.75331,1.62404 2.54211,1.04248 4.28833,1.54457 4.78044,1.37454 0.61681,-0.21311 1.37447,-0.81703 1.90329,-1.5171 0.53826,-0.71259 0.57173,-1.08722 0.081,-0.90663 -0.38332,0.14108 -1.6852,-0.15065 -6.60442,-1.4798 l -4.38212,-1.18409 0.27693,-0.51354 c 0.17748,-0.32912 0.37466,-0.47759 0.54903,-0.41342 0.14965,0.055 0.31957,-0.0185 0.37759,-0.16352 0.12839,-0.32069 -0.61782,-0.95717 -1.13736,-0.97013 -0.58772,-0.0148 -3.60877,-3.68593 -3.60877,-4.38542 0,-0.35004 0.39822,-0.28823 2.5111,0.38967 2.36652,0.75931 2.97043,0.78044 3.80191,0.13318 1.02413,-0.79728 0.91238,-0.97154 -0.90461,-1.41078 -0.88802,-0.21466 -2.36408,-0.60664 -3.28015,-0.87109 -0.91609,-0.2644 -2.05496,-0.48765 -2.53083,-0.49608 -0.95766,-0.0169 -1.40233,0.27552 -2.29327,1.50843 -0.41762,0.57791 -0.46323,0.75669 -0.30441,1.19356 0.2346,0.64533 1.2779,1.96497 2.20169,2.78483 0.72233,0.64105 2.39685,1.50614 2.91535,1.50614 0.38081,0 0.36589,0.0922 -0.11584,0.71708 -0.4829,0.62638 -0.8843,0.65507 -3.48142,0.2488 -1.90309,-0.29771 -7.95195,-0.30389 -7.89559,-0.008 0.0167,0.0875 -0.65468,0.57537 -1.49188,1.08403 -0.83722,0.50869 -1.46582,0.97893 -1.39687,1.04505 0.069,0.066 0.1071,0.38036 0.0848,0.6983 -0.0435,0.61975 0.49889,1.36157 0.99552,1.36157 0.15127,0 0.83507,-0.26834 1.51959,-0.59635 2.36208,-1.13177 3.00337,-1.26589 6.05625,-1.26654 1.52679,-3.5e-4 3.09694,0.0644 3.4892,0.14401 0.83031,0.16837 0.8293,0.0487 0.0247,2.87246 -0.45978,1.61349 -0.50786,2.07311 -0.52927,5.05803 -0.0201,2.80808 0.0232,3.37071 0.30033,3.88734 0.17811,0.33224 0.32388,0.73375 0.32388,0.89226 0,0.39263 0.53278,1.09405 0.80045,1.05379 0.11948,-0.0181 0.34231,0.0126 0.49499,0.0688 0.63574,0.23267 1.63919,0.276 1.71586,0.074 z m 12.13621,-19.4418 c 0.13743,-0.0848 0.30767,-0.42408 0.37836,-0.75394 0.10215,-0.47631 0.0132,-0.8156 -0.43489,-1.64871 -0.49399,-0.91973 -0.56749,-1.24769 -0.59661,-2.6621 -0.0183,-0.88724 -0.0391,-1.67844 -0.0462,-1.75821 -0.0309,-0.34303 -0.92394,0.16655 -1.90997,1.08979 -0.86325,0.80827 -1.06412,1.10506 -1.06412,1.57207 0,0.7226 0.63214,2.36738 1.11513,2.90141 0.20094,0.22222 0.36538,0.46981 0.36538,0.55024 0,0.42842 1.73764,0.99057 2.19299,0.70945 z m -22.88838,-3.68455 c -1.19978,-1.2748 -1.75424,-2.50006 -1.34519,-2.9727 0.37528,-0.43365 1.95029,-0.97676 3.1788,-1.09618 1.54548,-0.15022 6.18759,0.45825 9.05336,1.18665 4.50371,1.14477 4.65917,1.17203 5.88917,1.03296 1.06816,-0.12074 1.78639,-0.34545 1.10435,-0.34545 -0.15711,0 -1.10789,-0.24407 -2.11282,-0.54236 -5.09004,-1.51089 -8.26227,-2.15122 -12.39584,-2.50217 -4.21594,-0.35794 -6.08968,0.12718 -7.53011,1.94977 -0.91121,1.15295 -1.09728,1.77319 -0.74261,2.47547 0.29338,0.58091 0.89361,0.82172 1.61525,0.64803 0.70353,-0.16933 2.38457,0.24409 3.32962,0.81883 0.47426,0.28845 0.90771,0.52445 0.96315,0.52445 0.0554,0 -0.39776,-0.52978 -1.00713,-1.1773 z m 16.80904,-5.91811 c 2.3943,-1.62263 3.05016,-2.19919 3.07881,-2.70642 0.0249,-0.44032 0.0147,-0.44365 -0.64773,-0.21359 -0.37013,0.12855 -0.9753,0.28008 -1.34482,0.33681 -1.04591,0.1605 -2.90597,1.40042 -3.23553,2.1568 -0.35446,0.81354 -0.27296,1.38517 0.20609,1.44568 0.21228,0.0267 1.04089,-0.4078 1.94318,-1.01928 z m -5.57879,-0.22542 c 0.91398,-1.17394 1.56248,-2.40151 1.43583,-2.71799 -0.0535,-0.13389 -0.0179,-0.29055 0.0796,-0.34825 0.0973,-0.0577 0.177,-0.18237 0.177,-0.27708 0,-0.0948 -0.54469,0.10493 -1.21041,0.44376 -1.15996,0.5903 -1.24003,0.60592 -1.92213,0.37514 -0.39148,-0.13247 -0.96695,-0.36737 -1.27881,-0.52202 -0.31187,-0.15467 -0.61741,-0.28122 -0.67896,-0.28122 -0.0615,0 0.22204,0.44725 0.63022,0.99387 0.56046,0.75055 0.71857,1.10898 0.64591,1.46416 -0.0529,0.25866 0.0352,0.7698 0.19586,1.13584 0.43677,0.99516 1.00496,0.91664 1.92589,-0.26621 z m -6.00942,-0.92249 c -0.67608,-0.71583 -1.38412,-1.53614 -1.57343,-1.82287 l -0.34422,-0.52133 0.6192,-1.1802 c 0.56791,-1.08245 0.59132,-1.18868 0.28264,-1.28263 -0.18511,-0.0563 -0.50719,-0.0148 -0.71577,0.0922 -0.20857,0.10705 -0.48238,0.17259 -0.60845,0.14569 -0.81954,-0.17497 -2.91266,1.96414 -2.91266,2.97667 0,0.55976 0.30754,1.13822 0.60796,1.14347 0.12372,10e-4 0.43301,0.16015 0.68748,0.35101 0.34532,0.25905 0.75704,0.34807 1.62338,0.35101 0.88309,0.002 1.44802,0.12883 2.36192,0.52626 l 1.20116,0.52231 z m 5.46546,-10.45962 c 0.304,-0.16462 0.58958,-0.63258 0.8924,-1.46241 0.70264,-1.9254 0.69102,-1.84149 0.25518,-1.84149 -0.35562,0 -0.39171,-0.0987 -0.39171,-1.07042 0,-1.22382 0.12268,-1.33173 1.24035,-1.09092 0.93058,0.20051 1.57539,-0.0422 2.44829,-0.9209 0.3493,-0.35167 0.59913,-0.66058 0.55521,-0.68645 -0.77212,-0.45455 -1.42492,-0.68153 -2.45463,-0.85348 -0.68641,-0.11458 -1.3698,-0.32521 -1.51863,-0.46792 -0.22553,-0.21629 -0.27059,-1.15695 -0.27059,-5.64931 0,-3.04495 0.0733,-5.43326 0.16834,-5.48961 0.0925,-0.0549 0.57145,0.067 1.06413,0.27098 0.49267,0.20391 1.33261,0.41496 1.86654,0.46899 0.83743,0.0848 1.12973,0.0217 2.12825,-0.4599 0.63663,-0.30698 1.63862,-0.99554 2.22672,-1.53016 l 1.06927,-0.97201 -1.80952,0.0413 c -1.60134,0.0364 -2.04371,-0.0276 -3.84523,-0.55793 -3.12628,-0.92016 -3.1216,-0.91609 -3.48742,-3.02843 -0.44892,-2.59212 -0.46509,-2.52007 0.78709,-3.50158 0.87389,-0.68502 1.17122,-1.05685 1.48053,-1.85149 0.40463,-1.03961 0.48727,-1.57905 0.24189,-1.57905 -0.0798,0 -1.20392,0.38956 -2.49802,0.86572 -3.19752,1.17648 -4.52602,2.25787 -4.85311,3.95028 -0.0981,0.50713 -0.004,0.90629 0.43677,1.86349 0.6459,1.40132 0.56417,1.50276 -0.85454,1.0606 -1.55717,-0.48531 -2.62091,-0.52055 -3.72694,-0.12353 -2.53702,0.91076 -3.49833,2.3392 -2.19828,3.26653 0.48611,0.34676 0.54018,0.34914 1.58752,0.0699 0.88341,-0.23554 1.44484,-0.26142 3.03087,-0.13962 2.50586,0.19235 3.53553,0.59588 3.84966,1.5087 0.21086,0.61262 0.19527,0.66677 -0.29908,1.03928 -1.6805,1.26623 -3.54861,2.99729 -5.63054,5.21748 -3.96197,4.22511 -6.53595,6.26176 -11.50844,9.10598 -0.58527,0.33476 -1.06413,0.67736 -1.06413,0.76132 0,0.27596 0.52162,0.65972 0.89669,0.65972 0.20235,0 0.40189,0.0977 0.44336,0.21705 0.0574,0.16497 0.60509,0.12313 2.28249,-0.17441 1.21385,-0.21528 2.79741,-0.47772 3.51903,-0.58322 0.7216,-0.10549 1.57316,-0.34408 1.89237,-0.53022 0.72517,-0.42293 3.12867,-3.31553 5.08263,-6.11692 1.88988,-2.70951 4.60766,-6.30033 4.76855,-6.30033 0.15585,0 0.31542,1.67399 0.4751,4.98485 0.11527,2.39083 0.0994,2.59832 -0.2076,2.71131 -0.18286,0.0673 -0.61125,0.0341 -0.95197,-0.0737 -0.78489,-0.24839 -1.67942,0.01 -2.46362,0.71301 -0.73464,0.6581 -0.76104,1.42698 -0.0671,1.95051 0.42449,0.3202 0.64623,0.35673 1.56249,0.25732 0.5873,-0.0638 1.28075,-0.0645 1.54102,-0.001 0.42925,0.10326 0.47323,0.19696 0.47323,1.00825 0,0.49189 -0.0949,1.63436 -0.21074,2.53884 -0.26493,2.06728 -0.058,2.6589 0.95231,2.72552 0.35551,0.0235 0.84756,-0.0664 1.09347,-0.19947 z m 12.21516,-5.11229 c -2.22497,-2.2345 -5.03162,-6.00032 -6.82322,-9.15503 -0.8696,-1.53125 -0.93478,-1.73232 -0.93478,-2.88395 0,-0.7159 -0.0789,-1.23798 -0.18708,-1.23798 -0.10289,0 -0.56437,0.17009 -1.02551,0.37796 -1.63345,0.73631 -1.8144,2.08962 -0.59131,4.42177 1.12748,2.14981 3.57627,6.00286 4.76494,7.49734 1.31481,1.65312 2.64825,2.33239 4.93298,2.51297 l 1.50928,0.11935 z m -19.47101,-36.2979 c 0.76564,-0.36832 0.95956,-0.92937 1.10409,-3.19454 0.0642,-1.00402 0.17689,-1.82548 0.25075,-1.82548 0.0739,0 0.23796,0.11976 0.36466,0.26621 0.17023,0.19671 0.62343,0.26622 1.73581,0.26622 1.04373,0 2.01585,0.13695 3.16972,0.44638 1.60938,0.43166 3.5586,0.60059 3.98874,0.34563 0.11513,-0.0682 0.40841,-0.0218 0.65186,0.10313 0.34578,0.17749 0.59861,0.18237 1.15552,0.0223 0.88441,-0.25412 1.07272,-0.75927 1.3507,-3.6232 0.15809,-1.62898 0.2344,-9.89393 0.11424,-12.38022 -0.0257,-0.53513 0.2739,-1.27957 1.30396,-3.2384 0.0386,-0.0732 -0.0652,-0.13318 -0.2304,-0.13318 -1.06573,0 -3.77523,2.20734 -4.28705,3.49252 -0.30772,0.77276 -0.30807,0.97367 -0.007,4.02901 0.17434,1.76864 0.30951,4.01432 0.30036,4.99042 -0.0192,2.05527 -0.25286,4.65618 -0.43378,4.82969 -0.0685,0.0655 -0.72614,-0.0563 -1.46138,-0.27116 -0.73525,-0.21484 -2.20708,-0.59748 -3.27074,-0.85029 -1.95763,-0.46531 -2.42793,-0.46274 -4.17321,0.0229 -0.35783,0.0995 -0.36614,0.0451 -0.24988,-1.63659 0.0662,-0.95677 0.12867,-2.62943 0.13888,-3.71703 l 0.0185,-1.97745 0.68685,0.33582 c 0.37776,0.1847 0.91613,0.33581 1.19637,0.33581 0.2802,0 1.36604,0.15947 2.41296,0.35441 2.42587,0.45168 3.4892,0.45751 4.04972,0.0222 l 0.42916,-0.33324 -0.91756,-0.43912 c -1.2163,-0.58205 -3.19808,-1.28313 -4.84499,-1.71393 l -1.33649,-0.34963 -0.8037,0.3902 -0.8037,0.39019 -0.23977,-3.1981 c -0.13186,-1.75897 -0.28158,-3.5891 -0.33269,-4.06699 l -0.093,-0.86886 0.8073,0.11752 c 0.44402,0.0645 1.72338,0.55367 2.84302,1.08684 2.66431,1.26871 2.78841,1.29004 4.05204,0.69667 0.57048,-0.26788 1.03724,-0.54448 1.03724,-0.61465 0,-0.34265 -1.62299,-1.22944 -4.09578,-2.2379 -1.50506,-0.61378 -2.94466,-1.1661 -3.19912,-1.22734 -0.25446,-0.061 -0.55626,-0.21953 -0.67068,-0.35174 -0.17327,-0.20022 -0.36787,-0.18004 -1.16425,0.12073 -2.24481,0.84769 -3.88831,2.17097 -4.68425,3.77155 -0.28381,0.57083 -0.29452,0.74645 -0.0854,1.40175 1.41717,4.44055 1.64566,6.91167 1.68066,18.17614 0.004,1.2558 0.0613,1.51437 0.42092,1.89463 0.54037,0.57151 1.36463,0.70368 2.12059,0.34004 z"
       inkscape:label="jsa-lettering" /></g><g
     inkscape:groupmode="layer"
     id="layer5"
     inkscape:label="patternpanel-jsa"
     style="display:inline"
     inkscape:highlight-color="#da8c8c"><g
       id="g8305"
       inkscape:label="lasercutter-score"
       style="display:inline"
       transform="translate(168.06001,-0.89712745)"><g
         id="g8263"
         inkscape:label="up-sakura" /><g
         id="g78"><path
           id="rect993-0"
           style="display:inline;fill:none;stroke:#ff00ff;stroke-width:0.119478"
           inkscape:label="up-shippo"
           d="m -141.53563,111.0119 v 5.45032 c 1.1294,1.15091 2.29473,2.20268 3.27783,2.90419 3.09779,2.21055 7.60536,4.02969 11.01794,4.44625 1.02315,0.12491 1.46089,0.30824 1.46089,0.61288 0,0.31192 -0.47797,0.49464 -1.6893,0.64595 -2.34811,0.29332 -6.15921,1.65981 -8.84236,3.17037 -1.47089,0.82807 -3.44073,2.46674 -5.225,4.23334 v 16.51992 c 1.29254,-0.41796 2.58759,-0.89488 3.48609,-1.34514 7.19911,-3.60778 12.67184,-10.84586 13.95781,-18.45935 0.27306,-1.61668 0.50574,-2.2602 0.83405,-2.30838 0.3538,-0.052 0.49573,0.32406 0.63821,1.68725 0.10076,0.96461 0.55927,2.84406 1.01854,4.17647 2.19505,6.36823 7.02695,11.89318 13.03487,14.90401 2.12448,1.06465 6.42322,2.36265 7.82383,2.36265 0.791256,0 0.984946,0.11427 0.984946,0.58134 0,0.46297 -0.1939,0.5819 -0.950846,0.5819 -2.55932,0 -8.23601,2.23366 -11.38226,4.47878 -2.5581,1.82544 -5.90643,5.50154 -7.39955,8.12406 -1.51885,2.66772 -2.86025,6.39929 -3.1192,8.67646 -0.11577,1.01798 -0.34673,1.71513 -0.59996,1.81229 -0.22635,0.0868 -0.46111,-0.004 -0.52142,-0.2005 -0.0603,-0.1972 -0.18594,-0.99873 -0.27957,-1.78128 -0.25109,-2.09857 -1.66402,-5.95686 -3.11298,-8.50181 -1.49587,-2.62731 -4.84225,-6.30251 -7.40214,-8.12922 -1.84763,-1.31844 -4.56123,-2.62038 -7.01042,-3.48093 v 16.69872 c 2.0394,2.02364 4.42931,3.75375 7.09,5.08911 1.76553,0.88609 6.19025,2.21847 7.367,2.21847 1.16188,0 1.72353,0.27382 1.54047,0.75087 -0.0913,0.23799 -0.55517,0.41185 -1.09812,0.41185 -1.41084,0 -5.05399,1.00332 -7.2347,1.99212 -2.8039,1.27135 -5.42148,3.17111 -7.66465,5.43481 V 201.395 c 7.1526,-2.34156 13.40759,-8.16091 16.18971,-15.39232 0.70571,-1.83438 0.9978,-2.9546 1.62987,-6.25078 0.22674,-1.18248 0.90413,-0.41603 1.07229,1.21335 0.22434,2.17366 1.64389,6.12706 3.15072,8.77364 1.49587,2.62728 4.84275,6.30248 7.40265,8.12922 3.01334,2.15026 7.39502,3.94604 10.82674,4.43693 0.95774,0.137 1.382716,0.34152 1.451586,0.69918 0.0768,0.39902 -0.10787,0.50591 -0.874876,0.50591 -2.58568,0 -8.24568,2.22576 -11.41895,4.49017 -2.52516,1.80186 -5.88482,5.50325 -7.40265,8.1561 -1.45561,2.54399 -2.84001,6.42538 -3.10938,8.71728 -0.19319,1.6438 -0.87527,2.41162 -1.09451,1.23198 -1.32593,-7.13391 -3.57805,-11.51557 -8.1256,-15.80732 -1.32969,-1.25492 -3.42516,-2.85459 -4.65657,-3.55481 -1.46311,-0.83196 -3.30732,-1.62468 -5.04103,-2.21539 v 16.62277 c 4.09504,4.07734 9.19141,6.7078 14.24874,7.32515 1.0623,0.12965 1.50792,0.31213 1.50792,0.61854 0,0.312 -0.47795,0.49467 -1.6893,0.64598 -4.43827,0.55433 -9.74465,3.20321 -13.48032,6.72878 -0.21069,0.19883 -0.38726,0.39283 -0.58704,0.58962 v 16.66203 c 7.61903,-2.52724 13.85593,-8.57467 16.52044,-16.30494 0.45907,-1.33181 0.91147,-3.06219 1.0051,-3.84472 0.23155,-1.93521 0.32424,-2.16479 0.80099,-1.98181 0.25323,0.0971 0.48419,0.79431 0.59996,1.81229 0.47824,4.2055 3.14088,9.57766 6.5469,13.20747 4.09161,4.36034 8.39939,6.76638 14.16297,7.91168 l 1.65726,0.32917 0.339516,-0.0164 -0.201016,0.0445 0.201016,0.0398 -0.406696,0.005 -2.06499,0.45423 c -5.31387,1.1692 -9.80621,3.71679 -13.5506,7.6843 -1.26579,1.3412 -2.86615,3.43622 -3.56826,4.67103 -1.54954,2.72508 -2.95517,6.69446 -3.15641,8.91365 -0.10747,1.1855 -0.26811,1.64383 -0.57671,1.64383 -0.23532,0 -0.46978,-0.14202 -0.52089,-0.31522 -0.0511,-0.1732 -0.16941,-0.95538 -0.26304,-1.73789 -0.2509,-2.09698 -1.66332,-5.95551 -3.11298,-8.5049 -1.55566,-2.73579 -5.09215,-6.54648 -7.73855,-8.338 -2.03332,-1.37644 -4.33276,-2.49777 -6.67401,-3.28557 v 16.57779 c 4.00426,4.01746 8.41422,6.38929 13.48961,7.24659 2.8079,0.47419 3.10708,1.10826 0.66766,1.41386 -5.06718,0.635 -10.20435,3.40799 -14.15727,7.3334 v 16.62173 c 1.0116,-0.33858 2.04246,-0.73445 3.06234,-1.20456 7.20774,-3.32222 13.03742,-10.78241 14.30611,-18.3069 0.45721,-2.71171 0.47932,-2.7678 0.99373,-2.5704 0.25141,0.097 0.44701,0.51946 0.44701,0.96637 0,1.2895 1.04794,5.00692 2.00815,7.12462 3.54401,7.81611 11.30828,13.78005 19.45826,14.94586 0.91501,0.13089 1.357536,0.33359 1.357536,0.6227 0,0.28919 -0.442526,0.49231 -1.357536,0.62322 -9.01475,1.2895 -17.2249,8.23069 -20.33057,17.18808 -0.45689,1.31781 -0.91507,3.1405 -1.01854,4.0504 -0.11577,1.01801 -0.34673,1.71521 -0.59996,1.81229 -0.22635,0.087 -0.45785,-0.0103 -0.51418,-0.20101 -0.0563,-0.19719 -0.2561,-1.26994 -0.4439,-2.38384 -1.26869,-7.52448 -7.09837,-14.98417 -14.30611,-18.30636 -1.01988,-0.47011 -2.05074,-0.86601 -3.06234,-1.2046 v 16.5344 c 0.0196,0.0198 0.0361,0.0397 0.0558,0.0594 4.00443,4.00442 8.05358,6.23134 12.96923,7.13344 1.02264,0.18769 2.14904,0.3946 2.50321,0.45939 1.26304,0.23141 0.38725,0.89974 -1.4273,1.08934 -2.36056,0.24681 -6.10278,1.5665 -8.87181,3.12849 -1.47134,0.82997 -3.44349,2.47068 -5.22914,4.23746 v 16.5897 c 7.08259,-2.30537 13.41251,-8.18238 16.18971,-15.40114 0.70571,-1.8343 0.9978,-2.95468 1.62987,-6.25078 0.22674,-1.1825 0.90413,-0.41603 1.07229,1.21335 0.2242,2.17213 1.64313,6.12545 3.15072,8.77674 0.7002,1.23139 2.29992,3.32676 3.55482,4.65656 4.27832,4.53321 8.76702,6.84371 15.76908,8.1163 1.079686,0.19622 0.724966,0.99529 -0.44184,0.99529 -1.40663,0 -4.86109,0.97999 -7.21197,2.04589 -5.56048,2.52119 -10.36582,7.36184 -12.93668,13.03176 -0.96713,2.13288 -1.96681,5.78241 -1.96681,7.17992 0,1.12598 -0.79519,1.6288 -0.99477,0.62889 -0.0707,-0.3542 -0.28002,-1.49472 -0.46509,-2.53421 -1.33213,-7.4817 -7.13591,-14.84971 -14.30662,-18.16272 -0.93755,-0.43318 -1.99576,-0.82182 -3.04271,-1.1684 v 16.60054 c 1.12934,1.15083 2.29479,2.20221 3.27783,2.9037 3.09779,2.21048 7.60536,4.02963 11.01794,4.44624 1.02315,0.12491 1.46089,0.30829 1.46089,0.61288 0,0.312 -0.47797,0.49467 -1.6893,0.64595 -2.34811,0.2933 -6.15921,1.65976 -8.84236,3.17035 -1.47088,0.82806 -3.44074,2.46676 -5.225,4.23333 v 5.35266 h 14.10611 c 1.6615,-2.68844 2.83008,-5.63145 3.33779,-8.6372 0.27306,-1.61681 0.50574,-2.2603 0.83405,-2.30838 0.3538,-0.052 0.49573,0.32404 0.63821,1.68722 0.10076,0.96459 0.55927,2.84398 1.01854,4.1765 0.61098,1.77253 1.43246,3.47602 2.42053,5.08186 h 18.33119 c -3.84012,-6.66293 -11.22081,-11.8685 -18.38803,-12.76668 -2.1449,-0.26868 -2.22529,-0.9938 -0.13849,-1.24849 3.15162,-0.3847 7.68372,-2.13683 10.51047,-4.06331 2.03044,-1.3838 5.19359,-4.49329 6.67557,-6.56241 2.194876,-3.06448 4.018666,-7.58558 4.434866,-10.99518 0.12514,-1.02521 0.30831,-1.4609 0.61443,-1.4609 0.30612,0 0.48929,0.43569 0.61443,1.4609 0.4162,3.4096 2.23948,7.9307 4.43436,10.99518 1.48198,2.06912 4.64512,5.17861 6.67556,6.56241 2.887503,1.96789 8.538263,4.09638 10.875303,4.09638 0.75694,0 0.95086,0.11835 0.95086,0.58137 0,0.46289 -0.19392,0.58134 -0.95086,0.58134 -2.55932,0 -8.23601,2.2337 -11.382253,4.47882 -2.55989,1.82668 -5.90678,5.5019 -7.40264,8.12922 -0.038,0.0668 -0.0748,0.143 -0.11266,0.21135 h 18.357533 c 1.12708,-1.81814 2.04185,-3.76198 2.66031,-5.79811 0.35359,-1.16409 0.72562,-2.79495 0.82682,-3.62405 0.25181,-2.06291 0.9851,-2.09085 1.23455,-0.047 0.3973,3.25477 1.63713,6.508 3.48506,9.4692 h 14.11492 v -5.46738 c -1.13568,-1.13538 -2.32342,-2.1943 -3.28716,-2.88457 -3.11296,-2.22959 -8.80301,-4.46744 -11.35952,-4.46744 -0.75692,0 -0.95083,-0.11845 -0.95083,-0.58134 0,-0.46712 0.19368,-0.58137 0.98494,-0.58137 1.40808,0 5.70801,-1.30214 7.82383,-2.36884 2.54911,-1.28529 4.81844,-2.92502 6.78874,-4.89169 v -16.79329 c -4.90829,1.65676 -10.0901,5.39194 -13.16924,9.7069 -2.23039,3.12571 -4.46329,8.80925 -4.46329,11.36054 0,0.7569 -0.11893,0.95084 -0.58187,0.95084 -0.46709,0 -0.58137,-0.19376 -0.58137,-0.98494 0,-1.4007 -1.29799,-5.69931 -2.36265,-7.82381 -3.61114,-7.20582 -11.533873,-13.14008 -18.723923,-14.02501 -1.65163,-0.20328 -2.30786,-0.55446 -1.99161,-1.06606 0.0788,-0.1276 0.56345,-0.23203 1.07694,-0.23203 2.32069,0 7.98076,-2.1353 10.858263,-4.09639 3.39821,-2.3159 6.92063,-6.3531 8.78033,-10.06398 1.06466,-2.1245 2.36265,-6.42321 2.36265,-7.82381 0,-0.79132 0.11428,-0.98497 0.58137,-0.98497 0.46294,0 0.58187,0.19394 0.58187,0.95084 0,2.55651 2.2378,8.24653 4.46741,11.35951 1.48199,2.06912 4.64514,5.17869 6.67557,6.56241 1.63981,1.11757 4.17545,2.27819 6.48955,3.08147 v -16.69407 c -3.56823,-3.55418 -8.12123,-6.11873 -12.98062,-7.00993 -1.03942,-0.1905 -2.17953,-0.39915 -2.5337,-0.46405 -1.08173,-0.19809 -0.47546,-0.98443 0.75914,-0.98443 2.565,0 7.6449,-1.90643 10.90321,-4.09173 1.21301,-0.81357 2.59363,-1.98469 3.85197,-3.22152 v -16.7442 c -7.37468,2.3963 -13.86769,8.66256 -16.5153,16.3437 -0.4637,1.34541 -0.93779,3.19517 -1.05314,4.11086 -0.1959,1.55501 -0.55648,2.14162 -1.02733,1.67071 -0.10993,-0.11001 -0.2,-0.62169 -0.2,-1.13688 0,-2.348 -2.10788,-7.85858 -4.16409,-10.88668 -1.31667,-1.9389 -4.45847,-5.12268 -6.4947,-6.58098 -3.112953,-2.2297 -8.802983,-4.46744 -11.359503,-4.46744 -0.75693,0 -0.95085,-0.11888 -0.95085,-0.58187 0,-0.46702 0.19421,-0.58137 0.98547,-0.58137 1.4006,0 5.6988,-1.29794 7.82331,-2.36265 4.927073,-2.46909 9.288033,-6.82292 11.768273,-11.74864 1.05793,-2.101 2.10005,-5.42047 2.35333,-7.49565 0.25178,-2.0629 0.98507,-2.09094 1.23455,-0.047 0.41574,3.40601 2.2357,7.92036 4.43539,11.00296 1.40899,1.97448 4.63085,5.14131 6.61821,6.5045 1.83592,1.25941 4.22429,2.39511 6.54638,3.16621 v -16.71733 c -1.95726,-1.96971 -4.1706,-3.6309 -6.4389,-4.76662 -2.26777,-1.13549 -5.64494,-2.24118 -7.55923,-2.47478 -1.25973,-0.15381 -1.74458,-0.33394 -1.74458,-0.64802 0,-0.30642 0.44508,-0.48898 1.50738,-0.61857 3.89671,-0.4757 8.67468,-2.57527 12.13414,-5.33196 0.73332,-0.58439 1.43232,-1.22008 2.10119,-1.89035 v -16.7262 c -6.78194,2.23684 -12.4958,7.20797 -15.44299,13.58678 -1.13999,2.4674 -2.18954,6.02184 -2.18954,7.41505 0,0.757 -0.11893,0.95084 -0.58187,0.95084 -0.46297,0 -0.58137,-0.19384 -0.58137,-0.95084 v 0 c 0,-2.33711 -2.12852,-7.98782 -4.09638,-10.8753 -1.37904,-2.02351 -4.49466,-5.19604 -6.5159,-6.63474 -3.124123,-2.22361 -6.275733,-3.56473 -10.214873,-4.34756 l -1.84847,-0.3674 -0.14779,-0.003 0.0687,-0.014 -0.0687,-0.0135 0.14986,-0.003 1.8464,-0.36689 c 5.32273,-1.0577 9.167523,-3.05599 13.082403,-6.79961 4.21153,-4.02733 7.07396,-9.46835 7.70599,-14.64665 0.25178,-2.0629 0.98507,-2.09089 1.23455,-0.047 0.3847,3.15161 2.13738,7.68429 4.06384,10.51097 1.37901,2.02348 4.49466,5.19615 6.51589,6.63474 2.23203,1.5888 4.483,2.7209 7.02025,3.52692 V 237.0405 c -1.70673,-1.66256 -3.65813,-3.23141 -5.2364,-4.12999 -2.6021,-1.48159 -6.50216,-2.89401 -8.6868,-3.14605 -2.14601,-0.24763 -2.68475,-1.25058 -0.6718,-1.25058 1.43158,0 5.71873,-1.31681 7.9494,-2.44171 2.44785,-1.23441 4.69834,-2.88253 6.6456,-4.82039 v -16.72093 c -1.71755,0.57933 -3.53367,1.36364 -5.02968,2.21536 -2.62252,1.49309 -6.29862,4.84142 -8.12406,7.39955 -2.24509,3.14624 -4.47879,8.8229 -4.47879,11.38224 0,0.75695 -0.11893,0.95086 -0.58187,0.95086 -0.46709,0 -0.58137,-0.19368 -0.58137,-0.98496 0,-1.4006 -1.29799,-5.69929 -2.36265,-7.82381 -3.00347,-5.99316 -8.51617,-10.82271 -14.866793,-13.02452 -1.31778,-0.45693 -3.15432,-0.91675 -4.0814,-1.02216 -1.33113,-0.15137 -1.66674,-0.2899 -1.59577,-0.65836 0.0608,-0.31531 0.54481,-0.53197 1.49345,-0.66765 8.015383,-1.14655 15.726133,-6.98426 19.223633,-14.55418 1.13996,-2.46732 2.18953,-6.02133 2.18953,-7.41452 0,-0.75695 0.1184,-0.95083 0.58137,-0.95083 0.46294,0 0.58187,0.19388 0.58187,0.95083 0,2.55651 2.2378,8.24653 4.46741,11.35951 1.45847,2.03624 4.64199,5.17801 6.58101,6.49471 1.87563,1.27362 4.25768,2.40622 6.58411,3.18222 v -16.76125 c -1.01055,-1.01642 -2.10434,-1.95482 -3.2856,-2.79776 -3.21781,-2.29618 -8.81565,-4.46381 -11.52798,-4.46381 -0.90773,0 -1.0991,-0.0952 -1.01957,-0.5085 0.0722,-0.37553 0.49221,-0.55719 1.60195,-0.69297 0.82703,-0.10123 2.45501,-0.4731 3.61788,-0.82632 4.02241,-1.22177 7.63596,-3.43257 10.61332,-6.41459 v -16.70182 c -1.73718,0.59028 -3.56452,1.37451 -5.04984,2.21073 -2.95699,1.6647 -7.37098,5.98937 -9.07852,8.89505 -1.63795,2.78733 -2.83861,5.94995 -3.30316,8.70024 -0.35417,2.09688 -0.68096,2.72656 -1.16425,2.24327 -0.10993,-0.10993 -0.2,-0.60598 -0.2,-1.10225 0,-2.28762 -2.15921,-7.99817 -4.07934,-10.789 -1.43023,-2.07872 -4.56544,-5.28129 -6.5722,-6.7133 -3.082613,-2.19969 -7.596483,-4.01912 -11.002443,-4.43486 -2.04381,-0.24948 -2.01579,-0.98277 0.047,-1.23455 9.216283,-1.1249 17.919753,-8.65455 20.741373,-17.94412 0.35359,-1.16412 0.72562,-2.79495 0.82682,-3.62408 0.25181,-2.0629 0.9851,-2.09092 1.23455,-0.047 0.94557,7.74645 6.61577,15.50403 14.07874,19.26188 0.98822,0.49758 2.25023,0.9851 3.52124,1.39526 v -16.65531 c -1.1357,-1.13541 -2.32342,-2.19432 -3.28716,-2.8846 -3.11296,-2.22961 -8.80301,-4.46741 -11.35952,-4.46741 -0.75692,0 -0.95083,-0.11842 -0.95083,-0.58137 0,-0.46706 0.19368,-0.58187 0.98494,-0.58187 1.40808,0 5.70801,-1.30156 7.82383,-2.36834 2.54911,-1.28526 4.81844,-2.92499 6.78874,-4.89169 v -5.57329 h -14.12985 c -1.86754,3.20445 -3.50264,7.66604 -3.50264,9.84745 0,0.75694 -0.11893,0.95086 -0.58187,0.95086 -0.46709,0 -0.58137,-0.19371 -0.58137,-0.98497 0,-1.4006 -1.29799,-5.69933 -2.36265,-7.82381 -0.3393,-0.67707 -0.72821,-1.33805 -1.13945,-1.98953 h -18.390623 c 0.42935,0.77277 0.88145,1.51199 1.35599,2.17453 1.48198,2.06909 4.64512,5.17861 6.67556,6.56241 2.887503,1.96786 8.538263,4.09638 10.875303,4.09638 0.75694,0 0.95086,0.11893 0.95086,0.58187 0,0.46295 -0.19392,0.58137 -0.95086,0.58137 -2.55932,0 -8.23601,2.23367 -11.382253,4.47879 -2.55989,1.82671 -5.90678,5.50191 -7.40264,8.12922 -1.51087,2.65366 -2.92693,6.60127 -3.15278,8.78964 -0.13209,1.27974 -0.26227,1.57149 -0.7028,1.57149 -0.41701,0 -0.54105,-0.21775 -0.54105,-0.95086 0,-1.39319 -1.04955,-4.9477 -2.18953,-7.41505 -3.467016,-7.5039 -11.528456,-13.57402 -19.325446,-14.55105 -2.1449,-0.26876 -2.22529,-0.99325 -0.13849,-1.24799 3.15162,-0.38468 7.68372,-2.13735 10.51047,-4.06381 2.03044,-1.3838 5.19359,-4.49332 6.67557,-6.56241 0.47453,-0.66252 0.92665,-1.40179 1.35599,-2.17453 h -18.36478 c -0.58296,0.93856 -1.1086,1.9087 -1.56115,2.90679 -0.96713,2.13291 -1.96681,5.78247 -1.96681,7.17992 0,1.12599 -0.79519,1.6283 -0.99477,0.62838 -0.0707,-0.35414 -0.28002,-1.49426 -0.46509,-2.5337 -0.50088,-2.8131 -1.63476,-5.60993 -3.23495,-8.18139 z m 14.86472,0 c 1.28923,2.23184 2.41639,4.85238 2.82154,6.65488 0.1887,0.83953 0.43885,1.52652 0.55552,1.52652 0.11667,0 0.30231,-0.49067 0.41289,-1.09035 0.30659,-1.66264 1.63378,-4.79872 2.97244,-7.09105 z m 26.52967,0 c -0.9958,1.76792 -2.20695,3.49179 -3.57342,5.04569 -2.91066,3.30986 -8.22061,6.6035 -12.42406,7.70599 -1.0645,0.27919 -1.9358,0.57721 -1.9358,0.66196 0,0.0847 0.88327,0.40119 1.96267,0.70331 4.29465,1.20222 7.59698,3.11275 11.06497,6.4017 3.51705,3.33547 6.750326,8.84439 7.477056,12.73977 0.11187,0.59971 0.30512,1.09038 0.42943,1.09038 0.12432,0 0.31668,-0.49067 0.42737,-1.09038 0.61257,-3.31859 3.42892,-8.44838 6.37739,-11.61582 3.30581,-3.55131 8.015503,-6.47647 12.166183,-7.5556 1.07939,-0.28064 1.96268,-0.58925 1.96268,-0.68627 0,-0.097 -0.67064,-0.33168 -1.49037,-0.52089 -6.54529,-1.51085 -12.878603,-6.6562 -16.435163,-12.87984 z m 25.822719,0 c 1.07469,1.933 2.15924,4.37515 2.61017,6.00068 0.26617,0.95945 0.55221,1.94087 0.63563,2.18072 0.0834,0.23987 0.38963,-0.47948 0.68057,-1.59885 0.29093,-1.11938 0.92249,-2.90553 1.40303,-3.96928 0.40195,-0.88982 0.88148,-1.75916 1.39938,-2.61327 z m -67.217109,6.32931 v 14.19604 c 1.97782,-1.92424 4.19404,-3.56471 6.45232,-4.71236 1.34168,-0.68183 5.47616,-2.10736 6.11177,-2.10736 1.06932,0 0.25311,-0.51517 -1.56218,-0.98599 -3.78268,-0.9811 -7.70656,-3.29388 -11.00191,-6.39033 z m 88.776529,0.0419 c -1.15404,1.09389 -2.40888,2.09624 -3.74862,2.98585 -2.51259,1.66841 -6.02351,3.23305 -8.14163,3.6282 -0.59965,0.11187 -1.09037,0.30562 -1.09037,0.42995 0,0.12433 0.49072,0.31628 1.09037,0.42685 3.46578,0.63908 8.56298,3.48377 11.89025,6.63112 z m -70.519769,11.98634 c -0.10307,0 -0.36154,0.75223 -0.57412,1.67171 -1.94888,8.43042 -9.39599,16.23793 -17.68264,18.66554 v 1.77665 c 2.37833,0.75959 5.74467,2.45647 7.77989,3.95997 1.99428,1.47327 5.24017,4.94778 6.60631,7.07138 1.32044,2.05256 2.49463,4.63696 3.10679,6.83784 0.2661,0.95671 0.55221,1.93572 0.63562,2.17556 0.0834,0.23987 0.39059,-0.47998 0.68264,-1.59938 0.29206,-1.11937 0.87718,-2.8104 1.3007,-3.7579 3.22046,-7.20476 10.05478,-13.09849 17.37002,-14.97997 1.16359,-0.29929 1.91934,-0.60706 1.67948,-0.68368 -0.23987,-0.0766 -1.56804,-0.4921 -2.95176,-0.92345 -5.4218,-1.69011 -10.51487,-5.58845 -13.88598,-10.62829 -1.74218,-2.60461 -3.34708,-6.25559 -3.68867,-8.39173 -0.10505,-0.65683 -0.27518,-1.19425 -0.37828,-1.19425 z m 52.315189,0.29093 c -0.0943,0 -0.40582,0.90877 -0.69197,2.01951 -1.91278,7.4253 -8.4388,14.54434 -16.035703,17.49299 -1.11938,0.43449 -2.52572,0.88132 -3.12539,0.99271 -1.10479,0.20527 -1.51537,0.71583 -0.58136,0.72295 1.07826,0.009 5.36399,1.71961 7.621763,3.04324 5.85639,3.43339 11.28583,10.67636 12.3734,16.50595 0.19357,1.03754 0.72038,1.54014 0.72038,0.68731 0,-1.01505 1.65166,-5.21423 2.95174,-7.50446 3.13196,-5.51712 9.17895,-10.38905 14.97172,-12.13879 v -1.78078 c -8.1202,-2.41252 -15.55761,-10.15683 -17.65113,-18.51411 -0.21031,-0.83953 -0.45921,-1.52652 -0.55345,-1.52652 z m -26.176713,23.55051 c 0.46294,0 0.58136,0.19389 0.58136,0.95084 0,2.55651 2.23779,8.24656 4.46743,11.35951 1.48198,2.06912 4.64512,5.17861 6.67556,6.56238 2.824563,1.92498 7.357033,3.67784 10.506873,4.06334 1.06767,0.13065 1.48267,0.31435 1.55442,0.68728 0.0778,0.40431 -0.10591,0.50851 -0.89453,0.50851 -2.79723,0 -8.42086,2.15812 -11.673713,4.47931 -2.55989,1.82671 -5.90678,5.50191 -7.40264,8.12922 -1.49677,2.6289 -2.87362,6.45009 -3.1688,8.79327 -0.19586,1.55482 -0.78318,2.39813 -1.0573,1.51876 -0.0665,-0.2132 -0.19731,-1.02769 -0.29094,-1.81023 -0.24917,-2.08264 -1.65654,-5.94 -3.110916,-8.52712 -1.73551,-3.08716 -6.24783,-7.596 -9.35603,-9.34932 -2.72825,-1.53895 -6.41518,-2.84935 -8.78241,-3.12123 -2.43082,-0.27919 -2.84868,-1.26 -0.54157,-1.27125 1.26631,-0.007 5.64516,-1.30995 7.46363,-2.2226 5.50601,-2.76337 9.83249,-7.13468 12.258176,-12.38478 1.13998,-2.46732 2.18953,-6.02186 2.18953,-7.41505 0,-0.75695 0.11892,-0.95084 0.58187,-0.95084 z m 0.0139,2.61689 c -0.11667,0 -0.36683,0.68646 -0.55553,1.52601 -1.85601,8.25741 -9.720796,16.32151 -18.211806,18.67326 -0.95947,0.26575 -1.94089,0.55171 -2.18075,0.63511 -0.23987,0.0834 0.48002,0.38965 1.59939,0.68059 7.54128,1.95998 14.31513,7.81738 17.475936,15.11122 0.53879,1.24325 1.13473,2.93095 1.32395,3.75068 0.18921,0.81968 0.42126,1.49035 0.51573,1.49035 0.0945,0 0.41985,-0.88278 0.72347,-1.96215 2.19673,-7.80952 8.22232,-14.44638 15.868283,-17.47854 1.19933,-0.47561 2.67095,-0.95551 3.27062,-1.06608 0.59966,-0.11057 1.09038,-0.29461 1.09038,-0.40928 0,-0.11465 -0.66194,-0.36145 -1.47124,-0.54827 -5.75353,-1.32808 -11.646333,-5.5753 -15.291073,-11.02157 -1.63245,-2.43932 -3.38912,-6.32605 -3.74705,-8.29095 -0.10922,-0.59968 -0.29364,-1.09038 -0.41031,-1.09038 z m 44.367343,13.87356 c -3.35836,3.22564 -7.45512,5.59348 -11.50938,6.52934 -0.80936,0.18682 -1.47124,0.42732 -1.47124,0.53432 0,0.10705 0.68699,0.34925 1.52651,0.53795 0.83955,0.1887 2.50743,0.77412 3.70676,1.30122 2.85658,1.25542 5.48513,3.0498 7.74735,5.20124 z m -88.776539,0.0289 V 183.856 c 3.23828,-3.07629 7.2074,-5.42489 11.39517,-6.5133 1.11937,-0.29094 1.83926,-0.59545 1.59939,-0.67644 -0.23987,-0.081 -1.41286,-0.43214 -2.60656,-0.78033 -3.80601,-1.11017 -7.39179,-3.25665 -10.388,-6.15569 z m 70.516659,12.21838 c -0.0159,0 -0.0289,0.0161 -0.0382,0.046 -1.75078,5.60303 -2.32082,6.91745 -4.17703,9.62941 -1.81383,2.65004 -4.6001,5.39837 -7.51427,7.41246 -1.52662,1.05502 -5.200353,2.6984 -7.212483,3.22614 -1.07032,0.28072 -1.94613,0.58605 -1.94613,0.67852 0,0.0925 0.68697,0.3397 1.52652,0.54933 5.557813,1.38753 11.866083,5.80612 15.112253,10.58487 1.3833,2.03629 2.93992,5.37424 3.5786,7.67448 0.25604,0.92204 0.53361,1.87275 0.61703,2.11254 0.0834,0.23995 0.38891,-0.48435 0.6785,-1.60973 0.28956,-1.12532 0.95382,-2.95719 1.4764,-4.07056 3.22755,-6.87636 9.22145,-12.16782 16.15872,-14.34177 v -1.85002 c -0.12526,-0.0391 -0.1433,-0.0451 -0.27028,-0.0847 -6.64633,-2.07314 -12.98561,-7.75624 -15.93442,-14.28544 -0.49453,-1.09492 -1.13742,-2.90674 -1.42835,-4.02611 -0.25456,-0.97946 -0.51536,-1.65301 -0.62683,-1.64536 z m -52.288829,0.046 c -0.12432,0 -0.31699,0.4907 -0.4284,1.09037 -0.68074,3.66409 -3.28785,8.3497 -6.58203,11.82979 -3.18175,3.36127 -7.3318,5.98197 -11.2174,7.14735 v 1.76165 c 5.42621,1.71066 11.01314,5.92243 14.26476,10.83656 1.34403,2.03121 2.95189,5.64809 3.42822,7.71166 0.18921,0.81978 0.42703,1.49037 0.52865,1.49037 0.10165,0 0.41896,-0.90176 0.70486,-2.00404 0.68474,-2.63998 2.84211,-6.80296 4.79662,-9.25523 1.69952,-2.13227 4.49936,-4.66087 6.66471,-6.01877 1.70433,-1.06878 5.24277,-2.57561 7.24711,-3.0861 0.83954,-0.21383 1.52653,-0.4659 1.52653,-0.56017 0,-0.0943 -0.9043,-0.40407 -2.0097,-0.68884 -7.44929,-1.91897 -14.40613,-8.26188 -17.43152,-15.8931 -0.47548,-1.19933 -0.95499,-2.67145 -1.06556,-3.27113 -0.11058,-0.59967 -0.30253,-1.09037 -0.42685,-1.09037 z m 26.165346,23.34948 c 0.24597,-0.009 0.49176,0.49474 0.6165,1.5167 0.94612,7.7511 6.56495,15.47087 13.984163,19.21227 2.23068,1.12485 6.51783,2.4412 7.94938,2.4412 2.01298,0 1.47424,1.00296 -0.67177,1.25058 -2.17141,0.25056 -6.06899,1.65796 -8.71215,3.14606 -3.101003,1.74577 -7.603513,6.24829 -9.349303,9.34929 -1.51771,2.69586 -2.92824,6.63998 -3.15278,8.81549 -0.13209,1.27979 -0.26227,1.57096 -0.7028,1.57096 -0.41701,0 -0.54105,-0.21785 -0.54105,-0.95086 0,-2.55928 -2.2337,-8.23645 -4.478796,-11.38277 -1.8267,-2.55984 -5.50191,-5.90624 -8.12923,-7.40211 -2.64153,-1.50403 -6.45536,-2.87539 -8.81703,-3.17035 -1.21135,-0.15131 -1.68931,-0.33398 -1.68931,-0.64598 0,-0.30456 0.43775,-0.48802 1.4609,-0.61288 3.15162,-0.3847 7.68372,-2.13741 10.51047,-4.06381 2.02346,-1.37899 5.1961,-4.49467 6.63475,-6.5159 2.319286,-3.25845 4.043316,-7.49877 4.470006,-10.99468 0.1259,-1.03145 0.37208,-1.55384 0.61805,-1.56321 z m -0.0346,2.81792 c -0.10417,0 -0.28009,0.49072 -0.39067,1.09037 -0.30359,1.64637 -1.78887,5.21274 -3.081466,7.39905 -1.52154,2.57334 -5.25491,6.48041 -7.86723,8.23307 -2.40775,1.61544 -5.81299,3.17148 -8.03155,3.67006 -0.83954,0.18872 -1.52652,0.43836 -1.52652,0.55501 0,0.11666 0.49071,0.30417 1.09037,0.41601 5.38213,1.00412 12.34565,5.95969 15.8807,11.30215 1.344016,2.03121 2.951866,5.64804 3.428206,7.71165 0.18921,0.81971 0.43778,1.49038 0.55242,1.49035 0.11467,0 0.29746,-0.49067 0.4067,-1.09035 0.63225,-3.47078 3.91117,-9.25134 7.02024,-12.37652 3.07708,-3.09293 8.912493,-6.40736 12.398743,-7.04247 1.3438,-0.24471 1.40383,-0.5883 0.13849,-0.79375 -1.80547,-0.29292 -5.71765,-1.99369 -7.97677,-3.468 -5.545063,-3.61865 -9.544433,-8.978 -11.294413,-15.13395 -0.30684,-1.0794 -0.64312,-1.96268 -0.74725,-1.96268 z m -44.358546,13.86737 v 14.14695 c 3.16354,-3.03408 7.00871,-5.31617 11.05359,-6.39392 1.06752,-0.28448 1.94097,-0.59029 1.94097,-0.67956 0,-0.0893 -0.85941,-0.38817 -1.90945,-0.66352 -4.01468,-1.05301 -7.8987,-3.35944 -11.08511,-6.40995 z m 88.776539,0.009 c -3.31428,3.18497 -7.36495,5.57064 -11.55952,6.56704 -1.3956,0.33152 -1.91418,0.77784 -0.9126,0.78549 0.27982,0 1.56395,0.37079 2.85306,0.81957 3.54301,1.23344 6.84837,3.33772 9.61906,5.98207 z m -70.606589,12.24629 c -0.0169,0 -0.0309,0.0161 -0.0413,0.046 -0.0834,0.23979 -0.36952,1.21883 -0.63562,2.17558 -1.20694,4.33915 -3.32062,7.76653 -7.08484,11.48922 -3.1549,3.12012 -6.99245,5.44319 -10.40815,6.42337 v 1.04595 c 1.67635,0.50152 3.54317,1.2955 5.35523,2.31767 2.9196,1.64682 7.59311,6.23678 9.34982,9.18239 1.34768,2.25981 2.76787,5.66695 3.09438,7.42437 0.11141,0.59968 0.28829,1.09035 0.39326,1.09037 0.10493,0 0.4202,-0.875 0.70073,-1.94461 0.62648,-2.38868 2.76039,-6.69221 4.33101,-8.73381 1.57027,-2.04121 4.6442,-4.90734 6.82388,-6.36294 2.82916,-1.88918 6.80794,-3.36883 9.40408,-3.49692 l 0.21446,-0.0103 c -1.12577,-0.0169 -2.37129,-0.25836 -3.8561,-0.76327 -8.06953,-2.74359 -14.90474,-10.06753 -17.00156,-18.21696 -0.25465,-0.98975 -0.52075,-1.67174 -0.63924,-1.66605 z m 52.597849,0.0119 c -0.16277,-0.13018 -0.53297,0.67577 -0.88781,2.05311 -0.64185,2.49171 -2.60974,6.40355 -4.37544,8.69818 -3.99436,5.19104 -10.832893,9.42946 -15.710153,9.85623 4.75976,0.44588 11.520693,4.54935 15.493113,9.52706 1.71374,2.14752 3.83427,6.28489 4.54444,8.8677 0.74011,2.69179 0.7752,2.72262 1.17924,1.01801 0.57727,-2.4353 2.21824,-6.09346 3.77341,-8.41137 3.13952,-4.67937 9.06688,-8.96511 13.99194,-10.46914 v -1.07124 c -1.78991,-0.53869 -3.79852,-1.43262 -5.75575,-2.60295 -3.02469,-1.80869 -7.3002,-6.1554 -9.10487,-9.25626 -1.28791,-2.21305 -3.06284,-6.70666 -3.06284,-7.75406 0,-0.26493 -0.031,-0.41188 -0.0853,-0.45527 z m -26.374113,22.72006 c 0.3119,0 0.49465,0.478 0.64596,1.68931 0.29501,2.3617 1.66639,6.17554 3.17035,8.81703 1.49586,2.62729 4.84275,6.30251 7.40265,8.12922 3.097773,2.21048 7.605353,4.02963 11.017943,4.44624 1.02521,0.1251 1.46037,0.30832 1.46037,0.61442 0,0.30612 -0.43516,0.48924 -1.46037,0.61444 -3.40966,0.41611 -7.93078,2.23956 -10.995213,4.43436 -2.06911,1.48199 -5.17862,4.64505 -6.56238,6.67555 -1.96787,2.8875 -4.0964,8.53831 -4.0964,10.87532 0,0.66001 -0.13639,0.95084 -0.44545,0.95084 -0.24489,0 -0.48998,-0.16338 -0.54467,-0.36328 -0.0548,-0.19992 -0.258,-1.21422 -0.45217,-2.25361 -1.0054,-5.38239 -4.187266,-10.73097 -8.650636,-14.54227 -3.353,-2.86319 -8.58358,-5.25576 -12.58528,-5.75728 -2.1449,-0.26879 -2.22529,-0.9938 -0.13849,-1.24849 3.15162,-0.3847 7.68372,-2.13683 10.51047,-4.06331 2.03044,-1.38383 5.19359,-4.49331 6.67557,-6.56241 2.194876,-3.06448 4.018666,-7.58558 4.434866,-10.99518 0.1249,-1.0232 0.30822,-1.4609 0.61288,-1.4609 z m -0.0129,2.76212 c -0.0917,0 -0.33691,0.68691 -0.54518,1.52651 -1.74465,7.03289 -7.056586,13.51053 -13.893216,16.94212 -1.37285,0.689 -3.39276,1.48571 -4.48862,1.7699 -1.09584,0.28422 -1.99264,0.60804 -1.99264,0.71935 0,0.11121 0.49071,0.29377 1.09037,0.40566 3.75151,0.6999 9.25512,3.86906 12.55015,7.22694 3.21639,3.27771 6.185456,8.54876 6.864176,12.18686 0.11187,0.59971 0.30512,1.09038 0.42943,1.09038 0.12432,0 0.31627,-0.49067 0.42685,-1.09038 0.11057,-0.5997 0.59134,-2.07129 1.06815,-3.27059 3.04456,-7.65821 9.88928,-13.85885 17.552433,-15.90085 1.03741,-0.27641 1.88619,-0.59161 1.88619,-0.70022 0,-0.10869 -0.49072,-0.28842 -1.09038,-0.39894 -0.59967,-0.1106 -2.04872,-0.58264 -3.21997,-1.04955 -7.749263,-3.08859 -13.745273,-9.67613 -15.924093,-17.49454 -0.30082,-1.07939 -0.62194,-1.96265 -0.71365,-1.96265 z m -44.380766,13.81207 v 14.21929 c 3.35365,-3.16598 8.35387,-6.00549 11.90418,-6.66782 0.59966,-0.11181 1.09037,-0.29445 1.09037,-0.40566 0,-0.11131 -0.89678,-0.43513 -1.99264,-0.71935 -3.99354,-1.03574 -7.83025,-3.3628 -11.00191,-6.42646 z m 88.776529,0.0946 c -2.25039,2.14948 -4.86326,3.92232 -7.72616,5.163 -1.25047,0.54189 -2.94438,1.14033 -3.76412,1.32964 -0.8197,0.18917 -1.49034,0.42984 -1.49034,0.53483 0,0.1049 0.66188,0.3434 1.47124,0.53022 4.05434,0.93586 8.15097,3.30406 11.50938,6.52981 z m -70.488239,12.2101 c -0.17579,0.0576 -0.40862,0.72628 -0.77722,2.08618 -1.11809,4.12491 -3.15293,7.60524 -6.48694,11.09494 -3.05332,3.19585 -7.21162,5.7872 -11.02413,6.93653 v 1.73373 c 3.81251,1.14924 7.97081,3.74015 11.02413,6.93603 3.25452,3.4064 5.37758,7.01802 6.49573,11.04841 0.25119,0.90541 0.52534,1.84267 0.60875,2.08257 0.0834,0.23989 0.38955,-0.48948 0.68058,-1.62058 0.29103,-1.13109 0.91882,-2.91555 1.39474,-3.96515 1.72329,-3.80058 5.11173,-7.99436 8.48528,-10.50168 2.21752,-1.6482 6.09833,-3.55785 8.47391,-4.16976 1.09914,-0.28321 1.99833,-0.60229 1.99833,-0.709 0,-0.10671 -0.49071,-0.28496 -1.09037,-0.39637 -1.74299,-0.32388 -5.15476,-1.74107 -7.39543,-3.07216 -5.58756,-3.31949 -11.15017,-10.96312 -12.0432,-16.54783 -0.1049,-0.65599 -0.20744,-0.98063 -0.34416,-0.93586 z m 52.390629,0.0414 c -0.16928,-0.0106 -0.41638,0.40942 -0.54364,1.09966 -0.29705,1.61102 -1.74064,5.0791 -3.04064,7.30499 -1.34745,2.30711 -4.35412,5.63907 -6.75826,7.48895 -2.28523,1.7585 -6.200673,3.72629 -8.688353,4.36719 -1.90298,0.49009 -2.64195,0.96848 -1.5105,0.97718 1.07289,0.0101 5.35896,1.71607 7.592813,3.02567 2.65483,1.55649 5.84372,4.38603 7.78248,6.90552 1.75842,2.28521 3.72634,6.20065 4.36716,8.68836 0.28615,1.1108 0.60749,2.01952 0.71417,2.01952 0.10673,0 0.28554,-0.49078 0.3974,-1.09038 1.08485,-5.81501 6.53217,-13.08118 12.37393,-16.50598 1.43431,-0.84092 3.68205,-1.83486 5.41105,-2.45255 v -1.77612 c -7.44466,-2.21322 -14.41043,-8.9562 -17.08889,-16.65066 -0.45466,-1.30601 -0.8283,-2.60313 -0.83044,-2.88303 -0.003,-0.35044 -0.0767,-0.51202 -0.17828,-0.51832 z m -25.960703,23.61097 c 0.19834,0.0554 0.25838,0.30324 0.25838,0.8785 0,2.57709 2.22919,8.25568 4.46743,11.3807 1.48198,2.0691 4.64512,5.17859 6.67556,6.56239 2.952803,2.01228 8.543523,4.09638 10.989523,4.09638 0.65085,0 1.12654,0.16007 1.22317,0.41185 0.17436,0.45432 -0.371,0.75086 -1.38131,0.75086 -1.27781,0 -5.28529,1.18629 -7.41143,2.19369 -6.210233,2.94238 -11.179283,8.52154 -13.445693,15.09675 -0.46374,1.34538 -0.93728,3.19556 -1.05265,4.11136 -0.19586,1.5547 -0.78318,2.39869 -1.0573,1.51929 -0.0665,-0.2133 -0.19731,-1.02814 -0.29094,-1.81075 -0.24917,-2.08259 -1.65654,-5.94003 -3.110916,-8.52712 -1.73551,-3.08719 -6.24783,-7.59601 -9.35603,-9.3493 -2.72825,-1.539 -6.41518,-2.84935 -8.78241,-3.12126 -2.43082,-0.27908 -2.84868,-1.25952 -0.54157,-1.27071 1.26631,-0.0101 5.64516,-1.31054 7.46363,-2.22314 7.74,-3.88458 13.264396,-11.26458 14.405846,-19.24428 0.13701,-0.95782 0.34153,-1.38269 0.69918,-1.45161 0.0998,-0.0193 0.18142,-0.022 0.24753,-0.004 z m -0.29094,2.56572 c -0.10671,0 -0.42734,0.90429 -0.7121,2.00969 -1.42527,5.53281 -5.842376,11.49972 -11.092866,14.98463 -2.09379,1.38969 -5.55699,2.93124 -7.63468,3.39825 -0.83954,0.18868 -1.52652,0.42805 -1.52652,0.53227 0,0.10429 0.68698,0.36131 1.52652,0.57102 5.78046,1.44309 11.97068,5.91987 15.44455,11.16986 1.344016,2.03118 2.951866,5.64796 3.428206,7.71168 0.18921,0.81968 0.42126,1.49034 0.51573,1.49034 0.0945,0 0.42283,-0.88328 0.72967,-1.96267 2.23197,-7.85152 8.21738,-14.44684 15.862073,-17.47851 1.19933,-0.47562 2.67095,-0.95499 3.27062,-1.06559 0.59966,-0.11059 1.09038,-0.29681 1.09038,-0.41341 0,-0.1167 -0.68699,-0.36631 -1.52654,-0.55499 -5.53538,-1.24412 -11.711883,-5.70127 -15.231623,-10.99108 -1.63886,-2.46298 -3.39438,-6.35241 -3.7512,-8.31112 -0.10922,-0.5997 -0.28552,-1.09037 -0.39222,-1.09037 z m -44.427276,13.83741 v 14.2167 c 3.27937,-3.13497 7.29185,-5.51571 11.46803,-6.55825 0.83953,-0.20971 1.52652,-0.47308 1.52652,-0.58499 0,-0.11179 -0.49071,-0.29488 -1.09037,-0.4067 -3.5919,-0.67008 -8.52398,-3.46945 -11.90418,-6.66676 z m 88.776529,0.0341 c -3.35736,3.2221 -7.463,5.59858 -11.55952,6.57169 -0.78166,0.18569 -1.4211,0.41492 -1.4211,0.50951 0,0.095 0.67064,0.32655 1.49034,0.51575 0.81974,0.18929 2.49989,0.78158 3.73362,1.3162 2.87086,1.2441 5.49582,3.02834 7.75666,5.19039 z m -70.583839,12.29588 c -0.10495,0 -0.28185,0.49016 -0.39326,1.08987 -0.32326,1.73998 -1.73951,5.15104 -3.0825,7.42434 -1.59823,2.70549 -6.10089,7.19696 -8.90798,8.88576 -1.67929,1.01032 -4.00143,2.05852 -5.80895,2.66237 v 1.75337 c 1.79269,0.61034 4.16366,1.66923 5.78311,2.62673 2.59202,1.5325 6.56431,5.33546 8.27288,7.92097 1.60782,2.43289 3.14178,5.8045 3.63027,7.97779 0.1887,0.8395 0.43885,1.52601 0.55552,1.52601 0.11667,0 0.30231,-0.49067 0.41289,-1.09037 0.3304,-1.79171 1.84601,-5.30768 3.28405,-7.61968 3.44887,-5.5449 9.90841,-10.34439 15.73239,-11.68869 0.8197,-0.1892 1.49034,-0.43772 1.49034,-0.55242 0,-0.11462 -0.49071,-0.29943 -1.09037,-0.41085 -3.46038,-0.64288 -8.20903,-3.20796 -11.38846,-6.15156 -3.84892,-3.56359 -6.63714,-8.01709 -7.80315,-12.4628 -0.2728,-1.0401 -0.58182,-1.89084 -0.68678,-1.89084 z m 52.374069,0.0512 c -0.15351,0.01 -0.30895,0.55033 -0.58549,1.63038 -1.53226,5.9835 -5.76123,11.69816 -11.52176,15.56856 -1.6052,1.0785 -5.417193,2.71825 -7.304473,3.14243 -0.83955,0.18863 -1.52652,0.43884 -1.52652,0.55555 0,0.11658 0.4907,0.30356 1.09037,0.41548 5.02621,0.93768 11.899103,5.62446 15.359773,10.47377 1.34117,1.8793 3.13346,5.63266 3.74862,7.85016 0.26617,0.9594 0.55221,1.94034 0.63563,2.18024 0.0834,0.2399 0.38963,-0.47958 0.68057,-1.59887 0.29093,-1.1194 0.92249,-2.90547 1.40303,-3.96928 v 0 c 2.06483,-4.5711 5.74074,-8.76393 10.18955,-11.62204 1.72487,-1.1081 4.12988,-2.233 6.04047,-2.87012 v -1.74046 c -3.47377,-1.13662 -7.98867,-3.84894 -10.75079,-6.57066 -3.0752,-3.0303 -5.82928,-7.78579 -6.88433,-11.88609 -0.26919,-1.04613 -0.42111,-1.56808 -0.57465,-1.55855 z m -26.164803,26.11572 c -0.0893,0 -0.38556,0.85124 -0.65836,1.89135 -0.93148,3.55139 -3.106816,7.47167 -5.922626,10.67377 -2.91066,3.3098 -8.22061,6.60296 -12.42406,7.70546 -1.0645,0.27921 -1.9358,0.57719 -1.9358,0.66198 0,0.085 0.88327,0.40111 1.96267,0.70332 4.29465,1.20219 7.59698,3.11277 11.06497,6.40167 1.79374,1.70114 3.50843,3.96783 4.85965,6.2973 h 6.125206 c 1.08983,-1.89238 2.38879,-3.73642 3.72639,-5.17332 3.30581,-3.55142 8.015503,-6.47592 12.166183,-7.5551 1.07939,-0.28069 1.96268,-0.58989 1.96268,-0.68678 0,-0.097 -0.67064,-0.33118 -1.49037,-0.52038 -8.422273,-1.9441 -16.515233,-9.8983 -18.758543,-18.43662 -0.28359,-1.07939 -0.58867,-1.96265 -0.67799,-1.96265 z m -44.401946,13.84789 v 14.19603 c 1.97776,-1.92415 4.19413,-3.56428 6.45232,-4.71186 1.34168,-0.6818 5.47616,-2.10788 6.11177,-2.10788 1.06932,0 0.25311,-0.51517 -1.56218,-0.98597 -3.7827,-0.98118 -7.70655,-3.29385 -11.00191,-6.39032 z m 88.776529,0.0419 c -1.15404,1.09389 -2.40888,2.09679 -3.74862,2.98638 -2.51259,1.66841 -6.02351,3.23299 -8.14163,3.6282 -0.59965,0.11181 -1.09037,0.30514 -1.09037,0.42945 0,0.1243 0.49072,0.31623 1.09037,0.42682 3.46578,0.63908 8.56298,3.48433 11.89025,6.63165 z m -70.519769,11.98687 c -0.10307,0 -0.36154,0.75223 -0.57412,1.67174 -0.54214,2.34516 -1.52073,4.63796 -2.81326,6.78614 h 6.74843 c -1.45214,-2.45322 -2.68808,-5.42123 -2.98277,-7.26416 -0.10505,-0.65681 -0.27518,-1.19372 -0.37828,-1.19372 z m 52.315189,0.29043 c -0.0943,0 -0.40582,0.90871 -0.69197,2.01951 -0.54213,2.10455 -1.46534,4.18055 -2.66805,6.14794 h 6.75618 c -1.28225,-2.10484 -2.26837,-4.34819 -2.84271,-6.64094 -0.21031,-0.8396 -0.45921,-1.52651 -0.55345,-1.52651 z" /><g
           id="g45"><g
             id="g2094-4-9"
             transform="matrix(-0.86403142,0.07076258,0.07076258,0.86403142,-35.174809,6.4953881)"
             style="display:inline"
             inkscape:label="top-sakura"><g
               id="g540-0-7-4"
               transform="translate(268.69567,-36.417917)"
               style="display:inline"
               inkscape:label="small-sakura"><path
                 id="path260-8-8-7"
                 style="display:inline;fill:none;stroke:#ff00ff;stroke-width:0.120988;stroke-dasharray:none"
                 d="m -163.68883,124.74702 c -0.29859,-0.29211 -0.76102,-0.62999 -1.40599,-1.0444 -2.02406,-1.30056 -4.93597,-1.21423 -5.543,0.1645 -0.73809,1.67642 -1.95945,3.38232 -3.69262,5.15758 -1.13569,1.16329 -1.14999,1.04474 0.20256,1.67497 5.86245,2.73169 9.1453,2.03654 11.16089,-2.363 0.42513,-0.92793 0.44579,-0.88216 -0.54107,-1.206 -0.41545,-0.1364 -0.78089,-0.27327 -0.81209,-0.30442 -0.0312,-0.0311 0.27218,-0.34426 0.6745,-0.69553 0.499,-0.43571 0.52688,-0.82606 -0.0432,-1.3837 z m -8.94283,-7.3573 c -0.19575,-0.19281 -0.40669,-0.38357 -0.6328,-0.5726 -0.63137,-0.52786 -0.68293,-0.54932 -0.80391,-0.33451 -0.77077,1.36806 -1.35604,1.24037 -1.73987,-0.37949 -0.0854,-0.36025 -2.88218,1.62227 -3.4912,2.47473 -1.42653,1.99671 -1.332,3.3648 0.35763,5.17335 1.36325,1.4592 2.16118,2.6074 3.07875,4.43012 0.23332,0.46351 0.455,0.88041 0.4921,0.92704 0.0395,0.0491 0.56798,-0.45945 1.26114,-1.21345 3.93462,-4.28057 4.41449,-7.61314 1.47816,-10.50519 z m 4.8186,16.15198 c -0.38557,-0.38392 -0.85886,-0.63516 -1.39673,-0.69928 -1.49269,-0.1779 -3.7612,-0.91838 -5.75955,-1.87971 -0.67402,-0.32424 -1.24325,-0.57184 -1.26459,-0.55046 -0.0214,0.0214 -0.10633,0.74233 -0.18891,1.6022 -0.30401,3.16541 -0.0428,5.42095 0.80095,6.91229 0.82788,1.46337 2.29872,2.29817 4.59348,2.60773 1.36155,0.18376 1.31965,0.2113 1.32482,-0.86515 0.005,-0.9431 0.004,-0.94321 0.72887,-0.51357 0.39852,0.23632 0.78255,0.46181 0.85327,0.50106 0.15013,0.0834 0.80608,-1.32397 1.15963,-2.48796 0.54633,-1.79877 0.13401,-3.64587 -0.85125,-4.62716 z m -11.97965,-9.80868 c -2.23149,-2.19505 -4.05438,-2.39669 -7.01563,-0.88432 -1.34321,0.68601 -1.32859,0.63622 -0.50009,1.71136 0.46942,0.6092 0.4882,0.58853 -0.63472,0.69751 -0.91268,0.0886 -0.91257,0.0885 -0.81998,0.66458 0.1431,0.89072 0.55451,2.20955 0.90924,2.91415 l 2.5e-4,2.5e-4 c 0.85861,1.70543 3.2167,3.02161 4.23324,2.36288 1.24259,-0.80519 3.13575,-1.45375 5.72302,-1.9609 1.90255,-0.37294 1.8322,-0.27618 1.10919,-1.53111 -0.97471,-1.69186 -1.38252,-2.25243 -2.55257,-3.5088 -0.15286,-0.16414 -0.30317,-0.31925 -0.45195,-0.46559 z m 2.95795,5.987 c -0.15762,-0.1452 -0.57125,0.0118 -1.43082,0.18545 -6.17105,1.24686 -8.34909,3.71272 -7.42114,8.40257 0.18921,0.95625 0.18896,0.95641 1.00486,0.68668 1.08729,-0.35946 1.10184,-0.34799 0.86763,0.69326 -0.23042,1.02456 -0.13154,1.07889 2.00527,1.10307 3.04138,0.0344 5.3768,-1.71585 4.90627,-3.67664 -0.21934,-0.91402 -0.28372,-4.13669 -0.10638,-5.32201 0.20283,-1.35541 0.35292,-1.90782 0.17433,-2.07237 z"
                 inkscape:transform-center-x="-0.31709322"
                 inkscape:transform-center-y="-0.63436207" /></g><g
               id="g540-6-9-5"
               transform="translate(244.92846,-61.157554)"
               style="display:inline;fill:none;fill-opacity:1"
               inkscape:label="big-sakura"><path
                 id="path260-2-0-9"
                 style="display:inline;fill:none;fill-opacity:1;stroke:#ff00ff;stroke-width:0.672;stroke-dasharray:none"
                 d="m -630.92188,446.78516 c -2.31996,0.0236 -5.46362,0.51013 -9.625,1.41211 -13.0597,2.83063 -24.16691,14.59692 -21.14257,22.39843 3.67736,9.48605 5.57078,20.98424 5.72461,34.76368 0.10083,9.02929 -0.42054,8.61943 7.36914,5.78906 33.76339,-12.2679 43.93955,-27.88284 34.59765,-53.08594 -1.97034,-5.31568 -1.70943,-5.2169 -6.85937,-2.61719 -2.16813,1.09448 -4.14181,1.99024 -4.38672,1.99024 -0.24454,0 -0.28109,-2.42134 -0.0781,-5.38086 0.25163,-3.67084 -1.17058,-5.31455 -5.59961,-5.26953 z m -64.02343,6.17382 c -1.52606,0.0103 -3.10378,0.0882 -4.73438,0.23243 -4.55312,0.40278 -4.84002,0.52078 -4.47265,1.83984 2.33884,8.40219 -0.46278,10.19698 -8.32813,5.33594 -1.74924,-1.08114 -4.96299,17.68697 -4.01172,23.42773 2.22819,13.44643 7.96845,18.45315 21.70703,18.93164 11.08472,0.38608 18.72692,1.76809 29.48633,5.33203 2.73612,0.90633 5.24345,1.6751 5.57227,1.71289 0.34771,0.038 0.42964,-4.03487 0.19531,-9.71875 -1.33175,-32.26602 -12.52317,-47.24862 -35.41406,-47.09375 z m 82.32422,44.58008 c -3.02224,0.004 -5.86848,0.87368 -8.23438,2.73242 -6.56549,5.15815 -18.38821,11.14968 -30.01562,15.2129 -3.92175,1.37045 -7.13086,2.63101 -7.13086,2.79882 0,0.16804 2.49522,3.33505 5.54492,7.03907 11.22663,13.6354 21.10472,21.47612 30.27344,24.02734 8.99675,2.50333 18.05414,0.0128 28.28906,-7.77539 6.07279,-4.62104 6.01666,-4.34764 1.8125,-8.59961 -3.683,-3.72491 -3.68458,-3.72434 0.84961,-4.87891 2.49384,-0.63496 4.88827,-1.25569 5.32031,-1.3789 0.91744,-0.26117 -2.02702,-8.36735 -5.20508,-14.33008 -4.91122,-9.21438 -13.78041,-14.85685 -21.5039,-14.84766 z m -85.58008,8.45508 c -17.38528,0.12869 -25.3418,6.48952 -31.04688,24.05469 -2.5878,7.96758 -2.72571,7.71445 4.75,8.68945 4.23576,0.55249 4.22846,0.3975 0.24219,5.23242 -3.23989,3.92962 -3.23985,3.92883 -0.61523,5.83008 4.05792,2.93957 10.85043,6.50916 15.00976,7.88672 h 0.002 c 10.06738,3.3343 24.50137,-0.7458 25.91211,-7.32422 1.72456,-8.04109 6.62106,-18.0196 14.80079,-30.16601 6.01492,-8.93186 6.118,-8.2755 -1.64844,-10.3711 -10.47058,-2.82527 -14.27334,-3.42843 -23.80274,-3.77539 -1.24496,-0.0453 -2.44449,-0.0652 -3.60351,-0.0566 z m 35.12109,11.92578 c -1.18941,0.0478 -2.19926,2.28796 -4.89648,6.34375 -19.36392,29.11759 -18.24866,47.35725 3.80273,62.15039 4.49628,3.01629 4.49591,3.01785 6.64453,-1.24414 2.8633,-5.67961 2.96547,-5.69168 6.13086,-0.67969 3.11464,4.93172 3.7166,4.75712 12.21094,-3.5332 12.08999,-11.79961 14.40145,-27.84416 4.85742,-33.70508 -4.44899,-2.73207 -17.3484,-15.14681 -21.30273,-20.50195 -4.52186,-6.12363 -6.09927,-8.88425 -7.44727,-8.83008 z"
                 transform="scale(0.26458334)" /></g></g><g
             id="g2094-4-9-5"
             transform="matrix(-0.86403141,0.07076258,0.07076258,0.86403141,-35.174809,350.6329)"
             style="display:inline"
             inkscape:label="top-sakura"><g
               id="g540-0-7-4-0"
               transform="translate(268.69567,-36.417917)"
               style="display:inline"
               inkscape:label="small-sakura"><path
                 id="path260-8-8-7-2"
                 style="display:inline;fill:none;stroke:#ff00ff;stroke-width:0.120988;stroke-dasharray:none"
                 d="m -163.68883,124.74702 c -0.29859,-0.29211 -0.76102,-0.62999 -1.40599,-1.0444 -2.02406,-1.30056 -4.93597,-1.21423 -5.543,0.1645 -0.73809,1.67642 -1.95945,3.38232 -3.69262,5.15758 -1.13569,1.16329 -1.14999,1.04474 0.20256,1.67497 5.86245,2.73169 9.1453,2.03654 11.16089,-2.363 0.42513,-0.92793 0.44579,-0.88216 -0.54107,-1.206 -0.41545,-0.1364 -0.78089,-0.27327 -0.81209,-0.30442 -0.0312,-0.0311 0.27218,-0.34426 0.6745,-0.69553 0.499,-0.43571 0.52688,-0.82606 -0.0432,-1.3837 z m -8.94283,-7.3573 c -0.19575,-0.19281 -0.40669,-0.38357 -0.6328,-0.5726 -0.63137,-0.52786 -0.68293,-0.54932 -0.80391,-0.33451 -0.77077,1.36806 -1.35604,1.24037 -1.73987,-0.37949 -0.0854,-0.36025 -2.88218,1.62227 -3.4912,2.47473 -1.42653,1.99671 -1.332,3.3648 0.35763,5.17335 1.36325,1.4592 2.16118,2.6074 3.07875,4.43012 0.23332,0.46351 0.455,0.88041 0.4921,0.92704 0.0395,0.0491 0.56798,-0.45945 1.26114,-1.21345 3.93462,-4.28057 4.41449,-7.61314 1.47816,-10.50519 z m 4.8186,16.15198 c -0.38557,-0.38392 -0.85886,-0.63516 -1.39673,-0.69928 -1.49269,-0.1779 -3.7612,-0.91838 -5.75955,-1.87971 -0.67402,-0.32424 -1.24325,-0.57184 -1.26459,-0.55046 -0.0214,0.0214 -0.10633,0.74233 -0.18891,1.6022 -0.30401,3.16541 -0.0428,5.42095 0.80095,6.91229 0.82788,1.46337 2.29872,2.29817 4.59348,2.60773 1.36155,0.18376 1.31965,0.2113 1.32482,-0.86515 0.005,-0.9431 0.004,-0.94321 0.72887,-0.51357 0.39852,0.23632 0.78255,0.46181 0.85327,0.50106 0.15013,0.0834 0.80608,-1.32397 1.15963,-2.48796 0.54633,-1.79877 0.13401,-3.64587 -0.85125,-4.62716 z m -11.97965,-9.80868 c -2.23149,-2.19505 -4.05438,-2.39669 -7.01563,-0.88432 -1.34321,0.68601 -1.32859,0.63622 -0.50009,1.71136 0.46942,0.6092 0.4882,0.58853 -0.63472,0.69751 -0.91268,0.0886 -0.91257,0.0885 -0.81998,0.66458 0.1431,0.89072 0.55451,2.20955 0.90924,2.91415 l 2.5e-4,2.5e-4 c 0.85861,1.70543 3.2167,3.02161 4.23324,2.36288 1.24259,-0.80519 3.13575,-1.45375 5.72302,-1.9609 1.90255,-0.37294 1.8322,-0.27618 1.10919,-1.53111 -0.97471,-1.69186 -1.38252,-2.25243 -2.55257,-3.5088 -0.15286,-0.16414 -0.30317,-0.31925 -0.45195,-0.46559 z m 2.95795,5.987 c -0.15762,-0.1452 -0.57125,0.0118 -1.43082,0.18545 -6.17105,1.24686 -8.34909,3.71272 -7.42114,8.40257 0.18921,0.95625 0.18896,0.95641 1.00486,0.68668 1.08729,-0.35946 1.10184,-0.34799 0.86763,0.69326 -0.23042,1.02456 -0.13154,1.07889 2.00527,1.10307 3.04138,0.0344 5.3768,-1.71585 4.90627,-3.67664 -0.21934,-0.91402 -0.28372,-4.13669 -0.10638,-5.32201 0.20283,-1.35541 0.35292,-1.90782 0.17433,-2.07237 z"
                 inkscape:transform-center-x="-0.31709322"
                 inkscape:transform-center-y="-0.63436207" /></g><g
               id="g540-6-9-5-1"
               transform="translate(244.92846,-61.157554)"
               style="display:inline;fill:none;fill-opacity:1"
               inkscape:label="big-sakura"><path
                 id="path260-2-0-9-0"
                 style="display:inline;fill:none;fill-opacity:1;stroke:#ff00ff;stroke-width:0.672;stroke-dasharray:none"
                 d="m -630.92188,446.78516 c -2.31996,0.0236 -5.46362,0.51013 -9.625,1.41211 -13.0597,2.83063 -24.16691,14.59692 -21.14257,22.39843 3.67736,9.48605 5.57078,20.98424 5.72461,34.76368 0.10083,9.02929 -0.42054,8.61943 7.36914,5.78906 33.76339,-12.2679 43.93955,-27.88284 34.59765,-53.08594 -1.97034,-5.31568 -1.70943,-5.2169 -6.85937,-2.61719 -2.16813,1.09448 -4.14181,1.99024 -4.38672,1.99024 -0.24454,0 -0.28109,-2.42134 -0.0781,-5.38086 0.25163,-3.67084 -1.17058,-5.31455 -5.59961,-5.26953 z m -64.02343,6.17382 c -1.52606,0.0103 -3.10378,0.0882 -4.73438,0.23243 -4.55312,0.40278 -4.84002,0.52078 -4.47265,1.83984 2.33884,8.40219 -0.46278,10.19698 -8.32813,5.33594 -1.74924,-1.08114 -4.96299,17.68697 -4.01172,23.42773 2.22819,13.44643 7.96845,18.45315 21.70703,18.93164 11.08472,0.38608 18.72692,1.76809 29.48633,5.33203 2.73612,0.90633 5.24345,1.6751 5.57227,1.71289 0.34771,0.038 0.42964,-4.03487 0.19531,-9.71875 -1.33175,-32.26602 -12.52317,-47.24862 -35.41406,-47.09375 z m 82.32422,44.58008 c -3.02224,0.004 -5.86848,0.87368 -8.23438,2.73242 -6.56549,5.15815 -18.38821,11.14968 -30.01562,15.2129 -3.92175,1.37045 -7.13086,2.63101 -7.13086,2.79882 0,0.16804 2.49522,3.33505 5.54492,7.03907 11.22663,13.6354 21.10472,21.47612 30.27344,24.02734 8.99675,2.50333 18.05414,0.0128 28.28906,-7.77539 6.07279,-4.62104 6.01666,-4.34764 1.8125,-8.59961 -3.683,-3.72491 -3.68458,-3.72434 0.84961,-4.87891 2.49384,-0.63496 4.88827,-1.25569 5.32031,-1.3789 0.91744,-0.26117 -2.02702,-8.36735 -5.20508,-14.33008 -4.91122,-9.21438 -13.78041,-14.85685 -21.5039,-14.84766 z m -85.58008,8.45508 c -17.38528,0.12869 -25.3418,6.48952 -31.04688,24.05469 -2.5878,7.96758 -2.72571,7.71445 4.75,8.68945 4.23576,0.55249 4.22846,0.3975 0.24219,5.23242 -3.23989,3.92962 -3.23985,3.92883 -0.61523,5.83008 4.05792,2.93957 10.85043,6.50916 15.00976,7.88672 h 0.002 c 10.06738,3.3343 24.50137,-0.7458 25.91211,-7.32422 1.72456,-8.04109 6.62106,-18.0196 14.80079,-30.16601 6.01492,-8.93186 6.118,-8.2755 -1.64844,-10.3711 -10.47058,-2.82527 -14.27334,-3.42843 -23.80274,-3.77539 -1.24496,-0.0453 -2.44449,-0.0652 -3.60351,-0.0566 z m 35.12109,11.92578 c -1.18941,0.0478 -2.19926,2.28796 -4.89648,6.34375 -19.36392,29.11759 -18.24866,47.35725 3.80273,62.15039 4.49628,3.01629 4.49591,3.01785 6.64453,-1.24414 2.8633,-5.67961 2.96547,-5.69168 6.13086,-0.67969 3.11464,4.93172 3.7166,4.75712 12.21094,-3.5332 12.08999,-11.79961 14.40145,-27.84416 4.85742,-33.70508 -4.44899,-2.73207 -17.3484,-15.14681 -21.30273,-20.50195 -4.52186,-6.12363 -6.09927,-8.88425 -7.44727,-8.83008 z"
                 transform="scale(0.26458334)" /></g></g></g></g></g><rect
       style="display:inline;fill:none;stroke:#ff0000;stroke-width:0.154683"
       id="rect993-2-6-1"
       height="482.44531"
       x="-115.28327"
       y="12.777349"
       inkscape:label="jsa-patternframe"
       transform="scale(-1,1)"
       width="88.747604" /></g></svg>
