<?xml version="1.0" encoding="UTF-8" standalone="no"?>
<!-- Created with Inkscape (http://www.inkscape.org/) -->

<svg
   width="12in"
   height="20in"
   viewBox="0 0 304.8 508"
   version="1.1"
   id="svg5"
   xml:space="preserve"
   inkscape:version="1.1 (c68e22c387, 2021-05-23)"
   sodipodi:docname="SidePanel-UP.svg"
   xmlns:inkscape="http://www.inkscape.org/namespaces/inkscape"
   xmlns:sodipodi="http://sodipodi.sourceforge.net/DTD/sodipodi-0.dtd"
   xmlns="http://www.w3.org/2000/svg"
   xmlns:svg="http://www.w3.org/2000/svg"><sodipodi:namedview
     id="namedview7"
     pagecolor="#ffffff"
     bordercolor="#000000"
     borderopacity="0.25"
     inkscape:showpageshadow="2"
     inkscape:pageopacity="0.0"
     inkscape:pagecheckerboard="0"
     inkscape:deskcolor="#d1d1d1"
     inkscape:document-units="in"
     showgrid="false"
     showguides="false"
     inkscape:lockguides="false"
     inkscape:zoom="0.2949219"
     inkscape:cx="554.38406"
     inkscape:cy="979.92045"
     inkscape:window-width="1368"
     inkscape:window-height="860"
     inkscape:window-x="-6"
     inkscape:window-y="-6"
     inkscape:window-maximized="1"
     inkscape:current-layer="g8251"
     inkscape:pageshadow="2" /><defs
     id="defs2"><rect
       x="-176.63367"
       y="-294.38943"
       width="127.9954"
       height="325.10831"
       id="rect412" /><clipPath
       clipPathUnits="userSpaceOnUse"
       id="clipPath2393"><rect
         style="fill:none;stroke:#ff0000;stroke-width:0.154683"
         id="rect2395"
         height="482.44531"
         x="-2.9075851"
         y="670.05542"
         inkscape:label="frame1"
         transform="scale(-1,1)"
         width="88.747604" /></clipPath><clipPath
       clipPathUnits="userSpaceOnUse"
       id="clipPath2393-2"><rect
         style="fill:none;stroke:#ff0000;stroke-width:0.154683"
         id="rect2395-8"
         height="482.44531"
         x="-2.9075851"
         y="670.05542"
         inkscape:label="frame1"
         transform="scale(-1,1)"
         width="88.747604" /></clipPath><filter
       style="color-interpolation-filters:sRGB"
       inkscape:label="Greyscale"
       id="filter3545"
       x="0"
       y="0"
       width="1"
       height="1"><feColorMatrix
         values="0.21 0.72 0.072 0 0 0.21 0.72 0.072 0 0 0.21 0.72 0.072 0 0 0 0 0 1 0 "
         id="feColorMatrix3543" /></filter></defs><g
     inkscape:groupmode="layer"
     id="layer2"
     inkscape:label="letterpanel-up"
     inkscape:highlight-color="#6040ff"
     transform="translate(331.04104,-0.89713009)"><rect
       style="fill:none;stroke:#ff0000;stroke-width:0.154683"
       id="rect993-2"
       height="482.44531"
       x="52.776718"
       y="13.674474"
       inkscape:label="up-letterframe"
       transform="scale(-1,1)"
       width="88.747604" /><path
       id="path499"
       style="fill:#0000ff;stroke-width:0.155969"
       d="m -93.880983,388.97883 c 0.03711,-0.0995 0.04776,-0.73996 0.02365,-1.42319 l -0.04388,-1.24224 0.778167,-0.49709 c 1.239784,-0.79198 0.986258,-1.35912 -0.355772,-0.79578 -0.592906,0.2489 -0.844783,0.29054 -0.977165,0.16159 -0.255915,-0.24924 -0.319351,-2.99929 -0.109782,-4.7584 0.160299,-1.34549 0.522834,-3.03914 0.684247,-3.19664 0.100955,-0.0985 2.24026,0.65004 4.208436,1.47248 1.005472,0.42016 2.246481,0.86958 2.757852,0.99875 0.847406,0.21402 0.978194,0.21239 1.477385,-0.0188 0.917056,-0.42464 2.222381,-2.26789 1.383634,-1.95382 -0.327054,0.12246 -1.437807,-0.13079 -5.634761,-1.28466 l -3.738692,-1.0279 0.236263,-0.44585 c 0.151417,-0.2857 0.319641,-0.41461 0.468405,-0.35888 0.127687,0.0477 0.27265,-0.016 0.322154,-0.14195 0.109529,-0.27841 -0.527128,-0.83093 -0.970368,-0.84222 -0.501411,-0.0128 -3.078912,-3.19983 -3.078912,-3.80707 0,-0.30386 0.33975,-0.2502 2.142418,0.3383 2.019037,0.65916 2.534293,0.67752 3.243708,0.1155 0.873068,-0.6916 0.778106,-0.84288 -0.77182,-1.22965 -0.757624,-0.18905 -2.01697,-0.52903 -2.79854,-0.75546 -0.78157,-0.22646 -1.753216,-0.41807 -2.159226,-0.42577 -0.81718,-0.0155 -1.19606,0.23794 -1.95657,1.30877 -0.35632,0.5017 -0.39521,0.65692 -0.25972,1.03616 0.20015,0.56023 1.09029,1.70585 1.87845,2.41756 0.61627,0.55652 2.044907,1.30754 2.487295,1.30754 0.334101,0 0.303219,0.14999 -0.139726,0.67863 -0.436768,0.52123 -0.585786,0.53023 -2.850459,0.17155 -1.69744,-0.26882 -6.864768,-0.28299 -6.815278,-0.0186 0.0142,0.0759 -0.55855,0.49948 -1.27284,0.94105 -0.7143,0.4416 -1.25058,0.84985 -1.19178,0.90724 0.0588,0.0574 0.0914,0.33018 0.0724,0.60622 -0.0364,0.52756 0.42328,1.18201 0.83024,1.18201 0.11848,0 0.80853,-0.27586 1.53331,-0.61304 2.06582,-0.96103 2.98781,-1.13234 5.578998,-1.03659 1.21682,0.0449 2.37885,0.13231 2.5823,0.19408 0.43187,0.13115 0.42938,0.1595 -0.21406,2.45699 -0.39227,1.40069 -0.4333,1.7997 -0.45155,4.39098 -0.0172,2.43775 0.0199,2.92617 0.25623,3.37466 0.15197,0.28842 0.27631,0.63699 0.27631,0.77459 0,0.34086 0.45455,0.94977 0.682936,0.91481 0.101951,-0.0157 0.292056,0.0109 0.422312,0.0598 0.542392,0.202 1.39852,0.23962 1.463943,0.0643 z m 10.354334,-16.87782 c 0.117229,-0.0736 0.262367,-0.36816 0.32256,-0.65451 0.08653,-0.41171 0.0087,-0.71407 -0.368886,-1.44505 -0.415163,-0.80238 -0.482321,-1.10747 -0.508781,-2.31105 -0.01673,-0.76265 -0.03542,-1.44329 -0.04158,-1.51256 -0.02632,-0.29776 -0.788298,0.14459 -1.629565,0.94608 -0.736477,0.70167 -0.907879,0.95932 -0.907879,1.36473 0,0.62733 0.539336,2.05518 0.951419,2.51881 0.171458,0.19289 0.311738,0.40783 0.311738,0.47767 0,0.3719 1.482502,0.85992 1.871009,0.61588 z m -19.527831,-3.19864 c -1.02362,-1.10669 -1.49667,-2.17036 -1.1477,-2.58066 0.3202,-0.37645 1.66399,-0.84796 2.71211,-0.95162 1.3597,-0.13447 5.243188,0.40271 8.027181,1.11033 3.649065,0.92752 3.692297,0.93495 4.736241,0.81486 0.900676,-0.10359 1.504895,-0.29819 0.926072,-0.29819 -0.134792,0 -1.159116,-0.27316 -2.276308,-0.60706 -5.589968,-1.67062 -10.941766,-2.46787 -13.569186,-2.02141 -1.44406,0.24538 -2.16328,0.66591 -3.00287,1.75575 -0.90118,1.1698 -0.96933,1.77465 -0.26899,2.38766 0.32834,0.28739 0.51857,0.33964 0.94945,0.26076 0.77714,-0.14226 2.10115,0.17009 2.95153,0.69633 0.40463,0.25041 0.77442,0.45529 0.82174,0.45529 0.0474,0 -0.33936,-0.45993 -0.85927,-1.02204 z m 14.341062,-5.13764 c 2.042768,-1.40861 2.602348,-1.90916 2.626785,-2.3495 0.02128,-0.38223 0.01274,-0.38513 -0.552636,-0.18543 -0.315784,0.11162 -0.832118,0.24317 -1.14737,0.29241 -0.892353,0.13934 -2.479301,1.21572 -2.76047,1.87238 -0.302421,0.70623 -0.23289,1.20248 0.175812,1.25501 0.181146,0.0232 0.888069,-0.35403 1.657879,-0.88487 z m -4.759681,-0.19568 c 0.791998,-1.03505 1.307604,-2.03839 1.194869,-2.32506 -0.04844,-0.12345 -0.01246,-0.27019 0.08044,-0.32614 0.09275,-0.0559 0.168665,-0.16899 0.168665,-0.25122 0,-0.0823 -0.464695,0.0911 -1.032668,0.38527 -0.989658,0.51244 -1.057967,0.526 -1.639931,0.32565 -0.333984,-0.11501 -0.824959,-0.31891 -1.091046,-0.45317 -0.266082,-0.13427 -0.526752,-0.24413 -0.579262,-0.24413 -0.0525,0 0.18944,0.38826 0.53768,0.86279 0.478172,0.65159 0.613078,0.96271 0.551065,1.27107 -0.04511,0.22455 0.03004,0.66827 0.167119,0.98604 0.372635,0.86394 0.857402,0.79576 1.643119,-0.2311 z m -5.127103,-0.80082 c -0.57681,-0.62146 -1.18089,-1.33355 -1.3424,-1.58247 l -0.293668,-0.45259 0.528268,-1.02457 c 0.48452,-0.93967 0.5045,-1.03189 0.24114,-1.11347 -0.15791,-0.0489 -0.43271,-0.013 -0.610658,0.0801 -0.17795,0.0929 -0.41155,0.14985 -0.51912,0.12648 -0.69922,-0.1519 -2.48503,1.70511 -2.48503,2.58414 0,0.48592 0.26238,0.98809 0.51871,0.99265 0.10555,0.003 0.36944,0.139 0.58653,0.30472 0.29462,0.22487 0.64591,0.30217 1.38505,0.30471 0.753408,0.004 1.235408,0.11187 2.015098,0.45686 l 1.02483,0.45342 z m -8.263838,-9.15567 c 1.01934,-0.0652 1.64058,-0.18193 1.9197,-0.36045 0.36587,-0.23399 0.43505,-0.2376 0.60993,-0.0321 0.13686,0.16093 0.24766,0.18277 0.36185,0.0713 0.26719,-0.2607 0.62223,-0.19456 0.50848,0.0948 -0.0552,0.14046 0.0998,0.0537 0.34449,-0.19259 0.2447,-0.24636 0.42394,-0.49401 0.39832,-0.55033 -0.0256,-0.0563 0.007,-0.12564 0.0729,-0.15406 0.0657,-0.0284 0.38317,-0.43298 0.70553,-0.89906 0.32236,-0.46605 0.79951,-1.1247 1.06032,-1.46366 0.26081,-0.33895 0.77328,-1.03225 1.138838,-1.54069 0.36556,-0.50842 0.7131,-0.95908 0.77231,-1.00144 0.19286,-0.13801 2.63658,-3.64321 3.844427,-5.51436 l 0.426813,-0.66118 0.954511,1.8167 c 0.525001,0.99916 1.404838,2.68347 1.95522,3.74285 1.347584,2.59379 2.248148,3.74168 3.685877,4.69804 0.997752,0.66368 1.258124,0.7677 1.892464,0.75599 0.68915,-0.0127 1.924916,-0.35031 1.91548,-0.5233 -0.0035,-0.0428 -0.295372,-0.25117 -0.651203,-0.46301 -0.89068,-0.53028 -3.153465,-2.74525 -3.898209,-3.81585 -1.001447,-1.43958 -2.031364,-3.58962 -2.871203,-5.9938 -0.433517,-1.2411 -0.764722,-2.27946 -0.735952,-2.30752 0.0287,-0.0281 0.650783,0.18803 1.38229,0.48024 1.839081,0.73458 2.766112,0.8308 3.709614,0.38514 0.682227,-0.32226 2.911006,-2.31194 2.911006,-2.59874 0,-0.0702 -0.373016,-0.0606 -0.828933,0.0213 -0.45591,0.082 -1.221346,0.11513 -1.700986,0.0738 -0.894915,-0.0772 -6.089082,-1.71264 -6.414372,-2.01964 -0.287888,-0.27172 -0.681035,-2.25927 -0.789707,-3.99239 l -0.09983,-1.59185 0.709573,-0.91404 c 0.390289,-0.50273 0.901163,-1.24422 1.135299,-1.64777 0.377489,-0.65067 0.396053,-0.74486 0.163968,-0.83174 -0.143948,-0.054 -0.628537,0.0148 -1.076866,0.15272 -1.597455,0.49136 -3.185621,1.76926 -3.876591,3.11931 l -0.37967,0.74179 0.34229,1.71376 c 0.18825,0.94259 0.34228,1.94242 0.34228,2.22185 0,0.45626 -0.0362,0.49702 -0.35525,0.39974 -0.19539,-0.0596 -1.62047,-0.18181 -3.166828,-0.27164 l -2.81159,-0.16329 -0.89353,0.60032 c -1.17067,0.7865 -1.34569,1.29167 -0.76073,2.19587 0.22717,0.35113 0.5076,0.63844 0.62317,0.63844 0.11563,0 0.62981,-0.14483 1.14273,-0.32185 0.82235,-0.28378 1.16599,-0.31161 2.90628,-0.23534 2.904708,0.12735 4.406728,0.5555 4.657898,1.32774 0.06924,0.21287 0.0026,0.40343 -0.203404,0.58186 -0.501786,0.43452 -2.546976,2.75606 -4.169906,4.73331 -2.782938,3.39054 -3.835038,4.18095 -8.718298,6.5497 -2.32169,1.1262 -2.63887,1.32697 -2.38039,1.50683 0.0863,0.0601 0.26077,0.30572 0.38782,0.54598 0.44768,0.84656 1.31973,1.05121 3.80184,0.89227 z m 13.95798,-35.70026 c 0.256305,-0.25006 0.267358,-0.30827 0.627298,-3.29874 0.379386,-3.15223 0.509915,-6.40256 0.451087,-11.23194 l -0.05341,-4.37585 0.393106,-0.55436 c 0.668101,-0.94214 1.112503,-2.48023 0.716632,-2.48023 -0.08977,0 -0.513702,0.17333 -0.94213,0.38517 -0.428428,0.21185 -0.874167,0.38516 -0.990542,0.38516 -0.246351,0 -1.824603,1.55879 -2.096999,2.07114 -0.19581,0.36827 -0.154783,1.342 0.09448,2.24281 0.08206,0.29658 0.150868,0.9899 0.152848,1.54068 0.0026,0.5508 0.09996,1.45211 0.217735,2.00292 0.15403,0.72038 0.199823,1.97437 0.163179,4.46799 -0.03357,2.28121 0.0087,3.63271 0.125118,3.95239 0.135428,0.37366 0.116496,0.92061 -0.0818,2.36906 -0.285178,2.08239 -0.235016,2.33422 0.515685,2.58958 0.373246,0.12696 0.524544,0.11295 0.70765,-0.0657 z m -8.88615,-6.3564 c 0.049,-0.12143 3.069738,-2.02663 3.213268,-2.02663 0.15371,0 1.51895,-0.91113 2.06079,-1.37534 0.66921,-0.57335 1.067658,-1.47684 0.83686,-1.89765 -0.08169,-0.14882 -0.20949,-0.27059 -0.28412,-0.27059 -0.3364,0 -2.36295,0.68691 -3.44154,1.16654 -0.653318,0.29052 -1.362768,0.52822 -1.576538,0.52822 -0.46267,0 -2.3734,1.71454 -2.51223,2.25427 -0.12184,0.47341 0.21503,1.41105 0.5742,1.59865 0.3579,0.18689 1.05732,0.20086 1.12931,0.0225 z m -0.7438,-13.3122 c 0.71474,-0.70696 2.4543,-3.35391 2.4543,-3.73453 0,-0.31328 -0.38733,-0.29302 -1.51711,0.0792 -1.33524,0.44 -2.05099,1.06048 -2.3476,2.03511 -0.19632,0.64502 -0.20542,0.89055 -0.0496,1.33976 0.39459,1.1377 0.56097,1.16967 1.46002,0.28039 z m -2.71705,-2.46511 c 1.07313,-1.07416 2.17139,-2.54387 2.17139,-2.90575 0,-0.21666 -0.11389,-0.2912 -0.44503,-0.2912 -0.63813,0 -2.10905,0.44779 -2.45332,0.74684 -0.49203,0.42744 -0.89108,1.361 -0.89108,2.08472 0,1.44347 0.44143,1.54315 1.61804,0.36539 z m 16.106181,-13.35726 c 1.277283,-0.79042 2.131374,-2.57672 1.606199,-3.35925 -0.281939,-0.42007 -0.254275,-0.41886 -0.892598,-0.0391 -0.284333,0.16916 -0.703696,0.30783 -0.931903,0.30814 -0.891232,10e-4 -2.450377,-0.84257 -5.50606,-2.97991 -4.668781,-3.26561 -6.946289,-5.34328 -11.478979,-10.47164 -0.42947,-0.48592 -0.73283,-0.47796 -0.8081,0.021 -0.0547,0.36276 1.07564,2.28964 2.28847,3.90103 2.37236,3.15202 6.582098,7.53259 9.209143,9.58286 1.916049,1.49539 5.020498,3.49068 5.431097,3.49068 0.192003,0 0.679238,-0.20429 1.082731,-0.45396 z m -2.676092,-15.99821 c 2.014131,-1.33389 4.372696,-3.54357 4.372696,-4.09666 0,-0.23832 -0.532294,-0.48265 -0.756714,-0.3473 -0.07037,0.0424 -0.759486,0.15918 -1.531354,0.25941 -2.660889,0.34552 -3.512068,0.83266 -4.442497,2.54255 -0.469617,0.86301 -0.441365,1.38956 0.103059,1.92082 0.494885,0.48289 1.244598,0.39019 2.254796,-0.27882 z m 0.813778,-16.85596 c -0.170191,-0.19579 -0.393491,-0.40882 -0.496195,-0.47339 -0.192199,-0.12083 -1.985865,-2.27703 -3.160553,-3.79938 -0.364713,-0.47266 -0.722829,-0.92869 -0.795827,-1.01344 -0.411624,-0.47789 -2.404794,-3.31329 -2.630974,-3.7427 -0.14695,-0.27901 -0.58051,-0.9799 -0.96348,-1.55756 -0.61437,-0.92673 -2.446518,-4.33795 -2.446518,-4.5551 0,-0.17335 0.77694,-0.0603 2.526288,0.36744 3.683673,0.90081 6.247513,1.70861 6.973798,2.1973 0.73857,0.49696 2.620702,1.20489 3.203367,1.20489 0.792386,0 1.874887,-0.53904 2.825669,-1.40707 0.966924,-0.88273 0.90139,-0.9779 -0.757666,-1.10033 -0.709107,-0.0522 -1.564731,-0.24731 -2.236395,-0.50965 -1.645188,-0.64253 -3.980171,-1.29785 -7.087753,-1.98921 -1.38306,-0.30768 -4.126878,-0.58963 -4.761008,-0.48921 -0.38698,0.0612 -0.69612,-0.001 -1.05144,-0.21264 -0.81314,-0.48381 -1.23531,-0.39345 -2.01505,0.43123 -0.65043,0.68794 -1.08567,1.50553 -1.09107,2.04958 -10e-4,0.1316 0.22372,0.53927 0.50004,0.90593 0.27634,0.36666 0.75966,1.16031 1.07404,1.76364 1.57739,3.02714 3.14788,5.57954 3.945888,6.41288 1.06825,1.11553 1.64187,1.88834 2.21481,2.98397 0.12721,0.2433 0.33905,0.48018 0.4707,0.52644 0.20811,0.073 0.76885,0.49607 1.778856,1.34194 0.151977,0.12728 0.42129,0.2314 0.598503,0.2314 0.177205,0 0.514701,0.13202 0.749999,0.29337 0.288336,0.19772 0.837549,0.32634 1.684605,0.39453 l 1.256836,0.10118 z m 0.883967,-18.59897 c 0.813483,-0.25346 1.075024,-0.49061 1.632441,-1.48015 0.312858,-0.55538 0.568827,-1.05006 0.568827,-1.09927 0,-0.0492 -0.373023,-0.0479 -0.82894,0.004 -0.928052,0.10324 -1.966516,-0.0758 -4.776252,-0.82358 -1.042092,-0.27733 -2.632192,-0.66199 -3.533532,-0.85478 -0.90136,-0.19281 -1.68293,-0.41807 -1.73683,-0.50059 -0.1089,-0.16681 -0.46048,-0.0445 -1.203248,0.41799 -0.26052,0.1623 -0.60222,0.30013 -0.7593,0.30634 -0.15711,0.006 -0.24633,0.0734 -0.19829,0.14916 0.048,0.0758 -0.007,0.1735 -0.1237,0.21697 -0.11613,0.0435 -0.336,0.33593 -0.48871,0.64991 -0.40025,0.8231 -0.17101,0.98012 1.576078,1.07949 1.43404,0.0815 1.70032,0.11452 2.12546,0.26287 0.69857,0.2438 3.112334,0.89194 3.315752,0.89033 0.13027,-0.001 0.592102,0.12929 1.026307,0.28959 1.239103,0.4575 2.794713,0.68277 3.403923,0.49296 z m -2.764832,-15.94995 c 0.17304,-0.2577 0.322707,-0.92929 0.407127,-1.82671 0.07335,-0.78055 0.200753,-1.76584 0.282989,-2.18954 0.244216,-1.25834 0.392119,-5.55089 0.357504,-10.37533 l -0.03241,-4.52069 0.392637,-0.45534 c 0.381052,-0.4419 0.874097,-1.74915 0.874097,-2.31751 0,-0.39533 -0.267526,-0.35353 -1.596175,0.2493 -0.758961,0.34436 -1.420985,0.78873 -1.893555,1.27106 -1.126948,1.1502 -1.157292,1.24765 -0.946936,3.04045 0.100207,0.85408 0.261909,2.24619 0.359297,3.09356 0.09748,0.84739 0.214056,3.27397 0.259215,5.39244 0.118228,5.546 0.118104,5.57345 -0.02381,7.01015 -0.147485,1.49327 -0.02958,1.78355 0.787878,1.94019 0.420816,0.0807 0.541111,0.0321 0.772153,-0.31203 z m -8.975792,-6.14667 c 0.0695,-0.11247 1.21322,-0.84623 2.541718,-1.63046 2.08942,-1.23341 2.44994,-1.39816 2.67089,-1.22057 0.22722,0.18262 0.24366,0.15915 0.1489,-0.21222 -0.0814,-0.31902 -0.0368,-0.45393 0.18898,-0.57187 0.38335,-0.20018 0.692784,-0.93897 0.627315,-1.49766 -0.09237,-0.78853 -1.068895,-0.65384 -3.841005,0.52983 -0.694708,0.29664 -1.369708,0.55128 -1.499978,0.56586 -0.44803,0.0503 -0.77946,0.26621 -1.62542,1.05935 -1.15348,1.08146 -1.2768,1.33305 -1.03672,2.11498 0.26604,0.86642 1.47141,1.43615 1.82532,0.86276 z m 6.53308,-26.58337 c 0.371055,-0.29442 0.381941,-0.36308 0.36163,-2.28027 -0.01121,-1.08722 -0.100331,-3.69 -0.197364,-5.78399 -0.301349,-6.50366 -0.160988,-14.12337 0.288345,-15.65215 0.08131,-0.27675 0.333156,-0.71802 0.559599,-0.98062 0.457323,-0.53032 0.466319,-0.94346 0.02236,-1.02689 -0.454323,-0.0854 -2.260872,0.88541 -2.868002,1.54115 -0.52186,0.56363 -0.54716,0.64441 -0.54716,1.74704 0,0.63586 0.11997,1.86629 0.26655,2.73429 0.33748,1.99813 0.35648,8.57589 0.0384,13.28746 -0.29674,4.39536 -0.28733,4.60124 0.26062,5.70056 0.39957,0.80165 0.5253,0.93056 0.94659,0.97071 0.30579,0.0291 0.627606,-0.0663 0.868411,-0.25729 z m 1.584897,-35.30261 c 0.220305,-0.12563 0.269877,-0.71623 0.365022,-4.34779 0.06055,-2.31131 0.175854,-4.79543 0.256235,-5.52025 0.08044,-0.72483 0.16114,-2.26744 0.17948,-3.42804 0.02135,-1.35304 0.09288,-2.10984 0.199332,-2.10921 0.09125,5.8e-4 0.983115,0.22069 1.981784,0.48921 2.963253,0.79674 4.591705,0.72749 5.198801,-0.2211 0.52339,-0.81778 0.770343,-1.32626 0.684684,-1.40984 -0.05173,-0.0505 -0.32032,-0.0918 -0.596834,-0.0918 -0.276507,0 -0.708736,-0.0696 -0.960519,-0.15486 -0.440104,-0.14889 -4.318733,-0.97786 -5.709213,-1.22021 -0.369908,-0.0645 -0.71246,-0.15617 -0.761243,-0.20376 -0.04872,-0.0475 -0.156261,-1.2506 -0.238868,-2.67335 l -0.150171,-2.58682 0.374374,-0.31668 c 0.428246,-0.36223 1.369515,-1.5365 1.369515,-1.70849 0,-0.0632 0.124334,-0.2079 0.276318,-0.32155 0.241843,-0.18087 0.246771,-0.22648 0.03941,-0.36564 -0.130256,-0.0875 -0.378945,-0.1178 -0.552629,-0.0676 -0.173677,0.0504 -0.493395,0.12577 -0.710521,0.16766 -0.949757,0.18336 -2.682894,1.02716 -3.182703,1.54956 -0.225893,0.23612 -0.604643,0.73452 -0.841653,1.10756 -0.37798,0.59486 -0.41782,0.77469 -0.32427,1.46291 0.0587,0.43158 0.21071,0.89686 0.33784,1.03394 0.2273,0.24508 0.29926,0.46657 0.49012,1.50817 0.0904,0.49347 0.074,0.51806 -0.28654,0.42976 -0.21034,-0.0515 -0.77198,-0.17382 -1.24811,-0.2718 -1.00585,-0.20696 -1.27896,-0.37784 -1.14565,-0.71684 0.0828,-0.21062 -0.0237,-0.23202 -0.77716,-0.15612 -1.027258,0.10348 -2.227188,0.65872 -3.040058,1.40681 -0.50228,0.46223 -0.5743,0.61449 -0.53135,1.12341 0.041,0.48578 0.10493,0.58194 0.36545,0.55006 1.17448,-0.14368 2.61241,-0.004 4.515648,0.43946 1.16371,0.27099 2.14682,0.51831 2.18466,0.54961 0.0378,0.0313 0.14071,0.4889 0.228606,1.01688 0.186261,1.11909 0.192623,3.63497 0.0225,8.89456 -0.149156,4.61061 -0.133186,5.27237 0.13204,5.46944 0.114012,0.0848 0.181383,0.2292 0.149642,0.32099 -0.03168,0.0918 0.218934,0.24781 0.557075,0.34666 0.728764,0.21306 0.815785,0.21494 1.148915,0.025 z m 8.247973,-3.63622 c 0.240765,-0.32244 0.282394,-0.6089 0.235375,-1.61939 -0.0343,-0.7373 -0.13335,-1.27362 -0.247912,-1.3427 -0.308805,-0.18624 -1.30627,-2.42953 -1.30627,-2.93781 0,-0.30071 -0.106547,-0.52254 -0.299474,-0.62327 -0.247373,-0.12919 -0.36568,-0.0699 -0.680337,0.34124 -0.691215,0.90313 -1.072799,1.60726 -1.072799,1.97966 0,0.51962 1.237684,4.00972 1.53699,4.33408 0.398825,0.43222 1.470805,0.35519 1.834427,-0.13181 z m -17.20863,-1.46121 c 2.04279,-2.0621 3.097098,-3.86327 2.56514,-4.38234 -0.21056,-0.20547 -0.30714,-0.20797 -0.76079,-0.0196 -0.28579,0.11864 -0.89978,0.46736 -1.36442,0.77503 -0.46465,0.30769 -1.03307,0.56163 -1.26314,0.56432 -0.53413,0.006 -0.89221,0.27654 -1.01752,0.76806 -0.0543,0.21326 -0.32317,0.67253 -0.59729,1.02055 -0.40283,0.51144 -0.51158,0.81381 -0.56709,1.57662 -0.055,0.75773 -0.0229,0.94381 0.16326,0.94381 0.12754,0 0.25948,0.0808 0.29321,0.17951 0.0337,0.0988 0.25493,0.18775 0.49159,0.19787 0.3504,0.0149 0.73228,-0.28646 2.05705,-1.62374 z m -1.16099,-15.27757 c 0.88853,-0.59009 1.18258,-1.11007 1.18258,-2.09123 0,-1.63866 -0.61797,-2.27169 -2.39212,-2.45037 -0.64218,-0.0647 -0.97242,-0.01 -1.54047,0.25923 -1.04909,0.49555 -1.43521,1.10016 -1.43552,2.24774 0,1.62283 0.8329,2.37972 2.62111,2.38072 0.82176,4.6e-4 1.15293,-0.0728 1.56442,-0.34609 z m -2.522,-0.62022 c -0.96124,-0.47464 -0.97747,-2.22329 -0.0257,-2.7719 0.80168,-0.46208 1.42481,-0.34919 2.26976,0.41123 0.77701,0.69928 0.93098,1.16897 0.58814,1.7941 -0.37404,0.68195 -1.95715,0.99865 -2.83221,0.56657 z"
       inkscape:label="up-lettering" /></g><g
     inkscape:groupmode="layer"
     id="layer6"
     inkscape:label="patternpanel-up"
     inkscape:highlight-color="#a284de"
     style="display:inline"
     transform="translate(331.04104,-0.89713009)"><g
       id="g8251"
       inkscape:label="lasercutter-score"
       style="display:inline"
       transform="translate(-1.6633333e-5)"><g
         id="g270"><g
           id="g8236"
           inkscape:label="jsa-sakura"><g
             id="g45"
             style="display:inline"
             transform="matrix(-1,0,0,1,-357.28205,1.2444662e-5)"><g
               id="g2094-4-9"
               transform="matrix(-0.86403142,0.07076258,0.07076258,0.86403142,-35.174809,6.4953881)"
               style="display:inline"
               inkscape:label="top-sakura"><g
                 id="g540-0-7-4"
                 transform="translate(268.69567,-36.417917)"
                 style="display:inline"
                 inkscape:label="small-sakura"><path
                   id="path260-8-8-7"
                   style="display:inline;fill:none;stroke:#ff00ff;stroke-width:0.120988;stroke-dasharray:none"
                   d="m -163.68883,124.74702 c -0.29859,-0.29211 -0.76102,-0.62999 -1.40599,-1.0444 -2.02406,-1.30056 -4.93597,-1.21423 -5.543,0.1645 -0.73809,1.67642 -1.95945,3.38232 -3.69262,5.15758 -1.13569,1.16329 -1.14999,1.04474 0.20256,1.67497 5.86245,2.73169 9.1453,2.03654 11.16089,-2.363 0.42513,-0.92793 0.44579,-0.88216 -0.54107,-1.206 -0.41545,-0.1364 -0.78089,-0.27327 -0.81209,-0.30442 -0.0312,-0.0311 0.27218,-0.34426 0.6745,-0.69553 0.499,-0.43571 0.52688,-0.82606 -0.0432,-1.3837 z m -8.94283,-7.3573 c -0.19575,-0.19281 -0.40669,-0.38357 -0.6328,-0.5726 -0.63137,-0.52786 -0.68293,-0.54932 -0.80391,-0.33451 -0.77077,1.36806 -1.35604,1.24037 -1.73987,-0.37949 -0.0854,-0.36025 -2.88218,1.62227 -3.4912,2.47473 -1.42653,1.99671 -1.332,3.3648 0.35763,5.17335 1.36325,1.4592 2.16118,2.6074 3.07875,4.43012 0.23332,0.46351 0.455,0.88041 0.4921,0.92704 0.0395,0.0491 0.56798,-0.45945 1.26114,-1.21345 3.93462,-4.28057 4.41449,-7.61314 1.47816,-10.50519 z m 4.8186,16.15198 c -0.38557,-0.38392 -0.85886,-0.63516 -1.39673,-0.69928 -1.49269,-0.1779 -3.7612,-0.91838 -5.75955,-1.87971 -0.67402,-0.32424 -1.24325,-0.57184 -1.26459,-0.55046 -0.0214,0.0214 -0.10633,0.74233 -0.18891,1.6022 -0.30401,3.16541 -0.0428,5.42095 0.80095,6.91229 0.82788,1.46337 2.29872,2.29817 4.59348,2.60773 1.36155,0.18376 1.31965,0.2113 1.32482,-0.86515 0.005,-0.9431 0.004,-0.94321 0.72887,-0.51357 0.39852,0.23632 0.78255,0.46181 0.85327,0.50106 0.15013,0.0834 0.80608,-1.32397 1.15963,-2.48796 0.54633,-1.79877 0.13401,-3.64587 -0.85125,-4.62716 z m -11.97965,-9.80868 c -2.23149,-2.19505 -4.05438,-2.39669 -7.01563,-0.88432 -1.34321,0.68601 -1.32859,0.63622 -0.50009,1.71136 0.46942,0.6092 0.4882,0.58853 -0.63472,0.69751 -0.91268,0.0886 -0.91257,0.0885 -0.81998,0.66458 0.1431,0.89072 0.55451,2.20955 0.90924,2.91415 l 2.5e-4,2.5e-4 c 0.85861,1.70543 3.2167,3.02161 4.23324,2.36288 1.24259,-0.80519 3.13575,-1.45375 5.72302,-1.9609 1.90255,-0.37294 1.8322,-0.27618 1.10919,-1.53111 -0.97471,-1.69186 -1.38252,-2.25243 -2.55257,-3.5088 -0.15286,-0.16414 -0.30317,-0.31925 -0.45195,-0.46559 z m 2.95795,5.987 c -0.15762,-0.1452 -0.57125,0.0118 -1.43082,0.18545 -6.17105,1.24686 -8.34909,3.71272 -7.42114,8.40257 0.18921,0.95625 0.18896,0.95641 1.00486,0.68668 1.08729,-0.35946 1.10184,-0.34799 0.86763,0.69326 -0.23042,1.02456 -0.13154,1.07889 2.00527,1.10307 3.04138,0.0344 5.3768,-1.71585 4.90627,-3.67664 -0.21934,-0.91402 -0.28372,-4.13669 -0.10638,-5.32201 0.20283,-1.35541 0.35292,-1.90782 0.17433,-2.07237 z"
                   inkscape:transform-center-x="-0.31709322"
                   inkscape:transform-center-y="-0.63436207" /></g><g
                 id="g540-6-9-5"
                 transform="translate(244.92846,-61.157554)"
                 style="display:inline;fill:none;fill-opacity:1"
                 inkscape:label="big-sakura"><path
                   id="path260-2-0-9"
                   style="display:inline;fill:none;fill-opacity:1;stroke:#ff00ff;stroke-width:0.672;stroke-dasharray:none"
                   d="m -630.92188,446.78516 c -2.31996,0.0236 -5.46362,0.51013 -9.625,1.41211 -13.0597,2.83063 -24.16691,14.59692 -21.14257,22.39843 3.67736,9.48605 5.57078,20.98424 5.72461,34.76368 0.10083,9.02929 -0.42054,8.61943 7.36914,5.78906 33.76339,-12.2679 43.93955,-27.88284 34.59765,-53.08594 -1.97034,-5.31568 -1.70943,-5.2169 -6.85937,-2.61719 -2.16813,1.09448 -4.14181,1.99024 -4.38672,1.99024 -0.24454,0 -0.28109,-2.42134 -0.0781,-5.38086 0.25163,-3.67084 -1.17058,-5.31455 -5.59961,-5.26953 z m -64.02343,6.17382 c -1.52606,0.0103 -3.10378,0.0882 -4.73438,0.23243 -4.55312,0.40278 -4.84002,0.52078 -4.47265,1.83984 2.33884,8.40219 -0.46278,10.19698 -8.32813,5.33594 -1.74924,-1.08114 -4.96299,17.68697 -4.01172,23.42773 2.22819,13.44643 7.96845,18.45315 21.70703,18.93164 11.08472,0.38608 18.72692,1.76809 29.48633,5.33203 2.73612,0.90633 5.24345,1.6751 5.57227,1.71289 0.34771,0.038 0.42964,-4.03487 0.19531,-9.71875 -1.33175,-32.26602 -12.52317,-47.24862 -35.41406,-47.09375 z m 82.32422,44.58008 c -3.02224,0.004 -5.86848,0.87368 -8.23438,2.73242 -6.56549,5.15815 -18.38821,11.14968 -30.01562,15.2129 -3.92175,1.37045 -7.13086,2.63101 -7.13086,2.79882 0,0.16804 2.49522,3.33505 5.54492,7.03907 11.22663,13.6354 21.10472,21.47612 30.27344,24.02734 8.99675,2.50333 18.05414,0.0128 28.28906,-7.77539 6.07279,-4.62104 6.01666,-4.34764 1.8125,-8.59961 -3.683,-3.72491 -3.68458,-3.72434 0.84961,-4.87891 2.49384,-0.63496 4.88827,-1.25569 5.32031,-1.3789 0.91744,-0.26117 -2.02702,-8.36735 -5.20508,-14.33008 -4.91122,-9.21438 -13.78041,-14.85685 -21.5039,-14.84766 z m -85.58008,8.45508 c -17.38528,0.12869 -25.3418,6.48952 -31.04688,24.05469 -2.5878,7.96758 -2.72571,7.71445 4.75,8.68945 4.23576,0.55249 4.22846,0.3975 0.24219,5.23242 -3.23989,3.92962 -3.23985,3.92883 -0.61523,5.83008 4.05792,2.93957 10.85043,6.50916 15.00976,7.88672 h 0.002 c 10.06738,3.3343 24.50137,-0.7458 25.91211,-7.32422 1.72456,-8.04109 6.62106,-18.0196 14.80079,-30.16601 6.01492,-8.93186 6.118,-8.2755 -1.64844,-10.3711 -10.47058,-2.82527 -14.27334,-3.42843 -23.80274,-3.77539 -1.24496,-0.0453 -2.44449,-0.0652 -3.60351,-0.0566 z m 35.12109,11.92578 c -1.18941,0.0478 -2.19926,2.28796 -4.89648,6.34375 -19.36392,29.11759 -18.24866,47.35725 3.80273,62.15039 4.49628,3.01629 4.49591,3.01785 6.64453,-1.24414 2.8633,-5.67961 2.96547,-5.69168 6.13086,-0.67969 3.11464,4.93172 3.7166,4.75712 12.21094,-3.5332 12.08999,-11.79961 14.40145,-27.84416 4.85742,-33.70508 -4.44899,-2.73207 -17.3484,-15.14681 -21.30273,-20.50195 -4.52186,-6.12363 -6.09927,-8.88425 -7.44727,-8.83008 z"
                   transform="scale(0.26458334)" /></g></g><g
               id="g2094-4-9-5"
               transform="matrix(-0.86403141,0.07076258,0.07076258,0.86403141,-35.174809,350.6329)"
               style="display:inline"
               inkscape:label="top-sakura"><g
                 id="g540-0-7-4-0"
                 transform="translate(268.69567,-36.417917)"
                 style="display:inline"
                 inkscape:label="small-sakura"><path
                   id="path260-8-8-7-2"
                   style="display:inline;fill:none;stroke:#ff00ff;stroke-width:0.120988;stroke-dasharray:none"
                   d="m -163.68883,124.74702 c -0.29859,-0.29211 -0.76102,-0.62999 -1.40599,-1.0444 -2.02406,-1.30056 -4.93597,-1.21423 -5.543,0.1645 -0.73809,1.67642 -1.95945,3.38232 -3.69262,5.15758 -1.13569,1.16329 -1.14999,1.04474 0.20256,1.67497 5.86245,2.73169 9.1453,2.03654 11.16089,-2.363 0.42513,-0.92793 0.44579,-0.88216 -0.54107,-1.206 -0.41545,-0.1364 -0.78089,-0.27327 -0.81209,-0.30442 -0.0312,-0.0311 0.27218,-0.34426 0.6745,-0.69553 0.499,-0.43571 0.52688,-0.82606 -0.0432,-1.3837 z m -8.94283,-7.3573 c -0.19575,-0.19281 -0.40669,-0.38357 -0.6328,-0.5726 -0.63137,-0.52786 -0.68293,-0.54932 -0.80391,-0.33451 -0.77077,1.36806 -1.35604,1.24037 -1.73987,-0.37949 -0.0854,-0.36025 -2.88218,1.62227 -3.4912,2.47473 -1.42653,1.99671 -1.332,3.3648 0.35763,5.17335 1.36325,1.4592 2.16118,2.6074 3.07875,4.43012 0.23332,0.46351 0.455,0.88041 0.4921,0.92704 0.0395,0.0491 0.56798,-0.45945 1.26114,-1.21345 3.93462,-4.28057 4.41449,-7.61314 1.47816,-10.50519 z m 4.8186,16.15198 c -0.38557,-0.38392 -0.85886,-0.63516 -1.39673,-0.69928 -1.49269,-0.1779 -3.7612,-0.91838 -5.75955,-1.87971 -0.67402,-0.32424 -1.24325,-0.57184 -1.26459,-0.55046 -0.0214,0.0214 -0.10633,0.74233 -0.18891,1.6022 -0.30401,3.16541 -0.0428,5.42095 0.80095,6.91229 0.82788,1.46337 2.29872,2.29817 4.59348,2.60773 1.36155,0.18376 1.31965,0.2113 1.32482,-0.86515 0.005,-0.9431 0.004,-0.94321 0.72887,-0.51357 0.39852,0.23632 0.78255,0.46181 0.85327,0.50106 0.15013,0.0834 0.80608,-1.32397 1.15963,-2.48796 0.54633,-1.79877 0.13401,-3.64587 -0.85125,-4.62716 z m -11.97965,-9.80868 c -2.23149,-2.19505 -4.05438,-2.39669 -7.01563,-0.88432 -1.34321,0.68601 -1.32859,0.63622 -0.50009,1.71136 0.46942,0.6092 0.4882,0.58853 -0.63472,0.69751 -0.91268,0.0886 -0.91257,0.0885 -0.81998,0.66458 0.1431,0.89072 0.55451,2.20955 0.90924,2.91415 l 2.5e-4,2.5e-4 c 0.85861,1.70543 3.2167,3.02161 4.23324,2.36288 1.24259,-0.80519 3.13575,-1.45375 5.72302,-1.9609 1.90255,-0.37294 1.8322,-0.27618 1.10919,-1.53111 -0.97471,-1.69186 -1.38252,-2.25243 -2.55257,-3.5088 -0.15286,-0.16414 -0.30317,-0.31925 -0.45195,-0.46559 z m 2.95795,5.987 c -0.15762,-0.1452 -0.57125,0.0118 -1.43082,0.18545 -6.17105,1.24686 -8.34909,3.71272 -7.42114,8.40257 0.18921,0.95625 0.18896,0.95641 1.00486,0.68668 1.08729,-0.35946 1.10184,-0.34799 0.86763,0.69326 -0.23042,1.02456 -0.13154,1.07889 2.00527,1.10307 3.04138,0.0344 5.3768,-1.71585 4.90627,-3.67664 -0.21934,-0.91402 -0.28372,-4.13669 -0.10638,-5.32201 0.20283,-1.35541 0.35292,-1.90782 0.17433,-2.07237 z"
                   inkscape:transform-center-x="-0.31709322"
                   inkscape:transform-center-y="-0.63436207" /></g><g
                 id="g540-6-9-5-1"
                 transform="translate(244.92846,-61.157554)"
                 style="display:inline;fill:none;fill-opacity:1"
                 inkscape:label="big-sakura"><path
                   id="path260-2-0-9-0"
                   style="display:inline;fill:none;fill-opacity:1;stroke:#ff00ff;stroke-width:0.672;stroke-dasharray:none"
                   d="m -630.92188,446.78516 c -2.31996,0.0236 -5.46362,0.51013 -9.625,1.41211 -13.0597,2.83063 -24.16691,14.59692 -21.14257,22.39843 3.67736,9.48605 5.57078,20.98424 5.72461,34.76368 0.10083,9.02929 -0.42054,8.61943 7.36914,5.78906 33.76339,-12.2679 43.93955,-27.88284 34.59765,-53.08594 -1.97034,-5.31568 -1.70943,-5.2169 -6.85937,-2.61719 -2.16813,1.09448 -4.14181,1.99024 -4.38672,1.99024 -0.24454,0 -0.28109,-2.42134 -0.0781,-5.38086 0.25163,-3.67084 -1.17058,-5.31455 -5.59961,-5.26953 z m -64.02343,6.17382 c -1.52606,0.0103 -3.10378,0.0882 -4.73438,0.23243 -4.55312,0.40278 -4.84002,0.52078 -4.47265,1.83984 2.33884,8.40219 -0.46278,10.19698 -8.32813,5.33594 -1.74924,-1.08114 -4.96299,17.68697 -4.01172,23.42773 2.22819,13.44643 7.96845,18.45315 21.70703,18.93164 11.08472,0.38608 18.72692,1.76809 29.48633,5.33203 2.73612,0.90633 5.24345,1.6751 5.57227,1.71289 0.34771,0.038 0.42964,-4.03487 0.19531,-9.71875 -1.33175,-32.26602 -12.52317,-47.24862 -35.41406,-47.09375 z m 82.32422,44.58008 c -3.02224,0.004 -5.86848,0.87368 -8.23438,2.73242 -6.56549,5.15815 -18.38821,11.14968 -30.01562,15.2129 -3.92175,1.37045 -7.13086,2.63101 -7.13086,2.79882 0,0.16804 2.49522,3.33505 5.54492,7.03907 11.22663,13.6354 21.10472,21.47612 30.27344,24.02734 8.99675,2.50333 18.05414,0.0128 28.28906,-7.77539 6.07279,-4.62104 6.01666,-4.34764 1.8125,-8.59961 -3.683,-3.72491 -3.68458,-3.72434 0.84961,-4.87891 2.49384,-0.63496 4.88827,-1.25569 5.32031,-1.3789 0.91744,-0.26117 -2.02702,-8.36735 -5.20508,-14.33008 -4.91122,-9.21438 -13.78041,-14.85685 -21.5039,-14.84766 z m -85.58008,8.45508 c -17.38528,0.12869 -25.3418,6.48952 -31.04688,24.05469 -2.5878,7.96758 -2.72571,7.71445 4.75,8.68945 4.23576,0.55249 4.22846,0.3975 0.24219,5.23242 -3.23989,3.92962 -3.23985,3.92883 -0.61523,5.83008 4.05792,2.93957 10.85043,6.50916 15.00976,7.88672 h 0.002 c 10.06738,3.3343 24.50137,-0.7458 25.91211,-7.32422 1.72456,-8.04109 6.62106,-18.0196 14.80079,-30.16601 6.01492,-8.93186 6.118,-8.2755 -1.64844,-10.3711 -10.47058,-2.82527 -14.27334,-3.42843 -23.80274,-3.77539 -1.24496,-0.0453 -2.44449,-0.0652 -3.60351,-0.0566 z m 35.12109,11.92578 c -1.18941,0.0478 -2.19926,2.28796 -4.89648,6.34375 -19.36392,29.11759 -18.24866,47.35725 3.80273,62.15039 4.49628,3.01629 4.49591,3.01785 6.64453,-1.24414 2.8633,-5.67961 2.96547,-5.69168 6.13086,-0.67969 3.11464,4.93172 3.7166,4.75712 12.21094,-3.5332 12.08999,-11.79961 14.40145,-27.84416 4.85742,-33.70508 -4.44899,-2.73207 -17.3484,-15.14681 -21.30273,-20.50195 -4.52186,-6.12363 -6.09927,-8.88425 -7.44727,-8.83008 z"
                   transform="scale(0.26458334)" /></g></g></g></g><path
           id="rect993-0-9"
           style="display:inline;fill:none;stroke:#ff00ff;stroke-width:0.119478"
           inkscape:label="jsa-shippo"
           d="m -304.52289,111.01187 v 5.45032 c 1.1294,1.15091 2.29473,2.20268 3.27783,2.90419 3.09779,2.21055 7.60536,4.02969 11.01794,4.44625 1.02315,0.12491 1.46089,0.30824 1.46089,0.61288 0,0.31192 -0.47797,0.49464 -1.6893,0.64595 -2.34811,0.29332 -6.15921,1.65981 -8.84236,3.17037 -1.47089,0.82807 -3.44073,2.46674 -5.225,4.23334 v 16.51992 c 1.29254,-0.41796 2.58759,-0.89488 3.48609,-1.34514 7.19911,-3.60778 12.67184,-10.84586 13.95781,-18.45935 0.27306,-1.61668 0.50574,-2.2602 0.83405,-2.30838 0.3538,-0.052 0.49573,0.32406 0.63821,1.68725 0.10076,0.96461 0.55927,2.84406 1.01854,4.17647 2.19504,6.36823 7.02694,11.89318 13.03486,14.90401 2.12448,1.06465 6.42321,2.36265 7.82382,2.36265 0.79126,0 0.98495,0.11427 0.98495,0.58134 0,0.46297 -0.1939,0.5819 -0.95085,0.5819 -2.55932,0 -8.236,2.23366 -11.38225,4.47878 -2.5581,1.82544 -5.90643,5.50154 -7.39955,8.12406 -1.51885,2.66772 -2.86024,6.39929 -3.11919,8.67646 -0.11577,1.01798 -0.34673,1.71513 -0.59996,1.81229 -0.22635,0.0868 -0.46111,-0.004 -0.52142,-0.2005 -0.0603,-0.1972 -0.18594,-0.99873 -0.27957,-1.78128 -0.25109,-2.09857 -1.66402,-5.95686 -3.11298,-8.50181 -1.49587,-2.62731 -4.84225,-6.30251 -7.40214,-8.12922 -1.84763,-1.31844 -4.56123,-2.62038 -7.01042,-3.48093 v 16.69872 c 2.0394,2.02364 4.42931,3.75375 7.09,5.08911 1.76553,0.88609 6.19025,2.21847 7.367,2.21847 1.16188,0 1.72353,0.27382 1.54047,0.75087 -0.0913,0.23799 -0.55517,0.41185 -1.09812,0.41185 -1.41084,0 -5.05399,1.00332 -7.2347,1.99212 -2.8039,1.27135 -5.42148,3.17111 -7.66465,5.43481 v 16.62533 c 7.1526,-2.34156 13.40759,-8.16091 16.18971,-15.39232 0.70571,-1.83438 0.9978,-2.9546 1.62987,-6.25078 0.22674,-1.18248 0.90413,-0.41603 1.07229,1.21335 0.22434,2.17366 1.64388,6.12706 3.15071,8.77364 1.49587,2.62728 4.84275,6.30248 7.40265,8.12922 3.01334,2.15026 7.39501,3.94604 10.82673,4.43693 0.95774,0.137 1.38272,0.34152 1.45159,0.69918 0.0768,0.39902 -0.10787,0.50591 -0.87488,0.50591 -2.58568,0 -8.24567,2.22576 -11.41894,4.49017 -2.52516,1.80186 -5.88482,5.50325 -7.40265,8.1561 -1.45561,2.54399 -2.84,6.42538 -3.10937,8.71728 -0.19319,1.6438 -0.87527,2.41162 -1.09451,1.23198 -1.32593,-7.13391 -3.57805,-11.51557 -8.1256,-15.80732 -1.32969,-1.25492 -3.42516,-2.85459 -4.65657,-3.55481 -1.46311,-0.83196 -3.30732,-1.62468 -5.04103,-2.21539 v 16.62277 c 4.09504,4.07734 9.19141,6.7078 14.24874,7.32515 1.0623,0.12965 1.50792,0.31213 1.50792,0.61854 0,0.312 -0.47795,0.49467 -1.6893,0.64598 -4.43827,0.55433 -9.74465,3.20321 -13.48032,6.72878 -0.21069,0.19883 -0.38726,0.39283 -0.58704,0.58962 v 16.66203 c 7.61903,-2.52724 13.85593,-8.57467 16.52044,-16.30494 0.45907,-1.33181 0.91147,-3.06219 1.0051,-3.84472 0.23155,-1.93521 0.32424,-2.16479 0.80099,-1.98181 0.25323,0.0971 0.48419,0.79431 0.59996,1.81229 0.47824,4.2055 3.14087,9.57766 6.54689,13.20747 4.09161,4.36034 8.39939,6.76638 14.16296,7.91168 l 1.65726,0.32917 0.33952,-0.0164 -0.20102,0.0445 0.20102,0.0398 -0.4067,0.005 -2.06499,0.45423 c -5.31386,1.1692 -9.8062,3.71679 -13.55059,7.6843 -1.26579,1.3412 -2.86615,3.43622 -3.56826,4.67103 -1.54954,2.72508 -2.95516,6.69446 -3.1564,8.91365 -0.10747,1.1855 -0.26811,1.64383 -0.57671,1.64383 -0.23532,0 -0.46978,-0.14202 -0.52089,-0.31522 -0.0511,-0.1732 -0.16941,-0.95538 -0.26304,-1.73789 -0.2509,-2.09698 -1.66332,-5.95551 -3.11298,-8.5049 -1.55566,-2.73579 -5.09215,-6.54648 -7.73855,-8.338 -2.03332,-1.37644 -4.33276,-2.49777 -6.67401,-3.28557 v 16.57779 c 4.00426,4.01746 8.41422,6.38929 13.48961,7.24659 2.8079,0.47419 3.10708,1.10826 0.66766,1.41386 -5.06718,0.635 -10.20435,3.40799 -14.15727,7.3334 v 16.62173 c 1.0116,-0.33858 2.04246,-0.73445 3.06234,-1.20456 7.20774,-3.32222 13.03742,-10.78241 14.30611,-18.3069 0.45721,-2.71171 0.47932,-2.7678 0.99373,-2.5704 0.25141,0.097 0.44701,0.51946 0.44701,0.96637 0,1.2895 1.04794,5.00692 2.00814,7.12462 3.54401,7.81611 11.30828,13.78005 19.45825,14.94586 0.91501,0.13089 1.35754,0.33359 1.35754,0.6227 0,0.28919 -0.44253,0.49231 -1.35754,0.62322 -9.01474,1.2895 -17.22489,8.23069 -20.33055,17.18808 -0.45689,1.31781 -0.91507,3.1405 -1.01854,4.0504 -0.11577,1.01801 -0.34673,1.71521 -0.59996,1.81229 -0.22635,0.087 -0.45785,-0.0103 -0.51418,-0.20101 -0.0563,-0.19719 -0.2561,-1.26994 -0.4439,-2.38384 -1.26869,-7.52448 -7.09837,-14.98417 -14.30611,-18.30636 -1.01988,-0.47011 -2.05074,-0.86601 -3.06234,-1.2046 v 16.5344 c 0.0196,0.0198 0.0361,0.0397 0.0558,0.0594 4.00443,4.00442 8.05358,6.23134 12.96923,7.13344 1.02264,0.18769 2.14904,0.3946 2.50321,0.45939 1.26304,0.23141 0.38725,0.89974 -1.4273,1.08934 -2.36056,0.24681 -6.10278,1.5665 -8.87181,3.12849 -1.47134,0.82997 -3.44349,2.47068 -5.22914,4.23746 v 16.5897 c 7.08259,-2.30537 13.41251,-8.18238 16.18971,-15.40114 0.70571,-1.8343 0.9978,-2.95468 1.62987,-6.25078 0.22674,-1.1825 0.90413,-0.41603 1.07229,1.21335 0.2242,2.17213 1.64312,6.12545 3.15071,8.77674 0.7002,1.23139 2.29992,3.32676 3.55482,4.65656 4.27832,4.53321 8.76702,6.84371 15.76907,8.1163 1.07969,0.19622 0.72497,0.99529 -0.44184,0.99529 -1.40663,0 -4.86108,0.97999 -7.21196,2.04589 -5.56048,2.52119 -10.36582,7.36184 -12.93668,13.03176 -0.96712,2.13288 -1.9668,5.78241 -1.9668,7.17992 0,1.12598 -0.79519,1.6288 -0.99477,0.62889 -0.0707,-0.3542 -0.28002,-1.49472 -0.46509,-2.53421 -1.33213,-7.4817 -7.13591,-14.84971 -14.30662,-18.16272 -0.93755,-0.43318 -1.99576,-0.82182 -3.04271,-1.1684 v 16.60054 c 1.12934,1.15083 2.29479,2.20221 3.27783,2.9037 3.09779,2.21048 7.60536,4.02963 11.01794,4.44624 1.02315,0.12491 1.46089,0.30829 1.46089,0.61288 0,0.312 -0.47797,0.49467 -1.6893,0.64595 -2.34811,0.2933 -6.15921,1.65976 -8.84236,3.17035 -1.47088,0.82806 -3.44074,2.46676 -5.225,4.23333 v 5.35266 h 14.10611 c 1.6615,-2.68844 2.83008,-5.63145 3.33779,-8.6372 0.27306,-1.61681 0.50574,-2.2603 0.83405,-2.30838 0.3538,-0.052 0.49573,0.32404 0.63821,1.68722 0.10076,0.96459 0.55927,2.84398 1.01854,4.1765 0.61097,1.77253 1.43245,3.47602 2.42052,5.08186 h 18.33118 c -3.84012,-6.66293 -11.2208,-11.8685 -18.38802,-12.76668 -2.14489,-0.26868 -2.22528,-0.9938 -0.13849,-1.24849 3.15162,-0.3847 7.68372,-2.13683 10.51047,-4.06331 2.03044,-1.3838 5.19358,-4.49329 6.67556,-6.56241 2.19488,-3.06448 4.01867,-7.58558 4.43487,-10.99518 0.12514,-1.02521 0.30831,-1.4609 0.61443,-1.4609 0.30612,0 0.48929,0.43569 0.61443,1.4609 0.4162,3.4096 2.23948,7.9307 4.43436,10.99518 1.48198,2.06912 4.64512,5.17861 6.67556,6.56241 2.8875,1.96789 8.53826,4.09638 10.8753,4.09638 0.75694,0 0.95086,0.11835 0.95086,0.58137 0,0.46289 -0.19392,0.58134 -0.95086,0.58134 -2.55932,0 -8.23601,2.2337 -11.38225,4.47882 -2.55989,1.82668 -5.90678,5.5019 -7.40264,8.12922 -0.038,0.0668 -0.0748,0.143 -0.11266,0.21135 h 18.35753 c 1.12708,-1.81814 2.04185,-3.76198 2.66031,-5.79811 0.35359,-1.16409 0.72562,-2.79495 0.82682,-3.62405 0.25181,-2.06291 0.9851,-2.09085 1.23455,-0.047 0.3973,3.25477 1.63713,6.508 3.48505,9.4692 h 14.11492 v -5.46738 c -1.13568,-1.13538 -2.32342,-2.1943 -3.28716,-2.88457 -3.11296,-2.22959 -8.80301,-4.46744 -11.35951,-4.46744 -0.75692,0 -0.95083,-0.11845 -0.95083,-0.58134 0,-0.46712 0.19368,-0.58137 0.98494,-0.58137 1.40807,0 5.708,-1.30214 7.82382,-2.36884 2.54911,-1.28529 4.81844,-2.92502 6.78874,-4.89169 v -16.79329 c -4.90829,1.65676 -10.0901,5.39194 -13.16924,9.7069 -2.23038,3.12571 -4.46328,8.80925 -4.46328,11.36054 0,0.7569 -0.11893,0.95084 -0.58187,0.95084 -0.46709,0 -0.58137,-0.19376 -0.58137,-0.98494 0,-1.4007 -1.29799,-5.69931 -2.36265,-7.82381 -3.61114,-7.20582 -11.53387,-13.14008 -18.72392,-14.02501 -1.65163,-0.20328 -2.30786,-0.55446 -1.99161,-1.06606 0.0788,-0.1276 0.56345,-0.23203 1.07694,-0.23203 2.32069,0 7.98076,-2.1353 10.85826,-4.09639 3.39821,-2.3159 6.92063,-6.3531 8.78033,-10.06398 1.06466,-2.1245 2.36265,-6.42321 2.36265,-7.82381 0,-0.79132 0.11428,-0.98497 0.58137,-0.98497 0.46294,0 0.58187,0.19394 0.58187,0.95084 0,2.55651 2.2378,8.24653 4.4674,11.35951 1.48199,2.06912 4.64514,5.17869 6.67557,6.56241 1.63981,1.11757 4.17545,2.27819 6.48955,3.08147 V 340.924 c -3.56823,-3.55418 -8.12123,-6.11873 -12.98062,-7.00993 -1.03942,-0.1905 -2.17952,-0.39915 -2.53369,-0.46405 -1.08173,-0.19809 -0.47546,-0.98443 0.75914,-0.98443 2.56499,0 7.64489,-1.90643 10.9032,-4.09173 1.21301,-0.81357 2.59363,-1.98469 3.85197,-3.22152 v -16.7442 c -7.37468,2.3963 -13.86769,8.66256 -16.51529,16.3437 -0.4637,1.34541 -0.93779,3.19517 -1.05314,4.11086 -0.1959,1.55501 -0.55648,2.14162 -1.02733,1.67071 -0.10993,-0.11001 -0.2,-0.62169 -0.2,-1.13688 0,-2.348 -2.10788,-7.85858 -4.16409,-10.88668 -1.31667,-1.9389 -4.45847,-5.12268 -6.4947,-6.58098 -3.11295,-2.2297 -8.80298,-4.46744 -11.3595,-4.46744 -0.75693,0 -0.95085,-0.11888 -0.95085,-0.58187 0,-0.46702 0.19421,-0.58137 0.98547,-0.58137 1.4006,0 5.6988,-1.29794 7.82331,-2.36265 4.92707,-2.46909 9.28803,-6.82292 11.76827,-11.74864 1.05793,-2.101 2.10005,-5.42047 2.35333,-7.49565 0.25178,-2.0629 0.98507,-2.09094 1.23455,-0.047 0.41574,3.40601 2.2357,7.92036 4.43538,11.00296 1.40899,1.97448 4.63085,5.14131 6.61821,6.5045 1.83592,1.25941 4.22429,2.39511 6.54638,3.16621 v -16.71733 c -1.95726,-1.96971 -4.1706,-3.6309 -6.4389,-4.76662 -2.26777,-1.13549 -5.64494,-2.24118 -7.55923,-2.47478 -1.25972,-0.15381 -1.74457,-0.33394 -1.74457,-0.64802 0,-0.30642 0.44508,-0.48898 1.50737,-0.61857 3.89671,-0.4757 8.67468,-2.57527 12.13414,-5.33196 0.73332,-0.58439 1.43232,-1.22008 2.10119,-1.89035 v -16.7262 c -6.78194,2.23684 -12.4958,7.20797 -15.44298,13.58678 -1.13999,2.4674 -2.18954,6.02184 -2.18954,7.41505 0,0.757 -0.11893,0.95084 -0.58187,0.95084 -0.46297,0 -0.58137,-0.19384 -0.58137,-0.95084 v 0 c 0,-2.33711 -2.12852,-7.98782 -4.09638,-10.8753 -1.37904,-2.02351 -4.49466,-5.19604 -6.5159,-6.63474 -3.12412,-2.22361 -6.27573,-3.56473 -10.21487,-4.34756 l -1.84847,-0.3674 -0.14779,-0.003 0.0687,-0.014 -0.0687,-0.0135 0.14986,-0.003 1.8464,-0.36689 c 5.32273,-1.0577 9.16752,-3.05599 13.0824,-6.79961 4.21153,-4.02733 7.07396,-9.46835 7.70599,-14.64665 0.25178,-2.0629 0.98507,-2.09089 1.23455,-0.047 0.3847,3.15161 2.13738,7.68429 4.06383,10.51097 1.37901,2.02348 4.49466,5.19615 6.51589,6.63474 2.23203,1.5888 4.483,2.7209 7.02025,3.52692 v -16.65943 c -1.70673,-1.66256 -3.65813,-3.23141 -5.2364,-4.12999 -2.6021,-1.48159 -6.50216,-2.89401 -8.6868,-3.14605 -2.146,-0.24763 -2.68474,-1.25058 -0.67179,-1.25058 1.43157,0 5.71872,-1.31681 7.94939,-2.44171 2.44785,-1.23441 4.69834,-2.88253 6.6456,-4.82039 v -16.72093 c -1.71755,0.57933 -3.53367,1.36364 -5.02968,2.21536 -2.62252,1.49309 -6.29862,4.84142 -8.12406,7.39955 -2.24508,3.14624 -4.47878,8.8229 -4.47878,11.38224 0,0.75695 -0.11893,0.95086 -0.58187,0.95086 -0.46709,0 -0.58137,-0.19368 -0.58137,-0.98496 0,-1.4006 -1.29799,-5.69929 -2.36265,-7.82381 -3.00347,-5.99316 -8.51617,-10.82271 -14.86679,-13.02452 -1.31778,-0.45693 -3.15432,-0.91675 -4.0814,-1.02216 -1.33113,-0.15137 -1.66674,-0.2899 -1.59577,-0.65836 0.0608,-0.31531 0.54481,-0.53197 1.49345,-0.66765 8.01538,-1.14655 15.72613,-6.98426 19.22363,-14.55418 1.13996,-2.46732 2.18953,-6.02133 2.18953,-7.41452 0,-0.75695 0.1184,-0.95083 0.58137,-0.95083 0.46294,0 0.58187,0.19388 0.58187,0.95083 0,2.55651 2.2378,8.24653 4.4674,11.35951 1.45847,2.03624 4.64199,5.17801 6.58101,6.49471 1.87563,1.27362 4.25768,2.40622 6.58411,3.18222 v -16.76125 c -1.01055,-1.01642 -2.10434,-1.95482 -3.2856,-2.79776 -3.21781,-2.29618 -8.81565,-4.46381 -11.52797,-4.46381 -0.90773,0 -1.0991,-0.0952 -1.01957,-0.5085 0.0722,-0.37553 0.49221,-0.55719 1.60194,-0.69297 0.82703,-0.10123 2.45501,-0.4731 3.61788,-0.82632 4.02241,-1.22177 7.63596,-3.43257 10.61332,-6.41459 v -16.70182 c -1.73718,0.59028 -3.56452,1.37451 -5.04984,2.21073 -2.95699,1.6647 -7.37098,5.98937 -9.07852,8.89505 -1.63794,2.78733 -2.8386,5.94995 -3.30315,8.70024 -0.35417,2.09688 -0.68096,2.72656 -1.16425,2.24327 -0.10993,-0.10993 -0.2,-0.60598 -0.2,-1.10225 0,-2.28762 -2.15921,-7.99817 -4.07934,-10.789 -1.43023,-2.07872 -4.56544,-5.28129 -6.5722,-6.7133 -3.08261,-2.19969 -7.59648,-4.01912 -11.00244,-4.43486 -2.04381,-0.24948 -2.01579,-0.98277 0.047,-1.23455 9.21628,-1.1249 17.91975,-8.65455 20.74137,-17.94412 0.35359,-1.16412 0.72562,-2.79495 0.82682,-3.62408 0.25181,-2.0629 0.9851,-2.09092 1.23455,-0.047 0.94557,7.74645 6.61576,15.50403 14.07873,19.26188 0.98822,0.49758 2.25023,0.9851 3.52124,1.39526 v -16.65531 c -1.1357,-1.13541 -2.32342,-2.19432 -3.28716,-2.8846 -3.11296,-2.22961 -8.80301,-4.46741 -11.35951,-4.46741 -0.75692,0 -0.95083,-0.11842 -0.95083,-0.58137 0,-0.46706 0.19368,-0.58187 0.98494,-0.58187 1.40807,0 5.708,-1.30156 7.82382,-2.36834 2.54911,-1.28526 4.81844,-2.92499 6.78874,-4.89169 v -5.57329 h -14.12985 c -1.86753,3.20445 -3.50263,7.66604 -3.50263,9.84745 0,0.75694 -0.11893,0.95086 -0.58187,0.95086 -0.46709,0 -0.58137,-0.19371 -0.58137,-0.98497 0,-1.4006 -1.29799,-5.69933 -2.36265,-7.82381 -0.3393,-0.67707 -0.72821,-1.33805 -1.13945,-1.98953 h -18.39062 c 0.42935,0.77277 0.88145,1.51199 1.35599,2.17453 1.48198,2.06909 4.64512,5.17861 6.67556,6.56241 2.8875,1.96786 8.53826,4.09638 10.8753,4.09638 0.75694,0 0.95086,0.11893 0.95086,0.58187 0,0.46295 -0.19392,0.58137 -0.95086,0.58137 -2.55932,0 -8.23601,2.23367 -11.38225,4.47879 -2.55989,1.82671 -5.90678,5.50191 -7.40264,8.12922 -1.51087,2.65366 -2.92693,6.60127 -3.15278,8.78964 -0.13209,1.27974 -0.26227,1.57149 -0.7028,1.57149 -0.41701,0 -0.54105,-0.21775 -0.54105,-0.95086 0,-1.39319 -1.04955,-4.9477 -2.18953,-7.41505 -3.46702,-7.5039 -11.52845,-13.57402 -19.32544,-14.55105 -2.14489,-0.26876 -2.22528,-0.99325 -0.13849,-1.24799 3.15162,-0.38468 7.68372,-2.13735 10.51047,-4.06381 2.03044,-1.3838 5.19358,-4.49332 6.67556,-6.56241 0.47453,-0.66252 0.92665,-1.40179 1.35599,-2.17453 h -18.36477 c -0.58296,0.93856 -1.1086,1.9087 -1.56115,2.90679 -0.96712,2.13291 -1.9668,5.78247 -1.9668,7.17992 0,1.12599 -0.79519,1.6283 -0.99477,0.62838 -0.0707,-0.35414 -0.28002,-1.49426 -0.46509,-2.5337 -0.50088,-2.8131 -1.63476,-5.60993 -3.23495,-8.18139 z m 14.86472,0 c 1.28923,2.23184 2.41639,4.85238 2.82154,6.65488 0.1887,0.83953 0.43885,1.52652 0.55552,1.52652 0.11667,0 0.30231,-0.49067 0.41289,-1.09035 0.30659,-1.66264 1.63378,-4.79872 2.97243,-7.09105 z m 26.52965,0 c -0.9958,1.76792 -2.20695,3.49179 -3.57342,5.04569 -2.91065,3.30986 -8.2206,6.6035 -12.42405,7.70599 -1.0645,0.27919 -1.9358,0.57721 -1.9358,0.66196 0,0.0847 0.88327,0.40119 1.96267,0.70331 4.29465,1.20222 7.59698,3.11275 11.06496,6.4017 3.51705,3.33547 6.75033,8.84439 7.47706,12.73977 0.11187,0.59971 0.30512,1.09038 0.42943,1.09038 0.12432,0 0.31668,-0.49067 0.42737,-1.09038 0.61257,-3.31859 3.42892,-8.44838 6.37739,-11.61582 3.30581,-3.55131 8.0155,-6.47647 12.16618,-7.5556 1.07939,-0.28064 1.96268,-0.58925 1.96268,-0.68627 0,-0.097 -0.67064,-0.33168 -1.49037,-0.52089 -6.54529,-1.51085 -12.8786,-6.6562 -16.43516,-12.87984 z m 25.82272,0 c 1.07469,1.933 2.15924,4.37515 2.61017,6.00068 0.26617,0.95945 0.55221,1.94087 0.63563,2.18072 0.0834,0.23987 0.38963,-0.47948 0.68057,-1.59885 0.29093,-1.11938 0.92249,-2.90553 1.40303,-3.96928 0.40195,-0.88982 0.88148,-1.75916 1.39938,-2.61327 z m -67.21709,6.32931 v 14.19604 c 1.97782,-1.92424 4.19404,-3.56471 6.45232,-4.71236 1.34168,-0.68183 5.47616,-2.10736 6.11177,-2.10736 1.06932,0 0.25311,-0.51517 -1.56218,-0.98599 -3.78268,-0.9811 -7.70656,-3.29388 -11.00191,-6.39033 z m 88.7765,0.0419 c -1.15404,1.09389 -2.40888,2.09624 -3.74862,2.98585 -2.51259,1.66841 -6.02351,3.23305 -8.14163,3.6282 -0.59965,0.11187 -1.09037,0.30562 -1.09037,0.42995 0,0.12433 0.49072,0.31628 1.09037,0.42685 3.46578,0.63908 8.56298,3.48377 11.89025,6.63112 z m -70.51974,11.98634 c -0.10307,0 -0.36154,0.75223 -0.57412,1.67171 -1.94888,8.43042 -9.39599,16.23793 -17.68264,18.66554 v 1.77665 c 2.37833,0.75959 5.74467,2.45647 7.77989,3.95997 1.99428,1.47327 5.24017,4.94778 6.60631,7.07138 1.32044,2.05256 2.49463,4.63696 3.10679,6.83784 0.2661,0.95671 0.55221,1.93572 0.63562,2.17556 0.0834,0.23987 0.39059,-0.47998 0.68264,-1.59938 0.29206,-1.11937 0.87718,-2.8104 1.3007,-3.7579 3.22045,-7.20476 10.05477,-13.09849 17.37,-14.97997 1.16359,-0.29929 1.91934,-0.60706 1.67948,-0.68368 -0.23987,-0.0766 -1.56804,-0.4921 -2.95175,-0.92345 -5.4218,-1.69011 -10.51487,-5.58845 -13.88598,-10.62829 -1.74218,-2.60461 -3.34707,-6.25559 -3.68866,-8.39173 -0.10505,-0.65683 -0.27518,-1.19425 -0.37828,-1.19425 z m 52.31517,0.29093 c -0.0943,0 -0.40582,0.90877 -0.69197,2.01951 -1.91278,7.4253 -8.4388,14.54434 -16.0357,17.49299 -1.11938,0.43449 -2.52572,0.88132 -3.12539,0.99271 -1.10479,0.20527 -1.51537,0.71583 -0.58136,0.72295 1.07826,0.009 5.36399,1.71961 7.62176,3.04324 5.85639,3.43339 11.28583,10.67636 12.3734,16.50595 0.19357,1.03754 0.72038,1.54014 0.72038,0.68731 0,-1.01505 1.65166,-5.21423 2.95174,-7.50446 3.13195,-5.51712 9.17894,-10.38905 14.97171,-12.13879 v -1.78078 c -8.1202,-2.41252 -15.5576,-10.15683 -17.65112,-18.51411 -0.21031,-0.83953 -0.45921,-1.52652 -0.55345,-1.52652 z m -26.17671,23.55051 c 0.46294,0 0.58136,0.19389 0.58136,0.95084 0,2.55651 2.23779,8.24656 4.46743,11.35951 1.48198,2.06912 4.64512,5.17861 6.67556,6.56238 2.82456,1.92498 7.35703,3.67784 10.50687,4.06334 1.06767,0.13065 1.48267,0.31435 1.55442,0.68728 0.0778,0.40431 -0.10591,0.50851 -0.89453,0.50851 -2.79723,0 -8.42086,2.15812 -11.67371,4.47931 -2.55989,1.82671 -5.90678,5.50191 -7.40264,8.12922 -1.49677,2.6289 -2.87362,6.45009 -3.1688,8.79327 -0.19586,1.55482 -0.78318,2.39813 -1.0573,1.51876 -0.0665,-0.2132 -0.19731,-1.02769 -0.29094,-1.81023 -0.24917,-2.08264 -1.65654,-5.94 -3.11092,-8.52712 -1.73551,-3.08716 -6.24782,-7.596 -9.35602,-9.34932 -2.72825,-1.53895 -6.41518,-2.84935 -8.78241,-3.12123 -2.43081,-0.27919 -2.84867,-1.26 -0.54157,-1.27125 1.26631,-0.007 5.64516,-1.30995 7.46363,-2.2226 5.50601,-2.76337 9.83248,-7.13468 12.25817,-12.38478 1.13998,-2.46732 2.18953,-6.02186 2.18953,-7.41505 0,-0.75695 0.11892,-0.95084 0.58187,-0.95084 z m 0.0139,2.61689 c -0.11667,0 -0.36683,0.68646 -0.55553,1.52601 -1.85601,8.25741 -9.72079,16.32151 -18.2118,18.67326 -0.95947,0.26575 -1.94089,0.55171 -2.18075,0.63511 -0.23987,0.0834 0.48002,0.38965 1.59939,0.68059 7.54128,1.95998 14.31512,7.81738 17.47593,15.11122 0.53879,1.24325 1.13473,2.93095 1.32395,3.75068 0.18921,0.81968 0.42126,1.49035 0.51573,1.49035 0.0945,0 0.41985,-0.88278 0.72347,-1.96215 2.19673,-7.80952 8.22232,-14.44638 15.86828,-17.47854 1.19933,-0.47561 2.67095,-0.95551 3.27062,-1.06608 0.59966,-0.11057 1.09038,-0.29461 1.09038,-0.40928 0,-0.11465 -0.66194,-0.36145 -1.47124,-0.54827 -5.75353,-1.32808 -11.64633,-5.5753 -15.29107,-11.02157 -1.63245,-2.43932 -3.38912,-6.32605 -3.74705,-8.29095 -0.10922,-0.59968 -0.29364,-1.09038 -0.41031,-1.09038 z m 44.36733,13.87356 c -3.35836,3.22564 -7.45512,5.59348 -11.50938,6.52934 -0.80936,0.18682 -1.47124,0.42732 -1.47124,0.53432 0,0.10705 0.68699,0.34925 1.52651,0.53795 0.83955,0.1887 2.50743,0.77412 3.70676,1.30122 2.85658,1.25542 5.48513,3.0498 7.74735,5.20124 z m -88.77651,0.0289 v 14.12576 c 3.23828,-3.07629 7.2074,-5.42489 11.39517,-6.5133 1.11937,-0.29094 1.83926,-0.59545 1.59939,-0.67644 -0.23987,-0.081 -1.41286,-0.43214 -2.60656,-0.78033 -3.80601,-1.11017 -7.39179,-3.25665 -10.388,-6.15569 z m 70.51664,12.21838 c -0.0159,0 -0.0289,0.0161 -0.0382,0.046 -1.75078,5.60303 -2.32082,6.91745 -4.17703,9.62941 -1.81383,2.65004 -4.6001,5.39837 -7.51427,7.41246 -1.52662,1.05502 -5.20035,2.6984 -7.21248,3.22614 -1.07032,0.28072 -1.94613,0.58605 -1.94613,0.67852 0,0.0925 0.68697,0.3397 1.52652,0.54933 5.55781,1.38753 11.86608,5.80612 15.11225,10.58487 1.3833,2.03629 2.93992,5.37424 3.5786,7.67448 0.25604,0.92204 0.53361,1.87275 0.61703,2.11254 0.0834,0.23995 0.38891,-0.48435 0.6785,-1.60973 0.28956,-1.12532 0.95382,-2.95719 1.4764,-4.07056 3.22754,-6.87636 9.22144,-12.16782 16.15871,-14.34177 v -1.85002 c -0.12526,-0.0391 -0.1433,-0.0451 -0.27028,-0.0847 -6.64633,-2.07314 -12.98561,-7.75624 -15.93441,-14.28544 -0.49453,-1.09492 -1.13742,-2.90674 -1.42835,-4.02611 -0.25456,-0.97946 -0.51536,-1.65301 -0.62683,-1.64536 z m -52.28881,0.046 c -0.12432,0 -0.31699,0.4907 -0.4284,1.09037 -0.68074,3.66409 -3.28785,8.3497 -6.58203,11.82979 -3.18175,3.36127 -7.3318,5.98197 -11.2174,7.14735 v 1.76165 c 5.42621,1.71066 11.01314,5.92243 14.26476,10.83656 1.34403,2.03121 2.95189,5.64809 3.42822,7.71166 0.18921,0.81978 0.42703,1.49037 0.52865,1.49037 0.10165,0 0.41896,-0.90176 0.70486,-2.00404 0.68474,-2.63998 2.8421,-6.80296 4.79661,-9.25523 1.69952,-2.13227 4.49936,-4.66087 6.66471,-6.01877 1.70433,-1.06878 5.24277,-2.57561 7.2471,-3.0861 0.83954,-0.21383 1.52653,-0.4659 1.52653,-0.56017 0,-0.0943 -0.9043,-0.40407 -2.0097,-0.68884 -7.44928,-1.91897 -14.40612,-8.26188 -17.4315,-15.8931 -0.47548,-1.19933 -0.95499,-2.67145 -1.06556,-3.27113 -0.11058,-0.59967 -0.30253,-1.09037 -0.42685,-1.09037 z m 26.16533,23.34948 c 0.24597,-0.009 0.49176,0.49474 0.6165,1.5167 0.94612,7.7511 6.56495,15.47087 13.98416,19.21227 2.23068,1.12485 6.51783,2.4412 7.94938,2.4412 2.01298,0 1.47424,1.00296 -0.67177,1.25058 -2.17141,0.25056 -6.06899,1.65796 -8.71215,3.14606 -3.101,1.74577 -7.60351,6.24829 -9.3493,9.34929 -1.51771,2.69586 -2.92824,6.63998 -3.15278,8.81549 -0.13209,1.27979 -0.26227,1.57096 -0.7028,1.57096 -0.41701,0 -0.54105,-0.21785 -0.54105,-0.95086 0,-2.55928 -2.2337,-8.23645 -4.4788,-11.38277 -1.8267,-2.55984 -5.5019,-5.90624 -8.12922,-7.40211 -2.64153,-1.50403 -6.45536,-2.87539 -8.81703,-3.17035 -1.21135,-0.15131 -1.68931,-0.33398 -1.68931,-0.64598 0,-0.30456 0.43775,-0.48802 1.4609,-0.61288 3.15162,-0.3847 7.68372,-2.13741 10.51047,-4.06381 2.02346,-1.37899 5.19609,-4.49467 6.63474,-6.5159 2.31929,-3.25845 4.04332,-7.49877 4.47001,-10.99468 0.1259,-1.03145 0.37208,-1.55384 0.61805,-1.56321 z m -0.0346,2.81792 c -0.10417,0 -0.28009,0.49072 -0.39067,1.09037 -0.30359,1.64637 -1.78887,5.21274 -3.08147,7.39905 -1.52154,2.57334 -5.2549,6.48041 -7.86722,8.23307 -2.40775,1.61544 -5.81299,3.17148 -8.03155,3.67006 -0.83954,0.18872 -1.52652,0.43836 -1.52652,0.55501 0,0.11666 0.49071,0.30417 1.09037,0.41601 5.38213,1.00412 12.34564,5.95969 15.88069,11.30215 1.34402,2.03121 2.95187,5.64804 3.42821,7.71165 0.18921,0.81971 0.43778,1.49038 0.55242,1.49035 0.11467,0 0.29746,-0.49067 0.4067,-1.09035 0.63225,-3.47078 3.91117,-9.25134 7.02024,-12.37652 3.07708,-3.09293 8.91249,-6.40736 12.39874,-7.04247 1.3438,-0.24471 1.40383,-0.5883 0.13849,-0.79375 -1.80547,-0.29292 -5.71765,-1.99369 -7.97677,-3.468 -5.54506,-3.61865 -9.54443,-8.978 -11.29441,-15.13395 -0.30684,-1.0794 -0.64312,-1.96268 -0.74725,-1.96268 z m -44.35853,13.86737 v 14.14695 c 3.16354,-3.03408 7.00871,-5.31617 11.05359,-6.39392 1.06752,-0.28448 1.94097,-0.59029 1.94097,-0.67956 0,-0.0893 -0.85941,-0.38817 -1.90945,-0.66352 -4.01468,-1.05301 -7.8987,-3.35944 -11.08511,-6.40995 z m 88.77651,0.009 c -3.31428,3.18497 -7.36495,5.57064 -11.55952,6.56704 -1.3956,0.33152 -1.91418,0.77784 -0.9126,0.78549 0.27982,0 1.56395,0.37079 2.85306,0.81957 3.54301,1.23344 6.84837,3.33772 9.61906,5.98207 z m -70.60656,12.24629 c -0.0169,0 -0.0309,0.0161 -0.0413,0.046 -0.0834,0.23979 -0.36952,1.21883 -0.63562,2.17558 -1.20694,4.33915 -3.32062,7.76653 -7.08484,11.48922 -3.1549,3.12012 -6.99245,5.44319 -10.40815,6.42337 v 1.04595 c 1.67635,0.50152 3.54317,1.2955 5.35523,2.31767 2.9196,1.64682 7.59311,6.23678 9.34982,9.18239 1.34768,2.25981 2.76787,5.66695 3.09438,7.42437 0.11141,0.59968 0.28829,1.09035 0.39326,1.09037 0.10493,0 0.4202,-0.875 0.70073,-1.94461 0.62648,-2.38868 2.76038,-6.69221 4.331,-8.73381 1.57027,-2.04121 4.6442,-4.90734 6.82388,-6.36294 2.82916,-1.88918 6.80793,-3.36883 9.40407,-3.49692 l 0.21446,-0.0103 c -1.12577,-0.0169 -2.37129,-0.25836 -3.85609,-0.76327 -8.06953,-2.74359 -14.90474,-10.06753 -17.00155,-18.21696 -0.25465,-0.98975 -0.52075,-1.67174 -0.63924,-1.66605 z m 52.59783,0.0119 c -0.16277,-0.13018 -0.53297,0.67577 -0.88781,2.05311 -0.64185,2.49171 -2.60974,6.40355 -4.37544,8.69818 -3.99436,5.19104 -10.83289,9.42946 -15.71015,9.85623 4.75976,0.44588 11.52069,4.54935 15.49311,9.52706 1.71374,2.14752 3.83427,6.28489 4.54444,8.8677 0.74011,2.69179 0.7752,2.72262 1.17924,1.01801 0.57727,-2.4353 2.21824,-6.09346 3.7734,-8.41137 3.13952,-4.67937 9.06688,-8.96511 13.99194,-10.46914 v -1.07124 c -1.78991,-0.53869 -3.79852,-1.43262 -5.75575,-2.60295 -3.02469,-1.80869 -7.3002,-6.1554 -9.10486,-9.25626 -1.28791,-2.21305 -3.06284,-6.70666 -3.06284,-7.75406 0,-0.26493 -0.031,-0.41188 -0.0853,-0.45527 z m -26.37411,22.72006 c 0.3119,0 0.49465,0.478 0.64596,1.68931 0.29501,2.3617 1.66639,6.17554 3.17035,8.81703 1.49586,2.62729 4.84275,6.30251 7.40265,8.12922 3.09777,2.21048 7.60535,4.02963 11.01794,4.44624 1.02521,0.1251 1.46037,0.30832 1.46037,0.61442 0,0.30612 -0.43516,0.48924 -1.46037,0.61444 -3.40966,0.41611 -7.93078,2.23956 -10.99521,4.43436 -2.06911,1.48199 -5.17862,4.64505 -6.56238,6.67555 -1.96787,2.8875 -4.0964,8.53831 -4.0964,10.87532 0,0.66001 -0.13639,0.95084 -0.44545,0.95084 -0.24489,0 -0.48998,-0.16338 -0.54467,-0.36328 -0.0548,-0.19992 -0.258,-1.21422 -0.45217,-2.25361 -1.0054,-5.38239 -4.18727,-10.73097 -8.65063,-14.54227 -3.353,-2.86319 -8.58358,-5.25576 -12.58528,-5.75728 -2.14489,-0.26879 -2.22528,-0.9938 -0.13849,-1.24849 3.15162,-0.3847 7.68372,-2.13683 10.51047,-4.06331 2.03044,-1.38383 5.19358,-4.49331 6.67556,-6.56241 2.19488,-3.06448 4.01867,-7.58558 4.43487,-10.99518 0.1249,-1.0232 0.30822,-1.4609 0.61288,-1.4609 z m -0.0129,2.76212 c -0.0917,0 -0.33691,0.68691 -0.54518,1.52651 -1.74465,7.03289 -7.05659,13.51053 -13.89321,16.94212 -1.37285,0.689 -3.39276,1.48571 -4.48862,1.7699 -1.09584,0.28422 -1.99264,0.60804 -1.99264,0.71935 0,0.11121 0.49071,0.29377 1.09037,0.40566 3.75151,0.6999 9.25512,3.86906 12.55014,7.22694 3.21639,3.27771 6.18546,8.54876 6.86418,12.18686 0.11187,0.59971 0.30512,1.09038 0.42943,1.09038 0.12432,0 0.31627,-0.49067 0.42685,-1.09038 0.11057,-0.5997 0.59134,-2.07129 1.06815,-3.27059 3.04456,-7.65821 9.88928,-13.85885 17.55243,-15.90085 1.03741,-0.27641 1.88619,-0.59161 1.88619,-0.70022 0,-0.10869 -0.49072,-0.28842 -1.09038,-0.39894 -0.59967,-0.1106 -2.04872,-0.58264 -3.21997,-1.04955 -7.74926,-3.08859 -13.74527,-9.67613 -15.92409,-17.49454 -0.30082,-1.07939 -0.62194,-1.96265 -0.71365,-1.96265 z m -44.38075,13.81207 v 14.21929 c 3.35365,-3.16598 8.35387,-6.00549 11.90418,-6.66782 0.59966,-0.11181 1.09037,-0.29445 1.09037,-0.40566 0,-0.11131 -0.89678,-0.43513 -1.99264,-0.71935 -3.99354,-1.03574 -7.83025,-3.3628 -11.00191,-6.42646 z m 88.7765,0.0946 c -2.25039,2.14948 -4.86326,3.92232 -7.72616,5.163 -1.25047,0.54189 -2.94438,1.14033 -3.76412,1.32964 -0.8197,0.18917 -1.49034,0.42984 -1.49034,0.53483 0,0.1049 0.66188,0.3434 1.47124,0.53022 4.05434,0.93586 8.15097,3.30406 11.50938,6.52981 z m -70.48821,12.2101 c -0.17579,0.0576 -0.40862,0.72628 -0.77722,2.08618 -1.11809,4.12491 -3.15293,7.60524 -6.48694,11.09494 -3.05332,3.19585 -7.21162,5.7872 -11.02413,6.93653 v 1.73373 c 3.81251,1.14924 7.97081,3.74015 11.02413,6.93603 3.25452,3.4064 5.37758,7.01802 6.49573,11.04841 0.25119,0.90541 0.52534,1.84267 0.60875,2.08257 0.0834,0.23989 0.38955,-0.48948 0.68058,-1.62058 0.29103,-1.13109 0.91882,-2.91555 1.39474,-3.96515 1.72328,-3.80058 5.11172,-7.99436 8.48527,-10.50168 2.21752,-1.6482 6.09833,-3.55785 8.4739,-4.16976 1.09914,-0.28321 1.99833,-0.60229 1.99833,-0.709 0,-0.10671 -0.49071,-0.28496 -1.09037,-0.39637 -1.74299,-0.32388 -5.15475,-1.74107 -7.39542,-3.07216 -5.58756,-3.31949 -11.15016,-10.96312 -12.04319,-16.54783 -0.1049,-0.65599 -0.20744,-0.98063 -0.34416,-0.93586 z m 52.39061,0.0414 c -0.16928,-0.0106 -0.41638,0.40942 -0.54364,1.09966 -0.29705,1.61102 -1.74064,5.0791 -3.04064,7.30499 -1.34745,2.30711 -4.35412,5.63907 -6.75826,7.48895 -2.28523,1.7585 -6.20067,3.72629 -8.68835,4.36719 -1.90298,0.49009 -2.64195,0.96848 -1.5105,0.97718 1.07289,0.0101 5.35896,1.71607 7.59281,3.02567 2.65483,1.55649 5.84372,4.38603 7.78248,6.90552 1.75842,2.28521 3.72634,6.20065 4.36716,8.68836 0.28615,1.1108 0.60749,2.01952 0.71417,2.01952 0.10673,0 0.28554,-0.49078 0.3974,-1.09038 1.08485,-5.81501 6.53216,-13.08118 12.37392,-16.50598 1.43431,-0.84092 3.68205,-1.83486 5.41105,-2.45255 v -1.77612 c -7.44466,-2.21322 -14.41042,-8.9562 -17.08888,-16.65066 -0.45466,-1.30601 -0.8283,-2.60313 -0.83044,-2.88303 -0.003,-0.35044 -0.0767,-0.51202 -0.17828,-0.51832 z m -25.9607,23.61097 c 0.19834,0.0554 0.25838,0.30324 0.25838,0.8785 0,2.57709 2.22919,8.25568 4.46743,11.3807 1.48198,2.0691 4.64512,5.17859 6.67556,6.56239 2.9528,2.01228 8.54352,4.09638 10.98952,4.09638 0.65085,0 1.12654,0.16007 1.22317,0.41185 0.17436,0.45432 -0.371,0.75086 -1.38131,0.75086 -1.27781,0 -5.28529,1.18629 -7.41143,2.19369 -6.21023,2.94238 -11.17928,8.52154 -13.44569,15.09675 -0.46374,1.34538 -0.93728,3.19556 -1.05265,4.11136 -0.19586,1.5547 -0.78318,2.39869 -1.0573,1.51929 -0.0665,-0.2133 -0.19731,-1.02814 -0.29094,-1.81075 -0.24917,-2.08259 -1.65654,-5.94003 -3.11092,-8.52712 -1.73551,-3.08719 -6.24782,-7.59601 -9.35602,-9.3493 -2.72825,-1.539 -6.41518,-2.84935 -8.78241,-3.12126 -2.43081,-0.27908 -2.84867,-1.25952 -0.54157,-1.27071 1.26631,-0.0101 5.64516,-1.31054 7.46363,-2.22314 7.73999,-3.88458 13.26439,-11.26458 14.40584,-19.24428 0.13701,-0.95782 0.34153,-1.38269 0.69918,-1.45161 0.0998,-0.0193 0.18142,-0.022 0.24753,-0.004 z m -0.29094,2.56572 c -0.10671,0 -0.42734,0.90429 -0.7121,2.00969 -1.42527,5.53281 -5.84238,11.49972 -11.09286,14.98463 -2.09379,1.38969 -5.55699,2.93124 -7.63468,3.39825 -0.83954,0.18868 -1.52652,0.42805 -1.52652,0.53227 0,0.10429 0.68698,0.36131 1.52652,0.57102 5.78046,1.44309 11.97067,5.91987 15.44454,11.16986 1.34402,2.03118 2.95187,5.64796 3.42821,7.71168 0.18921,0.81968 0.42126,1.49034 0.51573,1.49034 0.0945,0 0.42283,-0.88328 0.72967,-1.96267 2.23197,-7.85152 8.21738,-14.44684 15.86207,-17.47851 1.19933,-0.47562 2.67095,-0.95499 3.27062,-1.06559 0.59966,-0.11059 1.09038,-0.29681 1.09038,-0.41341 0,-0.1167 -0.68699,-0.36631 -1.52654,-0.55499 -5.53538,-1.24412 -11.71188,-5.70127 -15.23162,-10.99108 -1.63886,-2.46298 -3.39438,-6.35241 -3.7512,-8.31112 -0.10922,-0.5997 -0.28552,-1.09037 -0.39222,-1.09037 z M -304.5229,325.951 v 14.2167 c 3.27937,-3.13497 7.29185,-5.51571 11.46803,-6.55825 0.83953,-0.20971 1.52652,-0.47308 1.52652,-0.58499 0,-0.11179 -0.49071,-0.29488 -1.09037,-0.4067 -3.5919,-0.67008 -8.52398,-3.46945 -11.90418,-6.66676 z m 88.7765,0.0341 c -3.35736,3.2221 -7.463,5.59858 -11.55952,6.57169 -0.78166,0.18569 -1.4211,0.41492 -1.4211,0.50951 0,0.095 0.67064,0.32655 1.49034,0.51575 0.81974,0.18929 2.49989,0.78158 3.73362,1.3162 2.87086,1.2441 5.49582,3.02834 7.75666,5.19039 z m -70.58381,12.29588 c -0.10495,0 -0.28185,0.49016 -0.39326,1.08987 -0.32326,1.73998 -1.73951,5.15104 -3.0825,7.42434 -1.59823,2.70549 -6.10089,7.19696 -8.90798,8.88576 -1.67929,1.01032 -4.00143,2.05852 -5.80895,2.66237 v 1.75337 c 1.79269,0.61034 4.16366,1.66923 5.78311,2.62673 2.59202,1.5325 6.56431,5.33546 8.27288,7.92097 1.60782,2.43289 3.14178,5.8045 3.63027,7.97779 0.1887,0.8395 0.43885,1.52601 0.55552,1.52601 0.11667,0 0.30231,-0.49067 0.41289,-1.09037 0.3304,-1.79171 1.846,-5.30768 3.28404,-7.61968 3.44887,-5.5449 9.90841,-10.34439 15.73238,-11.68869 0.8197,-0.1892 1.49034,-0.43772 1.49034,-0.55242 0,-0.11462 -0.49071,-0.29943 -1.09037,-0.41085 -3.46037,-0.64288 -8.20902,-3.20796 -11.38845,-6.15156 -3.84892,-3.56359 -6.63713,-8.01709 -7.80314,-12.4628 -0.2728,-1.0401 -0.58182,-1.89084 -0.68678,-1.89084 z m 52.37405,0.0512 c -0.15351,0.01 -0.30895,0.55033 -0.58549,1.63038 -1.53226,5.9835 -5.76123,11.69816 -11.52176,15.56856 -1.6052,1.0785 -5.41719,2.71825 -7.30447,3.14243 -0.83955,0.18863 -1.52652,0.43884 -1.52652,0.55555 0,0.11658 0.4907,0.30356 1.09037,0.41548 5.02621,0.93768 11.8991,5.62446 15.35977,10.47377 1.34117,1.8793 3.13346,5.63266 3.74862,7.85016 0.26617,0.9594 0.55221,1.94034 0.63563,2.18024 0.0834,0.2399 0.38963,-0.47958 0.68057,-1.59887 0.29093,-1.1194 0.92249,-2.90547 1.40303,-3.96928 v 0 c 2.06482,-4.5711 5.74073,-8.76393 10.18954,-11.62204 1.72487,-1.1081 4.12988,-2.233 6.04047,-2.87012 v -1.74046 c -3.47377,-1.13662 -7.98867,-3.84894 -10.75079,-6.57066 -3.0752,-3.0303 -5.82927,-7.78579 -6.88432,-11.88609 -0.26919,-1.04613 -0.42111,-1.56808 -0.57465,-1.55855 z m -26.1648,26.11572 c -0.0893,0 -0.38556,0.85124 -0.65836,1.89135 -0.93148,3.55139 -3.10682,7.47167 -5.92263,10.67377 -2.91065,3.3098 -8.2206,6.60296 -12.42405,7.70546 -1.0645,0.27921 -1.9358,0.57719 -1.9358,0.66198 0,0.085 0.88327,0.40111 1.96267,0.70332 4.29465,1.20219 7.59698,3.11277 11.06496,6.40167 1.79374,1.70114 3.50843,3.96783 4.85965,6.2973 h 6.12521 c 1.08983,-1.89238 2.38879,-3.73642 3.72639,-5.17332 3.30581,-3.55142 8.0155,-6.47592 12.16618,-7.5551 1.07939,-0.28069 1.96268,-0.58989 1.96268,-0.68678 0,-0.097 -0.67064,-0.33118 -1.49037,-0.52038 -8.42227,-1.9441 -16.51523,-9.8983 -18.75854,-18.43662 -0.28359,-1.07939 -0.58867,-1.96265 -0.67799,-1.96265 z m -44.40193,13.84789 v 14.19603 c 1.97776,-1.92415 4.19413,-3.56428 6.45232,-4.71186 1.34168,-0.6818 5.47616,-2.10788 6.11177,-2.10788 1.06932,0 0.25311,-0.51517 -1.56218,-0.98597 -3.7827,-0.98118 -7.70655,-3.29385 -11.00191,-6.39032 z m 88.7765,0.0419 c -1.15404,1.09389 -2.40888,2.09679 -3.74862,2.98638 -2.51259,1.66841 -6.02351,3.23299 -8.14163,3.6282 -0.59965,0.11181 -1.09037,0.30514 -1.09037,0.42945 0,0.1243 0.49072,0.31623 1.09037,0.42682 3.46578,0.63908 8.56298,3.48433 11.89025,6.63165 z m -70.51974,11.98687 c -0.10307,0 -0.36154,0.75223 -0.57412,1.67174 -0.54214,2.34516 -1.52073,4.63796 -2.81326,6.78614 h 6.74842 c -1.45213,-2.45322 -2.68807,-5.42123 -2.98276,-7.26416 -0.10505,-0.65681 -0.27518,-1.19372 -0.37828,-1.19372 z m 52.31517,0.29043 c -0.0943,0 -0.40582,0.90871 -0.69197,2.01951 -0.54213,2.10455 -1.46534,4.18055 -2.66805,6.14794 h 6.75618 c -1.28225,-2.10484 -2.26837,-4.34819 -2.84271,-6.64094 -0.21031,-0.8396 -0.45921,-1.52651 -0.55345,-1.52651 z" /></g></g><rect
       style="display:inline;fill:none;stroke:#ff0000;stroke-width:0.154683"
       id="rect993-2-6"
       height="482.44531"
       x="215.75772"
       y="13.674474"
       inkscape:label="up-patternframe"
       transform="scale(-1,1)"
       width="88.747604" /></g></svg>
