<?xml version="1.0" encoding="UTF-8" standalone="no"?>
<!-- Created with Inkscape (http://www.inkscape.org/) -->

<svg
   width="5.9843941in"
   height="6.4887071in"
   viewBox="0 0 152.00361 164.81316"
   version="1.1"
   id="svg5"
   inkscape:version="1.1 (c68e22c387, 2021-05-23)"
   sodipodi:docname="AcrylicCutout.svg"
   xmlns:inkscape="http://www.inkscape.org/namespaces/inkscape"
   xmlns:sodipodi="http://sodipodi.sourceforge.net/DTD/sodipodi-0.dtd"
   xmlns="http://www.w3.org/2000/svg"
   xmlns:svg="http://www.w3.org/2000/svg">
  <sodipodi:namedview
     id="namedview7"
     pagecolor="#ffffff"
     bordercolor="#666666"
     borderopacity="1.0"
     inkscape:pageshadow="2"
     inkscape:pageopacity="0.0"
     inkscape:pagecheckerboard="0"
     inkscape:document-units="mm"
     showgrid="false"
     inkscape:zoom="0.90509668"
     inkscape:cx="461.27669"
     inkscape:cy="303.83495"
     inkscape:window-width="1368"
     inkscape:window-height="860"
     inkscape:window-x="-6"
     inkscape:window-y="-6"
     inkscape:window-maximized="1"
     inkscape:current-layer="g623"
     fit-margin-top="0"
     fit-margin-left="0"
     fit-margin-right="0"
     fit-margin-bottom="0"
     units="in" />
  <defs
     id="defs2" />
  <g
     inkscape:label="engrave"
     inkscape:groupmode="layer"
     id="layer1"
     style="display:inline"
     transform="translate(-28.998429,-72.498098)">
    <g
       id="g170">
      <path
         style="color:#000000;fill:#0000ff;stroke:#0000ff;stroke-width:0.205557;-inkscape-stroke:none"
         d="m 115.45039,82.328495 c 0.19543,-0.109299 0.35533,-0.364087 0.35533,-0.566132 0,-0.306166 -0.45408,-0.460579 -2.72622,-0.927062 -1.49944,-0.307838 -2.88694,-0.498039 -3.08336,-0.422668 -0.20146,0.07731 -0.35712,0.351456 -0.35712,0.628941 0,0.405354 0.10453,0.491899 0.59403,0.491899 0.59192,0 4.45456,0.742137 4.72158,0.907167 0.0773,0.04773 0.30034,-0.0027 0.49576,-0.112073 z"
         id="path2804" />
      <path
         style="color:#000000;fill:#0000ff;stroke:#0000ff;stroke-width:0.205557;-inkscape-stroke:none"
         d="m 100.60005,82.329924 c 0.61877,-0.466397 1.33316,-0.943747 1.58753,-1.060781 0.52929,-0.243513 0.60458,-0.800772 0.15824,-1.171206 -0.25046,-0.207851 -0.61408,-0.04425 -2.05557,0.924827 -1.753291,1.17869 -1.965401,1.447722 -1.504631,1.908486 0.38297,0.382976 0.6071,0.308694 1.814431,-0.601326 z"
         id="path2802" />
      <path
         style="color:#000000;fill:#0000ff;stroke:#0000ff;stroke-width:0.205557;-inkscape-stroke:none"
         d="m 80.310599,85.232563 c 0.38843,-0.842628 0.33009,-1.232418 -0.18445,-1.232418 -0.3791,0 -1.0094,1.29336 -0.84239,1.728552 0.21363,0.556719 0.63546,0.352909 1.02684,-0.496134 z"
         id="path2800" />
      <path
         style="color:#000000;fill:#0000ff;stroke:#0000ff;stroke-width:0.205557;-inkscape-stroke:none"
         d="m 81.601549,85.532421 c 0.35879,-0.760189 0.38496,-0.954798 0.15416,-1.146345 -0.20593,-0.170914 -0.35217,-0.169144 -0.56421,0.0069 -0.40922,0.339627 -0.80959,1.394598 -0.66866,1.761895 0.21389,0.557333 0.63717,0.313104 1.07871,-0.622381 z"
         id="path2798" />
      <path
         style="color:#000000;fill:#0000ff;stroke:#0000ff;stroke-width:0.205557;-inkscape-stroke:none"
         d="m 103.47659,89.340344 c 0.65549,-0.655486 0.50528,-0.914485 -0.56972,-0.982388 -1.27544,-0.08056 -4.949001,-1.312319 -6.574921,-2.204585 -1.3647,-0.748931 -1.90414,-0.750034 -1.90414,-0.004 0,0.381932 0.34333,0.621314 2.00419,1.397352 1.91573,0.895141 4.528661,1.803516 5.965421,2.073846 0.51104,0.09615 0.76995,0.0289 1.07917,-0.280326 z"
         id="path2796" />
      <path
         style="color:#000000;fill:#0000ff;stroke:#0000ff;stroke-width:0.205557;-inkscape-stroke:none"
         d="m 114.3468,90.115465 c 0.14976,-0.402041 0.0544,-0.531675 -0.7296,-0.991628 -2.0881,-1.22506 -4.38929,-3.703195 -4.38929,-4.726774 0,-0.428942 0.0663,-0.448002 1.20106,-0.345108 0.6606,0.0599 2.18944,0.44662 3.39742,0.859373 1.208,0.412754 2.2751,0.701786 2.37136,0.642292 0.0963,-0.05949 0.22574,-0.302128 0.28774,-0.539192 0.13868,-0.53033 -0.40535,-0.784032 -3.28738,-1.53305 -3.78101,-0.982657 -5.20354,-0.726142 -5.20354,0.938315 0,0.987191 1.22115,2.851823 2.83471,4.32845 2.0415,1.868257 3.16783,2.306086 3.51752,1.367322 z"
         id="path2794" />
      <path
         style="color:#000000;fill:#0000ff;stroke:#0000ff;stroke-width:0.205557;-inkscape-stroke:none"
         d="m 88.124059,92.496498 c 0.27578,-0.275773 0.1128,-0.996262 -1.0963,-4.846928 -0.67835,-2.160303 -1.23335,-4.098418 -1.23335,-4.306923 0,-0.550927 -0.95098,-0.946296 -1.34012,-0.557155 -0.25916,0.25917 -0.23254,0.454337 0.20827,1.526742 0.27798,0.676275 0.50762,1.323012 0.5103,1.437194 0.002,0.114183 -0.83244,1.105659 -1.85582,2.203277 -1.63643,1.755123 -1.83376,2.046001 -1.63722,2.413245 0.27445,0.512826 0.73312,0.536477 1.12194,0.05784 1.35777,-1.671396 2.65609,-3.134744 2.78122,-3.134744 0.17333,0 0.91551,2.409177 1.28236,4.162528 0.20732,0.99091 0.31795,1.181952 0.68447,1.181952 0.24046,0 0.49888,-0.06167 0.57425,-0.137037 z"
         id="path2792" />
      <path
         style="color:#000000;fill:#0000ff;stroke:#0000ff;stroke-width:0.205557;-inkscape-stroke:none"
         d="m 124.9455,92.37659 c 0.65787,-1.494018 2.78541,-8.540878 2.66967,-8.842505 -0.30175,-0.786337 -1.32299,-0.52736 -1.32916,0.33706 -0.001,0.240537 -0.12688,0.851305 -0.27813,1.357269 l -0.27502,0.919933 -2.65106,0.536044 -2.65104,0.536045 v 0.599593 c 0,0.738022 0.25945,0.745007 2.82708,0.07614 0.98963,-0.257796 1.85476,-0.413264 1.92253,-0.345488 0.15383,0.153828 -0.62663,2.564636 -1.29531,4.001118 -0.55159,1.184938 -0.49771,1.492851 0.26118,1.492851 0.37246,0 0.58233,-0.175419 0.79926,-0.66806 z"
         id="path2790" />
      <path
         style="color:#000000;fill:#0000ff;stroke:#0000ff;stroke-width:0.205557;-inkscape-stroke:none"
         d="m 140.83228,95.703961 c 0.25438,-0.09866 0.4625,-0.27338 0.4625,-0.388272 0,-0.242126 -5.84698,-4.197428 -6.52127,-4.411441 -0.54919,-0.174306 -1.3139,0.194196 -1.17174,0.564649 0.0565,0.147393 0.53365,0.477295 1.06022,0.733119 0.78532,0.381538 3.24845,1.959635 5.29668,3.393521 0.28069,0.196498 0.55783,0.230896 0.87361,0.108424 z"
         id="path2788" />
      <path
         style="color:#000000;fill:#0000ff;stroke:#0000ff;stroke-width:0.205557;-inkscape-stroke:none"
         d="m 72.520799,99.571084 c 0.5209,-0.796123 0.96315,-2.846422 1.08631,-5.036145 0.0651,-1.158829 0.17799,-2.106958 0.25073,-2.106958 0.0727,0 1.22596,0.884721 2.56271,1.966046 1.40084,1.133172 2.55143,1.919626 2.71603,1.856465 0.15708,-0.06027 0.28557,-0.339297 0.28557,-0.620052 0,-0.379072 -0.25133,-0.680801 -0.9764,-1.172185 -1.78458,-1.209433 -3.9373,-2.95266 -3.88358,-3.144842 0.0292,-0.104253 0.60016,-0.39373 1.2689,-0.643275 1.38262,-0.515908 1.79642,-0.95403 1.32646,-1.40436 -0.26463,-0.253581 -0.53534,-0.189742 -2.05207,0.483928 l -1.74723,0.776043 -0.92501,-0.750188 c -1.6863,-1.367599 -1.61398,-1.328801 -1.95279,-1.047605 -0.53845,0.446871 -0.33918,0.948676 0.61666,1.552859 0.50875,0.321581 0.92502,0.66298 0.92502,0.758669 0,0.09569 -0.77893,0.532142 -1.73096,0.969899 -1.63416,0.751409 -2.35475,1.399751 -2.06923,1.861745 0.19238,0.311284 0.70204,0.239465 1.30176,-0.183443 0.73436,-0.517832 2.6312,-1.465261 2.9336,-1.465261 0.18005,0 0.20841,0.532336 0.10909,2.047925 -0.15753,2.403652 -0.4655,4.032693 -0.88865,4.700671 -0.16694,0.263509 -0.25316,0.610386 -0.19157,0.770838 0.16806,0.437982 0.69303,0.351332 1.03465,-0.170774 z"
         id="path2786" />
      <path
         style="color:#000000;fill:#0000ff;stroke:#0000ff;stroke-width:0.205557;-inkscape-stroke:none"
         d="m 143.35035,101.23029 c 0.28265,-0.11076 1.20547,-0.33528 2.05075,-0.49893 1.66354,-0.32209 1.9763,-0.49587 1.78581,-0.992291 -0.15303,-0.398748 -0.39957,-0.394587 -2.68403,0.0453 -1.96185,0.377761 -2.56179,0.790311 -1.97127,1.355511 0.22675,0.21703 0.43651,0.24019 0.81874,0.0904 z"
         id="path2784" />
      <path
         style="color:#000000;fill:#0000ff;stroke:#0000ff;stroke-width:0.205557;-inkscape-stroke:none"
         d="m 59.757199,103.18546 c 0.34901,-0.349 0.0866,-0.89538 -0.58241,-1.21286 -0.39568,-0.18777 -0.71945,-0.41475 -0.71945,-0.5044 0,-0.24406 1.75173,-1.655509 3.49447,-2.815648 2.42576,-1.614827 2.38184,-1.601048 2.80727,-0.88086 0.392,0.663622 0.97876,0.81439 1.17537,0.302017 0.16636,-0.433525 -1.32645,-2.7928 -1.71995,-2.718248 -0.16873,0.03196 -0.42814,0.311367 -0.57649,0.62089 -0.409,0.853333 -0.65841,0.677174 -0.65841,-0.465018 0,-0.954204 -0.0361,-1.027783 -0.50457,-1.027783 -0.41148,0 -0.52887,0.129466 -0.63621,0.701577 -0.13675,0.728944 0.0318,1.574283 0.35558,1.783003 0.1029,0.06638 -0.17695,0.361651 -0.62201,0.656174 -0.44503,0.294521 -0.86549,0.479177 -0.93433,0.410344 -0.0689,-0.06883 -0.12515,-0.518277 -0.12515,-0.998766 0,-0.860973 -0.23642,-1.154914 -0.77084,-0.958382 -0.34949,0.128526 -0.32993,1.722121 0.0272,2.210448 0.25088,0.343108 0.22954,0.431398 -0.18258,0.755573 -0.44919,0.35334 -0.51132,0.351696 -1.66122,-0.04392 -1.03864,-0.357347 -1.2331,-0.37243 -1.48997,-0.115557 -0.44613,0.446123 -0.17262,0.837279 0.78634,1.124596 0.78117,0.23404 0.83479,0.29122 0.56655,0.60423 -0.7551,0.8811 -0.58362,1.63096 0.52796,2.30874 0.6716,0.40951 1.20054,0.50622 1.4429,0.26385 z"
         id="path2782" />
      <path
         id="path2780"
         style="color:#000000;fill:#0000ff;stroke:#0000ff;stroke-width:0.205557;-inkscape-stroke:none"
         d="m 147.89885,94.491813 c 0.31087,-0.004 0.64405,0.09316 0.95589,0.311574 0.6338,0.443936 0.58058,1.232259 -0.13093,1.943769 l -0.58722,0.587708 0.75506,0.737343 0.75506,0.737342 0.75162,-0.837262 c 0.64681,-0.720507 0.80977,-0.805801 1.16853,-0.613796 0.59424,0.318023 0.51851,0.744714 -0.28303,1.594294 l -0.69993,0.742264 1.265,1.411191 c 0.69592,0.77621 1.29521,1.49657 1.33145,1.60069 0.0363,0.10413 -0.1762,0.25012 -0.47204,0.32438 -0.46894,0.11769 -0.68499,-0.0273 -1.68437,-1.13162 -0.63047,-0.6967 -1.21454,-1.23999 -1.29798,-1.20691 -0.2672,0.10585 -3.9087,4.31554 -3.9087,4.51856 0,0.31247 -0.86257,0.0973 -1.09469,-0.27318 -0.17208,-0.27462 0.19655,-0.79093 1.98068,-2.77513 l 2.19185,-2.437956 -1.43629,-1.388546 c -1.39331,-1.347293 -1.76234,-2.002836 -1.12768,-2.002836 0.19717,0 0.30813,-0.198266 0.30813,-0.549313 0,-0.784271 0.57566,-1.283839 1.25959,-1.292566 z m 0.0827,0.847599 c -0.0185,-1.69e-4 -0.0378,0.0016 -0.0576,0.0054 -0.19785,0.0381 -0.35981,0.245571 -0.35981,0.460715 0,0.408959 0.33551,0.638102 0.57835,0.395252 0.28584,-0.285847 0.15933,-0.85847 -0.16095,-0.861382 z" />
      <path
         style="color:#000000;fill:#0000ff;stroke:#0000ff;stroke-width:0.205557;-inkscape-stroke:none"
         d="m 61.847039,105.04228 c 1.77536,-1.61341 1.79552,-1.62051 2.56354,-0.90308 1.14769,1.0721 2.47261,0.65334 2.47261,-0.7815 0,-0.51484 -0.0865,-0.65187 -0.41112,-0.65187 -0.3015,0 -0.41112,0.13704 -0.41112,0.51389 0,0.64755 -0.40774,0.66001 -0.99911,0.0305 l -0.45411,-0.48337 1.08633,-0.81353 c 0.59749,-0.44743 1.43323,-1.06713 1.85718,-1.3771 0.42396,-0.30997 0.77084,-0.700523 0.77084,-0.867904 0,-0.697469 -0.67136,-0.505631 -2.16514,0.618684 -1.89459,1.42598 -2.06078,1.49362 -2.34858,0.95585 -0.26776,-0.50031 -0.56997,-0.54022 -1.02013,-0.13474 -0.1785,0.16078 -0.60203,0.35161 -0.94119,0.42407 l -0.61669,0.13175 0.69385,-0.61472 c 0.3816,-0.3381 1.24245,-0.90713 1.91296,-1.264517 0.84398,-0.449833 1.19912,-0.754883 1.15408,-0.991299 -0.12466,-0.654436 -0.89264,-0.463173 -2.51557,0.626496 -2.05242,1.37806 -2.54388,1.99424 -2.19726,2.75499 0.24303,0.53338 0.28718,0.54527 1.57739,0.42479 0.73004,-0.0682 1.32737,-0.0899 1.32737,-0.0484 0,0.0416 -0.63698,0.54778 -1.41548,1.12492 -1.35863,1.00719 -1.70173,1.46515 -1.51453,2.02154 0.14765,0.43884 0.52857,0.27261 1.59388,-0.6955 z"
         id="path2776" />
      <path
         style="color:#000000;fill:#0000ff;stroke:#0000ff;stroke-width:0.205557;-inkscape-stroke:none"
         d="m 149.737,106.37897 c 0.12892,-0.24089 0.2478,-1.23527 0.26419,-2.20973 0.0276,-1.64463 2e-4,-1.77175 -0.38135,-1.77175 -0.35554,0 -0.43191,0.18834 -0.56501,1.39345 -0.0846,0.7664 -0.28513,1.70756 -0.44554,2.09148 -0.25552,0.61155 -0.25348,0.71267 0.0166,0.81628 0.55908,0.21454 0.8737,0.12402 1.11117,-0.31973 z"
         id="path2774" />
      <path
         style="color:#000000;fill:none;stroke:#0000ff;stroke-width:0.205557;-inkscape-stroke:none"
         d="m 73.607719,135.24259 c -0.33282,-0.33282 -0.37197,-0.33282 -0.70477,0 -0.33281,0.33281 -0.31323,0.35238 0.35237,0.35238 0.66562,0 0.6852,-0.0196 0.3524,-0.35238 z"
         id="path2770" />
      <path
         style="color:#000000;fill:none;stroke:#0000ff;stroke-width:0.205557;-inkscape-stroke:none"
         d="m 74.899779,136.51998 c -0.35235,-0.42456 -3.05022,-0.42945 -3.60935,-0.007 -0.35923,0.27171 -0.18649,0.30245 1.73312,0.30832 1.87236,0.006 2.10095,-0.0309 1.87623,-0.30179 z"
         id="path2768" />
      <path
         style="color:#000000;fill:none;stroke:#0000ff;stroke-width:0.205557;-inkscape-stroke:none"
         d="m 76.248009,137.74678 c -0.58615,-0.44334 -6.11841,-0.43777 -6.48715,0.007 -0.22583,0.2721 0.16374,0.30756 3.31513,0.30179 3.18486,-0.006 3.52788,-0.0392 3.17202,-0.30833 z"
         id="path2766" />
      <path
         style="color:#000000;fill:none;stroke:#0000ff;stroke-width:0.205557;-inkscape-stroke:none"
         d="m 77.544049,138.97338 c -0.45704,-0.45706 -8.74533,-0.44881 -9.20328,0.01 -0.26862,0.26862 0.27078,0.30424 4.60622,0.30424 4.4001,0 4.8779,-0.0327 4.59706,-0.3134 z"
         id="path2764" />
      <path
         style="color:#000000;fill:none;stroke:#0000ff;stroke-width:0.205557;-inkscape-stroke:none"
         d="m 76.955349,140.01445 c 0.22493,-0.27102 -0.0271,-0.30819 -2.08179,-0.30711 -3.01419,9.5e-4 -5.74648,0.2159 -5.60806,0.43986 0.0596,0.0966 1.75674,0.17558 3.77124,0.17558 3.00498,0 3.70867,-0.0553 3.91861,-0.30833 z"
         id="path2762" />
      <path
         style="color:#000000;fill:none;stroke:#0000ff;stroke-width:0.205557;-inkscape-stroke:none"
         d="m 75.511409,141.25387 c 0.23204,-0.27959 -0.0512,-0.31442 -2.55638,-0.31442 -2.16232,0 -2.79748,0.0598 -2.73199,0.25694 0.0605,0.18216 0.80462,0.27369 2.55636,0.31442 2.0167,0.047 2.51904,-4e-4 2.73201,-0.25694 z"
         id="path2760" />
      <path
         style="color:#000000;fill:none;stroke:#0000ff;stroke-width:0.205557;-inkscape-stroke:none"
         d="m 73.974779,142.58391 c 0.36884,-0.40755 0.35904,-0.41112 -1.13057,-0.41112 -1.48959,0 -1.49939,0.004 -1.13055,0.41112 0.24399,0.26962 0.63311,0.41111 1.13055,0.41111 0.49746,0 0.88655,-0.14149 1.13057,-0.41111 z"
         id="path2758" />
      <path
         style="color:#000000;fill:none;stroke:#0000ff;stroke-width:0.205557;-inkscape-stroke:none"
         d="m 73.415689,153.06704 0.0575,-9.45541 h -0.62285 -0.62285 v 9.45562 9.45562 l 0.56529,-2e-4 0.56527,-2.1e-4 0.0575,-9.4554 z"
         id="path2754" />
      <path
         style="color:#000000;fill:none;stroke:#0000ff;stroke-width:0.205557;-inkscape-stroke:none"
         d="m 67.499739,163.06071 1.13057,-0.23825 0.0541,-6.89232 0.0541,-6.89231 -0.65549,-0.85288 c -0.36053,-0.46908 -0.73154,-0.80588 -0.8245,-0.74844 -0.093,0.0574 -0.53797,0.76973 -0.98892,1.58286 l -0.81993,1.47842 -0.002,6.42364 -0.002,6.42366 0.46252,-0.0231 c 0.25437,-0.0127 0.97125,-0.13027 1.59305,-0.26131 z"
         id="path2752" />
      <path
         style="color:#000000;fill:none;stroke:#0000ff;stroke-width:0.205557;-inkscape-stroke:none"
         d="m 79.422049,157.01318 v -6.53745 l -0.53228,-1.06815 c -0.29275,-0.58748 -0.60552,-1.06815 -0.69506,-1.06815 -0.0895,0 -0.405,0.31759 -0.70105,0.70574 l -0.5383,0.70573 v 6.67728 6.67729 l 1.03791,0.22259 c 0.57084,0.12242 1.12585,0.22259 1.23333,0.22259 0.11946,0 0.19545,-2.54181 0.19545,-6.53747 z"
         id="path2750" />
      <path
         style="color:#000000;fill:none;stroke:#0000ff;stroke-width:0.205557;-inkscape-stroke:none"
         d="m 63.851109,163.81454 0.56528,-0.0856 v -6.79009 -6.7901 l 1.13729,-1.93242 c 0.75309,-1.2796 1.25981,-1.93242 1.49997,-1.93242 0.35758,0 1.39284,0.97698 2.262,2.13468 0.43552,0.58009 0.44522,0.7401 0.44522,7.34867 v 6.75565 h 0.71945 0.71945 v -9.6018 -9.60176 l -1.89801,-1.82015 -1.898,-1.82015 -1.13396,1.19782 c -0.62368,0.65881 -1.68896,1.86038 -2.3673,2.67016 l -1.23334,1.47234 -0.10734,1.71145 c -0.059,0.9413 -0.13565,5.20334 -0.17037,9.47121 l -0.0631,7.75978 0.47872,-0.0308 c 0.26329,-0.0169 0.73309,-0.0693 1.04399,-0.11643 z"
         id="path2748" />
      <path
         style="color:#000000;fill:none;stroke:#0000ff;stroke-width:0.205557;-inkscape-stroke:none"
         d="m 74.867289,163.75625 0.45592,-0.61666 h -2.58961 -2.58961 l 0.43911,0.61666 c 0.4271,0.59979 0.48544,0.61666 2.13369,0.61666 1.64452,0 1.70804,-0.0182 2.1505,-0.61666 z"
         id="path2746" />
      <path
         style="color:#000000;fill:none;stroke:#0000ff;stroke-width:0.205557;-inkscape-stroke:none"
         d="m 82.916519,154.95907 v -9.46179 l -1.26194,-1.71364 c -0.69406,-0.94251 -1.67272,-2.19956 -2.17479,-2.79345 l -0.91285,-1.07982 -1.47384,1.21973 c -0.81063,0.67085 -1.72411,1.48128 -2.02999,1.80096 l -0.55613,0.58123 -0.0198,8.22057 c -0.0105,4.52132 -0.0151,8.79871 -0.01,9.50531 l 0.0105,1.28473 h 0.73497 c 0.73306,0 0.73489,-0.002 0.70038,-0.87361 -0.019,-0.48049 -0.026,-3.42315 -0.0155,-6.53924 l 0.0191,-5.66563 0.87361,-1.15664 c 0.48049,-0.63615 0.99448,-1.20762 1.14222,-1.26993 0.36611,-0.15446 1.0843,0.66379 1.86,2.11915 l 0.64641,1.21281 v 6.77973 6.77973 l 0.77084,0.12893 c 0.42396,0.071 0.97896,0.18602 1.23334,0.25581 l 0.46251,0.12686 z"
         id="path2744" />
      <path
         style="color:#000000;fill:none;stroke:#0000ff;stroke-width:0.205557;-inkscape-stroke:none"
         d="m 60.939049,166.34503 c 0.0471,-0.0459 2.07442,-0.47945 4.50512,-0.96345 2.43071,-0.484 4.46083,-0.91174 4.51137,-0.95056 0.0506,-0.0388 -0.13448,-0.2887 -0.41113,-0.55533 l -0.50298,-0.48475 -3.3917,0.6945 c -1.86543,0.38198 -4.07989,0.84738 -4.92102,1.03421 l -1.52934,0.3397 0.60434,0.48355 c 0.57224,0.45786 0.94327,0.58928 1.13534,0.40213 z"
         id="path2742" />
      <path
         style="color:#000000;fill:none;stroke:#0000ff;stroke-width:0.205557;-inkscape-stroke:none"
         d="m 85.373389,166.13059 0.47297,-0.50344 -0.48854,-0.11763 c -0.26868,-0.0647 -2.38102,-0.53356 -4.69409,-1.0419 l -4.20556,-0.92428 -0.51134,0.51134 c -0.28124,0.28123 -0.47,0.54764 -0.41947,0.59202 0.10291,0.0903 8.85886,1.98734 9.17289,1.98734 0.11012,0 0.41301,-0.22655 0.67314,-0.50345 z"
         id="path2740" />
      <path
         style="color:#000000;fill:none;stroke:#0000ff;stroke-width:0.205557;-inkscape-stroke:none"
         d="m 74.283129,166.63404 v -1.64444 h -1.54168 -1.54168 v 1.64444 1.64446 h 1.54168 1.54168 z"
         id="path2738" />
      <path
         style="color:#000000;fill:none;stroke:#0000ff;stroke-width:0.205557;-inkscape-stroke:none"
         d="m 74.283129,170.02574 v -1.13056 h -1.54168 -1.54168 v 1.13056 1.13056 h 1.54168 1.54168 z"
         id="path2736" />
      <path
         style="color:#000000;fill:none;stroke:#0000ff;stroke-width:0.205557;-inkscape-stroke:none"
         d="m 74.283129,172.69797 v -0.925 h -1.64445 -1.64447 v 0.925 0.92501 h 1.64447 1.64445 z"
         id="path2734" />
      <path
         style="color:#000000;fill:none;stroke:#0000ff;stroke-width:0.205557;-inkscape-stroke:none"
         d="m 74.283129,175.16466 v -0.92501 h -1.64445 -1.64447 v 0.92501 0.92501 h 1.64447 1.64445 z"
         id="path2732" />
      <path
         style="color:#000000;fill:none;stroke:#0000ff;stroke-width:0.205557;-inkscape-stroke:none"
         d="m 74.193499,178.26891 c 0.068,-0.27113 0.093,-0.71052 0.0553,-0.97638 -0.0642,-0.45386 -0.16582,-0.48709 -1.66149,-0.54346 l -1.59308,-0.06 v 1.03642 1.03642 h 1.53777 c 1.45145,0 1.54472,-0.0276 1.66149,-0.49297 z"
         id="path2730" />
      <path
         style="color:#000000;fill:none;stroke:#0000ff;stroke-width:0.205557;-inkscape-stroke:none"
         d="m 74.106919,181.17719 c 0.0161,-0.25437 0.0543,-0.76312 0.085,-1.13056 l 0.0556,-0.66805 h -1.62656 -1.62657 v 1.13055 1.13058 h 1.54168 c 1.45306,0 1.54335,-0.0266 1.57096,-0.46252 z"
         id="path2728" />
      <path
         style="color:#000000;fill:none;stroke:#0000ff;stroke-width:0.205557;-inkscape-stroke:none"
         d="m 74.101209,184.01428 c 0.0507,-0.0507 0.0564,-0.46691 0.0127,-0.92501 l -0.0794,-0.8329 h -1.52009 -1.52008 v 0.92502 0.92499 h 1.50742 c 0.82909,0 1.54887,-0.0415 1.59952,-0.0921 z"
         id="path2726" />
      <path
         style="color:#000000;fill:none;stroke:#0000ff;stroke-width:0.205557;-inkscape-stroke:none"
         d="m 74.077679,185.9654 v -1.03678 h -1.55294 -1.55294 l 0.0627,0.97639 0.0627,0.9764 1.49029,0.0604 1.49029,0.0604 z"
         id="path2724" />
      <path
         style="color:#000000;fill:none;stroke:#0000ff;stroke-width:0.205557;-inkscape-stroke:none"
         d="m 74.077679,189.34808 c 0,-0.16959 -0.0693,-0.31039 -0.15418,-0.3129 -0.0849,-0.002 -0.38541,-0.19309 -0.66806,-0.42349 l -0.5139,-0.41891 0.66806,0.32599 0.66808,0.32598 v -0.61868 -0.61871 l -1.54169,0.0158 -1.54168,0.0158 v 1.00868 1.00867 h 1.54168 c 1.23334,0 1.54169,-0.0616 1.54169,-0.30834 z"
         id="path2722" />
      <path
         style="color:#000000;fill:none;stroke:#0000ff;stroke-width:0.205557;-inkscape-stroke:none"
         d="m 67.712689,188.98836 c -0.007,-0.48049 0.0417,-4.28583 0.10709,-8.4563 l 0.11871,-7.58269 -0.88735,0.13958 c -0.48805,0.0768 -1.23424,0.2319 -1.6582,0.34473 l -0.77084,0.20515 v 5.57731 c 0,4.97388 0.038,5.61935 0.35156,5.96579 0.22492,0.24854 0.27508,0.43945 0.13923,0.53008 -0.59119,0.39433 0.19305,2.48998 1.30302,3.4819 1.02673,0.91756 1.31122,0.87247 1.29683,-0.20555 z"
         id="path2718" />
      <path
         style="color:#000000;fill:none;stroke:#0000ff;stroke-width:0.205557;-inkscape-stroke:none"
         d="m 69.955939,186.05917 c 0.009,-2.82641 0.075,-8.67707 0.14749,-13.00147 0.0965,-5.7484 0.07,-7.86255 -0.0984,-7.86255 -0.27199,0 -8.40432,1.61161 -8.92885,1.76947 -0.33356,0.10033 -0.35974,0.62356 -0.35974,7.1861 0,6.36383 0.0333,7.07787 0.33033,7.07787 0.20281,0 0.28656,0.11408 0.21693,0.29552 -0.0741,0.19315 0.0429,0.31777 0.33773,0.35973 0.27146,0.0387 0.47526,0.23291 0.51172,0.48781 0.06,0.41967 1.20029,1.26182 1.41618,1.04595 0.0616,-0.0618 0.15805,-2.36011 0.2141,-5.10757 0.056,-2.74745 0.16104,-5.05819 0.23332,-5.13494 0.0723,-0.0768 1.04988,-0.37174 2.17248,-0.65553 1.51919,-0.38404 2.1425,-0.46172 2.43763,-0.30376 0.38577,0.20645 0.39258,0.45157 0.25022,9.0114 l -0.14633,8.79918 0.44563,0.14143 c 0.24511,0.0777 0.52629,0.34144 0.62485,0.58586 0.10953,0.27165 0.18524,-1.55341 0.19468,-4.6945 z"
         id="path2714" />
      <path
         style="color:#000000;fill:none;stroke:#0000ff;stroke-width:0.205557;-inkscape-stroke:none"
         d="m 74.077679,192.32516 v -2.05207 h -1.54169 -1.54168 v 1.21949 c 0,1.01927 0.0645,1.23992 0.39213,1.34395 0.21567,0.0684 0.44402,0.25969 0.50744,0.42497 0.0634,0.16527 0.25416,0.3005 0.42385,0.3005 0.1697,0 0.6351,0.18343 1.03424,0.40761 l 0.72571,0.40759 z"
         id="path2712" />
      <path
         style="color:#000000;fill:none;stroke:#0000ff;stroke-width:0.205557;-inkscape-stroke:none"
         d="m 76.338799,193.49708 v -2.92979 l -0.62554,-0.36952 -0.62554,-0.36951 0.0287,2.84771 c 0.0291,2.8888 0.13767,3.34391 0.86266,3.61594 0.33208,0.12462 0.35973,-0.0902 0.35973,-2.79483 z"
         id="path2710" />
      <path
         style="color:#000000;fill:#0000ff;stroke:#0000ff;stroke-width:0.205557;-inkscape-stroke:none"
         d="m 65.916809,197.74877 c 0.32536,-0.32537 0.0694,-0.715 -1.44892,-2.20537 -1.56493,-1.53613 -2.21024,-1.87045 -2.44244,-1.26536 -0.0767,0.19986 0.46606,0.85502 1.5752,1.9014 1.69537,1.59946 2.04746,1.83803 2.31616,1.56933 z"
         id="path2708" />
      <path
         style="color:#000000;fill:none;stroke:#0000ff;stroke-width:0.205557;-inkscape-stroke:none"
         d="m 84.542359,196.58443 c 0.01,-1.79846 -0.0219,-1.95251 -0.4479,-2.17599 l -0.45839,-0.2405 0.46251,0.0889 0.46249,0.089 0.0312,-11.02944 c 0.032,-11.28307 -0.0131,-15.89616 -0.15723,-16.04933 -0.0987,-0.105 -8.98147,-2.07741 -9.04946,-2.00941 -0.0265,0.0265 -0.11433,5.50708 -0.19547,12.17927 l -0.14743,12.13122 0.56309,0.36896 c 0.30969,0.20291 0.61946,0.31255 0.68838,0.24364 0.0689,-0.0689 0.16522,-4.15109 0.21401,-9.0715 l 0.0887,-8.94619 0.64179,0.12813 c 0.35297,0.0705 1.69484,0.37423 2.98192,0.67503 l 2.34014,0.54691 -0.0979,12.06904 c -0.0538,6.63797 -0.0315,12.17638 0.0494,12.30756 0.10816,0.17504 0.18539,0.17708 0.2901,0.009 0.0784,-0.12698 0.22878,-0.17765 0.33403,-0.11258 0.10523,0.065 0.19135,0.029 0.19135,-0.0802 0,-0.1092 0.18648,-0.14968 0.41441,-0.0901 0.22794,0.0596 0.38981,0.24947 0.35972,0.42193 -0.0301,0.17246 0.0543,0.3518 0.18767,0.39855 0.17448,0.0611 0.24527,-0.45698 0.25282,-1.85051 z"
         id="path2706" />
      <path
         style="color:#000000;fill:none;stroke:#0000ff;stroke-width:0.205557;-inkscape-stroke:none"
         d="m 81.348159,197.52905 c 0.0652,-0.6556 0.1128,-1.85804 0.10547,-2.67203 l -0.0131,-1.48001 -1.33699,-0.67185 c -0.73534,-0.36951 -1.23985,-0.70421 -1.12112,-0.74379 0.11871,-0.0396 0.62124,0.16564 1.11673,0.45601 0.49549,0.29037 1.00931,0.52796 1.14181,0.52796 0.18152,0 0.22777,-2.34368 0.18751,-9.50185 l -0.0535,-9.50184 -1.87025,-0.43399 -1.87027,-0.43396 -0.14719,8.83834 -0.14719,8.83834 0.57854,0.5023 0.57855,0.5023 -0.56529,-0.33457 -0.56528,-0.33457 0.009,3.03671 0.009,3.0367 0.81716,0.56529 c 0.44944,0.3109 1.04174,0.56527 1.3162,0.56527 0.27446,0 0.55618,0.0925 0.62605,0.20556 0.20347,0.32919 0.51332,0.23741 0.52043,-0.15417 0.006,-0.33787 0.0235,-0.33726 0.28699,0.0105 0.24981,0.32942 0.2934,0.23961 0.39916,-0.82223 z"
         id="path2704" />
      <path
         style="color:#000000;fill:#0000ff;stroke:#0000ff;stroke-width:0.205557;-inkscape-stroke:none"
         d="m 67.654029,199.38701 c 0.34361,-0.13866 0.32408,-1.27324 -0.06,-3.48557 -0.62482,-3.59872 -0.88575,-4.0348 -2.07622,-3.46989 -0.60294,0.28611 -1.08043,0.33268 -2.41664,0.23567 -0.91586,-0.0666 -1.96586,-0.18036 -2.33329,-0.25305 -0.57438,-0.11362 -0.66806,-0.0747 -0.66806,0.27733 0,0.68614 1.07464,0.97328 3.64248,0.97328 h 2.30636 l 0.22775,1.02779 c 0.12528,0.56527 0.27902,1.76779 0.34165,2.67224 0.13443,1.94142 0.32316,2.30983 1.03599,2.0222 z"
         id="path2702" />
      <path
         style="color:#000000;fill:#0000ff;stroke:#0000ff;stroke-width:0.205557;-inkscape-stroke:none"
         d="m 63.140809,201.8942 c 0.21922,-0.27871 0.46392,-0.99558 0.54376,-1.59306 l 0.14515,-1.08632 0.75589,0.87679 c 0.81817,0.94905 1.07534,1.04408 1.48608,0.54917 0.23009,-0.27724 -0.15346,-0.74206 -2.79867,-3.3917 -2.9704,-2.97535 -3.71148,-3.49062 -4.10485,-2.85413 -0.0735,0.11894 0.66103,0.95981 1.63233,1.86855 l 1.76598,1.65228 v 1.51101 c 0,0.85503 -0.0958,1.57023 -0.22078,1.64745 -0.29579,0.1828 -1.13865,-0.63002 -1.77479,-1.71155 l -0.51755,-0.87992 0.53712,-0.49776 c 0.96916,-0.89823 0.44355,-1.42201 -0.86146,-0.85846 -0.41788,0.18045 -1.10769,0.38774 -1.5329,0.46064 -0.86219,0.14783 -1.03414,0.30701 -0.85002,0.78686 0.084,0.21885 0.38166,0.32689 0.90075,0.32689 0.67322,0 0.81005,0.0839 1.0393,0.63735 0.38631,0.93265 2.48244,3.06266 3.01394,3.06266 0.24316,0 0.62148,-0.22803 0.84072,-0.50675 z"
         id="path2700" />
      <path
         id="path2680"
         style="color:#000000;fill:#0000ff;stroke:#0000ff;stroke-width:0.20574;stroke-miterlimit:4;stroke-dasharray:none"
         d="m 102.56901,105.89897 c 0.555,-4.3e-4 0.69982,0.20785 0.81954,0.84612 0.12244,0.65257 0.18053,0.69996 0.71175,0.58328 0.62325,-0.13689 1.42744,0.43924 1.42744,1.02283 0,0.38364 -0.63557,0.727 -1.34671,0.727 h -0.55178 l 0.64087,0.65564 c 0.70764,0.72378 0.78846,1.07654 0.3475,1.5175 -0.446,0.44599 -0.90953,0.35498 -1.57214,-0.30763 -0.33048,-0.33047 -0.60099,-0.52888 -0.60099,-0.44103 0,0.19811 -0.95938,1.24777 -1.14048,1.24777 -0.0728,0 -0.39724,-0.18875 -0.72109,-0.41936 -0.52072,-0.37079 -0.5647,-0.48387 -0.38197,-0.97657 0.11363,-0.30641 0.35879,-0.6728 0.54489,-0.81412 0.30546,-0.23196 0.29748,-0.25694 -0.0842,-0.25694 -0.58698,0 -1.594291,-0.81611 -1.331451,-1.07894 0.11234,-0.11229 0.15526,-0.33198 0.0955,-0.48779 -0.12803,-0.33366 0.662821,-0.387 1.426941,-0.0965 0.47394,0.18018 0.48881,0.1563 0.44053,-0.69895 -0.0495,-0.8771 -0.0427,-0.88603 0.70486,-0.97755 0.22816,-0.0279 0.41558,-0.0447 0.57097,-0.0448 z m -1.83745,2.17215 c -0.003,-8e-5 -0.007,0 -0.01,0 -0.20198,0 -0.36719,0.17574 -0.36719,0.39033 0,0.2146 0.2738,0.39033 0.60838,0.39033 0.33455,0 0.49981,-0.17572 0.3672,-0.39033 -0.13065,-0.21124 -0.39761,-0.38496 -0.59855,-0.39033 z m 3.42781,0.18803 c -0.002,-7e-5 -0.005,3e-5 -0.007,0 -0.13464,-0.002 -0.30175,0.0892 -0.37162,0.2023 -0.15772,0.25521 -0.0868,0.25521 0.30812,0 0.18238,-0.11785 0.20989,-0.19802 0.0704,-0.2023 z" />
      <path
         id="path2670"
         style="color:#000000;fill:#0000ff;stroke:#0000ff;stroke-width:0.205557;-inkscape-stroke:none"
         d="m 107.46019,112.44005 c 0.13305,1.3e-4 0.27951,0.0145 0.43807,0.0443 0.75161,0.14101 0.75574,0.14796 0.62561,0.9618 -0.11362,0.71034 -0.0851,0.80191 0.21264,0.68763 0.50251,-0.19284 1.21293,0.35875 1.2645,0.98197 0.0416,0.50227 -0.0143,0.53996 -0.79739,0.53996 -0.72239,0 -0.82032,0.0511 -0.69058,0.35982 0.35802,0.85172 0.34931,1.30896 -0.03,1.59626 -0.46277,0.35044 -0.38322,0.33284 -0.78755,0.17769 -0.183,-0.0703 -0.46688,-0.38744 -0.63102,-0.70486 -0.29385,-0.56823 -0.30885,-0.57234 -0.949,-0.253 -0.69407,0.34624 -1.09351,0.23128 -1.49881,-0.43118 -0.17773,-0.29051 -0.10253,-0.45968 0.39723,-0.89387 0.43325,-0.37643 0.53277,-0.56386 0.33421,-0.63004 -0.15542,-0.0517 -0.45039,-0.26187 -0.65515,-0.46662 -0.31356,-0.31356 -0.33381,-0.45525 -0.12846,-0.8978 0.27814,-0.59942 0.4494,-0.63139 1.16902,-0.22003 0.68631,0.39233 0.82201,0.37934 0.82201,-0.0778 0,-0.50243 0.32811,-0.77481 0.90469,-0.77426 z m -1.76018,1.79217 c -0.0312,-0.001 -0.057,0.007 -0.0748,0.0246 -0.0632,0.0633 0.0507,0.17827 0.2535,0.25546 0.29296,0.11153 0.31673,0.0878 0.11518,-0.11518 -0.10022,-0.10096 -0.21423,-0.16205 -0.29386,-0.16489 z m 2.69687,0.3347 c -0.002,-10e-5 -0.004,0 -0.005,0 -0.11472,0 -0.20821,0.21271 -0.20821,0.47254 0,0.25983 0.22499,0.47252 0.50009,0.47252 0.27522,0 0.36924,-0.21271 0.20871,-0.47252 -0.1582,-0.25578 -0.37902,-0.46603 -0.49517,-0.47254 z" />
      <path
         id="path2664"
         style="color:#000000;fill:#0000ff;stroke:#0000ff;stroke-width:0.20574;stroke-miterlimit:4;stroke-dasharray:none"
         d="m 99.258359,112.98346 c 0.859061,0 1.130621,0.32837 1.130621,1.36689 v 0.87369 l 0.68714,-0.28746 c 0.89492,-0.37392 1.49558,-0.1996 1.86501,0.54095 0.28104,0.56332 0.27005,0.61644 -0.19393,0.92045 -0.27082,0.17745 -0.86533,0.37301 -1.32111,0.43413 l -0.8289,0.11075 0.70288,0.53849 c 0.97005,0.743 1.48792,1.87486 0.85795,1.87486 -0.15749,0 -0.33954,0.13854 -0.40461,0.30813 -0.19425,0.50619 -0.56503,0.35806 -1.47123,-0.58771 l -0.858441,-0.89633 -0.35882,0.66597 c -0.19729,0.36633 -0.57384,0.78121 -0.83677,0.92192 -0.41028,0.21957 -0.56663,0.19298 -1.10307,-0.18901 -0.55912,-0.39812 -0.60323,-0.50384 -0.41444,-1.00215 0.11606,-0.30641 0.39768,-0.75636 0.6256,-0.9997 l 0.41446,-0.4425 -0.68517,-0.14471 c -0.89034,-0.1885 -1.68307,-0.89558 -1.39446,-1.24335 0.1156,-0.13931 0.18383,-0.37837 0.1516,-0.53159 -0.0803,-0.38174 1.27727,-0.29288 2.11112,0.13831 0.61441,0.31773 0.62657,0.31549 0.41347,-0.0827 -0.29442,-0.55011 -0.2787,-1.73442 0.0271,-2.04024 0.13568,-0.13567 0.53354,-0.2471 0.88403,-0.2471 z m 0.10484,0.80478 c -0.1787,0 -0.32486,0.42421 -0.32486,0.94259 0,0.51837 0.0652,0.9426 0.1447,0.9426 0.0794,0 0.22529,-0.42423 0.32438,-0.9426 0.0992,-0.51838 0.0344,-0.94259 -0.14422,-0.94259 z m -2.24846,1.81087 c -0.11484,-0.003 -0.13082,0.11483 -0.14716,0.38639 -0.0249,0.41303 0.0667,0.49271 0.56555,0.49271 0.32721,0 0.5946,-0.0901 0.5946,-0.20033 0,-0.11013 -0.25416,-0.33197 -0.56507,-0.49271 -0.22744,-0.11758 -0.3641,-0.18394 -0.44792,-0.18606 z m 4.329561,0.14471 c -0.3261,-0.004 -0.64431,0.14203 -0.64431,0.34505 0,0.21627 0.35723,0.21602 0.9101,-5e-4 0.3544,-0.13884 0.35956,-0.1691 0.0512,-0.28745 -0.099,-0.038 -0.20829,-0.0558 -0.31698,-0.0571 z m -1.35114,1.50865 c -0.0911,0 0.0441,0.39171 0.30025,0.87024 0.25611,0.47853 0.68451,0.86975 0.95245,0.86975 0.26792,0 0.13263,-0.39122 -0.30027,-0.86975 -0.43306,-0.47853 -0.86148,-0.87024 -0.95243,-0.87024 z m -1.538671,0.22888 c -0.12278,-0.004 -0.31108,0.11254 -0.5439,0.34554 -0.38632,0.38628 -0.56445,0.84036 -0.39575,1.00904 0.16859,0.16859 0.48479,0.12862 0.7024,-0.0891 0.21781,-0.21771 0.39573,-0.67175 0.39573,-1.00904 0,-0.16853 -0.0568,-0.25355 -0.15848,-0.25645 z" />
      <path
         id="path2648"
         style="color:#000000;fill:#0000ff;stroke:#0000ff;stroke-width:0.20574;stroke-miterlimit:4;stroke-dasharray:none"
         d="m 101.45808,122.23667 c 1.05292,0.005 1.29741,0.24811 1.06368,1.05827 -0.19564,0.67804 -0.18879,0.68818 0.61774,0.8914 0.63731,0.1606 0.82315,0.30905 0.84907,0.67877 0.0421,0.59948 -0.54752,0.92837 -1.47124,0.82053 -0.57497,-0.0671 -0.67665,-0.0241 -0.56162,0.23725 0.0773,0.17556 0.18263,0.61995 0.2343,0.98739 0.0725,0.51588 0.0187,0.66794 -0.23676,0.66794 -0.18196,0 -0.33077,0.0927 -0.33077,0.20575 0,0.2918 -0.24909,0.25488 -0.77672,-0.11469 -0.25127,-0.176 -0.45678,-0.50948 -0.45678,-0.74128 0,-0.32195 -0.085,-0.38573 -0.35981,-0.27023 -0.857211,0.36032 -1.242411,0.33179 -1.666161,-0.12306 -0.50028,-0.53698 -0.35463,-0.83337 0.67041,-1.36344 0.59636,-0.30839 0.60559,-0.33245 0.19097,-0.48582 -0.23977,-0.0887 -0.57823,-0.36406 -0.7521,-0.61232 -0.62821,-0.89687 0.46844,-1.62274 1.41069,-0.93373 0.359101,0.26258 0.418021,0.2343 0.646281,-0.30863 0.20558,-0.48892 0.37369,-0.59668 0.92882,-0.5941 z m -1.888641,1.41759 c -0.10426,0 -0.18951,0.1936 -0.18951,0.4297 0,0.23612 0.20483,0.42922 0.45482,0.42922 0.250081,0 0.335371,-0.19312 0.189501,-0.42922 -0.146031,-0.23611 -0.350681,-0.4297 -0.454811,-0.4297 z" />
      <path
         id="path2644"
         style="color:#000000;fill:#0000ff;stroke:#0000ff;stroke-width:0.205557;-inkscape-stroke:none"
         d="m 116.16309,122.7092 c 0.17658,0.003 0.31532,0.11032 0.56359,0.34357 0.26566,0.24958 0.53939,0.67856 0.60838,0.95342 l 0.12552,0.4996 0.45727,-0.51141 c 0.68966,-0.77151 1.38385,-0.85321 2.09094,-0.24562 0.58084,0.49911 0.58563,0.52025 0.23922,1.04892 -0.19439,0.29668 -0.63158,0.70871 -0.97164,0.91552 l -0.61823,0.37606 0.73144,0.13684 c 0.40229,0.0755 0.96601,0.34133 1.25319,0.59066 0.47598,0.41326 0.49894,0.50309 0.25792,1.01692 -0.30122,0.6422 -0.96785,0.73801 -1.80595,0.2589 -0.75323,-0.43057 -0.82249,-0.3888 -0.82249,0.49715 0,1.23757 -0.15104,1.45548 -1.00856,1.45548 -0.41752,0 -0.86993,-0.11099 -1.0056,-0.2466 v -4.9e-4 c -0.33841,-0.33841 -0.30752,-1.37906 0.062,-2.0875 0.28314,-0.5429 0.2792,-0.57649 -0.0527,-0.44791 -0.19731,0.0764 -0.78604,0.19005 -1.30782,0.2525 -0.89964,0.10768 -0.96456,0.081 -1.26254,-0.51633 -0.29258,-0.5865 -0.2864,-0.65513 0.091,-0.99675 0.25345,-0.22936 0.73504,-0.36852 1.28469,-0.37162 l 0.8791,-0.005 -0.46564,-0.61675 c -0.78392,-1.03793 -0.74158,-1.74662 0.12748,-2.1313 0.2519,-0.11151 0.41198,-0.17103 0.54932,-0.16834 z m 0.0409,1.37476 c -0.003,-2.4e-4 -0.006,0 -0.009,0 -0.26941,0 -0.22447,0.27847 0.11813,0.73144 0.16599,0.21945 0.30453,0.29106 0.30813,0.15898 0.0103,-0.38441 -0.22157,-0.87519 -0.4174,-0.89042 z m 2.7072,0.411 c -0.005,-1.8e-4 -0.01,0 -0.0148,0 -0.10907,0 -0.29737,0.18489 -0.41839,0.411 -0.25016,0.46744 -0.23728,0.47686 0.25694,0.18902 0.38017,-0.22144 0.48376,-0.5886 0.17622,-0.60002 z m -3.33379,1.8532 c -0.0132,-1.6e-4 -0.0268,8e-5 -0.0408,0 -0.33323,-0.002 -0.5237,0.0837 -0.45038,0.20231 0.15774,0.25522 0.3247,0.25522 0.71962,0 0.23194,-0.14989 0.18252,-0.19728 -0.22839,-0.20231 z m 3.48588,0.40805 c -0.0115,-8e-5 -0.0232,0 -0.0349,0 -0.60124,0 -0.60633,0.009 -0.24216,0.41101 0.43365,0.47917 0.53165,0.49225 0.86137,0.11665 0.31695,-0.36102 0.13867,-0.52269 -0.58426,-0.52766 z" />
      <path
         id="path2634"
         style="color:#000000;fill:#0000ff;stroke:#0000ff;stroke-width:0.20574;stroke-miterlimit:4;stroke-dasharray:none"
         d="m 129.21327,124.52696 c 0.24591,0.006 0.42548,0.13332 0.69058,0.44152 0.39421,0.45829 0.4969,0.49266 0.70929,0.23675 0.31285,-0.37697 1.21019,-0.37578 1.70898,0.002 0.40601,0.30759 0.34872,0.52204 -0.34406,1.29158 l -0.41593,0.46269 h 0.41494 c 0.60233,0 1.10505,0.63814 0.95491,1.21233 -0.11036,0.42188 -0.21822,0.4659 -0.9175,0.37212 -0.6872,-0.0922 -0.79198,-0.0526 -0.79198,0.29877 0,0.22279 -0.0956,0.58365 -0.21264,0.80232 -0.29723,0.55541 -1.34383,0.53484 -1.64745,-0.0325 v -4.9e-4 c -0.12665,-0.23664 -0.17357,-0.6573 -0.10386,-0.93522 0.11922,-0.47501 0.0863,-0.49849 -0.54783,-0.38786 -0.81512,0.14219 -1.11198,-0.0297 -1.29208,-0.74719 -0.12088,-0.48166 -0.0555,-0.57263 0.57294,-0.79985 0.69833,-0.25252 0.70449,-0.26502 0.39329,-0.80724 -0.39787,-0.69324 -0.2181,-1.18417 0.50009,-1.36443 0.12554,-0.0315 0.23208,-0.048 0.32831,-0.0458 z m 2.1628,2.61515 c -0.004,-9e-5 -0.008,0 -0.0123,0 -0.2541,0 -0.3402,0.19622 -0.19196,0.43611 0.1484,0.2399 0.35589,0.4361 0.4617,0.4361 0.10585,0 0.19246,-0.19622 0.19246,-0.4361 0,-0.23616 -0.20131,-0.4301 -0.44989,-0.43611 z" />
      <path
         id="path2628"
         style="color:#000000;fill:#0000ff;stroke:#0000ff;stroke-width:0.20574;stroke-miterlimit:4;stroke-dasharray:none"
         d="m 109.23316,125.52272 c 0.59703,0 1.43383,0.44495 1.43383,0.76244 0,0.15689 -0.17279,0.64293 -0.38394,1.07993 l -0.38392,0.79444 0.7398,0.1388 c 1.20506,0.22607 1.46705,0.44706 1.40823,1.18723 -0.0481,0.60593 -0.11836,0.66741 -0.82397,0.72603 -0.42426,0.0352 -1.04657,-0.0734 -1.38313,-0.24119 -0.69752,-0.34797 -0.73462,-0.30359 -0.30123,0.35784 0.17089,0.26082 0.33237,0.82913 0.35931,1.26303 0.0426,0.68459 -0.0186,0.8082 -0.46465,0.93669 -0.96332,0.27754 -1.18176,0.19934 -1.53818,-0.55177 -0.19338,-0.40753 -0.30919,-0.9627 -0.25743,-1.2335 0.11374,-0.59469 0.12164,-0.59346 -0.71766,-0.0817 -0.8442,0.51472 -1.7694,0.53944 -1.94918,0.0522 -0.073,-0.19785 -0.21175,-0.41336 -0.30862,-0.47893 -0.53145,-0.35973 0.74935,-1.42251 1.71439,-1.42251 0.39937,0 0.34802,-0.0946 -0.40066,-0.73538 -0.8538,-0.73081 -1.1412,-1.52587 -0.55129,-1.52587 0.17466,0 0.30863,-0.18407 0.30863,-0.42478 0,-0.5814 0.73379,-0.36386 1.48748,0.44102 0.62745,0.67009 0.77376,0.73054 0.77376,0.31995 0,-0.45882 0.82175,-1.36394 1.23843,-1.36394 z m 0.0856,0.93866 c -0.19715,0 -0.46304,0.27117 -0.59017,0.60247 -0.2349,0.61211 0.19292,0.82249 0.68073,0.33471 0.3838,-0.38381 0.33036,-0.93718 -0.0906,-0.93718 z m -2.90557,0.60592 c -0.48363,0.005 -0.48536,0.0409 -0.0281,0.54636 0.50234,0.55507 0.9925,0.71438 0.98444,0.31994 h 5.7e-4 c -0.01,-0.46381 -0.45884,-0.87067 -0.95687,-0.8663 z m 4.15088,1.75032 c -0.33918,0 -0.75529,0.0915 -0.92488,0.2028 -0.27407,0.17991 -0.27407,0.22468 0,0.4046 0.43132,0.28315 1.29412,0.26794 1.11635,-0.0197 -0.0777,-0.1257 -0.014,-0.30935 0.14176,-0.40805 0.19777,-0.12527 0.0973,-0.17966 -0.33323,-0.17966 z m -3.48983,0.45334 c -0.17845,-0.008 -0.49714,0.11237 -0.88008,0.35981 -0.49015,0.31676 -0.48018,0.36809 0.0724,0.3731 0.35267,0.002 0.74677,-0.16452 0.87565,-0.3731 0.14366,-0.23245 0.0997,-0.35255 -0.0679,-0.35981 z m 1.67256,1.46139 c -0.0196,-0.002 -0.0437,0.0299 -0.0704,0.0965 -0.0594,0.14838 -0.052,0.32547 0.0162,0.39377 0.0683,0.0683 0.11677,-0.0531 0.1078,-0.26973 -0.006,-0.14219 -0.0249,-0.21743 -0.0536,-0.22052 z" />
      <path
         id="path2616"
         style="color:#000000;fill:#0000ff;stroke:#0000ff;stroke-width:0.20574;stroke-miterlimit:4;stroke-dasharray:none"
         d="m 140.10507,125.28153 c 0.21496,-0.002 0.45362,0.056 0.727,0.16982 0.82913,0.34503 0.87699,0.93958 0.16047,1.99544 l -0.50748,0.74818 h 0.89584 c 0.93137,0 2.15787,0.72734 1.61004,0.9549 -0.15846,0.0658 -0.20893,0.29708 -0.13191,0.60395 0.11339,0.45173 0.0618,0.49665 -0.56704,0.49665 -0.38043,0 -0.99985,-0.0884 -1.37673,-0.1964 -0.60803,-0.17438 -0.66735,-0.1571 -0.52618,0.15407 0.0875,0.19288 0.19748,0.84972 0.24463,1.45942 0.0806,1.04354 0.0605,1.10156 -0.34603,0.99527 -0.23751,-0.0621 -0.43167,-0.0288 -0.43167,0.0738 0,0.37971 -0.60046,0.16906 -1.01299,-0.35538 -0.28219,-0.35874 -0.42626,-0.84261 -0.42626,-1.43285 v -0.89092 l -0.74768,0.50748 c -0.41146,0.27923 -1.03671,0.50747 -1.38904,0.50747 -0.52153,0 -0.69426,-0.12082 -0.92881,-0.65071 -0.27327,-0.61735 -0.25952,-0.67493 0.2594,-1.12127 0.30088,-0.25881 0.87193,-0.53184 1.26943,-0.60641 l 0.72306,-0.13536 -0.67237,-0.35932 c -0.36967,-0.19764 -0.84422,-0.65223 -1.05433,-1.01003 -0.38136,-0.64947 -0.38087,-0.65131 0.13044,-1.16262 0.59846,-0.59846 1.16105,-0.48512 1.98413,0.39968 l 0.49862,0.53602 0.42626,-0.75014 c 0.35863,-0.63148 0.71629,-0.92643 1.1892,-0.93078 z m 0.0359,1.12472 c -0.29434,-9.5e-4 -0.6889,0.5184 -0.56999,0.87516 0.0819,0.24531 0.24242,0.2053 0.52028,-0.12945 0.22109,-0.26641 0.31422,-0.57227 0.20673,-0.67976 -0.0454,-0.0454 -0.0992,-0.0658 -0.15702,-0.066 z m -2.941,0.61281 c -0.0143,-5.6e-4 -0.0287,-8e-5 -0.0428,9.5e-4 -0.5104,0.0384 -0.48567,0.25839 0.0724,0.64924 0.64423,0.45123 0.80312,0.39843 0.53996,-0.17917 -0.1251,-0.27458 -0.35515,-0.46266 -0.5695,-0.47105 z m 4.19911,1.61053 c -0.12613,0.001 -0.32924,0.0726 -0.65613,0.19738 -0.55812,0.21308 -0.56451,0.2313 -0.17966,0.51388 0.61986,0.45513 1.03957,0.3658 1.03957,-0.221 0,-0.34514 -0.0194,-0.49218 -0.20378,-0.49026 z m -4.0101,0.80823 c -0.43904,-0.005 -0.9066,0.32514 -0.66893,0.47203 0.10845,0.067 0.37277,-0.0106 0.58722,-0.17326 h 4.9e-4 c 0.29963,-0.22682 0.31823,-0.29616 0.0812,-0.29877 z m 2.22236,0.93127 c -0.0879,3e-4 -0.20561,0.17522 -0.3416,0.52963 -0.11733,0.3055 -0.0504,0.65619 0.14866,0.77918 0.19906,0.12291 0.36177,-0.1267 0.36177,-0.55522 0,-0.49963 -0.0627,-0.75394 -0.16883,-0.75359 z" />
      <path
         style="color:#000000;fill:#0000ff;stroke:#0000ff;stroke-width:0.205557;-inkscape-stroke:none"
         d="m 145.42304,135.84925 -0.56793,-0.56793 -0.35085,0.46515 c -0.42891,0.56861 -0.95163,0.59217 -1.59364,0.0719 l -0.48528,-0.39329 0.45311,-0.61344 0.45309,-0.61346 -0.61544,-0.25493 c -0.52847,-0.21889 -0.60447,-0.34534 -0.53774,-0.89466 0.0812,-0.66821 0.22174,-0.71682 1.29418,-0.44767 0.44157,0.11083 0.52286,0.0756 0.42347,-0.1834 -0.22043,-0.57445 0.21982,-1.34478 0.76857,-1.34478 0.85811,0 1.15246,0.21561 1.15246,0.84422 0,0.5385 0.0656,0.59468 0.69427,0.59468 0.38186,0 0.80944,0.13876 0.95018,0.30834 0.14074,0.16958 0.1752,0.30975 0.0766,0.31148 -0.0986,9.5e-4 -0.0406,0.0943 0.12901,0.20556 0.27407,0.17991 0.27407,0.22586 0,0.41353 -0.16959,0.11608 -0.56066,0.26604 -0.86905,0.33312 l -0.56071,0.12198 0.40655,0.51685 c 0.47013,0.59768 0.51101,0.97674 0.14958,1.38724 -0.38465,0.43692 -0.7407,0.36924 -1.37038,-0.26044 z"
         id="path2604" />
      <path
         id="path2598"
         style="color:#000000;fill:#0000ff;stroke:#0000ff;stroke-width:0.20574;stroke-miterlimit:4;stroke-dasharray:none"
         d="m 128.92581,132.16667 c 0.14046,-0.002 0.29174,0.0106 0.45334,0.0379 0.84204,0.14227 0.85315,0.15543 0.7654,0.89387 -0.049,0.41222 -0.16019,0.91113 -0.2471,1.10897 -0.13121,0.29867 -0.0512,0.35981 0.47105,0.35981 1.10964,0 1.63515,0.37094 1.63515,1.15425 0,0.65948 -0.039,0.69708 -0.75014,0.71864 -0.41265,0.0125 -0.95845,0.006 -1.21282,-0.0148 -0.46015,-0.0373 -0.63312,0.27345 -0.27515,0.49468 0.10325,0.0637 0.25305,0.50193 0.33274,0.97361 0.11801,0.69851 0.0759,0.90817 -0.22692,1.12964 -0.53776,0.39322 -1.04057,0.33511 -1.51603,-0.17523 -0.22911,-0.24593 -0.47291,-0.74614 -0.54144,-1.11143 l -0.12453,-0.664 -0.74275,0.50403 c -0.92181,0.62555 -1.60905,0.56001 -2.05994,-0.1964 -0.3404,-0.57107 -0.33613,-0.58646 0.32634,-1.18181 0.36921,-0.33181 0.87804,-0.6073 1.13063,-0.61183 0.41242,-0.007 0.39627,-0.0411 -0.15751,-0.33373 -0.33917,-0.17919 -0.77822,-0.46741 -0.97607,-0.64037 -0.38381,-0.33554 -0.49743,-1.27878 -0.15407,-1.27878 0.11304,0 0.20526,-0.13855 0.20526,-0.30813 0,-0.49163 0.69027,-0.35917 1.61349,0.3096 l 0.85351,0.61774 v -0.58574 c 0,-0.76183 0.43908,-1.19023 1.19756,-1.20052 z m 0.28155,0.54046 c -0.26211,0 -0.59891,0.46681 -0.74817,1.03759 -0.14914,0.57076 -0.18467,1.03809 -0.0788,1.03809 0.10589,0 0.4427,-0.46733 0.74817,-1.03809 0.30685,-0.57332 0.34201,-1.03759 0.0787,-1.03759 z m -2.83271,1.42103 c -0.064,-0.002 -0.12705,0.006 -0.18704,0.0276 -0.36952,0.12963 -0.34458,0.17721 0.25693,0.48828 0.36668,0.18962 0.66367,0.27327 0.66007,0.18557 -0.0148,-0.36254 -0.38422,-0.6892 -0.72996,-0.70141 z m 4.18582,1.06319 c -0.0946,-0.003 -0.33239,0.0708 -0.71224,0.22052 -0.53766,0.21203 -0.54935,0.24019 -0.16736,0.39672 0.22612,0.0927 0.58423,0.17516 0.79592,0.18311 0.2992,0.0116 0.334,-0.0469 0.15604,-0.26137 -0.12592,-0.15171 -0.16791,-0.3366 -0.0935,-0.411 0.0832,-0.0832 0.0902,-0.12601 0.0212,-0.12798 z m -3.34265,0.66745 c -0.0848,-0.003 -0.2527,0.05 -0.50846,0.14816 -0.46817,0.17973 -0.85105,0.53533 -0.85105,0.79001 0,0.66684 0.30016,0.57299 1.04695,-0.32683 0.35105,-0.42303 0.46379,-0.60613 0.31256,-0.61134 z m 1.60118,1.18231 c -0.15889,-0.007 -0.27318,0.16164 -0.27318,0.44004 0,0.3563 0.18695,0.64776 0.41543,0.64776 0.22851,0 0.41543,-0.17632 0.41543,-0.39131 0,-0.21507 -0.18694,-0.50651 -0.41543,-0.64776 -0.05,-0.0309 -0.0978,-0.0468 -0.14225,-0.0487 z" />
      <path
         id="path2586"
         style="color:#000000;fill:#0000ff;stroke:#0000ff;stroke-width:0.1905;stroke-miterlimit:4;stroke-dasharray:none"
         d="m 152.17278,133.6133 c 0.10978,0.002 0.23779,0.0196 0.39377,0.0512 0.80883,0.16356 1.0054,0.54021 0.70191,1.34425 -0.19415,0.51437 -0.17406,0.58623 0.16243,0.58623 0.80129,0 1.36851,0.42861 1.38608,1.04695 0.0163,0.57461 -0.0188,0.59755 -0.91601,0.59755 -0.81124,0 -0.9129,0.0471 -0.77722,0.35981 0.0859,0.19785 0.19714,0.65156 0.24759,1.00856 0.0714,0.50522 0.007,0.67097 -0.28795,0.74719 -0.71001,0.18294 -0.96385,0.14578 -1.34031,-0.19492 -0.20674,-0.1871 -0.37605,-0.55689 -0.37605,-0.82201 0,-0.55474 -0.14848,-0.59003 -0.70732,-0.16735 -0.54435,0.41173 -1.21472,0.37937 -1.62973,-0.0793 -0.46138,-0.50982 -0.24502,-0.98615 0.66646,-1.46779 0.41019,-0.21677 0.61267,-0.39813 0.45038,-0.40313 -0.64801,-0.0199 -1.67471,-1.44811 -1.04104,-1.44811 0.11304,0 0.20575,-0.13854 0.20575,-0.30813 0,-0.41884 0.38351,-0.38636 1.18181,0.10042 0.5062,0.30864 0.66843,0.33911 0.66843,0.12502 0,-0.1554 0.16148,-0.48077 0.35932,-0.72307 0.20911,-0.25609 0.37113,-0.35802 0.6517,-0.35341 z m -1.82268,1.45303 c -0.004,-9e-5 -0.008,0 -0.0118,0 -0.25032,0 -0.33556,0.19331 -0.18951,0.42971 0.14619,0.23633 0.35108,0.4297 0.45531,0.4297 0.10428,0 0.1895,-0.19331 0.1895,-0.4297 0,-0.23263 -0.19864,-0.4238 -0.44349,-0.42971 z m 2.81007,1.11143 c -0.11169,-0.001 -0.24233,0.0237 -0.38196,0.0773 -0.40626,0.15583 -0.73882,0.37052 -0.73882,0.47696 0,0.10632 0.33256,0.19344 0.73882,0.19344 0.40622,0 0.73832,-0.21473 0.73832,-0.47696 0,-0.17221 -0.14315,-0.26868 -0.35636,-0.27072 z" />
      <path
         id="path2580"
         style="color:#000000;fill:#0000ff;stroke:#0000ff;stroke-width:0.20574;stroke-miterlimit:4;stroke-dasharray:none"
         d="m 116.97378,134.17541 c 0.29,-0.005 0.62301,0.0243 0.83529,0.0778 0.47032,0.11807 0.50558,0.20334 0.40903,0.99232 -0.0581,0.47481 -0.16427,1.00458 -0.23577,1.17738 -0.10639,0.25719 0.0157,0.3005 0.67385,0.23774 0.96704,-0.0922 1.75602,0.26877 1.58149,0.72356 -0.0672,0.17524 -0.018,0.44418 0.10928,0.59756 0.33022,0.39789 -0.69656,0.7596 -1.81087,0.63791 l -0.86729,-0.095 0.52273,0.8919 c 0.52584,0.89728 0.59591,1.87537 0.12749,1.77986 -0.13863,-0.0282 -0.25202,0.041 -0.25202,0.15406 0,0.11305 -0.23253,0.20575 -0.51683,0.20575 -0.36258,0 -0.63866,-0.19933 -0.92438,-0.66794 -0.22403,-0.36743 -0.40763,-0.87624 -0.40805,-1.13063 -4.1e-4,-0.25437 -0.0932,-0.46268 -0.20624,-0.46268 -0.11304,0 -0.20575,0.0852 -0.20575,0.18901 0,0.27227 -1.31417,1.04449 -1.7774,1.04449 -0.43003,0 -1.1006,-0.66848 -1.1006,-1.09716 0,-0.31484 0.71245,-1.00312 1.41365,-1.36541 0.48619,-0.25119 0.4845,-0.25411 -0.34307,-0.62462 -1.05641,-0.47297 -1.74968,-1.64057 -0.9741,-1.64057 0.18389,0 0.25565,-0.12079 0.1836,-0.30862 -0.18538,-0.48306 0.77875,-0.38516 1.58986,0.16145 l 0.69698,0.46958 0.3096,-0.93226 c 0.26063,-0.7845 0.40319,-0.94295 0.89978,-0.9997 0.0811,-0.009 0.17306,-0.0142 0.26974,-0.0157 z m 0.16243,0.89584 c -0.42923,0 -0.8062,0.87729 -0.61872,1.43974 0.0742,0.22244 0.32365,-0.0101 0.55473,-0.51781 0.26364,-0.57863 0.28762,-0.92193 0.064,-0.92193 z m -2.64814,1.28912 c -0.0892,-0.006 -0.16734,0.0521 -0.27613,0.1708 -0.20947,0.22862 -0.18345,0.32141 0.14028,0.49468 0.48246,0.25819 0.83677,0.27519 0.83677,0.0399 0,-0.0956 -0.16196,-0.31813 -0.35981,-0.49468 -0.15179,-0.13544 -0.25186,-0.20494 -0.34111,-0.21067 z m 4.32217,0.97459 c -0.0681,-0.004 -0.2548,0.0419 -0.50157,0.12798 -0.78192,0.27259 -0.6692,0.59854 0.20673,0.59854 0.50349,0 0.58373,-0.055 0.40067,-0.27564 -0.12592,-0.15173 -0.16704,-0.33753 -0.0915,-0.41298 0.0236,-0.0236 0.0167,-0.036 -0.0143,-0.0379 z m -3.83339,1.21923 c -0.0835,-0.002 -0.18517,0.0176 -0.30223,0.0625 -0.3119,0.11965 -0.56703,0.36952 -0.56703,0.55522 0,0.39637 0.52075,0.44706 0.88205,0.0856 0.36595,-0.36594 0.3148,-0.69629 -0.0128,-0.70338 z m 1.99742,0.38885 c -0.0212,-0.001 -0.0389,0.005 -0.0532,0.0192 -0.2915,0.29148 0.29899,1.55295 0.727,1.55295 0.21275,0 0.17764,-0.39024 -0.0783,-0.86828 -0.21972,-0.41054 -0.46623,-0.69611 -0.59558,-0.70387 z" />
      <path
         id="path2566"
         style="color:#000000;fill:#0000ff;stroke:#0000ff;stroke-width:0.20574;stroke-miterlimit:4;stroke-dasharray:none"
         d="m 135.07066,137.27934 c 0.1442,3.1e-4 0.2618,0.0811 0.44792,0.24956 0.21689,0.19628 0.50571,0.62698 0.64235,0.95687 l 0.24856,0.59952 0.60839,-0.5119 c 0.76471,-0.64347 1.36921,-0.64482 1.97675,-0.004 0.57904,0.61063 0.39917,1.08309 -0.69649,1.8276 l -0.72553,0.49271 0.69747,0.13093 c 0.38367,0.072 0.89726,0.34306 1.14096,0.60248 0.38955,0.41465 0.41215,0.5381 0.18705,1.02283 -0.3113,0.67031 -0.99749,0.72775 -1.92704,0.16095 l -0.64382,-0.3923 -0.10189,0.90667 c -0.0562,0.49877 -0.20654,1.0329 -0.33421,1.18674 -0.28897,0.34818 -1.26575,0.20345 -1.61743,-0.23971 v -5e-4 c -0.34501,-0.43475 -0.32399,-1.16378 0.0546,-1.89602 l 0.31206,-0.60247 -0.53061,0.2018 c -0.62486,0.23759 -1.73863,0.25997 -2.08159,0.0418 -0.13283,-0.0845 -0.27137,-0.42503 -0.30813,-0.75653 -0.0854,-0.77087 0.61764,-1.19632 1.75427,-1.06123 l 0.79345,0.0945 -0.52175,-0.54882 c -0.56416,-0.59325 -0.85574,-1.45179 -0.60493,-1.78232 0.0859,-0.11327 0.40982,-0.33649 0.71962,-0.49616 0.23459,-0.12089 0.38271,-0.18337 0.50994,-0.1831 z m 0,1.19511 c -0.0673,-0.003 -0.14915,0.019 -0.25595,0.0546 -0.2047,0.0682 -0.10318,0.3606 0.27761,0.79985 l 0.60051,0.69305 -0.19,-0.70092 c -0.17239,-0.63653 -0.24603,-0.83784 -0.43217,-0.84661 z m 2.878,0.64284 c -0.40998,0 -0.88794,0.64383 -0.65268,0.8791 0.0854,0.0854 0.34825,-0.0774 0.58426,-0.36179 0.26756,-0.32238 0.29323,-0.51731 0.0684,-0.51731 z m -3.46571,1.77149 c -0.39512,-0.001 -0.71863,0.11373 -0.71863,0.25743 0,0.33031 0.53383,0.33031 1.04497,0 0.30538,-0.19734 0.23352,-0.25432 -0.32634,-0.25743 z m 2.89425,0.51781 c -0.15001,-0.005 -0.10675,0.0884 0.0541,0.34603 0.33912,0.54301 0.62271,0.63514 0.93324,0.30271 0.28406,-0.30408 0.20022,-0.38255 -0.62068,-0.57884 -0.17402,-0.0416 -0.29345,-0.0675 -0.36671,-0.0699 z" />
      <path
         id="path2556"
         style="color:#000000;fill:#0000ff;stroke:#0000ff;stroke-width:0.20574;stroke-miterlimit:4;stroke-dasharray:none"
         d="m 144.24019,138.05705 c 0.38825,0.003 1.08356,0.54374 1.36394,1.2207 l 0.25497,0.61527 0.51141,-0.6074 c 0.5792,-0.68833 1.2528,-0.77981 2.02302,-0.27515 0.68017,0.44568 0.63965,0.75481 -0.21166,1.60611 l -0.71863,0.71864 0.81363,0.21904 c 0.79345,0.21365 1.66855,1.05829 1.24335,1.20003 -0.11479,0.0382 -0.2087,0.24698 -0.2087,0.46366 0,0.49905 -0.97319,0.53907 -1.86699,0.0768 l -0.61281,-0.31698 0.0807,0.77918 c 0.12049,1.16364 -0.1825,1.66369 -1.00806,1.66369 -0.37824,0 -0.77053,-0.10627 -0.87172,-0.23626 -0.32321,-0.4153 -0.42072,-1.16061 -0.23577,-1.80546 0.15648,-0.54565 0.13473,-0.60782 -0.1708,-0.48237 -0.82853,0.34024 -2.01008,0.34938 -2.28537,0.0177 -0.15072,-0.1816 -0.20529,-0.33028 -0.12109,-0.33028 0.0843,0 0.0294,-0.14922 -0.12207,-0.33175 -0.43183,-0.52035 0.43186,-1.107 1.62974,-1.107 0.91763,0 0.93313,-0.0106 0.48975,-0.32093 -0.94897,-0.6647 -1.33857,-2.14607 -0.56457,-2.14607 0.17314,0 0.31453,-0.13854 0.31453,-0.30813 0,-0.22018 0.10925,-0.31446 0.27318,-0.31305 z m 0.27909,1.26008 c -0.002,-9e-5 -0.004,0 -0.006,0 -0.40772,0 -0.29319,0.75235 0.17326,1.13948 0.25856,0.21459 0.42693,0.23769 0.42724,0.0586 -2e-4,-0.51929 -0.33276,-1.18765 -0.5941,-1.19806 z m 2.78546,0.18852 c -0.18054,-0.004 -0.38037,0.17247 -0.48926,0.45628 -0.33534,0.87391 -0.0541,1.07846 0.52421,0.38147 0.28079,-0.33832 0.32,-0.66088 0.0975,-0.79838 -0.0417,-0.0257 -0.0864,-0.0383 -0.13241,-0.0394 z m -3.29048,2.12392 c -0.38212,0 -0.69501,0.15204 -0.69501,0.33766 0,0.18555 0.21887,0.33766 0.48631,0.33766 0.26743,0 0.57984,-0.15205 0.69452,-0.33766 0.11479,-0.18557 -0.10365,-0.33766 -0.48582,-0.33766 z m 3.48343,0.34603 c -0.24872,-10e-4 -0.44742,0.0561 -0.44742,0.17375 0,0.10011 0.22872,0.3314 0.50796,0.51436 0.43241,0.28334 0.48986,0.28686 0.38886,0.0236 -0.0791,-0.20615 0.008,-0.30996 0.26333,-0.31206 0.32168,-0.002 0.33314,-0.0344 0.0733,-0.2023 -0.19969,-0.12906 -0.5213,-0.19622 -0.78607,-0.19738 z" />
      <path
         style="color:#000000;fill:#0000ff;stroke:#0000ff;stroke-width:0.205557;-inkscape-stroke:none"
         d="m 121.97027,145.76582 c -0.28253,-0.56491 -0.36272,-0.60248 -0.88988,-0.41709 -0.50195,0.17652 -0.63149,0.13587 -0.96936,-0.30415 -0.48019,-0.62539 -0.42577,-0.84146 0.30117,-1.19564 0.56433,-0.27495 0.56517,-0.27842 0.13898,-0.57693 -0.48625,-0.34059 -0.53999,-0.72115 -0.18262,-1.29338 0.22754,-0.36435 0.29984,-0.37169 0.95702,-0.0971 0.62582,0.26148 0.75203,0.25978 1.05478,-0.0142 0.74919,-0.67801 1.75966,-0.26138 1.5609,0.64357 -0.11572,0.5269 -0.0577,0.62259 0.50675,0.83566 0.53394,0.20154 0.6267,0.33438 0.57123,0.81814 -0.0606,0.52824 -0.13204,0.57367 -0.83707,0.53229 -0.86703,-0.051 -0.84592,-0.0762 -0.56086,0.67354 0.45746,1.20322 -1.06472,1.56768 -1.65104,0.39531 z"
         id="path2544" />
      <path
         style="color:#000000;fill:#0000ff;stroke:#0000ff;stroke-width:0.205557;-inkscape-stroke:none"
         d="m 114.93211,147.9906 c -0.0849,-0.0475 -0.15417,-0.38849 -0.15417,-0.75756 0,-0.60185 -0.0781,-0.69071 -0.75738,-0.86149 -0.57179,-0.14377 -0.7932,-0.32556 -0.90355,-0.74195 -0.16802,-0.63396 0.0577,-0.78459 1.1755,-0.78459 0.69709,0 0.70659,-0.0105 0.39432,-0.45685 -0.44329,-0.63287 -0.39992,-1.33592 0.0989,-1.60287 0.51861,-0.27756 1.1596,-0.0921 1.4304,0.41391 0.18788,0.35105 0.25368,0.35732 0.81445,0.0776 0.63574,-0.31715 1.12493,-0.19856 1.61457,0.39143 0.18556,0.22358 0.10488,0.41876 -0.37663,0.91128 l -0.61278,0.62676 0.62109,0.25727 c 0.77368,0.32046 0.86346,0.46422 0.69905,1.11928 -0.15358,0.6119 -0.95101,0.7178 -1.66092,0.22056 -0.40791,-0.28569 -0.43951,-0.26654 -0.56085,0.34014 -0.18544,0.92725 -0.48985,1.21453 -1.12606,1.0628 -0.29796,-0.0711 -0.61112,-0.16813 -0.69593,-0.21569 z"
         id="path2542" />
      <path
         id="path2540"
         style="color:#000000;fill:#0000ff;stroke:#0000ff;stroke-width:0.20574;stroke-miterlimit:4;stroke-dasharray:none"
         d="m 131.16196,144.72759 c 0.52964,1.9e-4 1.08829,0.42145 1.08829,0.88058 0,0.23758 0.0801,0.2318 0.45678,-0.032 0.55407,-0.38808 1.1672,-0.4008 1.65041,-0.034 0.48796,0.3704 0.45239,0.6674 -0.15111,1.2709 l -0.51043,0.51044 0.50649,0.23085 c 0.56139,0.25578 0.79748,0.75529 0.60001,1.26992 -0.14606,0.38062 -0.93912,0.44486 -1.53768,0.12453 -0.30929,-0.16553 -0.39772,-0.14543 -0.39772,0.0895 0,0.16622 -0.091,0.54171 -0.2023,0.83431 -0.17125,0.45044 -0.28943,0.51135 -0.77081,0.3987 -0.3127,-0.0731 -0.70085,-0.25701 -0.86237,-0.40854 -0.23038,-0.21612 -0.24798,-0.4249 -0.0812,-0.96819 0.20263,-0.66021 0.19015,-0.68804 -0.26776,-0.60051 -0.83095,0.15885 -1.45855,-0.11337 -1.56673,-0.67926 -0.11304,-0.59111 0.30264,-0.91996 1.16311,-0.91996 0.47573,0 0.5045,-0.047 0.32191,-0.52716 -0.33568,-0.88294 -0.24381,-1.26722 0.33766,-1.41316 0.0727,-0.0183 0.1478,-0.0271 0.22347,-0.0271 z m 2.37938,3.0424 c -0.003,-8e-5 -0.006,0 -0.01,0 -0.21191,0 -0.38541,0.16362 -0.38541,0.36374 0,0.20007 0.0722,0.36424 0.16047,0.36424 0.0883,0 0.26173,-0.16413 0.3854,-0.36424 0.12183,-0.19694 0.0538,-0.35873 -0.15062,-0.36374 z" />
      <path
         style="color:#000000;fill:#0000ff;stroke:#0000ff;stroke-width:0.205557;-inkscape-stroke:none"
         d="m 93.097279,154.2179 c -0.95582,-1.01348 -1.37375,-2.71638 -1.41267,-5.75607 l -0.0318,-2.48625 0.87363,-0.0632 0.87361,-0.0632 0.004,1.19378 c 0.0105,3.59117 0.75719,6.67505 1.67376,6.91473 0.20726,0.0542 0.93216,0.0481 1.61088,-0.0134 1.0607,-0.0961 1.23404,-0.0636 1.23404,0.23161 0,0.5059 -0.72623,0.71372 -2.54518,0.72835 -1.58343,0.0127 -1.63514,-0.002 -2.2798,-0.68637 z"
         id="path2536" />
      <path
         id="path2534"
         style="color:#000000;fill:#0000ff;stroke:#0000ff;stroke-width:0.20574;stroke-miterlimit:4;stroke-dasharray:none"
         d="m 125.50047,147.78524 c 0.15179,0.003 0.32548,0.0294 0.52716,0.0768 0.62879,0.14779 0.78755,0.28545 0.83924,0.7275 0.0351,0.29977 -0.0831,0.82873 -0.26236,1.17541 l -0.32585,0.63005 0.87861,0.007 c 1.0546,0.009 1.4885,0.31278 1.52687,1.07402 0.0347,0.6894 -0.50627,0.88323 -1.88619,0.67632 l -0.92536,-0.13832 0.52667,0.77524 c 0.54139,0.79779 0.64066,2.02548 0.16391,2.02548 -0.1319,0 -0.30899,0.0692 -0.39378,0.15406 -0.27199,0.27201 -0.61923,0.16639 -1.08583,-0.33027 -0.2503,-0.26643 -0.50939,-0.81977 -0.5759,-1.22957 l -0.12108,-0.74522 -0.60641,0.51044 c -0.33339,0.28053 -0.68357,0.50994 -0.77869,0.50994 -0.0951,0 -0.31017,0.0525 -0.47745,0.11665 -0.33633,0.12907 -1.16804,-0.64735 -1.16804,-1.09026 0,-0.39739 1.01544,-1.28765 1.46878,-1.28765 0.57884,0 0.45559,-0.33027 -0.22888,-0.61379 -0.69582,-0.28822 -0.92533,-0.52956 -1.1262,-1.18477 -0.10523,-0.34322 -0.0585,-0.46268 0.18065,-0.46268 0.1772,0 0.32191,-0.13855 0.32191,-0.30813 0,-0.45891 0.66886,-0.37373 1.50176,0.19147 l 0.73685,0.50009 0.2274,-0.6891 c 0.25769,-0.78115 0.52008,-1.08052 1.06221,-1.07091 z m 0.28745,0.76638 c -0.0699,-0.004 -0.19141,0.16749 -0.39722,0.52126 -0.47852,0.82294 -0.3398,1.43458 0.2023,0.8924 0.1629,-0.1633 0.29046,-0.61288 0.28303,-0.9997 -0.005,-0.27087 -0.0264,-0.41057 -0.0881,-0.41396 z m -2.55953,1.2463 c -0.10524,-0.004 -0.23202,0.0541 -0.41002,0.16687 -0.22837,0.14463 -0.20041,0.22543 0.14078,0.40804 0.67439,0.36093 0.91326,0.2946 0.6576,-0.1831 -0.14051,-0.26256 -0.24414,-0.38612 -0.38836,-0.39181 z m 3.6493,1.28518 c -0.0394,-9.5e-4 -0.0796,0.005 -0.11813,0.0197 -0.16424,0.0631 -0.38912,0.1142 -0.4996,0.1142 -0.11048,0 -0.14366,0.0927 -0.0738,0.20574 0.0699,0.11305 0.35024,0.20575 0.62265,0.20575 0.36395,0 0.46239,-0.0852 0.37212,-0.32044 h 5e-4 c -0.0517,-0.13481 -0.17504,-0.2204 -0.3037,-0.22494 z m -3.4908,0.85745 c -0.11365,-0.004 -0.28114,0.0545 -0.48927,0.1831 -0.31022,0.19169 -0.34682,0.37733 -0.10435,0.52717 0.20595,0.12724 0.48295,0.0561 0.61576,-0.15898 0.21233,-0.34354 0.18043,-0.54501 -0.0221,-0.55129 z m 2.08798,0.49369 c -0.0884,0 -0.16095,0.37761 -0.16095,0.83874 0,0.46113 0.1709,0.83824 0.37999,0.83824 0.2089,0 0.28158,-0.37711 0.16095,-0.83824 -0.12049,-0.46113 -0.2916,-0.83874 -0.37999,-0.83874 z" />
      <path
         id="path2520"
         style="color:#000000;fill:#0000ff;stroke:#0000ff;stroke-width:0.20574;stroke-miterlimit:4;stroke-dasharray:none"
         d="m 150.90433,149.64878 c 0.15269,-0.003 0.32158,0.0345 0.51437,0.10829 0.44094,0.16887 0.56507,0.35091 0.56507,0.82644 0,0.33529 -0.0927,0.66647 -0.20575,0.73635 -0.38239,0.23632 -0.2085,0.51388 0.32191,0.51388 0.83201,0 1.24036,0.31925 1.22956,0.9613 -0.009,0.52686 -0.0896,0.58989 -0.87762,0.6832 -0.71012,0.084 -0.8324,0.15924 -0.67139,0.41149 0.3127,0.48993 0.23501,1.26655 -0.15652,1.56377 -0.47657,0.36176 -0.52378,0.35615 -1.15426,-0.13978 -0.31775,-0.24994 -0.54144,-0.63145 -0.54144,-0.92242 v -0.49567 l -0.66794,0.40707 c -0.86249,0.52588 -1.20451,0.50699 -1.63908,-0.0911 -0.33797,-0.46506 -0.33484,-0.5112 0.0665,-1.02135 0.23113,-0.29385 0.56179,-0.53406 0.73488,-0.53406 0.2216,0 0.12635,-0.21485 -0.3229,-0.72651 -0.6028,-0.68655 -0.62069,-0.75359 -0.32043,-1.21184 0.35131,-0.53616 0.84911,-0.51297 1.4609,0.0679 0.34988,0.33217 0.38529,0.31835 0.68271,-0.26185 0.30682,-0.59853 0.59129,-0.86819 0.98148,-0.87517 z m -2.49997,1.59626 c -0.19752,-0.002 -0.13688,0.11695 0.14028,0.45088 0.51619,0.62197 1.11963,0.6997 0.92635,0.11911 -0.0745,-0.22373 -0.41172,-0.46027 -0.74915,-0.52569 -0.141,-0.0273 -0.24604,-0.0438 -0.31748,-0.0443 z m 3.30819,0.9682 c -0.25793,0 -0.34588,0.19943 -0.19541,0.44299 0.15064,0.24354 0.36169,0.443 0.46909,0.443 0.10744,0 0.19541,-0.19941 0.19541,-0.443 0,-0.24353 -0.21125,-0.44299 -0.46909,-0.44299 z" />
      <path
         id="path2514"
         style="color:#000000;fill:#0000ff;stroke:#0000ff;stroke-width:0.20574;stroke-miterlimit:4;stroke-dasharray:none"
         d="m 115.50057,150.43436 c 0.26093,0.004 0.4027,0.12405 0.60395,0.43118 0.30442,0.46459 0.39634,0.49182 0.94949,0.28303 0.66627,-0.2515 1.12071,-0.0841 1.51308,0.55719 0.17661,0.28867 0.10926,0.45416 -0.34603,0.85006 -0.62969,0.54758 -0.69802,0.71716 -0.28894,0.71716 0.51455,0 0.98686,0.73529 0.84219,1.31176 -0.15622,0.62239 -0.26291,0.64328 -1.22759,0.2402 -0.66525,-0.27795 -0.71323,-0.27209 -0.71323,0.0861 0,0.80236 -0.23185,1.03414 -1.03562,1.03414 -0.59422,0 -0.81719,-0.0963 -0.91159,-0.39377 -0.0688,-0.2165 -0.0652,-0.63261 0.008,-0.92487 0.12143,-0.48379 0.0776,-0.5316 -0.48877,-0.5316 -0.97094,0 -1.27239,-0.19461 -1.27239,-0.82201 0,-0.60213 0.30447,-0.82249 1.13703,-0.82249 0.47078,0 0.47722,-0.0219 0.20279,-0.67877 -0.34265,-0.82006 -0.18846,-1.12374 0.65563,-1.29256 0.14928,-0.0298 0.26952,-0.0463 0.37163,-0.0448 z m 2.04024,2.95971 c -0.004,-1.1e-4 -0.009,0 -0.0133,0 -0.28872,0 -0.52471,0.22302 -0.52471,0.49566 0,0.2726 0.0982,0.49566 0.21855,0.49566 0.12036,0 0.35618,-0.22299 0.5247,-0.49566 0.16596,-0.26832 0.0733,-0.48884 -0.20525,-0.49566 z" />
      <path
         style="color:#000000;fill:#0000ff;stroke:#0000ff;stroke-width:0.205557;-inkscape-stroke:none"
         d="m 130.4264,159.66562 c -0.18439,-0.11681 -0.25212,-0.43628 -0.19544,-0.92188 0.0842,-0.72211 0.0675,-0.74309 -0.5965,-0.74309 -0.55109,0 -0.72359,-0.10604 -0.8917,-0.54823 -0.24237,-0.63747 -0.002,-0.88252 0.87092,-0.88752 0.54715,-0.004 0.54814,-0.006 0.2277,-0.64826 -0.30788,-0.61715 -0.30141,-0.66053 0.14931,-1.0005 0.54619,-0.41199 1.15727,-0.31663 1.44762,0.22588 0.16672,0.3115 0.29848,0.34253 0.74068,0.17442 0.40737,-0.15488 0.65587,-0.12721 1.02404,0.11398 0.63075,0.41328 0.61475,0.79473 -0.0555,1.32192 -0.34219,0.26917 -0.4296,0.42604 -0.23741,0.42604 0.49881,0 1.038,0.74121 0.88648,1.21861 -0.14736,0.46428 -0.71734,0.55395 -1.35431,0.21306 -0.31613,-0.1692 -0.3976,-0.14537 -0.3976,0.1163 0,0.92016 -0.86025,1.41942 -1.61832,0.93923 z"
         id="path2506" />
      <path
         style="color:#000000;fill:#0000ff;stroke:#0000ff;stroke-width:0.205557;-inkscape-stroke:none"
         d="m 92.589739,164.7674 c -2.21627,-0.47531 -2.49289,-2.49809 -0.49459,-3.61671 0.43504,-0.24354 1.37112,-0.59247 2.08017,-0.7754 2.15938,-0.55717 2.39877,-0.68128 2.07345,-1.07516 -0.3857,-0.46702 -2.31219,-1.29371 -3.00107,-1.28782 -0.31193,0.002 -0.98135,0.0243 -1.48763,0.048 -0.73305,0.0344 -0.93494,-0.03 -0.99135,-0.31601 -0.11352,-0.57547 0.87448,-0.829 2.70537,-0.6942 3.32595,0.24487 6.10343,2.46159 4.21482,3.36384 -0.29794,0.14233 -1.30283,0.47925 -2.23309,0.74869 -1.9615,0.56812 -3.15385,1.49232 -2.75178,2.1329 0.38687,0.61634 1.19511,0.76802 2.59632,0.48726 1.9646,-0.39365 3.23859,-0.50257 3.23859,-0.27688 0,0.11024 0.28047,0.31663 0.62326,0.45863 0.34279,0.14199 0.58197,0.29945 0.5315,0.34992 -0.0505,0.0505 -0.29564,-0.0173 -0.54481,-0.15068 -0.3635,-0.19455 -0.60164,-0.17546 -1.20489,0.0966 -1.44623,0.65215 -3.68784,0.86443 -5.35427,0.50705 z"
         id="path2496" />
      <path
         id="path2492"
         style="color:#000000;fill:#0000ff;stroke:#0000ff;stroke-width:0.205557;-inkscape-stroke:none"
         d="m 93.641159,168.30778 c 0.513,0.009 0.88522,0.12503 1.32013,0.39378 1.49073,0.92134 3.27493,3.93586 3.51149,5.93319 l 0.12354,1.044 h -0.92734 c -0.92297,0 -0.92839,-0.004 -1.05925,-0.8225 -0.11618,-0.72622 -0.19689,-0.82232 -0.69402,-0.82446 -0.30956,-9.6e-4 -1.07192,-0.13927 -1.69373,-0.30616 -1.67417,-0.44939 -1.644,-0.46572 -1.644,0.92536 v 1.23302 h -0.95344 -0.95292 l 0.1452,-1.98021 c 0.13668,-1.86184 0.12289,-1.97188 -0.22889,-1.83744 -0.31504,0.12043 -0.30562,0.0792 0.0591,-0.26137 0.23823,-0.22246 0.49119,-0.7673 0.56212,-1.21086 0.071,-0.44354 0.3416,-1.12287 0.60149,-1.50962 0.41184,-0.61291 0.59818,-0.71148 1.45056,-0.76639 0.13588,-0.009 0.26161,-0.0124 0.37999,-0.0103 z m -0.0335,1.20396 c -0.19682,0 -0.51957,0.9492 -0.71076,2.09095 l -0.126,0.75506 1.1882,0.23873 c 0.65357,0.13125 1.39604,0.28719 1.65042,0.34652 0.25437,0.0593 0.46268,0.0394 0.46268,-0.0443 0,-0.46002 -2.12979,-3.38696 -2.46454,-3.38696 z" />
      <path
         style="color:#000000;fill:#0000ff;stroke:#0000ff;stroke-width:0.205557;-inkscape-stroke:none"
         d="m 93.055719,186.50308 c -1.30678,-0.67974 -1.94051,-1.79009 -2.52864,-4.43051 -0.59726,-2.68132 -0.595,-2.69399 0.48084,-2.69399 h 0.8968 l 0.25646,1.59305 c 0.46392,2.88182 1.30308,4.42805 2.68663,4.95043 0.67475,0.25478 1.68474,-0.15257 2.15399,-0.86873 0.37958,-0.57931 0.31356,-1.6986 -0.22732,-3.85441 -0.43812,-1.74622 -0.41679,-1.82034 0.5239,-1.82034 0.85223,0 1.21058,0.34979 1.34231,1.31027 0.0329,0.24033 0.16813,1.09921 0.30037,1.90861 0.38862,2.37866 -0.17751,3.6576 -1.84101,4.15893 -0.93385,0.28145 -3.30134,0.13315 -4.04433,-0.25331 z"
         id="path2486" />
      <path
         id="path2478"
         style="color:#000000;fill:#0000ff;stroke:#0000ff;stroke-width:0.205557;-inkscape-stroke:none"
         d="m 94.346019,190.08695 c 1.21705,0.01 2.53501,0.26262 3.5735,0.7654 0.96043,0.46501 1.08641,1.06516 0.22347,1.06516 -0.75527,0 -0.76662,0.0954 -0.32634,2.77513 0.16717,1.01751 0.30565,2.15075 0.30763,2.51818 0.004,0.65238 -0.0174,0.66795 -0.89484,0.66795 h -0.8988 l -0.1324,-0.9997 c -0.13201,-0.99512 -0.13615,-0.9997 -0.9052,-0.9997 -1.22613,0 -3.06087,-0.62793 -3.84421,-1.31569 -1.17395,-1.03074 -1.29769,-2.51951 -0.2978,-3.58384 0.56615,-0.60264 1.81566,-0.90393 3.19499,-0.89289 z m 0.15012,0.8988 c -0.73938,-0.006 -1.63946,0.42308 -2.01858,1.00165 -0.30091,0.45925 -0.3048,0.57908 -0.0369,1.09716 0.39577,0.7653 0.91068,1.21441 1.83401,1.6002 1.06015,0.44297 1.85586,0.42305 1.72178,-0.0433 -0.0569,-0.19786 -0.21302,-1.06767 -0.34701,-1.93245 -0.23273,-1.50198 -0.27056,-1.57772 -0.8481,-1.69323 -0.0971,-0.0194 -0.19954,-0.0292 -0.30518,-0.03 z" />
      <path
         style="color:#000000;fill:none;stroke:#0000ff;stroke-width:0.406;stroke-miterlimit:4;stroke-dasharray:none"
         d="m 114.67516,202.5715 c 0.56528,-0.0757 1.28217,-0.20218 1.59308,-0.28091 0.36972,-0.0935 0.56528,-0.0621 0.56528,0.0911 0,0.15004 0.17889,0.11704 0.49757,-0.0917 0.41741,-0.2735 0.73297,-0.2934 1.95866,-0.12354 0.95786,0.13272 1.68916,0.13286 2.12328,4.1e-4 0.3642,-0.11119 1.15735,-0.33652 1.76255,-0.50077 0.60521,-0.16426 1.99271,-0.7771 3.08336,-1.36185 1.09064,-0.58474 2.32986,-1.24062 2.75382,-1.45747 0.42396,-0.21685 0.77084,-0.47711 0.77084,-0.57836 0,-0.31408 0.39188,-0.20331 0.82973,0.23453 0.23023,0.23025 0.36352,0.50774 0.2962,0.61669 -0.0674,0.10896 -0.0731,0.19804 -0.0128,0.19804 0.26408,0 0.69544,-1.1733 0.52985,-1.44123 -0.24378,-0.39454 -0.0634,-0.61439 0.50417,-0.61439 0.47967,0 2.7862,-1.3651 2.7862,-1.64899 0,-0.0831 0.30063,-0.27336 0.66806,-0.42277 0.90699,-0.36877 2.56825,-1.54429 3.44308,-2.43633 0.3957,-0.40348 1.08945,-1.00614 1.54168,-1.33923 0.45222,-0.33307 1.16718,-0.95558 1.5888,-1.38333 0.42161,-0.42776 1.50299,-1.1265 2.40304,-1.55274 1.64273,-0.77796 4.83219,-3.16287 5.04726,-3.77405 0.0633,-0.17975 0.33126,-0.44256 0.59559,-0.58403 0.26433,-0.14147 0.80228,-0.68814 1.19545,-1.21486 1.09928,-1.47266 4.37287,-8.35012 5.00552,-10.51605 0.18162,-0.62182 0.41605,-1.29119 0.52094,-1.48751 0.10488,-0.19631 0.19073,-0.45651 0.19073,-0.57821 0,-0.12172 0.22316,-0.7011 0.49593,-1.28752 0.6765,-1.45446 1.52583,-3.69913 1.64195,-4.33954 0.0526,-0.28989 0.27873,-0.87451 0.50257,-1.29913 0.74625,-1.41563 1.2433,-2.61301 1.47242,-3.54706 0.1248,-0.50876 0.31776,-1.28559 0.4288,-1.7263 0.18781,-0.74541 0.15834,-0.84388 -0.42266,-1.41191 -0.71169,-0.69581 -0.74048,-0.84855 -0.31403,-1.66626 0.51147,-0.98071 0.96924,-3.01145 0.74086,-3.2866 -0.12819,-0.15448 -0.14011,-0.9211 -0.0325,-2.08903 0.0936,-1.01475 0.12875,-1.91368 0.0783,-1.99763 -0.11117,-0.18494 -0.19738,-1.04837 -0.37466,-3.75293 -0.19316,-2.94664 -1.01234,-5.95313 -3.08045,-11.30564 -0.30578,-0.79141 -0.69858,-1.90141 -0.87289,-2.46669 -0.4465,-1.44803 -0.65001,-1.8779 -1.60565,-3.39168 -1.16701,-1.8486 -2.74986,-5.19934 -3.15901,-6.6873 -0.31583,-1.14859 -1.26472,-2.72296 -2.25805,-3.74653 -0.46559,-0.47976 -0.84653,-0.92713 -0.84653,-0.99416 0,-0.067 -0.39507,-0.64505 -0.87794,-1.2845 -0.48286,-0.63943 -1.3956,-1.95251 -2.02829,-2.91792 -2.04908,-3.12665 -3.75049,-4.89244 -5.82994,-6.05054 -0.2261,-0.12593 -1.47487,-0.92471 -2.77502,-1.77506 -3.48003,-2.27609 -4.2717,-2.63969 -7.31612,-3.360174 -0.68871,-0.162986 -1.79616,-0.578569 -2.46101,-0.923513 -0.66485,-0.344948 -1.327,-0.627176 -1.47144,-0.627176 -0.14444,0 -0.26261,-0.09796 -0.26261,-0.217689 0,-0.119727 -0.10651,-0.151847 -0.23674,-0.07138 -0.13021,0.08046 -0.33834,0.01049 -0.46251,-0.155458 -0.12417,-0.165972 -0.87326,-0.517574 -1.66466,-0.781333 -2.72999,-0.909872 -3.69587,-1.272341 -3.94798,-1.481577 -0.13912,-0.115464 -0.71838,-0.206326 -1.28722,-0.201919 -0.56886,0.0044 -1.03428,-0.0792 -1.03428,-0.185776 0,-0.287175 -0.56574,-0.235093 -0.68609,0.06316 -0.083,0.205557 -0.10687,0.205557 -0.11992,0 -0.01,-0.14132 -0.25293,-0.256946 -0.54225,-0.256946 -0.29833,0 -0.47103,-0.08897 -0.39897,-0.205557 0.0699,-0.113051 0.006,-0.206973 -0.14204,-0.208703 -0.19846,-0.0023 -0.18966,-0.05337 0.0334,-0.194501 0.26189,-0.165623 0.25783,-0.20852 -0.0302,-0.319059 -0.18304,-0.07023 -0.45795,-0.106632 -0.61091,-0.08087 -0.15296,0.02576 -0.55286,-0.06596 -0.88868,-0.203817 -0.33582,-0.137859 -0.77532,-0.20757 -0.97669,-0.154912 -0.20135,0.05265 -0.32279,0.02566 -0.26985,-0.05999 0.23628,-0.382312 -3.06519,-1.039268 -5.22274,-1.039268 -1.21621,0 -1.64035,0.07296 -1.72631,0.296995 -0.0627,0.163346 -0.46416,0.36269 -0.89218,0.442988 -0.66352,0.124479 -0.71814,0.172211 -0.37052,0.323896 0.3264,0.142433 0.30522,0.153601 -0.10616,0.05601 -0.65399,-0.155114 -0.75818,-0.153455 -1.72667,0.02748 -0.63236,0.118133 -0.85495,0.07689 -1.05394,-0.195257 -0.23157,-0.316666 -0.26124,-0.310841 -0.36107,0.07087 -0.0793,0.303692 -0.2792,0.415904 -0.74049,0.415904 -0.34748,0 -1.009671,0.151212 -1.471581,0.336025 -0.62633,0.250609 -0.8991,0.276736 -1.07304,0.102774 -0.2901,-0.290096 -1.53069,-0.308192 -1.62551,-0.02372 -0.0452,0.135499 -0.50518,0.152524 -1.30186,0.04818 -0.67762,-0.08874 -1.64828,-0.09745 -2.15704,-0.01935 -0.50874,0.0781 -1.61925,0.234396 -2.46777,0.347311 -1.87891,0.250032 -3.45608,0.629948 -4.00727,0.965294 -0.22611,0.137571 -0.67291,0.311009 -0.9929,0.385419 -0.31999,0.07441 -1.16145,0.409168 -1.86992,0.743904 -0.70846,0.334738 -1.3948,0.608611 -1.52517,0.608611 -0.13036,0 -0.23705,0.08093 -0.23705,0.179863 0,0.09893 -0.2875,0.237365 -0.63891,0.307646 -0.46826,0.09365 -0.60615,0.213189 -0.51625,0.447485 0.0723,0.188338 0.0369,0.266617 -0.0864,0.190506 -0.25559,-0.157972 -3.07516,0.893825 -3.07516,1.147145 0,0.09963 -0.12146,0.134526 -0.26991,0.07755 -0.14847,-0.05696 -0.44029,0.08468 -0.64854,0.314789 -0.20823,0.2301 -0.49245,0.41836 -0.63158,0.41836 -0.44825,0 -1.2593,0.51372 -1.18117,0.74815 0.072,0.21598 -0.47701,0.4843 -1.19781,0.5854 -0.47769,0.067 -0.82182,0.31291 -0.70422,0.5032 0.14553,0.23546 -0.49852,0.74041 -1.27747,1.00158 -0.36796,0.12336 -0.87671,0.46251 -1.13057,0.75365 -0.25386,0.29115 -0.68021,0.57003 -0.94745,0.61974 -0.50906,0.0947 -1.08854,0.7079 -0.92264,0.97633 0.0531,0.086 -0.0507,0.15643 -0.23071,0.15643 -0.18007,0 -0.59866,0.2775 -0.93023,0.61667 -0.33153,0.33917 -0.65462,0.61667 -0.71799,0.61667 -0.0634,0 -0.4235,0.28057 -0.80034,0.62348 -0.63794,0.58052 -1.06796,1.28903 -1.86726,3.07654 -0.36556,0.81752 -0.97483,1.90243 -1.15437,2.05557 -0.0663,0.0565 -0.22929,0.42054 -0.36229,0.80889 -0.28414,0.82974 -0.82996,1.49096 -1.09537,1.32692 -0.10289,-0.0636 -0.31792,-0.007 -0.47784,0.12568 -0.3099,0.2572 -2.16209,0.11036 -2.35883,-0.18693 -0.17668,-0.26703 -0.82687,-0.17728 -0.82687,0.11409 0,0.14858 -0.22251,0.32601 -0.49448,0.39426 -0.27195,0.0683 -0.54322,0.31058 -0.60283,0.53849 -0.0595,0.22791 -0.20258,0.35616 -0.31773,0.28499 -0.31436,-0.19429 -0.72219,1.3885 -0.5343,2.07359 0.42313,1.54265 0.0417,2.94781 -0.80002,2.94781 -0.51468,0 -0.74512,0.69508 -0.74512,2.24761 0,1.38787 -0.0214,1.45241 -0.48348,1.45241 -0.4362,0 -0.50556,0.13304 -0.70881,1.35955 -0.12391,0.74776 -0.38632,1.5375 -0.58315,1.75497 -0.25552,0.28236 -0.36144,0.76061 -0.37038,1.67243 -0.012,1.21952 -0.0345,1.27458 -0.50116,1.22338 -0.4428,-0.0486 -0.4768,0.006 -0.36246,0.57731 0.0921,0.4601 0.0105,0.78744 -0.30128,1.20909 -0.38957,0.52691 -1.03555,2.47525 -1.33381,4.02281 -0.0653,0.33917 -0.16932,0.75541 -0.23101,0.925 -0.2149,0.59074 -0.23396,1.23335 -0.0366,1.23335 0.12363,0 0.11889,0.14923 -0.0125,0.3948 -0.11618,0.21715 -0.22646,1.53527 -0.24499,2.92919 -0.0186,1.39391 -0.11002,2.68701 -0.2033,2.87356 -0.11456,0.22911 -0.0708,0.37711 0.13499,0.45606 0.16752,0.0643 0.30458,0.30477 0.30458,0.53442 0,0.22968 0.0925,0.41758 0.20554,0.41758 0.11305,0 0.20556,0.13875 0.20556,0.30834 0,0.16958 -0.13876,0.30832 -0.30833,0.30832 -0.38593,0 -0.38461,0.16024 0.0141,1.69883 0.17734,0.68436 0.26808,1.46084 0.20165,1.72553 -0.0674,0.2688 -0.0283,0.48123 0.0887,0.48123 0.29893,0 0.25886,0.47499 -0.0976,1.15846 -0.27413,0.52543 -0.27323,0.5961 0.009,0.65689 0.22917,0.0494 0.27241,0.1903 0.15773,0.51388 -0.087,0.24518 -0.16012,0.74642 -0.1627,1.11385 -0.004,0.45173 -0.10455,0.67017 -0.31308,0.67457 -0.19342,0.005 -0.095,0.16551 0.26377,0.43322 0.45069,0.33616 0.52208,0.48699 0.33645,0.71067 -0.12963,0.15619 -0.31835,0.23287 -0.41939,0.17043 -0.28456,-0.17587 -0.46024,0.50083 -0.20872,0.80392 0.16177,0.1949 0.15884,0.33432 -0.0105,0.50375 -0.1753,0.17531 -0.0919,0.20846 0.33116,0.13173 0.5332,-0.0967 0.55785,-0.0681 0.43267,0.50184 -0.0767,0.34907 -0.0408,0.66118 0.0849,0.73885 0.2671,0.16507 0.28711,0.86523 0.0292,1.02457 -0.36216,0.22381 -1.25061,-0.27611 -1.25061,-0.70371 0,-0.22891 -0.0767,-0.4162 -0.17049,-0.4162 -0.0938,0 -0.16314,-0.16187 -0.15417,-0.35972 0.01,-0.19785 -0.0762,-0.38312 -0.18923,-0.41171 -0.34357,-0.087 -0.33677,3.06129 0.009,3.58712 0.1974,0.30128 0.2242,0.49616 0.0804,0.58502 -0.13439,0.0831 -0.0755,0.23944 0.15645,0.41529 0.20462,0.15514 0.27172,0.285 0.14911,0.2886 -0.26629,0.009 0.0157,2.45102 0.31776,2.75306 0.10512,0.10523 0.14747,0.43211 0.094,0.72653 -0.10279,0.56579 0.20173,1.24104 0.44839,0.99438 0.15234,-0.15235 0.67823,-2.65714 0.69131,-3.29271 0.006,-0.29961 -0.0653,-0.3279 -0.39003,-0.15417 -0.58442,0.31278 -0.70657,0.2598 -0.31161,-0.13514 0.32687,-0.32687 0.32028,-0.37034 -0.10909,-0.71795 -0.28477,-0.2306 -0.46843,-0.62228 -0.48741,-1.03958 -0.0168,-0.36826 -0.12297,-0.73633 -0.23603,-0.81793 -0.12099,-0.0872 0.006,-0.2972 0.30834,-0.51014 0.48742,-0.34316 0.78066,-0.34734 0.66806,-0.01 -0.0283,0.0849 0.0907,0.15416 0.26418,0.15416 0.25619,0 0.27239,0.0807 0.0861,0.42873 -0.1262,0.23579 -0.18161,0.47657 -0.12315,0.53503 0.0585,0.0585 0.0231,0.32492 -0.0784,0.5921 -0.13472,0.35434 -0.0994,0.57114 0.13059,0.80111 0.33147,0.33146 0.71405,0.42309 0.6727,0.16111 -0.0627,-0.39679 0.0422,-0.68127 0.21234,-0.57613 0.10336,0.0638 0.22522,0.005 0.2707,-0.13193 0.0642,-0.19275 0.11671,-0.19304 0.23524,-9.5e-4 0.0839,0.13575 0.0546,0.24681 -0.0652,0.24681 -0.37916,0 -0.23498,0.37793 0.19641,0.51485 0.22776,0.0723 0.37124,0.20078 0.31886,0.28555 -0.0525,0.0847 0.0388,0.41241 0.20257,0.72813 0.16379,0.31572 0.2995,0.72535 0.30156,0.91028 0.002,0.18492 0.27735,0.74 0.61179,1.23352 0.33444,0.49351 0.66822,1.23351 0.74174,1.64445 0.0735,0.41093 0.24946,0.88592 0.39096,1.0555 0.14149,0.16958 0.31477,0.60896 0.38507,0.97639 0.31409,1.64165 0.3909,1.9014 0.56226,1.9014 0.10022,0 0.18223,0.10686 0.18223,0.23754 0,0.13065 0.24059,0.55299 0.53466,0.93852 0.29406,0.38552 0.48675,0.74883 0.42823,0.80737 -0.13988,0.13989 0.61871,0.89437 0.89926,0.89437 0.11973,0 0.16568,0.0841 0.10208,0.18701 -0.17738,0.28698 0.10033,0.84073 0.42166,0.84073 0.15748,0 0.28634,0.13876 0.28634,0.30833 0,0.19551 0.19679,0.30834 0.53787,0.30834 0.45748,0 0.51934,0.0692 0.41391,0.46251 -0.0682,0.25438 -0.12521,0.53734 -0.12674,0.62881 -9.5e-4,0.0914 -0.11845,0.1065 -0.25977,0.0335 -0.14131,-0.073 -0.0257,0.055 0.25696,0.28457 l 0.51388,0.41732 0.0546,-6.08909 0.0546,-6.08909 -0.84875,-0.81555 c -0.98277,-0.94433 -0.95043,-0.98501 1.09946,-1.38335 l 1.38753,-0.26962 0.009,-5.56372 c 0.005,-3.06004 0.0595,-7.41372 0.12287,-9.67485 0.11222,-4.01199 0.12783,-4.12848 0.64585,-4.83058 1.75603,-2.38002 4.59587,-5.22073 7.7041,-7.70646 l 2.82498,-2.25922 0.01,-5.03807 c 0.006,-2.77094 0.0601,-5.9261 0.12177,-7.01146 l 0.11199,-1.9734 -2.01377,-0.72204 c -1.99793,-0.71637 -2.65495,-1.18954 -1.65167,-1.18954 0.28485,0 1.21758,0.26941 2.07269,0.59868 l 1.55477,0.59869 v -2.66855 c 0,-2.64982 0.004,-2.6681 0.46252,-2.60287 0.4507,0.064 0.46394,0.13756 0.51965,2.88646 l 0.0571,2.8208 2.05701,0.65207 c 1.19301,0.3782 2.02335,0.74749 1.97685,0.87925 -0.11035,0.3128 -1.01107,0.18176 -2.62405,-0.38179 l -1.36167,-0.47573 -0.1326,2.16738 c -0.073,1.19206 -0.13422,4.21114 -0.13617,6.70905 l -0.004,4.54166 3.56943,3.49448 c 1.96318,1.92197 3.97667,4.08345 4.47441,4.8033 0.49774,0.71987 1.20794,1.73737 1.57824,2.26112 l 0.67329,0.95231 -0.0332,9.4262 c -0.0261,7.42654 0.0223,9.46045 0.22785,9.58754 0.14357,0.0887 0.80637,0.27706 1.47287,0.41851 0.66652,0.14144 1.26328,0.3404 1.32615,0.44214 0.063,0.10173 -0.21506,0.58696 -0.61763,1.07826 l -0.73198,0.89327 -0.005,13.78677 -0.005,13.78677 0.47317,0.471 c 0.6864,0.68323 2.91264,2.01266 3.37038,2.01266 0.21537,0 0.70502,0.23126 1.08813,0.5139 0.44519,0.32845 0.57531,0.51389 0.3606,0.51389 -0.43783,0 -3.63278,-1.65953 -4.56747,-2.37246 l -0.7265,-0.55414 v 1.82593 1.82592 l 0.80409,0.34835 c 0.44224,0.1916 1.04349,0.40846 1.33612,0.48189 0.2926,0.0734 0.53202,0.20595 0.53202,0.29448 0,0.20363 1.677,0.91531 1.95281,0.82873 0.35268,-0.11071 1.41986,-0.0129 1.85001,0.1697 2.06804,0.87756 4.34134,1.35635 4.77919,1.00655 0.17757,-0.14184 0.25694,-0.12711 0.25694,0.0478 0,0.16003 0.17063,0.21019 0.46421,0.13651 0.25532,-0.0641 0.59975,-0.0328 0.76542,0.0697 0.1942,0.12003 0.36345,0.0987 0.47643,-0.0599 0.12732,-0.17879 0.20154,-0.18254 0.27132,-0.0137 0.0637,0.15424 0.45176,0.0551 1.153721,-0.29467 0.72308,-0.36033 1.08332,-0.45009 1.13876,-0.28377 0.0874,0.26229 0.71225,0.33159 0.93961,0.10418 0.23643,-0.23643 2.19186,-0.11571 2.5186,0.15542 0.35746,0.29666 1.56146,0.41936 1.38981,0.14163 -0.0632,-0.10231 -0.2465,-0.13554 -0.40726,-0.0739 -0.23315,0.0895 -0.24828,0.0299 -0.0747,-0.29433 0.2755,-0.51477 0.36208,-0.50951 0.81472,0.0494 0.34664,0.42809 0.57474,0.46263 3.73296,0.56528 1.85009,0.0601 3.8263,0.0473 4.39158,-0.0284 z"
         id="path2454" />
      <path
         id="path2452"
         style="color:#000000;fill:#0000ff;stroke:#0000ff;stroke-width:0.205557;-inkscape-stroke:none"
         d="m 146.16378,191.18903 c 0.3824,0.0145 1.02645,0.88909 3.44996,3.89345 2.98478,3.70016 3.20304,4.17439 2.0619,4.4777 -0.33917,0.0902 -1.49584,0.8502 -2.56987,1.68929 -1.07403,0.83909 -2.02476,1.53361 -2.11309,1.54409 -0.0883,0.0102 -0.2212,-0.13836 -0.29484,-0.33028 -0.0736,-0.19191 -1.22852,-1.64908 -2.56692,-3.2378 -1.3384,-1.58871 -2.48953,-3.10357 -2.55806,-3.36629 -0.20615,-0.79073 0.24177,-1.39804 1.81875,-2.466 0.82519,-0.55883 1.80087,-1.32435 2.16822,-1.70112 0.27487,-0.28191 0.40365,-0.51064 0.60395,-0.50304 z m 0.14963,1.7016 -0.70978,0.36719 c -1.29155,0.6679 -2.87012,1.79721 -2.87012,2.05353 0,0.13883 0.37788,0.72728 0.83973,1.30734 0.46184,0.58004 0.94772,1.04714 1.07943,1.03858 0.35505,-0.0234 3.31467,-2.22934 3.37317,-2.51426 0.0277,-0.13469 -0.34663,-0.6967 -0.83136,-1.24875 z m 2.59006,3.25503 c -0.3841,0.0212 -3.4977,2.23829 -3.4977,2.50638 0,0.0872 0.4236,0.64289 0.94111,1.23448 0.51753,0.59161 1.04926,1.06986 1.18182,1.06319 0.13255,-0.007 0.95361,-0.54445 1.82416,-1.19461 l 1.58248,-1.18231 -0.90174,-1.14933 c -0.49615,-0.63214 -0.9923,-1.20506 -1.10208,-1.27287 -0.007,-0.004 -0.0157,-0.006 -0.0281,-0.005 z" />
      <path
         style="color:#000000;fill:#0000ff;stroke:#0000ff;stroke-width:0.205557;-inkscape-stroke:none"
         d="m 109.41135,211.48678 c 0.10884,-0.20339 0.2628,-0.94339 0.34211,-1.64446 0.14361,-1.26928 0.14199,-1.27466 -0.38409,-1.27466 -0.29058,0 -0.58549,0.0925 -0.65536,0.20556 -0.19201,0.31067 -0.71944,0.24625 -0.71944,-0.0879 0,-0.16138 0.29124,-0.52137 0.64721,-0.79994 0.7146,-0.55927 0.69693,-1.16775 -0.0339,-1.16775 -0.48788,0 -1.39305,0.88976 -1.55283,1.52639 -0.0924,0.36825 -0.23493,0.41771 -1.02283,0.35505 -0.5035,-0.0401 -0.91544,-0.1489 -0.91544,-0.2419 0,-0.093 0.23125,-0.44392 0.51389,-0.77981 0.67421,-0.80124 0.66936,-1.27083 -0.0131,-1.27083 -0.43482,0 -0.6056,0.17893 -0.9764,1.02293 -0.39537,0.89995 -0.52355,1.02289 -1.06608,1.02249 -0.51225,-4.2e-4 -0.67667,-0.1309 -0.97108,-0.77084 -0.54015,-1.17408 -0.84827,-1.51844 -1.22818,-1.37266 -0.56001,0.21489 -0.57127,0.6259 -0.0386,1.40977 l 0.50546,0.74388 h -0.5213 c -0.28672,0 -0.71498,0.19366 -0.95168,0.43038 -0.34641,0.34641 -0.403591,0.57701 -0.29313,1.18195 0.25797,1.41262 0.97339,2.05784 1.53348,1.383 0.18997,-0.22889 0.17288,-0.43039 -0.0776,-0.9148 -0.5733,-1.10861 -0.5331,-1.12833 1.99127,-0.97703 1.27187,0.0762 2.91376,0.2537 3.64862,0.39439 l 1.33612,0.25576 -0.0691,0.8704 c -0.0606,0.76301 -0.017,0.87042 0.3525,0.87042 0.23185,0 0.51062,-0.16641 0.61946,-0.3698 z"
         id="path2446" />
      <path
         style="color:#000000;fill:#0000ff;stroke:#0000ff;stroke-width:0.205557;-inkscape-stroke:none"
         d="m 129.29674,212.78526 c 0.0643,-0.16755 -0.0311,-0.73903 -0.21202,-1.26997 -0.1809,-0.53091 -0.32891,-1.03082 -0.32891,-1.11089 0,-0.0801 0.40806,-0.2068 0.9068,-0.28159 0.9412,-0.14115 1.33106,-0.57394 0.9407,-1.04429 -0.15454,-0.18622 -0.43068,-0.20921 -0.97995,-0.0817 -1.31367,0.30515 -1.38408,0.26694 -1.77121,-0.96117 -0.19915,-0.63175 -0.31271,-1.19798 -0.25238,-1.25831 0.13237,-0.13239 1.64046,0.72458 3.2844,1.86632 1.13219,0.78634 1.21948,0.81369 1.47616,0.46265 0.52429,-0.717 0.11607,-1.07035 -3.10366,-2.68645 l -1.78335,-0.89513 1.20653,-0.24336 c 1.53105,-0.30881 1.80784,-0.45536 1.88888,-1.00007 0.0826,-0.55544 -0.19944,-0.55986 -2.22165,-0.0348 -0.84661,0.21983 -1.6025,0.33387 -1.67975,0.25342 -0.0773,-0.0804 -0.22254,-0.47002 -0.32286,-0.86574 -0.13329,-0.52567 -0.31009,-0.73796 -0.65648,-0.78823 -0.72684,-0.10546 -0.92134,0.23592 -0.54691,0.95997 0.53961,1.04349 0.4407,1.1913 -1.06168,1.58663 -1.58243,0.41641 -1.90141,0.60638 -1.90141,1.13248 0,0.59071 0.21324,0.59752 1.82124,0.0583 0.83137,-0.27884 1.5539,-0.46466 1.6056,-0.41296 0.16551,0.16551 -1.39316,3.08532 -2.13384,3.99725 -0.58322,0.71807 -0.66902,0.93616 -0.46503,1.18196 0.13758,0.16578 0.37287,0.30142 0.52286,0.30142 0.4129,0 1.22849,-1.18045 2.06951,-2.99532 0.43669,-0.94235 0.79716,-1.49967 0.85465,-1.32138 0.0547,0.16959 0.26766,0.74153 0.47328,1.27101 l 0.37384,0.96267 -1.03404,0.34345 c -1.06916,0.35511 -1.43597,0.77386 -1.03187,1.17796 0.17236,0.17237 0.40677,0.17342 0.90091,0.004 1.65649,-0.56772 1.54741,-0.61259 1.82936,0.7525 0.22563,1.09235 0.31533,1.24394 0.73616,1.24394 0.26356,0 0.53182,-0.1371 0.59612,-0.30465 z"
         id="path2444" />
      <path
         id="path2442"
         style="color:#000000;fill:#0000ff;stroke:#0000ff;stroke-width:0.205557;-inkscape-stroke:none"
         d="m 84.550389,202.81227 c 0.73569,0 0.87225,0.49098 0.42577,1.53277 -0.22817,0.53232 -0.41494,1.01121 -0.41494,1.06417 0,0.11968 1.35027,0.69206 1.63268,0.69206 0.13849,0 0.13785,-0.18208 -0.002,-0.54981 -0.24997,-0.65747 -0.11974,-1.09469 0.32586,-1.09469 0.52599,0 0.87981,1.20448 0.95391,3.24667 0.0731,2.0142 -0.0916,2.41767 -0.90666,2.22236 -0.20225,-0.0485 -0.35932,0.0305 -0.35932,0.18065 0,0.50739 -0.60957,0.49749 -1.75968,-0.0291 -0.63485,-0.29065 -1.22705,-0.44849 -1.31669,-0.35096 -0.25194,0.27448 -0.6655,1.6905 -0.54882,1.87929 0.0572,0.0926 0.89621,0.48603 1.86453,0.87418 1.74963,0.70135 1.98592,0.91864 1.51356,1.39101 -0.3309,0.33083 -0.45657,0.31551 -1.4166,-0.17424 -1.0639,-0.54278 -5.79798,-2.40251 -6.80885,-2.67471 -0.55242,-0.14876 -0.7777,-0.32198 -0.7777,-0.59854 0,-0.65695 0.69617,-0.66057 2.31884,-0.0109 0.85386,0.3419 1.65581,0.62167 1.78231,0.62167 0.17689,0 1.0376,-1.61645 1.0376,-1.94869 0,-0.0357 -0.6937,-0.31783 -1.54162,-0.62709 -1.1793,-0.43011 -1.54163,-0.6541 -1.54163,-0.95244 0,-0.63665 0.55277,-0.66405 1.86944,-0.0931 0.68251,0.29599 1.31335,0.53799 1.40184,0.53799 0.20776,0 0.85973,-1.65195 0.73291,-1.85713 -0.053,-0.0858 -0.79062,-0.40919 -1.63908,-0.71864 -1.5427,-0.56266 -1.81154,-0.85113 -1.23695,-1.32801 0.3164,-0.26259 0.40956,-0.23751 2.61762,0.70142 l 0.7649,0.32535 0.3288,-1.13112 c 0.24193,-0.83217 0.42668,-1.13062 0.69994,-1.13062 z m -0.22051,3.74282 c -0.12982,-0.003 -0.79641,1.5431 -0.79641,1.85567 0,0.0757 0.40801,0.3179 0.90667,0.53848 v -4.9e-4 c 1.64448,0.72799 1.69763,0.72858 1.84138,0.01 0.2721,-1.36045 0.19339,-1.54315 -0.84563,-1.95608 -0.53649,-0.2132 -1.03163,-0.41394 -1.10011,-0.44594 -0.002,-8.4e-4 -0.004,-0.002 -0.006,-0.002 z" />
      <path
         style="color:#000000;fill:#0000ff;stroke:#0000ff;stroke-width:0.205557;-inkscape-stroke:none"
         d="m 106.3501,216.58438 c 0.22613,-0.22611 0.41112,-0.50652 0.41112,-0.62312 0,-0.38497 -0.62541,-0.46047 -1.00072,-0.12082 -0.4642,0.4201 -0.64373,0.24538 -0.64373,-0.62644 0,-0.6373 0.0468,-0.68475 0.66805,-0.67884 0.36744,0.004 1.35321,0.0952 2.19059,0.20396 1.55556,0.20191 2.07471,0.0699 2.07471,-0.52748 0,-0.32042 -0.56146,-0.43871 -2.9063,-0.61228 l -1.77575,-0.13143 0.0286,-0.65151 c 0.0261,-0.59573 -0.0278,-0.65435 -0.63013,-0.68464 -0.36226,-0.0182 -0.86847,-0.18011 -1.12491,-0.35974 -0.45563,-0.31913 -0.4453,-0.32651 0.45307,-0.32354 0.50566,9.5e-4 1.50517,0.14114 2.22115,0.30992 0.71598,0.16879 1.38661,0.25446 1.49029,0.19039 0.31107,-0.19226 0.21276,-0.86117 -0.14685,-0.99917 -0.67113,-0.25753 -4.0993,-0.59852 -4.64368,-0.46189 -1.29682,0.32548 -1.09137,1.64597 0.36406,2.34003 0.39017,0.18605 0.70939,0.40914 0.70939,0.49576 0,0.0866 -0.76895,0.10325 -1.70875,0.037 -1.78397,-0.1259 -2.607941,0.0832 -2.607941,0.66172 0,0.24251 0.370031,0.30172 1.901411,0.30424 1.04576,9.6e-4 1.9939,0.0711 2.10694,0.15418 0.11304,0.0831 0.23546,0.52103 0.27202,0.97325 0.0366,0.45224 0.21278,0.9841 0.3916,1.18196 0.43533,0.48168 1.39876,0.45569 1.90585,-0.0514 z"
         id="path403" />
      <path
         id="path4370-5"
         style="display:inline;fill:#0000ff;stroke-width:0.206173"
         d="m 161.32185,153.43242 c 0.14457,-0.70872 0.27321,-1.38138 0.28589,-1.49475 0.0131,-0.11757 -0.56209,-0.21303 -1.33835,-0.22214 -1.06254,-0.0123 -1.50385,-0.11738 -2.01019,-0.47793 -0.35683,-0.25408 -0.64877,-0.53174 -0.64877,-0.61699 0,-0.41218 -1.60401,-1.95317 -2.51199,-2.41326 -0.5624,-0.285 -1.49329,-0.85637 -2.06866,-1.26972 -0.81348,-0.58445 -1.61616,-0.89736 -3.60938,-1.40707 -2.07657,-0.53102 -2.58396,-0.60155 -2.67227,-0.37143 -0.067,0.17444 -0.42079,0.28408 -0.9168,0.28408 -0.73037,0 -0.81949,-0.0586 -0.92998,-0.61093 -0.12417,-0.62095 -0.46245,-0.78456 -2.80546,-1.35698 -0.54316,-0.13271 -0.56698,-0.1926 -0.56698,-1.42512 0,-1.19716 0.086,-1.43545 1.23704,-3.42775 0.68036,-1.17764 1.23703,-2.21224 1.23703,-2.2991 0,-0.36479 -1.00856,-0.14065 -1.13313,0.25185 -0.0715,0.22539 -0.37764,0.85163 -0.68024,1.39167 l -0.55018,0.9819 -0.25605,-1.40675 c -0.18008,-0.98934 -0.43852,-1.63713 -0.87104,-2.18322 -0.55697,-0.70324 -0.58717,-0.81619 -0.32018,-1.19735 0.16213,-0.23151 0.6684,-0.57038 1.12504,-0.75308 0.45662,-0.18272 0.83022,-0.42992 0.83022,-0.5494 0,-0.2832 -1.38841,-0.0448 -2.01018,0.34483 -0.39961,0.25059 -0.46389,0.25044 -0.46389,-8.6e-4 0,-0.16059 -0.14754,-0.34857 -0.32786,-0.41779 -0.95883,-0.36792 -0.94733,0.93948 0.0194,2.20556 0.39733,0.52037 0.8093,1.17467 0.91552,1.45402 0.33196,0.87313 0.49566,4.89077 0.23791,5.839 -0.25337,0.93209 -0.2746,0.94265 -2.42479,1.20701 -0.91573,0.11257 -1.0979,0.21183 -1.30448,0.71052 -0.20945,0.50568 -0.33421,0.57093 -0.97742,0.51113 -0.40552,-0.0376 -0.81055,-0.18705 -0.90007,-0.33189 -0.0998,-0.16153 -0.48376,-0.24019 -0.99298,-0.20341 -1.19584,0.0863 -1.58085,-0.61904 -1.76842,-3.23985 -0.20848,-2.91265 -0.55161,-4.4434 -1.01609,-4.53286 -0.34012,-0.0654 -0.36422,0.0259 -0.2346,0.89024 0.13923,0.92845 0.12902,0.95498 -0.28282,0.73456 -0.61195,-0.3275 -0.5711,0.19736 0.0616,0.79178 0.43554,0.40916 0.50026,0.68872 0.59303,2.56157 0.0573,1.15623 0.17728,2.27862 0.26669,2.49413 0.15183,0.36602 0.0889,0.38254 -0.95384,0.25029 -1.81603,-0.23034 -3.73053,-0.94881 -4.41517,-1.6569 -0.34018,-0.35185 -1.47116,-1.75191 -2.51328,-3.11126 -1.04213,-1.35934 -2.82528,-3.49209 -3.96257,-4.73945 -1.13727,-1.24736 -2.50473,-2.76127 -3.03878,-3.36424 l -0.97101,-1.09634 0.2026,-1.22498 c 0.11139,-0.67374 0.14383,-1.32006 0.0719,-1.43626 -0.23584,-0.38162 -0.81879,0.0365 -0.83371,0.59787 -0.0371,1.39695 -0.23479,1.36031 -1.74679,-0.32378 -3.30352,-3.6795 -5.33158,-6.54001 -6.3999,-9.02683 -0.81413,-1.89511 -0.90046,-2.01427 -1.28625,-1.77585 -0.18994,0.11739 -0.11796,0.45143 0.28872,1.33973 0.29799,0.65083 0.50854,1.21657 0.46796,1.25716 -0.0406,0.0405 -1.23304,-0.56379 -2.64989,-1.34305 -1.41681,-0.77927 -2.75236,-1.42146 -2.96779,-1.42713 -0.56283,-0.0148 0.86761,0.98106 3.4325,2.38964 1.16247,0.63838 2.28605,1.31054 2.49684,1.49367 0.21082,0.18311 1.05982,1.30711 1.88672,2.49776 0.82688,1.19067 1.74454,2.38976 2.03926,2.66467 0.64393,0.60065 0.66555,0.75826 0.12348,0.90001 -0.65473,0.17122 -0.47846,0.55811 0.25772,0.56565 l 0.67007,0.007 -0.49311,0.41066 c -0.65019,0.54145 -0.39913,0.75104 0.50714,0.42331 0.69118,-0.24993 0.74662,-0.23483 1.17949,0.32128 0.24982,0.32093 1.46008,1.65046 2.68953,2.95451 1.22943,1.30405 2.75996,3.02043 3.40118,3.81419 0.64123,0.79378 1.80278,2.18546 2.58123,3.09261 2.16332,2.521 2.62589,3.26087 2.48359,3.97241 -0.11855,0.59273 -0.0836,0.62067 1.80578,1.44263 1.05967,0.46101 2.32098,0.95356 2.80291,1.09451 0.48193,0.141 0.87332,0.35764 0.86976,0.48143 -0.013,0.45219 -1.07529,0.98532 -2.32282,1.16577 -2.06529,0.29876 -2.09808,0.28967 -2.6398,-0.73147 -0.44664,-0.84192 -0.93072,-1.28493 -1.15691,-1.05874 -0.0484,0.0483 0.1059,0.46806 0.34296,0.93264 l 0.43092,0.84461 h -0.81973 c -0.53438,0 -1.08412,-0.17941 -1.57926,-0.51544 -0.41775,-0.28349 -0.8977,-0.51544 -1.06658,-0.51544 -0.16887,0 -0.66996,-0.32787 -1.11353,-0.72858 -0.77152,-0.69705 -1.20214,-0.77872 -1.20214,-0.22803 0,0.38834 3.03115,2.11962 4.43273,2.5318 1.77867,0.52309 4.14681,0.45859 6.08066,-0.16564 l 1.54484,-0.49864 -0.0635,-0.73715 c -0.0537,-0.62293 0.0105,-0.75696 0.4138,-0.86498 0.8008,-0.21447 0.99209,-0.15432 1.24007,0.38994 0.16547,0.36318 0.33767,0.48033 0.56255,0.38267 0.36649,-0.15915 3.27866,-0.3254 6.20002,-0.35395 1.6872,-0.0165 2.31582,0.0861 4.53582,0.74017 1.41743,0.41764 3.55132,0.99832 4.74198,1.29039 1.89058,0.46378 2.41294,0.69607 4.12347,1.83376 1.07725,0.71648 2.13538,1.50033 2.3514,1.74191 l 0.39276,0.43919 h -1.5562 c -1.16567,0 -1.58484,0.0747 -1.67035,0.29748 -0.0845,0.22032 0.0836,0.31389 0.64801,0.36079 0.53737,0.0446 0.81795,0.19033 0.95133,0.49392 0.1329,0.3025 0.56221,0.5268 1.44322,0.75404 0.68972,0.17789 2.2282,0.60711 3.41886,0.95377 1.19064,0.34668 2.3145,0.63362 2.49744,0.63765 0.24421,0.007 0.40249,-0.3352 0.59545,-1.28129 z m -19.58676,-0.77455 c 1.53083,-0.21167 3.59514,-0.40222 4.58735,-0.42347 1.81883,-0.0389 2.06016,-0.13676 1.49476,-0.60599 -0.17009,-0.14117 -0.30927,-0.38447 -0.30927,-0.54067 0,-0.33715 -0.99796,-0.35956 -3.29877,-0.074 -5.10253,0.63323 -7.6789,0.8225 -10.96215,0.80527 -2.35052,-0.0122 -3.93678,0.0697 -4.41746,0.22825 -0.41249,0.13614 -1.20305,0.20401 -1.75681,0.15079 -1.0102,-0.0972 -1.41223,0.15994 -0.54295,0.34708 0.25515,0.0549 1.94835,0.1494 3.76267,0.20992 1.81432,0.0606 4.50489,0.15 5.97903,0.19888 1.91444,0.0636 3.47551,-0.0212 5.4636,-0.29604 z m -19.17413,-11.15081 c 0.2749,-0.19442 0.2749,-0.23195 0,-0.33792 -0.17009,-0.0656 -1.26023,-0.60337 -2.42253,-1.19513 -2.02712,-1.03205 -2.53089,-1.13363 -1.75011,-0.35283 0.19975,0.19976 0.32972,0.53682 0.28885,0.74908 -0.0613,0.31784 0.0153,0.3634 0.43402,0.25832 0.35323,-0.0887 0.84702,0.0592 1.61826,0.48423 1.22934,0.67764 1.38378,0.7109 1.83151,0.39425 z m -18.55807,-14.61623 c 0.7357,-0.32201 1.40833,-0.54174 1.49475,-0.48833 0.0863,0.0533 0.1571,-0.0867 0.1571,-0.31143 0,-0.46903 -1.22888,-0.98014 -1.81251,-0.75383 -0.32905,0.12759 -0.328,0.15449 0.016,0.40777 0.33217,0.24459 0.26662,0.30769 -0.67007,0.64451 -0.72482,0.26066 -1.0383,0.48557 -1.0383,0.74498 0,0.48879 0.25657,0.45505 1.85307,-0.24367 z" />
    </g>
  </g>
  <g
     inkscape:label="cut"
     inkscape:groupmode="layer"
     id="g623"
     style="display:inline"
     transform="translate(-28.998429,-72.498098)">
    <path
       id="rect316"
       style="fill:#0000ff;fill-opacity:0;stroke:#ff0000;stroke-width:1.85731"
       d="M 288,1.6777344 A 286.32312,286.32312 0 0 0 1.6777344,288 286.32312,286.32312 0 0 0 137.41797,531.30078 v 91.43555 H 437.92188 V 531.71484 A 286.32312,286.32312 0 0 0 574.32227,288 286.32312,286.32312 0 0 0 288,1.6777344 Z"
       transform="matrix(0.26458333,0,0,0.26458333,28.800235,72.299904)" />
  </g>
</svg>
