<?xml version="1.0" encoding="UTF-8" standalone="no"?>
<!-- Created with Inkscape (http://www.inkscape.org/) -->

<svg
   width="11.999999in"
   height="20in"
   viewBox="0 0 304.79998 508"
   version="1.1"
   id="svg5"
   xml:space="preserve"
   inkscape:version="1.2.2 (732a01da63, 2022-12-09)"
   sodipodi:docname="textlogosvg.svg"
   xmlns:inkscape="http://www.inkscape.org/namespaces/inkscape"
   xmlns:sodipodi="http://sodipodi.sourceforge.net/DTD/sodipodi-0.dtd"
   xmlns="http://www.w3.org/2000/svg"
   xmlns:svg="http://www.w3.org/2000/svg"><sodipodi:namedview
     id="namedview7"
     pagecolor="#ffffff"
     bordercolor="#000000"
     borderopacity="0.25"
     inkscape:showpageshadow="2"
     inkscape:pageopacity="0.0"
     inkscape:pagecheckerboard="0"
     inkscape:deskcolor="#d1d1d1"
     inkscape:document-units="in"
     showgrid="false"
     showguides="false"
     inkscape:lockguides="false"
     inkscape:zoom="0.2949219"
     inkscape:cx="271.25826"
     inkscape:cy="756.13239"
     inkscape:window-width="1920"
     inkscape:window-height="1057"
     inkscape:window-x="-8"
     inkscape:window-y="-8"
     inkscape:window-maximized="1"
     inkscape:current-layer="layer3"
     inkscape:pageshadow="2"><inkscape:page
       x="0"
       y="0"
       width="304.79999"
       height="508"
       id="page947" /><inkscape:page
       x="-331.04105"
       y="0.89713007"
       width="304.80002"
       height="508"
       id="page629" /></sodipodi:namedview><defs
     id="defs2"><rect
       x="-176.63367"
       y="-294.38943"
       width="127.9954"
       height="325.10831"
       id="rect412" /></defs><g
     inkscape:groupmode="layer"
     id="layer1"
     inkscape:label="letterpanel-jsa"
     inkscape:highlight-color="#ab4a4a"><rect
       style="fill:none;stroke:#ff0000;stroke-width:0.184889"
       id="rect993"
       width="126.81512"
       height="482.41513"
       x="-279.30756"
       y="12.792439"
       inkscape:label="frame"
       transform="scale(-1,1)" /><path
       id="path595"
       style="fill:#0000ff;stroke-width:0.258902"
       d="m 206.15595,386.83129 c 0.79624,-0.33255 2.88878,-2.80116 4.10242,-4.83968 0.33203,-0.55775 0.63391,-1.05414 0.67081,-1.10312 0.0367,-0.0488 0.4615,0.19346 0.94363,0.53888 0.48215,0.34527 1.91034,1.08773 3.17381,1.64987 1.26346,0.56212 3.27966,1.67475 4.48045,2.47248 l 2.18329,1.45041 2.129,-0.16909 c 2.40317,-0.19085 3.97909,-0.948 4.26761,-2.05051 0.27899,-1.06586 -0.0246,-1.3945 -1.28822,-1.3945 -1.04791,0 -1.18701,-0.0764 -1.58047,-0.86761 -0.2373,-0.47724 -1.50852,-2.54235 -2.82493,-4.5892 -1.31645,-2.04683 -2.39349,-3.83741 -2.39349,-3.97906 0,-0.2826 0.30592,-0.22753 3.03461,0.54611 1.01471,0.28772 2.52744,0.5231 3.36162,0.5231 1.31948,0 1.63821,-0.10216 2.45122,-0.78687 1.13252,-0.95357 1.1808,-1.38434 0.17675,-1.57687 -0.41678,-0.0798 -3.06387,-0.96227 -5.88243,-1.96067 -5.86656,-2.07812 -8.98674,-2.89921 -11.99848,-3.15753 -1.57679,-0.13514 -2.26485,-0.31296 -2.70368,-0.69841 l -0.58867,-0.51704 -1.01184,0.67243 c -0.55649,0.36986 -1.15412,0.67243 -1.32809,0.67243 -0.17401,0 -0.31625,0.11042 -0.31625,0.24545 0,0.13495 -0.31838,0.4054 -0.70749,0.60091 -0.38909,0.19543 -0.73627,0.56996 -0.77145,0.83208 -0.0353,0.26213 -0.13906,0.7048 -0.23051,0.98368 -0.0917,0.27889 -0.0123,0.70445 0.17652,0.94567 0.31529,0.40299 0.60557,0.41466 3.57461,0.14373 3.63885,-0.33217 5.71731,-0.13216 9.05952,0.87163 l 1.96807,0.5911 -0.58615,0.5621 c -0.32241,0.30916 -0.59039,0.70476 -0.59553,0.87906 -0.003,0.17428 -0.17133,0.59731 -0.36915,0.94 -0.4873,0.84396 -0.25272,1.33561 1.82442,3.82302 0.95881,1.14817 1.70925,2.12022 1.66767,2.16009 -0.0416,0.0399 -1.08629,-0.20849 -2.32163,-0.55187 -1.23531,-0.3434 -3.13831,-0.74892 -4.22887,-0.90113 -1.09058,-0.15234 -2.02703,-0.31352 -2.08105,-0.35838 -0.0539,-0.0448 0.21867,-0.60007 0.60599,-1.23386 0.38731,-0.63381 0.60332,-1.15236 0.48003,-1.15236 -0.12325,0 -0.93939,0.23161 -1.81352,0.5147 -1.34685,0.43618 -2.02062,0.91 -4.41644,3.10579 -2.74277,2.51376 -2.82826,2.62535 -2.86493,3.73923 -0.0496,1.50227 0.64587,2.78731 1.49762,2.76785 0.14551,-0.003 0.6285,-0.15811 1.07351,-0.34398 z m 30.51973,-18.02351 c 0.36351,-0.19922 1.16655,-0.36638 1.78456,-0.37132 1.80906,-0.014 1.4138,-0.55452 -1.54809,-2.11511 -1.07765,-0.5678 -2.38662,-1.57644 -3.41827,-2.63407 -2.18316,-2.2381 -5.68358,-6.49195 -6.53083,-7.93654 -0.36802,-0.6275 -1.29302,-2.16773 -2.05557,-3.42271 -1.87394,-3.08414 -3.36902,-5.97773 -3.18152,-6.15756 0.20736,-0.19881 -1.46022,-1.82881 -1.87099,-1.82881 -0.17903,0 -0.58055,0.31091 -0.89224,0.69092 -0.42464,0.51771 -0.54545,0.96471 -0.48183,1.78292 l 0.0849,1.09197 -2.11502,0.82238 c -2.84595,1.10655 -5.00393,2.56594 -8.32367,5.6292 -4.72125,4.35642 -8.37472,6.41715 -16.39419,9.24714 -2.38596,0.84199 -3.32872,1.29304 -3.39527,1.62436 -0.17112,0.85153 0.24053,2.17489 0.75908,2.44104 0.89047,0.457 4.54553,0.59673 6.47532,0.24755 1.60622,-0.29066 1.82866,-0.28101 2.11285,0.0919 0.33507,0.43941 0.92033,0.56691 0.92033,0.20048 0,-0.11878 0.70125,-0.74448 1.55835,-1.39027 0.8571,-0.64574 4.9913,-4.43878 9.18714,-8.42902 4.19586,-3.99026 8.0452,-7.55096 8.55414,-7.91274 0.50893,-0.36174 1.0728,-0.82707 1.25305,-1.034 0.18028,-0.20695 0.36844,-0.32753 0.41817,-0.26803 0.0499,0.0595 1.20429,2.10487 2.56572,4.54514 3.07783,5.51685 4.13389,7.1952 6.14204,9.76109 2.46172,3.14552 4.07819,4.62397 5.68657,5.20106 1.65013,0.5921 1.83468,0.60047 2.70531,0.12317 z m -13.59242,-2.66868 c 1.15454,-0.23488 1.3879,-0.41787 1.83158,-1.43617 0.53472,-1.22725 0.50805,-1.31537 -0.39063,-1.29087 -0.9761,0.0266 -5.97319,-2.32473 -7.44272,-3.50214 -0.59255,-0.47479 -1.22747,-0.86322 -1.41091,-0.86322 -0.51382,0 -2.73252,1.71183 -2.90871,2.24424 -0.0861,0.26026 -0.0885,0.63188 -0.003,0.82585 0.1815,0.42216 7.26579,3.7186 8.58477,3.99468 0.50892,0.10663 1.29261,0.119 1.74153,0.0276 z m 10.10962,-34.91272 c 1.74842,-0.91821 4.57966,-4.20927 4.16914,-4.84627 -0.14219,-0.2206 -1.09471,-0.097 -3.43391,0.44542 -1.10519,0.2563 -1.93487,0.0851 -9.01727,-1.85946 -5.15232,-1.4147 -4.62661,-0.94877 -4.62661,-4.10054 0,-2.67725 0.003,-2.69589 0.59484,-2.53083 2.79956,0.78264 3.28725,0.78499 4.94765,0.0243 1.6341,-0.74901 2.88662,-1.76653 2.56004,-2.0797 -0.10098,-0.0968 -1.16215,-0.44501 -2.35841,-0.77391 -1.19626,-0.32892 -2.9781,-0.82551 -3.95957,-1.10354 l -1.78455,-0.50551 v -1.98586 c 0,-2.69225 0.21275,-3.64784 0.76298,-3.4269 0.23468,0.0943 0.99396,0.22933 1.68727,0.30015 1.91013,0.19505 3.38646,-0.46655 5.44783,-2.44159 l 1.75172,-1.67848 -2.64379,-0.14832 c -1.7339,-0.0972 -3.32621,-0.36292 -4.62663,-0.772 l -1.9828,-0.62374 0.0977,-5.69316 c 0.10773,-6.26096 0.0496,-6.01181 2.03299,-8.70086 1.24875,-1.69291 1.19853,-1.93623 -0.39943,-1.93623 -2.93628,0 -5.43768,0.87874 -7.16222,2.5161 -1.37363,1.30421 -1.71593,2.59445 -1.19753,4.51414 0.35317,1.30776 0.93632,5.31353 0.94195,6.4705 0.002,0.37852 -0.25985,0.44431 -1.78235,0.44785 -3.1559,0.007 -4.64141,1.30422 -3.89117,3.397 0.49464,1.37982 1.1411,1.97182 1.96395,1.79853 0.37541,-0.0791 1.38935,0.0624 2.25321,0.31474 1.85091,0.54042 1.92219,0.6819 1.96097,3.894 l 0.0264,2.18267 -2.09281,-0.0276 c -2.25943,-0.0296 -2.97208,0.26443 -4.0767,1.68324 -1.09638,1.40827 0.55109,2.96462 3.16911,2.99384 0.70508,0.007 1.69833,0.15051 2.20726,0.31691 0.87163,0.28505 0.93533,0.38357 1.09747,1.69706 0.0946,0.76695 0.18382,1.97547 0.19838,2.68564 l 0.0263,1.29115 -4.6927,0.16828 c -4.83349,0.17329 -9.03052,0.78334 -10.73899,1.56079 -1.04925,0.47748 -2.97519,2.56472 -3.37085,3.65313 -0.19069,0.5243 -0.18421,0.90251 0.0211,1.2707 0.28704,0.51429 2.07008,1.54 2.67716,1.54 0.16964,0 1.27477,-0.56209 2.45601,-1.24911 4.20198,-2.44382 10.36616,-3.43983 14.97008,-2.41886 0.94517,0.20961 4.15735,1.16864 7.13821,2.13123 6.3794,2.05999 7.4395,2.25608 8.67864,1.60528 z m 1.83544,-25.63276 c 0.41778,-0.25584 0.10181,-1.16238 -1.6278,-4.6714 -1.35685,-2.75259 -1.5137,-3.90575 -0.70452,-5.17838 l 0.51279,-0.80649 -1.21101,0.10879 c -2.2347,0.20088 -3.33521,0.62842 -4.5047,1.74997 -1.40142,1.34392 -1.448,2.06172 -0.26894,4.14535 1.59746,2.82304 3.12622,4.08242 5.31423,4.37781 0.74872,0.101 1.53978,0.25035 1.7579,0.33174 0.2181,0.0815 0.54752,0.0555 0.73205,-0.0575 z m -14.93666,-28.01421 c 0.0621,-0.1637 0.0798,-1.21766 0.0397,-2.34199 l -0.0734,-2.04421 1.30297,-0.81804 c 2.07592,-1.30329 1.6514,-2.23652 -0.59569,-1.3095 -0.99278,0.40957 -1.41454,0.47812 -1.63622,0.26592 -0.42849,-0.41018 -0.5347,-4.93558 -0.1838,-7.83039 0.2687,-2.21654 0.8755,-5.00124 1.14639,-5.26101 0.18129,-0.17387 3.34363,0.90658 6.79045,2.32005 3.63159,1.48927 6.12618,2.20653 6.8292,1.96363 0.88116,-0.30444 1.96353,-1.16718 2.71898,-2.16728 0.76895,-1.01798 0.81677,-1.55317 0.11574,-1.29518 -0.5476,0.20153 -2.40744,-0.21522 -9.43489,-2.11401 l -6.26017,-1.69155 0.39561,-0.73363 c 0.25355,-0.47017 0.53523,-0.68227 0.78433,-0.5906 0.21379,0.0786 0.45653,-0.0264 0.53942,-0.2336 0.18341,-0.45813 -0.88261,-1.36739 -1.6248,-1.3859 -0.8396,-0.0211 -5.15539,-5.26561 -5.15539,-6.26489 0,-0.50005 0.56889,-0.41175 3.58728,0.55668 3.38074,1.08472 4.24347,1.11491 5.43131,0.19025 1.46303,-1.13897 1.3034,-1.38792 -1.29231,-2.0154 -1.2686,-0.30666 -3.37725,-0.86663 -4.68593,-1.24441 -1.30869,-0.37772 -2.93565,-0.69665 -3.61546,-0.70869 -1.36809,-0.0242 -2.00333,0.3936 -3.27611,2.1549 -0.5966,0.82559 -0.66175,1.08099 -0.43487,1.70508 0.33515,0.92191 1.82558,2.8071 3.14527,3.97833 1.03191,0.91579 3.42407,2.15164 4.16479,2.15164 0.54402,0 0.5227,0.13177 -0.16549,1.0244 -0.68986,0.89482 -1.26328,0.93581 -4.97346,0.35542 -2.71869,-0.4253 -11.35992,-0.43412 -11.27941,-0.0119 0.0238,0.12496 -0.93525,0.82196 -2.13126,1.54861 -1.19602,0.7267 -2.09402,1.39848 -1.99553,1.49293 0.0986,0.0943 0.153,0.54338 0.12114,0.99757 -0.0621,0.88537 0.71269,1.9451 1.42217,1.9451 0.2161,0 1.19295,-0.38334 2.17084,-0.85192 3.3744,-1.61681 4.29053,-1.80841 8.65179,-1.80934 2.18113,-5e-4 4.4242,0.092 4.98457,0.20573 1.18615,0.24052 1.18471,0.0695 0.0353,4.10351 -0.65683,2.30498 -0.72552,2.96159 -0.7561,7.22576 -0.0287,4.01154 0.0332,4.8153 0.42904,5.55334 0.25444,0.47463 0.46268,1.04821 0.46268,1.27465 0,0.5609 0.76112,1.56294 1.1435,1.50542 0.17069,-0.0258 0.48902,0.018 0.70714,0.0983 0.90819,0.33238 2.3417,0.39428 2.45122,0.10575 z m 17.33745,-27.774 c 0.19632,-0.12118 0.43952,-0.60584 0.54051,-1.07707 0.14593,-0.68044 0.0188,-1.16513 -0.62127,-2.35529 -0.70571,-1.31391 -0.81071,-1.78242 -0.8523,-3.80301 -0.0262,-1.26748 -0.0558,-2.39776 -0.066,-2.51172 -0.0441,-0.49004 -1.31992,0.23792 -2.72853,1.55684 -1.23322,1.15467 -1.52018,1.57866 -1.52018,2.24581 0,1.03229 0.90306,3.38197 1.59305,4.14488 0.28706,0.31745 0.52197,0.67116 0.52197,0.78606 0,0.61202 2.48235,1.4151 3.13284,1.0135 z m -32.6977,-5.26365 c -1.71397,-1.82115 -2.50605,-3.57152 -1.9217,-4.24672 0.53612,-0.6195 2.78613,-1.39537 4.54115,-1.56596 2.20783,-0.21461 8.83942,0.65464 12.93337,1.69521 6.43387,1.63538 6.65596,1.67432 8.4131,1.47565 1.52595,-0.17248 2.55199,-0.4935 1.57764,-0.4935 -0.22444,0 -1.58269,-0.34866 -3.01831,-0.7748 -7.27148,-2.15841 -11.80324,-3.07317 -17.70834,-3.57452 -6.02277,-0.51135 -8.69954,0.18168 -10.75731,2.78538 -1.30172,1.64708 -1.56754,2.53313 -1.06087,3.53639 0.41912,0.82987 1.27659,1.17388 2.3075,0.92575 1.00505,-0.2419 3.40654,0.3487 4.7566,1.16976 0.67752,0.41207 1.29674,0.74922 1.37593,0.74922 0.0792,0 -0.56822,-0.75683 -1.43876,-1.68186 z m 24.01292,-8.45444 c 3.42043,-2.31805 4.35738,-3.1417 4.3983,-3.86632 0.0356,-0.62902 0.021,-0.63378 -0.92532,-0.30513 -0.52877,0.18364 -1.39329,0.40012 -1.92118,0.48116 -1.49416,0.22929 -4.15138,2.0006 -4.62219,3.08114 -0.50637,1.16221 -0.38994,1.97882 0.29442,2.06526 0.30326,0.0382 1.48698,-0.58257 2.77597,-1.45611 z m -7.9697,-0.32203 c 1.30569,-1.67706 2.23212,-3.43073 2.05119,-3.88284 -0.0764,-0.19127 -0.0255,-0.41507 0.11367,-0.4975 0.13905,-0.0825 0.25285,-0.26054 0.25285,-0.39584 0,-0.13536 -0.77812,0.14991 -1.72915,0.63395 -1.65709,0.84329 -1.77148,0.8656 -2.7459,0.53592 -0.55926,-0.18925 -1.38136,-0.52482 -1.82687,-0.74575 -0.44553,-0.22096 -0.88202,-0.40174 -0.96994,-0.40174 -0.0879,0 0.3172,0.63893 0.90031,1.41981 0.80065,1.07222 1.02652,1.58426 0.92272,2.09166 -0.0756,0.36952 0.0503,1.09971 0.2798,1.62263 0.62397,1.42166 1.43567,1.30949 2.75128,-0.3803 z m -8.58489,-1.31784 c -0.96582,-1.02262 -1.97731,-2.19449 -2.24775,-2.6041 l -0.49174,-0.74476 0.88457,-1.686 c 0.8113,-1.54636 0.84474,-1.69811 0.40377,-1.83233 -0.26444,-0.0804 -0.72456,-0.0212 -1.02253,0.13176 -0.29796,0.15293 -0.68911,0.24656 -0.86921,0.20812 -1.17078,-0.24995 -4.16095,2.80592 -4.16095,4.25239 0,0.79966 0.43935,1.62603 0.86851,1.63353 0.17675,0.002 0.61859,0.22878 0.98212,0.50144 0.49331,0.37008 1.08149,0.49724 2.31911,0.50145 1.26156,0.003 2.06861,0.18404 3.37417,0.75179 l 1.71595,0.74616 z m 7.8078,-14.94232 c 0.43429,-0.23517 0.84226,-0.90368 1.27486,-2.08915 1.00377,-2.75058 0.98717,-2.63071 0.36455,-2.63071 -0.50803,0 -0.55959,-0.14095 -0.55959,-1.52917 0,-1.74831 0.17526,-1.90247 1.77193,-1.55846 1.3294,0.28645 2.25055,-0.0603 3.49756,-1.31557 0.499,-0.50238 0.8559,-0.94368 0.79315,-0.98064 -1.10303,-0.64935 -2.0356,-0.97361 -3.50661,-1.21926 -0.98059,-0.16368 -1.95686,-0.46458 -2.16948,-0.66845 -0.32218,-0.30899 -0.38655,-1.65279 -0.38655,-8.07045 0,-4.34993 0.10476,-7.76179 0.24048,-7.84229 0.13217,-0.0784 0.81636,0.0957 1.52019,0.38711 0.70381,0.2913 1.90373,0.5928 2.66648,0.66999 1.19634,0.12118 1.61391,0.031 3.04037,-0.65701 0.90946,-0.43854 2.34088,-1.4222 3.18103,-2.18594 l 1.52752,-1.38859 -2.58502,0.059 c -2.28764,0.052 -2.91959,-0.0394 -5.4932,-0.79704 -4.46611,-1.31451 -4.45942,-1.3087 -4.98202,-4.32632 -0.64132,-3.70303 -0.66442,-3.60011 1.12441,-5.00227 1.24842,-0.97859 1.67318,-1.50978 2.11504,-2.64498 0.57805,-1.48516 0.6961,-2.25579 0.34556,-2.25579 -0.11407,0 -1.71989,0.55652 -3.5686,1.23675 -4.56788,1.68069 -6.46574,3.22552 -6.93301,5.64326 -0.14011,0.72446 -0.006,1.2947 0.62396,2.66213 0.92271,2.00188 0.80595,2.14679 -1.22078,1.51514 -2.22452,-0.6933 -3.74415,-0.74365 -5.3242,-0.17648 -3.62431,1.30109 -4.99761,3.34172 -3.1404,4.66647 0.69445,0.49538 0.77169,0.49878 2.26789,0.0998 1.26202,-0.33648 2.06406,-0.37345 4.32981,-0.19945 3.57981,0.27478 5.05076,0.85126 5.49952,2.15528 0.30123,0.87518 0.27895,0.95254 -0.42726,1.48469 -2.40072,1.8089 -5.06944,4.28185 -8.04363,7.45354 -5.65996,6.03587 -9.33707,8.94537 -16.44062,13.00854 -0.8361,0.47823 -1.52019,0.96767 -1.52019,1.08761 0,0.39422 0.74517,0.94245 1.28098,0.94245 0.28908,0 0.57413,0.13956 0.63338,0.31007 0.082,0.23568 0.86441,0.1759 3.26069,-0.24915 1.73407,-0.30754 3.99631,-0.68246 5.02719,-0.83317 1.03086,-0.15071 2.24737,-0.49155 2.70338,-0.75746 1.03597,-0.60418 4.46953,-4.73647 7.26091,-8.73846 2.69983,-3.87073 6.58237,-9.00047 6.81221,-9.00047 0.22264,0 0.4506,2.39142 0.67872,7.12121 0.16467,3.41547 0.14198,3.71189 -0.29658,3.87331 -0.26123,0.0962 -0.87321,0.0487 -1.35996,-0.10523 -1.12126,-0.35485 -2.39916,0.014 -3.51945,1.01858 -1.04948,0.94015 -1.0872,2.03854 -0.0958,2.78644 0.60641,0.45743 0.92318,0.50962 2.23213,0.3676 0.839,-0.0911 1.82964,-0.0922 2.20146,-0.002 0.61321,0.14752 0.67604,0.28137 0.67604,1.44036 0,0.7027 -0.13551,2.3348 -0.30106,3.62691 -0.37847,2.95326 -0.0829,3.79844 1.36044,3.8936 0.50787,0.0336 1.21081,-0.0948 1.5621,-0.28495 z m 17.45024,-7.30327 c -3.17853,-3.19215 -7.18804,-8.57189 -9.74747,-13.07861 -1.24228,-2.18751 -1.3354,-2.47475 -1.3354,-4.11994 0,-1.02271 -0.11265,-1.76853 -0.26725,-1.76853 -0.14699,0 -0.80624,0.24298 -1.46501,0.53993 -2.3335,1.05188 -2.59201,2.98518 -0.84473,6.31682 1.61068,3.07116 5.10895,8.57552 6.80706,10.71048 1.8783,2.36161 3.78321,3.33199 7.04711,3.58997 l 2.15612,0.17049 z m -27.81574,-51.85415 c 1.09378,-0.52616 1.37081,-1.32767 1.57727,-4.56362 0.0917,-1.43431 0.2527,-2.60783 0.35822,-2.60783 0.10554,0 0.33994,0.17109 0.52094,0.3803 0.24319,0.28102 0.89062,0.38031 2.47973,0.38031 1.49105,0 2.87979,0.19564 4.52818,0.63769 2.29911,0.61666 5.08371,0.85798 5.69819,0.49376 0.16447,-0.0974 0.58344,-0.0311 0.93123,0.14732 0.49398,0.25356 0.85516,0.26053 1.65075,0.0318 1.26344,-0.36303 1.53245,-1.08466 1.92956,-5.17599 0.22585,-2.32712 0.33486,-14.13419 0.1632,-17.68604 -0.0367,-0.76447 0.39129,-1.82795 1.86281,-4.62628 0.0551,-0.10456 -0.0932,-0.19025 -0.32915,-0.19025 -1.52247,0 -5.39318,3.15334 -6.12435,4.98931 -0.4396,1.10394 -0.44011,1.39096 -0.01,5.75572 0.24905,2.52663 0.44215,5.73475 0.42908,7.12918 -0.0275,2.9361 -0.36122,6.65169 -0.61968,6.89956 -0.0978,0.0936 -1.03735,-0.0804 -2.08769,-0.38738 -1.05035,-0.30691 -3.15297,-0.85354 -4.67249,-1.2147 -2.79661,-0.66473 -3.46846,-0.66106 -5.96173,0.0327 -0.51118,0.14212 -0.52305,0.0644 -0.35696,-2.33798 0.0945,-1.36681 0.18381,-3.75633 0.19839,-5.31004 l 0.0264,-2.82494 0.98122,0.47975 c 0.53965,0.26385 1.30875,0.47973 1.7091,0.47973 0.40029,0 1.95149,0.22781 3.44709,0.5063 3.46552,0.64526 4.98457,0.65359 5.78531,0.0317 l 0.61308,-0.47606 -1.31079,-0.62731 c -1.73757,-0.83151 -4.56869,-1.83304 -6.92142,-2.44847 l -1.90927,-0.49947 -1.14814,0.55742 -1.14814,0.55742 -0.34253,-4.56872 c -0.18838,-2.51281 -0.40226,-5.12729 -0.47527,-5.80998 l -0.13281,-1.24123 1.15329,0.16788 c 0.63432,0.0922 2.46197,0.79096 4.06145,1.55263 3.80617,1.81245 3.98345,1.84291 5.78863,0.99525 0.81497,-0.38269 1.48178,-0.77783 1.48178,-0.87808 0,-0.48949 -2.31856,-1.75634 -5.85112,-3.197 -2.15009,-0.87683 -4.20666,-1.66586 -4.57017,-1.75334 -0.36351,-0.0872 -0.79466,-0.31362 -0.95812,-0.50249 -0.24752,-0.28602 -0.52552,-0.2572 -1.66321,0.17248 -3.20687,1.21098 -5.55473,3.10138 -6.69178,5.38793 -0.40545,0.81546 -0.42075,1.06635 -0.12197,2.00249 2.02452,6.34365 2.35094,9.87382 2.40094,25.96592 0.006,1.794 0.0876,2.16339 0.60131,2.70662 0.77196,0.81644 1.94947,1.00525 3.02941,0.48577 z"
       inkscape:label="jsalettering" /></g><g
     inkscape:groupmode="layer"
     id="layer5"
     inkscape:label="patternpanel-jsa"
     style="display:inline"
     inkscape:highlight-color="#da8c8c"><rect
       style="fill:none;stroke:#ff0000;stroke-width:0.184889"
       id="rect993-7"
       width="126.81512"
       height="482.41513"
       x="51.733486"
       y="13.689568"
       inkscape:label="frame2"
       transform="scale(-1,1)" /><path
       id="path422-2-0-4-17"
       style="display:inline;fill:none;stroke:#ff00ff;stroke-width:0.254;stroke-dasharray:none"
       d="m -73.667077,368.21151 c -2.88583,-2.25689 -2.85635,-4.77806 0.10042,-8.59031 0.87861,-1.13282 0.61816,-1.20537 1.67368,0.46617 0.49037,0.77657 2.1408,2.61432 2.72556,3.03491 1.25445,0.90226 0.77511,3.08684 -1.00691,4.58913 -1.25205,1.0555 -1.33646,1.07339 -1.71553,0.36351 -0.38526,-0.72143 -0.39938,-0.7209 -0.85038,0.0319 -0.33843,0.56489 -0.33843,0.56489 -0.92684,0.10472 z m -5.99823,-4.4115 c -0.5585,-0.2313 -1.45748,-0.79061 -1.98636,-1.23584 -0.34206,-0.28795 -0.34206,-0.28795 0.1432,-0.79615 0.59705,-0.62529 0.59648,-0.6038 0.0192,-0.72233 -1.01888,-0.20921 -1.00241,-0.17302 -0.56634,-1.24339 1.02541,-2.51705 2.27523,-3.25425 5.00889,-2.95447 1.30776,0.14341 1.82495,0.26457 3.23735,0.75842 1.04765,0.36632 1.0399,0.27508 0.12258,1.44373 -1.24745,1.58927 -2.02126,2.91321 -2.33927,4.00236 -0.26016,0.89104 -2.28738,1.30753 -3.6392,0.74767 z m 12.14806,-0.26738 c -1.23602,-0.44308 -2.51656,-1.62097 -3.9245,-3.6099 -0.38246,-0.54029 -0.694,-1.00126 -0.69232,-1.02438 0.002,-0.0231 0.45585,-0.16412 1.00924,-0.31334 1.64074,-0.44239 3.32782,-1.14835 4.28301,-1.79222 1.223851,-0.82496 3.158853,0.13302 3.970416,1.96566 0.377448,0.85237 0.701278,1.99748 0.572422,2.0242 -0.06068,0.0126 -0.396316,0.0739 -0.745848,0.13623 -0.635501,0.11336 -0.635501,0.11336 -0.166096,0.66288 0.535815,0.62728 0.54649,0.5902 -0.335523,1.16511 -1.48651,0.96893 -2.757961,1.22053 -3.970801,0.78576 z m -4.20666,-6.39208 c 0.11717,-1.89761 -0.028,-3.49871 -0.43878,-4.84091 -0.33785,-1.10385 1.30847,-2.61148 3.13392,-2.8699 1.69212,-0.23954 2.16531,-0.0822 2.05641,0.68361 -0.0576,0.40519 -0.0772,0.73874 -0.0434,0.7412 0.0337,0.002 0.31435,-0.10094 0.62368,-0.22978 0.734738,-0.30603 0.699949,-0.32229 0.917713,0.42893 1.032482,3.56175 -0.524603,5.60821 -5.293623,6.95739 -1.10027,0.31128 -1.0326,0.37292 -0.95584,-0.87054 z m -1.31152,0.27764 c -1.44473,-0.5984 -2.48235,-0.86524 -4.00374,-1.02962 -1.88565,-0.20375 -2.6253,-0.95026 -2.79694,-2.82287 -0.0733,-0.79949 0.55738,-3.34971 0.78722,-3.18339 1.03349,0.74783 1.43688,0.52901 1.19939,-0.65062 -0.0373,-0.18519 0.003,-0.19852 0.63385,-0.20824 3.61313,-0.0557 5.20416,2.10102 5.05417,6.85112 -0.0248,0.78446 -0.0769,1.34402 -0.12428,1.3353 -0.0449,-0.008 -0.38224,-0.1395 -0.74964,-0.29168 z m -81.459733,66.06103 c -3.44074,-1.25813 -4.18935,-3.66578 -2.55077,-8.20348 0.48691,-1.34839 0.21678,-1.33718 1.7359,-0.0721 0.70575,0.58774 2.84204,1.82769 3.52793,2.04769 1.47139,0.47194 1.68834,2.69794 0.45577,4.67614 -0.86601,1.38987 -0.9408,1.43289 -1.52012,0.87431 -0.58876,-0.56767 -0.60203,-0.56281 -0.79919,0.29231 -0.14796,0.64168 -0.14796,0.64168 -0.84951,0.38515 z m -7.06552,-2.34916 c -0.60259,-0.048 -1.63015,-0.30318 -2.27046,-0.56383 -0.41413,-0.16857 -0.41413,-0.16857 -0.10903,-0.80155 0.37539,-0.7788 0.38147,-0.75818 -0.20425,-0.69311 -1.03378,0.11483 -1.00696,0.14419 -0.92183,-1.00846 0.20015,-2.71052 1.16208,-3.79689 3.85515,-4.35381 1.28834,-0.26643 1.8177,-0.31049 3.31355,-0.27575 1.10955,0.0258 1.07407,-0.0587 0.56137,1.33576 -0.6972,1.89626 -1.02553,3.39419 -0.99256,4.52834 0.027,0.92785 -1.77334,1.94859 -3.23189,1.83239 z m 11.47491,-3.99667 c -1.3124,-0.0408 -2.89352,-0.7669 -4.8457,-2.22538 -0.5303,-0.39619 -0.96869,-0.73877 -0.97422,-0.76129 -0.005,-0.0226 0.38313,-0.29656 0.86364,-0.609 1.42466,-0.92632 2.81222,-2.11766 3.52261,-3.02447 0.91021,-1.16186 3.04622,-0.84656 4.38287,0.64695 0.62167,0.69464 1.28251,1.6843 1.16815,1.74942 -0.0539,0.0307 -0.35428,0.19239 -0.66762,0.35937 -0.56967,0.30362 -0.56967,0.30362 0.0462,0.68181 0.70299,0.43171 0.70172,0.39314 0.0397,1.21181 -1.11573,1.37973 -2.24785,2.01078 -3.53564,1.97078 z m -5.9712,-4.78533 c -0.4731,-1.84142 -1.10444,-3.31994 -1.90872,-4.47032 -0.66147,-0.94609 0.44035,-2.88756 2.09742,-3.69576 1.53604,-0.74916 2.03468,-0.74524 2.16699,0.0169 0.07,0.40323 0.15413,0.72659 0.18704,0.71852 0.0327,-0.008 0.26797,-0.19287 0.52257,-0.41073 0.60473,-0.51749 0.56662,-0.52224 1.00522,0.12536 2.07949,3.07047 1.22855,5.49708 -2.89292,8.24977 -0.95087,0.63509 -0.8675,0.67289 -1.17753,-0.53375 z m -1.16221,0.66816 c -1.55881,-0.12424 -2.62817,-0.0585 -4.12622,0.25383 -1.85671,0.38704 -2.79036,-0.0953 -3.53052,-1.82397 -0.31602,-0.73803 -0.50163,-3.35851 -0.23173,-3.27109 1.21361,0.39309 1.52997,0.0607 0.94064,-0.98846 -0.0925,-0.16469 -0.0583,-0.18979 0.53887,-0.39337 3.42026,-1.16604 5.59831,0.39567 6.91891,4.96096 0.21806,0.75395 0.34087,1.30235 0.29311,1.30865 -0.0452,0.006 -0.40662,-0.015 -0.80304,-0.0466 z m 77.119432,-2.25549 c -3.463923,-1.19281 -4.257956,-3.58586 -2.70551,-8.15376 0.461311,-1.35736 0.191439,-1.34104 1.734218,-0.10491 0.716743,0.57428 2.876117,1.77359 3.566044,1.98058 1.480056,0.44401 1.739076,2.66551 0.544155,4.66667 -0.839556,1.40601 -0.913523,1.45044 -1.503305,0.90292 -0.5994,-0.55643 -0.612576,-0.55132 -0.793524,0.30738 -0.135788,0.64436 -0.135788,0.64436 -0.842068,0.40115 z m -7.108696,-2.21507 c -0.603392,-0.0366 -1.635598,-0.27228 -2.28073,-0.52077 -0.417245,-0.16071 -0.417245,-0.16071 -0.124169,-0.79934 0.360591,-0.78577 0.367057,-0.76527 -0.217328,-0.68913 -1.031421,0.13437 -1.004053,0.16322 -0.940747,-0.99084 0.148833,-2.71382 1.090049,-3.81819 3.772097,-4.42596 1.283068,-0.29076 1.811502,-0.34482 3.307737,-0.33839 1.109837,0.005 1.072766,-0.079 0.58654,1.32489 -0.661199,1.90912 -0.96113,3.41299 -0.906704,4.54632 0.04453,0.92717 -1.736164,1.98178 -3.196648,1.8932 z m 11.397242,-4.21305 c -1.31294,-0.0159 -2.907517,-0.71201 -4.886931,-2.1333 -0.537701,-0.38609 -0.982498,-0.72032 -0.988447,-0.74272 -0.0056,-0.0225 0.377444,-0.30376 0.851956,-0.62524 1.406887,-0.9531 2.771658,-2.17048 3.464763,-3.09057 0.888055,-1.17887 3.029649,-0.90403 4.394317,0.56392 0.634701,0.68276 1.314146,1.65974 1.20104,1.72701 -0.05326,0.0317 -0.350573,0.19906 -0.660691,0.37193 -0.563828,0.31434 -0.563828,0.31434 0.05908,0.68082 0.711037,0.41833 0.709041,0.3798 0.06263,1.21084 -1.08943,1.4006 -2.209399,2.05294 -3.497717,2.03731 z m -6.060669,-4.6715 c -0.507852,-1.83214 -1.167051,-3.29845 -1.992947,-4.43341 -0.679249,-0.93341 0.385644,-2.89538 2.027124,-3.73478 1.521589,-0.77808 2.020221,-0.7836 2.166925,-0.0241 0.07764,0.40183 0.167847,0.72355 0.200602,0.71485 0.03251,-0.009 0.264271,-0.1979 0.514699,-0.42054 0.594833,-0.52884 0.556644,-0.53287 1.007411,0.10632 2.137208,3.03058 1.332334,5.47285 -2.736319,8.30303 -0.938685,0.65296 -0.854617,0.68917 -1.187419,-0.51138 z m -1.149361,0.69002 c -1.560882,-0.0947 -2.628806,-0.009 -4.12067,0.33185 -1.849059,0.42211 -2.791664,-0.0425 -3.564399,-1.75685 -0.32993,-0.73192 -0.565077,-3.34842 -0.293572,-3.26611 1.220823,0.37005 1.53084,0.0317 0.921764,-1.00608 -0.09564,-0.16291 -0.06188,-0.18865 0.531336,-0.4035 3.397585,-1.23054 5.604788,0.28968 7.011526,4.82918 0.232289,0.74969 0.365452,1.29567 0.317818,1.30287 -0.04506,0.007 -0.406835,-0.007 -0.803775,-0.0314 z M -156.06401,351.9503 c -1.64423,-3.27384 -0.53993,-5.54049 3.76262,-7.72309 1.27852,-0.64857 1.07407,-0.82549 1.31382,1.13683 0.11138,0.91166 0.81792,3.27852 1.16679,3.9087 0.74842,1.35189 -0.6187,3.12196 -2.87186,3.71839 -1.58308,0.41904 -1.66703,0.39913 -1.7063,-0.40466 -0.0399,-0.81688 -0.0529,-0.82243 -0.78241,-0.33465 -0.54742,0.36603 -0.54742,0.36603 -0.88267,-0.30149 z m -3.53701,-6.55207 c -0.40604,-0.44783 -0.97969,-1.33773 -1.26751,-1.9663 -0.18616,-0.40653 -0.18616,-0.40653 0.46976,-0.65855 0.80704,-0.31008 0.79733,-0.2909 0.32611,-0.64481 -0.83169,-0.62464 -0.83226,-0.58488 0.0195,-1.36615 2.0029,-1.83723 3.44791,-1.96947 5.79112,-0.52998 1.12097,0.68864 1.53674,1.01924 2.60253,2.06942 0.79054,0.77898 0.82253,0.69318 -0.50629,1.35759 -1.80707,0.90356 -3.07253,1.7697 -3.82557,2.61841 -0.61607,0.69434 -2.62679,0.20435 -3.60958,-0.87961 z m 11.09667,4.95084 c -0.92803,-0.92889 -1.58222,-2.54111 -2.00491,-4.941 -0.11482,-0.65192 -0.19943,-1.20182 -0.18803,-1.22201 0.0117,-0.02 0.48226,0.0465 1.04633,0.14812 1.6724,0.30138 3.49935,0.38428 4.6381,0.21048 1.45903,-0.22268 2.79888,1.47047 2.74923,3.47416 -0.0231,0.93191 -0.21982,2.10556 -0.34773,2.07464 -0.0602,-0.0145 -0.38987,-0.1026 -0.73251,-0.19565 -0.62297,-0.16916 -0.62297,-0.16916 -0.4335,0.52828 0.21628,0.79611 0.24178,0.76716 -0.80134,0.90989 -1.75803,0.24056 -3.01502,-0.0754 -3.92564,-0.98691 z m -1.07078,-7.57682 c 0.91704,-1.66544 1.47017,-3.17495 1.67252,-4.56394 0.1664,-1.14234 2.29916,-1.80161 4.05991,-1.25496 1.63214,0.50672 1.99267,0.85123 1.56688,1.497 -0.22527,0.34169 -0.38556,0.63486 -0.35605,0.65153 0.0296,0.0162 0.32733,0.0431 0.66205,0.0589 0.79504,0.0374 0.77054,0.008 0.64631,0.78003 -0.58902,3.66131 -2.87143,4.84584 -7.75953,4.02709 -1.12775,-0.18889 -1.09292,-0.10424 -0.49202,-1.19557 z m -1.30435,-0.30959 c -1.05032,-1.15852 -1.87431,-1.84327 -3.17945,-2.64218 -1.61762,-0.9902 -1.96721,-1.98123 -1.32196,-3.74752 0.27547,-0.75411 1.9357,-2.79004 2.07239,-2.54144 0.61467,1.11783 1.07288,1.09243 1.3624,-0.0755 0.0454,-0.18336 0.0876,-0.17819 0.66204,0.0827 3.29024,1.49404 3.80673,4.12388 1.64076,8.35407 -0.35773,0.69858 -0.64401,1.18218 -0.68312,1.15405 -0.0372,-0.0264 -0.28593,-0.2895 -0.55303,-0.58412 z m 18.01312,-221.91361 c -3.319,1.55108 -5.55353,0.38319 -7.61371,-3.97931 -0.61219,-1.29633 -0.79481,-1.09696 1.1735,-1.28118 0.91444,-0.0856 3.30031,-0.72497 3.94011,-1.05589 1.37248,-0.70993 3.10322,0.70665 3.63576,2.97577 0.37415,1.59427 0.35187,1.67764 -0.45271,1.69418 -0.81768,0.0168 -0.82359,0.0297 -0.35662,0.77264 0.35043,0.55754 0.35043,0.55754 -0.32632,0.87381 z m -6.64939,3.35049 c -0.45912,0.39323 -1.36487,0.9415 -2.00132,1.21147 -0.41163,0.17458 -0.41163,0.17458 -0.64502,-0.4882 -0.28715,-0.81547 -0.26825,-0.80522 -0.63534,-0.3442 -0.64788,0.81372 -0.60816,0.81541 -1.36506,-0.058 -1.77989,-2.05401 -1.87125,-3.50217 -0.36615,-5.80379 0.72003,-1.10107 1.06225,-1.50734 2.14212,-2.54302 0.80099,-0.76822 0.71613,-0.80263 1.34275,0.54444 0.85214,1.83187 1.68218,3.1213 2.50929,3.89802 0.67665,0.63543 0.13005,2.6315 -0.98124,3.58329 z m 5.26237,-10.95237 c -0.95474,0.90142 -2.5848,1.50979 -4.99567,1.86451 -0.6549,0.0964 -1.20698,0.1654 -1.22684,0.15343 -0.0197,-0.0122 0.0601,-0.48075 0.17763,-1.04172 0.34849,-1.66322 0.48298,-3.4871 0.34142,-4.6303 -0.18136,-1.46474 1.54897,-2.75622 3.55044,-2.64999 0.9309,0.0494 2.09851,0.27922 2.064,0.40621 -0.0162,0.0598 -0.11357,0.38682 -0.21627,0.72669 -0.18669,0.61794 -0.18669,0.61794 0.51582,0.44825 0.8019,-0.1937 0.77368,-0.22 0.8869,0.82673 0.19079,1.76412 -0.16061,3.01168 -1.09743,3.89619 z m -7.60405,0.85629 c -1.63887,-0.96372 -3.13215,-1.55928 -4.51487,-1.80078 -1.13719,-0.19861 -1.73593,-2.34915 -1.13976,-4.09375 0.55263,-1.61717 0.90718,-1.96783 1.54067,-1.52397 0.3352,0.23484 0.62372,0.40335 0.64122,0.37433 0.017,-0.0292 0.0523,-0.32599 0.0775,-0.66013 0.0598,-0.79367 0.0296,-0.77002 0.79799,-0.62401 3.64319,0.69222 4.76277,3.00718 3.80626,7.8702 -0.22068,1.12196 -0.13508,1.08953 -1.209,0.45805 z m -0.34631,1.29509 c -1.18773,1.01718 -1.89549,1.82149 -2.73096,3.10353 -1.0355,1.58901 -2.03601,1.91046 -3.78337,1.21555 -0.74602,-0.29665 -2.73424,-2.01374 -2.48188,-2.14336 1.13475,-0.58284 1.12231,-1.04159 -0.037,-1.36398 -0.18202,-0.0506 -0.17564,-0.0926 0.10134,-0.65944 1.5864,-3.24671 4.22978,-3.68871 8.39709,-1.40408 0.68819,0.37731 1.16352,0.67714 1.13429,0.71544 -0.0275,0.0364 -0.29747,0.27764 -0.59951,0.53631 z m -13.5941,150.93604 c -3.51561,-1.03056 -4.41998,-3.38413 -3.08147,-8.01923 0.39774,-1.37733 0.12891,-1.34849 1.72747,-0.18539 0.74265,0.54036 2.95542,1.63804 3.65422,1.81274 1.49909,0.37476 1.86106,2.58183 0.76042,4.63635 -0.77332,1.4435 -0.84514,1.49132 -1.45973,0.97179 -0.62461,-0.52797 -0.63753,-0.52226 -0.77838,0.34392 -0.1057,0.64998 -0.1057,0.64998 -0.82252,0.43985 z m -7.20395,-1.88236 c -0.60444,-0.009 -1.64648,-0.19598 -2.30246,-0.41423 -0.42426,-0.14114 -0.42426,-0.14114 -0.16118,-0.7927 0.32369,-0.80168 0.3311,-0.7815 -0.24911,-0.67829 -1.02407,0.18216 -0.99539,0.2097 -0.98578,-0.94605 0.0226,-2.71781 0.91145,-3.86472 3.56236,-4.59646 1.26817,-0.35006 1.79352,-0.42862 3.28844,-0.49173 1.10886,-0.0468 1.06794,-0.12872 0.64747,1.29621 -0.57177,1.93778 -0.8015,3.45397 -0.69447,4.58354 0.0876,0.9241 -1.6422,2.06032 -3.10522,2.0397 z m 11.18916,-4.73809 c -1.31226,0.0451 -2.93746,-0.57614 -4.98078,-1.90391 -0.55506,-0.36069 -1.01491,-0.67389 -1.02189,-0.69599 -0.007,-0.0222 0.36292,-0.32098 0.82198,-0.66415 1.36108,-1.01745 2.66781,-2.29693 3.31741,-3.24823 0.83233,-1.21887 2.98438,-1.04384 4.41578,0.35911 0.66574,0.65253 1.38985,1.59688 1.27999,1.66933 -0.0517,0.0342 -0.34094,0.21514 -0.6427,0.40224 -0.54861,0.3402 -0.54861,0.3402 0.0907,0.67733 0.7297,0.38484 0.72592,0.34644 0.11883,1.20662 -1.02317,1.44971 -2.11162,2.1534 -3.39928,2.19765 z m -6.27119,-4.38484 c -0.59244,-1.80656 -1.31906,-3.24065 -2.19681,-4.33601 -0.72188,-0.90083 0.25069,-2.91017 1.85139,-3.82493 1.48379,-0.84795 1.98163,-0.87663 2.16347,-0.1248 0.0962,0.39779 0.20128,0.71497 0.2336,0.70477 0.032,-0.0106 0.25479,-0.20997 0.4946,-0.44401 0.56962,-0.55591 0.53128,-0.55816 1.01127,0.0594 2.27572,2.928 1.5852,5.40503 -2.34755,8.42121 -0.90733,0.69588 -0.82167,0.72815 -1.2099,-0.45565 z m -1.11606,0.74269 c -1.5636,-0.0221 -2.62637,0.11344 -4.1008,0.52297 -1.82744,0.50757 -2.79062,0.0873 -3.64218,-1.58932 -0.36359,-0.7158 -0.72006,-3.31855 -0.44502,-3.24895 1.23669,0.31293 1.53065,-0.0395 0.87401,-1.04782 -0.1031,-0.1583 -0.0706,-0.18558 0.51202,-0.42775 3.33673,-1.38709 5.61219,0.0289 7.22835,4.49815 0.26687,0.73809 0.42526,1.27728 0.37801,1.28669 -0.0447,0.009 -0.40673,0.0117 -0.80436,0.006 z m 72.197894,44.6711 c -2.88583,-2.25689 -2.85635,-4.77806 0.10042,-8.59031 0.87861,-1.13282 0.61816,-1.20537 1.67368,0.46617 0.49037,0.77657 2.1408,2.61432 2.72556,3.03491 1.25445,0.90226 0.77511,3.08684 -1.00691,4.58913 -1.25205,1.0555 -1.33646,1.07339 -1.71553,0.36351 -0.38526,-0.72143 -0.39938,-0.7209 -0.85038,0.0319 -0.33843,0.56489 -0.33843,0.56489 -0.92684,0.10472 z m -5.99823,-4.4115 c -0.5585,-0.2313 -1.45748,-0.79061 -1.98636,-1.23584 -0.34206,-0.28795 -0.34206,-0.28795 0.1432,-0.79615 0.59705,-0.62529 0.59648,-0.6038 0.0192,-0.72233 -1.01888,-0.20921 -1.00241,-0.17302 -0.56634,-1.24339 1.02541,-2.51705 2.27523,-3.25425 5.00889,-2.95447 1.30776,0.14341 1.82495,0.26457 3.23735,0.75842 1.04765,0.36632 1.0399,0.27508 0.12258,1.44373 -1.24745,1.58927 -2.02126,2.91321 -2.33927,4.00236 -0.26016,0.89104 -2.28738,1.30753 -3.6392,0.74767 z m 12.14806,-0.26738 c -1.23602,-0.44308 -2.51656,-1.62097 -3.9245,-3.6099 -0.38246,-0.54029 -0.694,-1.00126 -0.69232,-1.02438 0.002,-0.0231 0.45585,-0.16412 1.00924,-0.31334 1.64074,-0.44239 3.32782,-1.14835 4.28301,-1.79222 1.223851,-0.82496 3.158853,0.13302 3.970416,1.96566 0.377448,0.85237 0.701278,1.99748 0.572422,2.0242 -0.06068,0.0126 -0.396316,0.0739 -0.745848,0.13623 -0.635501,0.11336 -0.635501,0.11336 -0.166096,0.66288 0.535815,0.62728 0.54649,0.5902 -0.335523,1.16511 -1.48651,0.96893 -2.757961,1.22053 -3.970801,0.78576 z m -4.20666,-6.39208 c 0.11717,-1.89761 -0.028,-3.49871 -0.43878,-4.84091 -0.33785,-1.10385 1.30847,-2.61148 3.13392,-2.8699 1.69212,-0.23954 2.16531,-0.0822 2.05641,0.68361 -0.0576,0.40519 -0.0772,0.73874 -0.0434,0.7412 0.0337,0.002 0.31435,-0.10094 0.62368,-0.22978 0.734738,-0.30603 0.699949,-0.32229 0.917713,0.42893 1.032482,3.56175 -0.524603,5.60821 -5.293623,6.95739 -1.10027,0.31128 -1.0326,0.37292 -0.95584,-0.87054 z m -1.31152,0.27764 c -1.44473,-0.5984 -2.48235,-0.86524 -4.00374,-1.02962 -1.88565,-0.20375 -2.6253,-0.95026 -2.79694,-2.82287 -0.0733,-0.79949 0.55738,-3.34971 0.78722,-3.18339 1.03349,0.74783 1.43688,0.52901 1.19939,-0.65062 -0.0373,-0.18519 0.003,-0.19852 0.63385,-0.20824 3.61313,-0.0557 5.20416,2.10102 5.05417,6.85112 -0.0248,0.78446 -0.0769,1.34402 -0.12428,1.3353 -0.0449,-0.008 -0.38224,-0.1395 -0.74964,-0.29168 z m 12.690055,-40.59039 c -2.88583,-2.25689 -2.85635,-4.77806 0.10042,-8.59031 0.87861,-1.13282 0.61816,-1.20537 1.67368,0.46617 0.49037,0.77657 2.1408,2.61432 2.72556,3.03491 1.25445,0.90226 0.77511,3.08684 -1.00691,4.58913 -1.25205,1.0555 -1.33646,1.07339 -1.71553,0.36351 -0.38526,-0.72143 -0.39938,-0.7209 -0.85038,0.0319 -0.33843,0.56489 -0.33843,0.56489 -0.92684,0.10472 z m -5.99823,-4.4115 c -0.5585,-0.2313 -1.45748,-0.79061 -1.98636,-1.23584 -0.34206,-0.28795 -0.34206,-0.28795 0.1432,-0.79615 0.59705,-0.62529 0.59648,-0.6038 0.0192,-0.72233 -1.01888,-0.20921 -1.00241,-0.17302 -0.56634,-1.24339 1.02541,-2.51705 2.27523,-3.25425 5.00889,-2.95447 1.30776,0.14341 1.82495,0.26457 3.23735,0.75842 1.04765,0.36632 1.0399,0.27508 0.12258,1.44373 -1.24745,1.58927 -2.02126,2.91321 -2.33927,4.00236 -0.26016,0.89104 -2.28738,1.30753 -3.6392,0.74767 z m 12.14806,-0.26738 c -1.23602,-0.44308 -2.51656,-1.62097 -3.9245,-3.6099 -0.38246,-0.54029 -0.694,-1.00126 -0.69232,-1.02438 0.002,-0.0231 0.45585,-0.16412 1.00924,-0.31334 1.64074,-0.44239 3.32782,-1.14835 4.28301,-1.79222 1.223851,-0.82496 3.158853,0.13302 3.970416,1.96566 0.377448,0.85237 0.701278,1.99748 0.572422,2.0242 -0.06068,0.0126 -0.396316,0.0739 -0.745848,0.13623 -0.635501,0.11336 -0.635501,0.11336 -0.166096,0.66288 0.535815,0.62728 0.54649,0.5902 -0.335523,1.16511 -1.48651,0.96893 -2.757961,1.22053 -3.970801,0.78576 z m -4.20666,-6.39208 c 0.11717,-1.89761 -0.028,-3.49871 -0.43878,-4.84091 -0.33785,-1.10385 1.30847,-2.61148 3.13392,-2.8699 1.69212,-0.23954 2.16531,-0.0822 2.05641,0.68361 -0.0576,0.40519 -0.0772,0.73874 -0.0434,0.7412 0.0337,0.002 0.31435,-0.10094 0.62368,-0.22978 0.734738,-0.30603 0.699949,-0.32229 0.917713,0.42893 1.032482,3.56175 -0.524603,5.60821 -5.293623,6.95739 -1.10027,0.31128 -1.0326,0.37292 -0.95584,-0.87054 z m -1.31152,0.27764 c -1.44473,-0.5984 -2.48235,-0.86524 -4.00374,-1.02962 -1.88565,-0.20375 -2.6253,-0.95026 -2.79694,-2.82287 -0.0733,-0.79949 0.55738,-3.34971 0.78722,-3.18339 1.03349,0.74783 1.43688,0.52901 1.19939,-0.65062 -0.0373,-0.18519 0.003,-0.19852 0.63385,-0.20824 3.61313,-0.0557 5.20416,2.10102 5.05417,6.85112 -0.0248,0.78446 -0.0769,1.34402 -0.12428,1.3353 -0.0449,-0.008 -0.38224,-0.1395 -0.74964,-0.29168 z m -82.531829,-49.38391 c -3.271,-1.6499 -3.73443,-4.12828 -1.57905,-8.44454 0.64049,-1.28257 0.37088,-1.30287 1.73249,0.13037 0.63259,0.66585 2.61012,2.14592 3.26576,2.44422 1.40648,0.63993 1.36298,2.87604 -0.0914,4.69742 -1.02181,1.27967 -1.10112,1.3137 -1.61151,0.69151 -0.51872,-0.63231 -0.53246,-0.62902 -0.82777,0.19735 -0.22161,0.62011 -0.22161,0.62011 -0.88856,0.2837 z m -6.74423,-3.15523 c -0.59293,-0.11778 -1.58383,-0.49077 -2.18947,-0.82414 -0.39169,-0.21562 -0.39169,-0.21562 -0.015,-0.80879 0.46346,-0.72984 0.46709,-0.70865 -0.12222,-0.71218 -1.04012,-0.006 -1.01689,0.0261 -0.79825,-1.10885 0.51415,-2.66883 1.59593,-3.6359 4.33551,-3.87573 1.31059,-0.11474 1.84148,-0.0969 3.32313,0.11163 1.09901,0.15467 1.07359,0.0667 0.40215,1.392 -0.91309,1.80227 -1.41346,3.25183 -1.51266,4.38211 -0.0811,0.92469 -1.98799,1.72904 -3.42312,1.44395 z m 11.86196,-2.63452 c -1.29875,-0.19318 -2.78466,-1.09833 -4.55389,-2.77402 -0.4806,-0.4552 -0.87618,-0.84645 -0.87903,-0.86946 -0.003,-0.0231 0.41502,-0.24998 0.92862,-0.50438 1.52275,-0.75429 3.03949,-1.77611 3.85056,-2.59412 1.03919,-1.04807 3.12401,-0.48639 4.27783,1.15247 0.53663,0.76226 1.07784,1.82208 0.95669,1.87345 -0.0571,0.0242 -0.37425,0.14987 -0.70488,0.27926 -0.60113,0.23527 -0.60113,0.23527 -0.0335,0.68256 0.648,0.51055 0.65123,0.47211 -0.10153,1.20819 -1.26868,1.24056 -2.46653,1.73561 -3.74091,1.54605 z m -5.37392,-5.44753 c -0.25566,-1.88396 -0.7107,-3.42588 -1.37568,-4.66202 -0.5469,-1.01663 0.77331,-2.81673 2.51315,-3.42665 1.61277,-0.56537 2.10757,-0.50346 2.15031,0.26887 0.0226,0.40865 0.0686,0.73959 0.10217,0.73541 0.0336,-0.004 0.2886,-0.16039 0.56681,-0.34714 0.66084,-0.44363 0.62354,-0.45279 0.98381,0.24145 1.70814,3.29155 0.58068,5.60268 -3.83306,7.85719 -1.0183,0.52014 -0.93989,0.56738 -1.10744,-0.66713 z m -1.23206,0.52841 c -1.53378,-0.30475 -2.60352,-0.36382 -4.12773,-0.22794 -1.88912,0.16841 -2.76031,-0.4193 -3.29433,-2.22234 -0.22802,-0.76977 -0.10749,-3.39406 0.1504,-3.27583 1.15963,0.53161 1.51253,0.23823 1.04925,-0.8723 -0.0727,-0.17435 -0.0358,-0.19529 0.58098,-0.32801 3.53268,-0.7602 5.51425,1.0443 6.29476,5.73223 0.12887,0.77419 0.18704,1.33315 0.13887,1.33386 -0.0456,9.3e-4 -0.40212,-0.0622 -0.79217,-0.13967 z m 82.141571,-27.60655 c -2.885823,-2.2569 -2.856345,-4.77806 0.100419,-8.59031 0.878613,-1.13282 0.618161,-1.20537 1.67368,0.46617 0.490373,0.77657 2.140807,2.61431 2.725567,3.03491 1.254443,0.90226 0.77511,3.08684 -1.006917,4.58913 -1.252047,1.0555 -1.336462,1.07338 -1.715532,0.3635 -0.385255,-0.72143 -0.399371,-0.72089 -0.850375,0.0319 -0.338434,0.5649 -0.338434,0.5649 -0.926845,0.10472 z m -5.998229,-4.41151 c -0.558502,-0.2313 -1.457483,-0.79061 -1.986364,-1.23583 -0.342057,-0.28796 -0.342057,-0.28796 0.143202,-0.79616 0.597052,-0.62528 0.596478,-0.60379 0.0192,-0.72233 -1.01888,-0.2092 -1.002409,-0.17302 -0.566342,-1.24339 1.025417,-2.51704 2.275232,-3.25424 5.008897,-2.95447 1.307762,0.14341 1.824948,0.26457 3.237351,0.75843 1.047647,0.36631 1.039894,0.27507 0.122581,1.44373 -1.247458,1.58926 -2.021268,2.9132 -2.339278,4.00236 -0.260155,0.89104 -2.287377,1.30752 -3.639199,0.74767 z m 12.148064,-0.26737 c -1.23602,-0.44308 -2.516559,-1.62098 -3.924502,-3.60991 -0.382456,-0.54028 -0.694005,-1.00126 -0.692318,-1.02438 0.0017,-0.0231 0.455848,-0.16412 1.00924,-0.31333 1.640733,-0.4424 3.327814,-1.14836 4.283007,-1.79223 1.223851,-0.82495 3.158853,0.13303 3.970416,1.96566 0.377448,0.85238 0.701278,1.99748 0.572422,2.02421 -0.06068,0.0126 -0.396316,0.0739 -0.745848,0.13623 -0.635501,0.11335 -0.635501,0.11335 -0.166096,0.66288 0.535815,0.62727 0.54649,0.5902 -0.335523,1.16511 -1.48651,0.96892 -2.757964,1.22052 -3.970798,0.78576 z m -4.20666,-6.39209 c 0.117165,-1.89761 -0.028,-3.4987 -0.438787,-4.8409 -0.337848,-1.10386 1.308478,-2.61149 3.133926,-2.86991 1.692121,-0.23954 2.165311,-0.0822 2.056405,0.68361 -0.05763,0.4052 -0.07715,0.73875 -0.04344,0.74121 0.03371,0.002 0.314357,-0.10095 0.62368,-0.22978 0.734741,-0.30603 0.699952,-0.3223 0.917716,0.42893 1.032482,3.56174 -0.524599,5.6082 -5.293622,6.95739 -1.100272,0.31127 -1.032597,0.37291 -0.955839,-0.87054 z m -1.311525,0.27765 c -1.444733,-0.5984 -2.48235,-0.86524 -4.003742,-1.02963 -1.885644,-0.20374 -2.625294,-0.95025 -2.796933,-2.82287 -0.07327,-0.79948 0.557376,-3.34971 0.787215,-3.18339 1.033492,0.74783 1.436881,0.52901 1.199392,-0.65061 -0.03733,-0.1852 0.0033,-0.19852 0.633849,-0.20824 3.613126,-0.0557 5.204157,2.10102 5.054171,6.85112 -0.02484,0.78445 -0.07688,1.34402 -0.124276,1.3353 -0.04492,-0.008 -0.382243,-0.13951 -0.749646,-0.29168 z m -9.942915,-61.197516 c -2.885823,-2.256896 -2.856345,-4.778063 0.100419,-8.590314 0.878613,-1.132819 0.618161,-1.205367 1.67368,0.466173 0.490373,0.776568 2.140807,2.614315 2.725567,3.034908 1.254443,0.902264 0.77511,3.086839 -1.006917,4.589132 -1.252047,1.055498 -1.336462,1.073384 -1.715532,0.363505 -0.385255,-0.72143 -0.399371,-0.720895 -0.850375,0.03192 -0.338434,0.564895 -0.338434,0.564895 -0.926845,0.104718 z m -5.998229,-4.411506 c -0.558502,-0.231302 -1.457483,-0.790613 -1.986364,-1.235835 -0.342057,-0.287956 -0.342057,-0.287956 0.143202,-0.796157 0.597052,-0.625281 0.596478,-0.603794 0.0192,-0.722331 -1.01888,-0.209203 -1.002409,-0.173016 -0.566342,-1.243389 1.025417,-2.517044 2.275232,-3.254244 5.008897,-2.95447 1.307762,0.143412 1.824948,0.264571 3.237351,0.758427 1.047647,0.366313 1.039894,0.275074 0.122581,1.443731 -1.247458,1.589263 -2.021268,2.913203 -2.339278,4.002356 -0.260155,0.89104 -2.287377,1.307527 -3.639199,0.747671 z m 12.148064,-0.267378 c -1.23602,-0.44308 -2.516559,-1.620971 -3.924502,-3.609902 -0.382456,-0.540288 -0.694005,-1.00126 -0.692318,-1.024382 0.0017,-0.02311 0.455848,-0.164121 1.00924,-0.313334 1.640733,-0.442396 3.327814,-1.148357 4.283007,-1.792224 1.223851,-0.824957 3.158853,0.133025 3.970416,1.965658 0.377448,0.852377 0.701278,1.99748 0.572422,2.024204 -0.06068,0.0126 -0.396316,0.07389 -0.745848,0.136235 -0.635501,0.113354 -0.635501,0.113354 -0.166096,0.662877 0.535815,0.627275 0.54649,0.5902 -0.335523,1.165108 -1.48651,0.968927 -2.757964,1.220529 -3.970798,0.78576 z m -4.20666,-6.392082 c 0.117165,-1.89761 -0.028,-3.498703 -0.438787,-4.840905 -0.337848,-1.103854 1.308478,-2.611488 3.133926,-2.869904 1.692121,-0.239543 2.165311,-0.08224 2.056405,0.683609 -0.05763,0.405197 -0.07715,0.738743 -0.04344,0.741202 0.03371,0.0025 0.314357,-0.100942 0.62368,-0.229777 0.734741,-0.306033 0.699952,-0.322297 0.917716,0.428928 1.032482,3.561744 -0.524599,5.608208 -5.293622,6.957392 -1.100272,0.311274 -1.032597,0.372916 -0.955839,-0.870543 z m -1.311525,0.277643 c -1.444733,-0.598401 -2.48235,-0.865238 -4.003742,-1.029623 -1.885644,-0.203744 -2.625294,-0.950258 -2.796933,-2.822869 -0.07327,-0.799487 0.557376,-3.349712 0.787215,-3.183393 1.033492,0.747832 1.436881,0.529013 1.199392,-0.650614 -0.03733,-0.185193 0.0033,-0.198522 0.633849,-0.20824 3.613126,-0.05569 5.204157,2.101022 5.054171,6.85112 -0.02484,0.784455 -0.07688,1.344018 -0.124276,1.335303 -0.04492,-0.0082 -0.382243,-0.139507 -0.749646,-0.291682 z m -36.446036,44.113979 c -8.33491,-5.59146 -8.75686,-12.486051 -1.43776,-23.491798 2.17489,-3.270382 1.44877,-3.416698 4.66599,0.940164 1.49465,2.024123 6.3705,6.716548 8.05212,7.749206 3.60741,2.215287 2.73313,8.279848 -1.8366,12.739828 -3.21066,3.13354 -3.43773,3.19923 -4.61499,1.33516 -1.19644,-1.89442 -1.2349,-1.89016 -2.31715,0.25659 -0.81213,1.61093 -0.81213,1.61093 -2.51161,0.47085 z m -17.26856,-10.85828 c -1.57213,-0.52068 -4.13994,-1.869731 -5.67375,-2.980826 -0.99203,-0.718622 -0.99203,-0.718622 0.23256,-2.203925 1.50672,-1.827491 1.50945,-1.768667 -0.0916,-1.977493 -2.82564,-0.36854 -2.7734,-0.272949 -1.79527,-3.284501 2.30014,-7.081838 5.56815,-9.345233 13.09722,-9.070997 3.60188,0.131193 5.03915,0.359169 8.99678,1.427048 2.93553,0.792088 2.89617,0.544335 0.62267,3.920353 -3.09174,4.591063 -4.94218,8.362768 -5.59402,11.402104 -0.53324,2.486487 -5.9893,4.028527 -9.79454,2.768237 z m 33.13954,-3.151825 c -3.46556,-0.964299 -7.19921,-3.927488 -11.44262,-9.081335 -1.15271,-1.40003 -2.09585,-2.597471 -2.09585,-2.660987 0,-0.06349 1.21283,-0.539293 2.69516,-1.057293 4.39488,-1.535801 8.8639,-3.800996 11.3455,-5.750649 3.17956,-2.498005 8.657621,-0.266135 11.240341,4.579522 1.20123,2.253768 2.31428,5.318052 1.96751,5.416753 -0.1633,0.04652 -1.06814,0.280888 -2.01076,0.520899 -1.71381,0.436387 -1.71381,0.436387 -0.32172,1.844321 1.58907,1.607143 1.61084,1.503715 -0.68453,3.25036 -3.86856,2.943734 -7.292471,3.884618 -10.693031,2.938409 z m -12.76812,-16.627001 c -0.0582,-5.208295 -0.77381,-9.554116 -2.16377,-13.139615 -1.14313,-2.948785 3.05474,-7.396309 7.991,-8.466225 4.57572,-0.991779 5.90001,-0.656281 5.75509,1.457995 -0.0767,1.118629 -0.0636,2.033883 0.0289,2.033883 0.0925,0 0.83882,-0.338464 1.65832,-0.752139 1.94657,-0.982633 1.84826,-1.020138 2.593,0.989069 3.531021,9.526165 -0.3156,15.428178 -13.07735,20.065152 -2.94431,1.069811 -2.7471,1.224749 -2.78521,-2.18812 z m -3.52819,1.020026 c -4.06681,-1.347091 -6.95512,-1.869375 -11.14488,-2.015301 -5.19285,-0.180865 -7.36264,-2.073188 -8.20483,-7.155617 -0.35956,-2.169879 0.85529,-9.263695 1.51646,-8.855063 2.97292,1.837356 4.0315,1.159063 3.14747,-2.01676 -0.1388,-0.498575 -0.0306,-0.543084 1.6904,-0.69532 9.86125,-0.872299 14.63838,4.703483 15.17531,17.712333 0.0886,2.148359 0.0578,3.687656 -0.0735,3.673291 -0.12435,-0.01356 -1.07225,-0.304996 -2.10644,-0.647563 z m 0.47672,364.00457 c -8.3349,-5.59145 -8.75686,-12.48603 -1.43776,-23.49179 2.1749,-3.27038 1.44877,-3.41669 4.66598,0.94018 1.49465,2.02411 6.37051,6.71653 8.05212,7.74919 3.60742,2.21529 2.73314,8.27984 -1.83659,12.73984 -3.21065,3.13354 -3.43772,3.19922 -4.61499,1.33515 -1.19644,-1.89442 -1.23489,-1.89017 -2.31716,0.25658 -0.81212,1.61095 -0.81212,1.61095 -2.5116,0.47085 z m -17.26855,-10.85827 c -1.57215,-0.52068 -4.13995,-1.86973 -5.67376,-2.98082 -0.99204,-0.71862 -0.99204,-0.71862 0.23256,-2.20392 1.50671,-1.8275 1.50945,-1.76867 -0.0916,-1.97749 -2.82565,-0.36855 -2.77341,-0.27295 -1.79527,-3.2845 2.30013,-7.08185 5.56814,-9.34524 13.09721,-9.071 3.60187,0.13119 5.03914,0.35917 8.99677,1.42704 2.93553,0.79209 2.89617,0.54433 0.62268,3.92036 -3.09175,4.59105 -4.94219,8.36276 -5.59401,11.4021 -0.53326,2.48648 -5.9893,4.02852 -9.79455,2.76823 z m 33.13954,-3.15182 c -3.46556,-0.9643 -7.19922,-3.92749 -11.44263,-9.08133 -1.15271,-1.40003 -2.09584,-2.59748 -2.09584,-2.66099 0,-0.0635 1.21282,-0.53929 2.69516,-1.05729 4.39486,-1.5358 8.86389,-3.801 11.34549,-5.75066 3.17956,-2.49799 8.657621,-0.26614 11.240341,4.57953 1.20124,2.25376 2.31427,5.31805 1.9675,5.41675 -0.1633,0.0465 -1.06814,0.28088 -2.01074,0.5209 -1.71381,0.43639 -1.71381,0.43639 -0.32174,1.84432 1.58907,1.60715 1.61086,1.50372 -0.68453,3.25037 -3.86854,2.94373 -7.292461,3.88461 -10.693011,2.9384 z m -12.76813,-16.627 c -0.0582,-5.20829 -0.7738,-9.55412 -2.16376,-13.13961 -1.14314,-2.94879 3.05474,-7.39632 7.991,-8.46623 4.57572,-0.99178 5.9,-0.65628 5.75509,1.458 -0.0767,1.11862 -0.0638,2.03389 0.0289,2.03389 0.0925,0 0.83881,-0.33848 1.65831,-0.75216 1.94658,-0.98262 1.84826,-1.02013 2.593,0.98907 3.531011,9.52617 -0.31559,15.42819 -13.07735,20.06516 -2.94432,1.06981 -2.7471,1.22475 -2.78521,-2.18812 z m -3.52819,1.02002 c -4.06681,-1.34709 -6.95512,-1.86937 -11.14489,-2.01529 -5.19284,-0.18087 -7.36263,-2.0732 -8.20481,-7.15563 -0.35957,-2.16987 0.85528,-9.26368 1.51645,-8.85506 2.97292,1.83737 4.0315,1.15907 3.14747,-2.01676 -0.1388,-0.49857 -0.0306,-0.54308 1.6904,-0.69532 9.86125,-0.87229 14.63838,4.70349 15.1753,17.71235 0.0886,2.14835 0.0578,3.68764 -0.0735,3.67327 -0.12437,-0.0135 -1.07225,-0.30499 -2.10645,-0.64756 z"
       inkscape:label="sakura" /></g><g
     inkscape:groupmode="layer"
     id="layer2"
     inkscape:label="letterpanel-up"
     inkscape:highlight-color="#6040ff"><rect
       style="fill:none;stroke:#ff0000;stroke-width:0.184889"
       id="rect993-2"
       width="126.81512"
       height="482.41513"
       x="-152.30756"
       y="12.792439"
       inkscape:label="frame1"
       transform="scale(-1,1)" /><path
       id="path499"
       style="fill:#0000ff;stroke-width:0.222813"
       d="m 93.570764,445.54529 c 0.05302,-0.1421 0.06823,-1.05708 0.03378,-2.03313 l -0.06268,-1.77463 1.111667,-0.71012 c 1.77112,-1.13141 1.40894,-1.94161 -0.508246,-1.13683 -0.847008,0.35557 -1.206833,0.41505 -1.395949,0.23084 -0.365594,-0.35606 -0.456217,-4.2847 -0.156832,-6.79771 0.228999,-1.92213 0.746906,-4.34163 0.977496,-4.56664 0.144221,-0.14071 3.200371,0.92863 6.012051,2.10355 1.436389,0.60022 3.209259,1.24226 3.939789,1.42679 1.21058,0.30574 1.39742,0.30341 2.11055,-0.0268 1.31008,-0.60664 3.17483,-3.23985 1.97662,-2.79118 -0.46722,0.17495 -2.05401,-0.18684 -8.049659,-1.83522 l -5.340989,-1.46844 0.337519,-0.63692 c 0.21631,-0.40815 0.45663,-0.5923 0.66915,-0.51269 0.18241,0.0682 0.3895,-0.0228 0.46022,-0.20279 0.15647,-0.39772 -0.75304,-1.18704 -1.38624,-1.20316 -0.716302,-0.0183 -4.398451,-4.57119 -4.398451,-5.43868 0,-0.43409 0.485362,-0.35742 3.060602,0.48329 2.884339,0.94166 3.620419,0.96789 4.633869,0.165 1.24724,-0.988 1.11158,-1.20411 -1.1026,-1.75665 -1.08232,-0.27007 -2.881385,-0.75575 -3.997914,-1.07923 -1.116529,-0.32351 -2.504599,-0.59724 -3.084613,-0.60824 -1.167401,-0.0222 -1.708656,0.33992 -2.795095,1.86968 -0.509022,0.71671 -0.564579,0.93845 -0.371026,1.48022 0.285931,0.80033 1.55755,2.43693 2.683494,3.45366 0.880383,0.79503 2.921299,1.86792 3.553281,1.86792 0.477287,0 0.43317,0.21427 -0.199609,0.96947 -0.623953,0.74461 -0.836837,0.75747 -4.072088,0.24507 -2.424911,-0.38403 -9.806813,-0.40428 -9.736103,-0.0266 0.02023,0.10849 -0.797932,0.71354 -1.818353,1.34436 -1.02042,0.63085 -1.786545,1.21406 -1.702537,1.29605 0.08404,0.082 0.130548,0.47169 0.103371,0.86603 -0.05201,0.75366 0.604678,1.68858 1.186058,1.68858 0.16926,0 1.155037,-0.39408 2.190446,-0.87577 2.951163,-1.37289 4.268301,-1.61762 7.969989,-1.48084 1.738316,0.0642 3.398367,0.18901 3.689012,0.27726 0.616944,0.18735 0.613394,0.22786 -0.305803,3.50998 -0.560386,2.00099 -0.618997,2.571 -0.64507,6.27284 -0.02455,3.4825 0.02839,4.18023 0.366034,4.82093 0.217109,0.41204 0.39473,0.90999 0.39473,1.10657 0,0.48694 0.649361,1.35681 0.975624,1.30687 0.145645,-0.0224 0.417224,0.0156 0.603304,0.0854 0.774845,0.28856 1.997885,0.34231 2.091346,0.0918 z m 14.791906,-24.11117 c 0.16747,-0.10518 0.37481,-0.52595 0.4608,-0.93502 0.12361,-0.58816 0.0124,-1.0201 -0.52698,-2.06436 -0.59309,-1.14625 -0.68903,-1.58209 -0.72683,-3.3015 -0.0239,-1.08949 -0.0506,-2.06184 -0.0594,-2.16079 -0.0376,-0.42537 -1.12614,0.20656 -2.32795,1.35154 -1.05211,1.00239 -1.29697,1.37046 -1.29697,1.94962 0,0.89618 0.77048,2.93596 1.35917,3.59829 0.24494,0.27556 0.44534,0.58262 0.44534,0.68239 0,0.53129 2.11786,1.22845 2.67287,0.87983 z m -27.896905,-4.56949 c -1.462314,-1.58098 -2.138095,-3.10051 -1.639567,-3.68665 0.457425,-0.53779 2.377119,-1.21138 3.874433,-1.35946 1.94244,-0.1921 7.490272,0.5753 11.46741,1.58619 5.21295,1.32502 5.27471,1.33564 6.766059,1.16408 1.28668,-0.14799 2.14985,-0.42599 1.32296,-0.42599 -0.19256,0 -1.65588,-0.39022 -3.251869,-0.86723 -7.985668,-2.38659 -15.631092,-3.52553 -19.384553,-2.88773 -2.062946,0.35055 -3.090405,0.9513 -4.289811,2.50822 -1.287399,1.67114 -1.384766,2.53522 -0.38428,3.41094 0.469067,0.41056 0.740816,0.48521 1.356366,0.37252 1.11019,-0.20323 3.001633,0.24299 4.216465,0.99476 0.578044,0.35772 1.106319,0.65041 1.173913,0.65041 0.06767,0 -0.484791,-0.65704 -1.227526,-1.46006 z M 100.953,409.52514 c 2.91824,-2.01229 3.71764,-2.72736 3.75255,-3.35642 0.0304,-0.54605 0.0182,-0.55019 -0.78948,-0.2649 -0.45112,0.15946 -1.18874,0.34738 -1.6391,0.41772 -1.27479,0.19907 -3.541859,1.73675 -3.943529,2.67484 -0.43203,1.00889 -0.3327,1.71783 0.25116,1.79287 0.25878,0.0332 1.26867,-0.50576 2.368399,-1.26411 z m -6.799544,-0.27954 c 1.131425,-1.47864 1.868005,-2.91198 1.706955,-3.32151 -0.0692,-0.17636 -0.0178,-0.38599 0.11491,-0.46591 0.1325,-0.0799 0.24095,-0.24142 0.24095,-0.35889 0,-0.11751 -0.66385,0.13017 -1.47524,0.55038 -1.413797,0.73206 -1.511382,0.75144 -2.342759,0.46522 -0.477119,-0.1643 -1.178512,-0.45559 -1.558637,-0.64739 -0.380123,-0.19181 -0.7525,-0.34875 -0.827514,-0.34875 -0.07495,0 0.270623,0.55466 0.768117,1.23255 0.683097,0.93084 0.87582,1.37531 0.78723,1.81582 -0.06445,0.32079 0.04291,0.95467 0.238741,1.40863 0.532337,1.23419 1.22486,1.1368 2.347314,-0.33015 z m -7.324431,-1.14402 c -0.824011,-0.88781 -1.68699,-1.90508 -1.917715,-2.26068 l -0.419526,-0.64656 0.754667,-1.46366 c 0.692169,-1.34239 0.720718,-1.47414 0.344491,-1.59067 -0.225596,-0.0699 -0.618159,-0.0186 -0.872371,0.11438 -0.254216,0.13277 -0.58793,0.21407 -0.741609,0.18068 -0.998882,-0.21699 -3.550041,2.43588 -3.550041,3.69164 0,0.69417 0.374833,1.41155 0.741011,1.41807 0.150796,0.005 0.527783,0.19857 0.837912,0.43531 0.420885,0.32124 0.92272,0.43167 1.97864,0.4353 1.076301,0.005 1.764871,0.15981 2.878708,0.65265 l 1.46405,0.64775 z M 75.023534,395.02205 c 1.456204,-0.0932 2.343694,-0.25991 2.742437,-0.51493 0.522672,-0.33427 0.621502,-0.33943 0.87132,-0.0459 0.195515,0.2299 0.353799,0.2611 0.516931,0.10191 0.381698,-0.37243 0.888908,-0.27794 0.726399,0.13536 -0.07888,0.20065 0.14262,0.0767 0.492128,-0.27513 0.349568,-0.35194 0.605637,-0.70573 0.569035,-0.78618 -0.03661,-0.0804 0.01059,-0.17949 0.104084,-0.22009 0.0938,-0.0406 0.547376,-0.61855 1.007899,-1.28437 0.460507,-0.66579 1.142153,-1.60672 1.514745,-2.09095 0.372585,-0.48421 1.104674,-1.47464 1.626908,-2.20098 0.522227,-0.72632 1.018713,-1.37011 1.1033,-1.43063 0.275513,-0.19716 3.76654,-5.20459 5.49204,-7.87766 l 0.609732,-0.94454 1.363587,2.59529 c 0.750002,1.42737 2.006912,3.83352 2.793172,5.34692 1.92512,3.70542 3.21164,5.34526 5.265539,6.71149 1.42536,0.94811 1.79732,1.09671 2.70352,1.07998 0.9845,-0.0181 2.74988,-0.50044 2.7364,-0.74756 -0.005,-0.0612 -0.42196,-0.35882 -0.93029,-0.66145 -1.2724,-0.75754 -4.50495,-3.92179 -5.56887,-5.45121 -1.430639,-2.05655 -2.901949,-5.12803 -4.101719,-8.56257 -0.61931,-1.773 -1.09246,-3.25638 -1.05136,-3.29646 0.041,-0.0402 0.92969,0.26862 1.9747,0.68606 2.627259,1.04939 3.951589,1.18686 5.299449,0.55019 0.97461,-0.46036 4.15858,-3.30277 4.15858,-3.71248 0,-0.10033 -0.53288,-0.0866 -1.18419,0.0304 -0.6513,0.11717 -1.74478,0.16447 -2.42998,0.10537 -1.27845,-0.11023 -8.698689,-2.44662 -9.163389,-2.8852 -0.411269,-0.38817 -0.972907,-3.22753 -1.128153,-5.70341 l -0.142619,-2.27407 1.013677,-1.30578 c 0.557555,-0.71818 1.287375,-1.77745 1.621855,-2.35395 0.53927,-0.92953 0.56579,-1.06409 0.23424,-1.1882 -0.20564,-0.0771 -0.89791,0.0211 -1.53838,0.21817 -2.282078,0.70194 -4.550886,2.52752 -5.537987,4.45616 l -0.54239,1.05969 0.488988,2.44824 c 0.268937,1.34655 0.488979,2.77488 0.488979,3.17406 0,0.65181 -0.05172,0.71003 -0.50751,0.57107 -0.27913,-0.0851 -2.314957,-0.25973 -4.524033,-0.38807 l -4.016563,-0.23326 -1.276465,0.85759 c -1.672395,1.12358 -1.922417,1.84525 -1.086761,3.13696 0.32453,0.50161 0.725139,0.91206 0.89024,0.91206 0.16518,0 0.899729,-0.2069 1.632475,-0.45979 1.17479,-0.40539 1.6657,-0.44515 4.151831,-0.33619 4.149577,0.18192 6.295328,0.79356 6.654138,1.89677 0.09892,0.3041 0.0037,0.57633 -0.290578,0.83123 -0.716843,0.62073 -3.638535,3.93722 -5.957008,6.76186 -3.975627,4.84364 -5.478633,5.97279 -12.454712,9.35672 -3.316691,1.60885 -3.769798,1.89567 -3.400542,2.15262 0.123265,0.0858 0.372532,0.43674 0.55403,0.77996 0.63953,1.20938 1.885309,1.50174 5.431185,1.27467 z m 19.939977,-51.00037 c 0.36615,-0.35724 0.38194,-0.44039 0.89614,-4.71249 0.54198,-4.50319 0.72845,-9.14652 0.64441,-16.04562 l -0.0763,-6.25121 0.56158,-0.79194 c 0.95443,-1.34591 1.58929,-3.54319 1.02376,-3.54319 -0.12824,0 -0.73386,0.24761 -1.3459,0.55024 -0.61204,0.30265 -1.24881,0.55024 -1.41506,0.55024 -0.35193,0 -2.606576,2.22683 -2.995713,2.95876 -0.279729,0.5261 -0.221119,1.91715 0.134974,3.20402 0.11723,0.42369 0.215526,1.41414 0.218355,2.20097 0.0037,0.78686 0.142799,2.07445 0.31105,2.86131 0.220043,1.02911 0.285461,2.82052 0.233112,6.38284 -0.04796,3.25886 0.01244,5.18958 0.17874,5.64627 0.193469,0.53379 0.166424,1.31515 -0.11686,3.38436 -0.407397,2.97485 -0.335736,3.3346 0.736694,3.69941 0.533208,0.18137 0.749348,0.16136 1.010928,-0.0939 z M 82.269007,334.9411 c 0.06995,-0.17347 4.38534,-2.89518 4.590391,-2.89518 0.219582,0 2.169932,-1.30162 2.943989,-1.96478 0.956006,-0.81907 1.525218,-2.10977 1.195507,-2.71092 -0.116697,-0.2126 -0.299264,-0.38656 -0.405879,-0.38656 -0.480584,0 -3.37565,0.9813 -4.916489,1.66648 -0.933322,0.41504 -1.946817,0.7546 -2.252209,0.7546 -0.66095,0 -3.390571,2.44935 -3.588897,3.22039 -0.174057,0.6763 0.307189,2.01579 0.820293,2.28379 0.511281,0.26698 1.510446,0.28694 1.613294,0.0321 z m -1.062574,-19.01741 c 1.021068,-1.00995 3.506147,-4.7913 3.506147,-5.33505 0,-0.44753 -0.553329,-0.41859 -2.167298,0.11317 -1.907491,0.62857 -2.929985,1.51497 -3.353722,2.90729 -0.280451,0.92146 -0.293453,1.27222 -0.07083,1.91394 0.563711,1.62529 0.801396,1.67096 2.085748,0.40057 z m -3.88149,-3.52159 c 1.533033,-1.53451 3.101978,-3.6341 3.101978,-4.15107 0,-0.30951 -0.162694,-0.416 -0.635754,-0.416 -0.91161,0 -3.012927,0.6397 -3.504739,1.06692 -0.702911,0.61062 -1.272978,1.94428 -1.272978,2.97817 0,2.0621 0.630615,2.2045 2.311493,0.52198 z m 23.008827,-19.08179 c 1.82469,-1.12918 3.04482,-3.68104 2.29457,-4.79893 -0.40277,-0.60011 -0.36325,-0.59837 -1.27514,-0.0559 -0.40619,0.24165 -1.00528,0.43975 -1.33129,0.4402 -1.273189,0.002 -3.500539,-1.20368 -7.8658,-4.25702 -6.669689,-4.66516 -9.923278,-7.63325 -16.398542,-14.95949 -0.613528,-0.69416 -1.046904,-0.68279 -1.154427,0.03 -0.07817,0.51823 1.536622,3.27092 3.269233,5.57291 3.389091,4.50288 9.403002,10.76084 13.155927,13.6898 2.737213,2.13626 7.17214,4.98668 7.75871,4.98668 0.27429,0 0.97034,-0.29184 1.546759,-0.64852 z m -3.822989,-22.85459 c 2.87733,-1.90556 6.246709,-5.06224 6.246709,-5.85237 0,-0.34046 -0.76042,-0.6895 -1.08102,-0.49615 -0.10053,0.0606 -1.08498,0.2274 -2.187649,0.37059 -3.80127,0.4936 -5.01724,1.18952 -6.346424,3.63221 -0.670881,1.23287 -0.630521,1.98509 0.147227,2.74403 0.706979,0.68985 1.777997,0.55742 3.221137,-0.39831 z m 1.16254,-24.07994 c -0.24313,-0.27971 -0.56213,-0.58403 -0.70885,-0.67628 -0.27457,-0.17261 -2.83695,-3.2529 -4.515075,-5.42769 -0.521019,-0.67522 -1.032613,-1.3267 -1.136896,-1.44776 -0.588034,-0.68271 -3.435413,-4.73328 -3.758538,-5.34672 -0.209924,-0.39858 -0.8293,-1.39985 -1.376396,-2.22509 -0.877669,-1.3239 -3.49503,-6.19706 -3.49503,-6.50728 0,-0.24764 1.109918,-0.0861 3.60898,0.52492 5.262396,1.28686 8.925025,2.44087 9.962575,3.139 1.0551,0.70993 3.74386,1.72126 4.576239,1.72126 1.13198,0 2.67841,-0.77005 4.03667,-2.01009 1.38132,-1.26105 1.2877,-1.39701 -1.08238,-1.57191 -1.01301,-0.0746 -2.23533,-0.35329 -3.19485,-0.72806 -2.350269,-0.91791 -5.685959,-1.85408 -10.125368,-2.84173 -1.975794,-0.43955 -5.895536,-0.84233 -6.801429,-0.69888 -0.552832,0.0874 -0.99447,-0.002 -1.502058,-0.30377 -1.161631,-0.69115 -1.76474,-0.56207 -2.87865,0.61605 -0.929188,0.98277 -1.550962,2.15075 -1.558674,2.92797 -0.0018,0.188 0.319609,0.77038 0.714351,1.29418 0.39477,0.5238 1.085222,1.65759 1.534338,2.51949 2.253409,4.32448 4.496969,7.97077 5.636985,9.16125 1.526077,1.59362 2.345526,2.69764 3.164009,4.26282 0.181733,0.34757 0.48436,0.68597 0.672436,0.75206 0.297296,0.10431 1.098363,0.70867 2.541221,1.91706 0.21711,0.18183 0.601843,0.33057 0.855004,0.33057 0.25315,0 0.735288,0.18859 1.071427,0.4191 0.411909,0.28246 1.196499,0.4662 2.406579,0.56361 l 1.79548,0.14454 z m 1.26281,-26.56997 c 1.162119,-0.36208 1.535749,-0.70087 2.332059,-2.1145 0.44694,-0.7934 0.81261,-1.50008 0.81261,-1.57038 0,-0.0703 -0.53289,-0.0684 -1.1842,0.005 -1.325789,0.14748 -2.809309,-0.10832 -6.823217,-1.17654 -1.488703,-0.39619 -3.760275,-0.9457 -5.047904,-1.22112 -1.287657,-0.27544 -2.40418,-0.59724 -2.481178,-0.71512 -0.155577,-0.23831 -0.657842,-0.0636 -1.718934,0.59712 -0.372174,0.23186 -0.860317,0.42876 -1.084713,0.43763 -0.224451,0.009 -0.351898,0.10484 -0.28328,0.21309 0.06863,0.10832 -0.01059,0.24785 -0.176711,0.30996 -0.16589,0.0621 -0.480002,0.4799 -0.698148,0.92844 -0.571793,1.17585 -0.244312,1.40017 2.251537,1.54213 2.048627,0.11645 2.429023,0.16359 3.036374,0.37552 0.997959,0.34829 4.446188,1.2742 4.736785,1.2719 0.1861,-0.002 0.84586,0.18471 1.466153,0.41371 1.770147,0.65356 3.992447,0.97538 4.862747,0.70423 z m -3.94976,-22.78563 c 0.2472,-0.36815 0.46101,-1.32757 0.58161,-2.60959 0.10479,-1.11507 0.28679,-2.52263 0.40427,-3.12791 0.34888,-1.79764 0.56017,-7.92985 0.51072,-14.8219 l -0.0463,-6.45814 0.56091,-0.65048 c 0.54436,-0.63128 1.24871,-2.49878 1.24871,-3.31073 0,-0.56476 -0.38218,-0.50504 -2.28025,0.35614 -1.08423,0.49194 -2.029978,1.12676 -2.705078,1.81581 -1.609926,1.64313 -1.653275,1.78235 -1.352766,4.34349 0.143153,1.22012 0.374156,3.20885 0.513281,4.41938 0.139256,1.21055 0.305794,4.6771 0.370307,7.70348 0.168898,7.92286 0.16872,7.96207 -0.03401,10.0145 -0.210693,2.13325 -0.04225,2.54793 1.12554,2.7717 0.601166,0.11525 0.773016,0.0458 1.103076,-0.44575 z m -12.822558,-8.78097 c 0.09928,-0.16066 1.733161,-1.2089 3.631022,-2.32922 2.984885,-1.76201 3.499918,-1.99738 3.815566,-1.74367 0.324587,0.26088 0.348084,0.22736 0.212707,-0.30317 -0.11634,-0.45575 -0.05256,-0.64847 0.269967,-0.81696 0.547654,-0.28598 0.989696,-1.34139 0.896169,-2.13952 -0.131958,-1.12647 -1.526999,-0.93405 -5.487143,0.75691 -0.99245,0.42376 -1.956735,0.78754 -2.142831,0.80837 -0.640044,0.0718 -1.113525,0.3803 -2.322036,1.51335 -1.647822,1.54494 -1.82399,1.90436 -1.481021,3.0214 0.380052,1.23774 2.102016,2.05165 2.6076,1.23251 z m 9.332969,-37.97623 c 0.530079,-0.42061 0.54563,-0.51869 0.516615,-3.25754 -0.01602,-1.55316 -0.14333,-5.27142 -0.281949,-8.26284 -0.430499,-9.29094 -0.229982,-20.17623 0.411921,-22.36021 0.116153,-0.39535 0.475938,-1.02574 0.799428,-1.40088 0.653318,-0.7576 0.66617,-1.3478 0.03195,-1.46699 -0.649033,-0.122 -3.229819,1.26487 -4.097151,2.20165 -0.745511,0.80518 -0.781655,0.92058 -0.781655,2.49576 0,0.90837 0.17139,2.66614 0.38079,3.90614 0.48212,2.85447 0.509261,12.25126 0.0549,18.98208 -0.423913,6.27908 -0.410479,6.57319 0.37231,8.14365 0.570814,1.14521 0.75043,1.32938 1.352273,1.38673 0.436842,0.0416 0.896581,-0.0947 1.240588,-0.36755 z m 2.264139,-50.432308 c 0.314721,-0.17947 0.385539,-1.023181 0.52146,-6.211124 0.0865,-3.301874 0.25122,-6.85062 0.36605,-7.886069 0.11492,-1.035468 0.2302,-3.239197 0.2564,-4.897195 0.0305,-1.932926 0.13268,-3.014057 0.28476,-3.01316 0.13035,8.3e-4 1.40445,0.315267 2.83112,0.698862 4.233219,1.138202 6.559579,1.039282 7.426859,-0.315852 0.7477,-1.168261 1.10049,-1.894658 0.97812,-2.01406 -0.0739,-0.07214 -0.4576,-0.131192 -0.85262,-0.131192 -0.39501,0 -1.01248,-0.09948 -1.37217,-0.221223 -0.62872,-0.212704 -6.169619,-1.396943 -8.156019,-1.743154 -0.52844,-0.09219 -1.0178,-0.223099 -1.08749,-0.291084 -0.0696,-0.0679 -0.22323,-1.786575 -0.34124,-3.819081 l -0.21453,-3.69546 0.53482,-0.452401 c 0.61178,-0.517471 1.95645,-2.194991 1.95645,-2.440687 0,-0.09031 0.17762,-0.29701 0.39474,-0.459362 0.34549,-0.25838 0.35253,-0.323545 0.0563,-0.522348 -0.18608,-0.124948 -0.54135,-0.168285 -0.78947,-0.09652 -0.24811,0.07194 -0.70485,0.179669 -1.01503,0.239519 -1.356795,0.261943 -3.832706,1.46737 -4.546719,2.213663 -0.322704,0.337304 -0.863773,1.049302 -1.202365,1.582216 -0.539963,0.849809 -0.596887,1.106712 -0.463243,2.089881 0.08385,0.616542 0.301015,1.281222 0.482627,1.477059 0.324727,0.350109 0.427519,0.666517 0.700176,2.154516 0.129118,0.704965 0.105678,0.740089 -0.409335,0.613945 -0.300491,-0.07363 -1.102833,-0.248315 -1.783016,-0.388274 -1.436927,-0.295664 -1.827086,-0.539779 -1.63665,-1.024066 0.11828,-0.300878 -0.03379,-0.331454 -1.110224,-0.223032 -1.467514,0.147831 -3.181695,0.941039 -4.342942,2.009729 -0.717547,0.66033 -0.820438,0.877852 -0.759079,1.60487 0.05856,0.693984 0.149905,0.831345 0.522077,0.785806 1.677833,-0.205252 3.732007,-0.0057 6.450923,0.627796 1.66245,0.387135 3.066897,0.740453 3.120954,0.785166 0.05397,0.04472 0.201014,0.698427 0.326573,1.452687 0.266088,1.598693 0.275176,5.192811 0.03214,12.706506 -0.21308,6.586592 -0.190259,7.531962 0.188629,7.813492 0.162874,0.12115 0.259118,0.32742 0.213774,0.45856 -0.04525,0.131191 0.312763,0.354001 0.795821,0.495221 1.041092,0.304378 1.165407,0.307058 1.641307,0.0357 z m 11.782819,-5.194591 c 0.34395,-0.460627 0.40342,-0.869857 0.33625,-2.313416 -0.049,-1.053285 -0.1905,-1.819457 -0.35416,-1.918148 -0.44115,-0.266049 -1.8661,-3.470751 -1.8661,-4.196875 0,-0.429584 -0.15221,-0.746482 -0.42782,-0.890377 -0.35339,-0.184566 -0.5224,-0.09983 -0.97191,0.487479 -0.98745,1.290195 -1.53257,2.296096 -1.53257,2.828096 0,0.742311 1.76812,5.728173 2.1957,6.191531 0.56975,0.61746 2.10115,0.50742 2.62061,-0.18829 z M 80.959976,92.558632 c 2.91828,-2.945849 4.424428,-5.518959 3.664483,-6.260488 -0.300798,-0.293524 -0.438769,-0.297093 -1.086833,-0.02806 -0.408276,0.169489 -1.285402,0.667655 -1.94917,1.107195 -0.663787,0.439556 -1.475814,0.802317 -1.804494,0.806171 -0.763045,0.0086 -1.274582,0.395057 -1.453603,1.097228 -0.07757,0.30466 -0.461662,0.960752 -0.853262,1.457928 -0.575471,0.730624 -0.730838,1.162576 -0.810127,2.252314 -0.07861,1.082466 -0.03275,1.3483 0.233221,1.3483 0.182208,0 0.370693,0.115418 0.418878,0.256438 0.04816,0.141073 0.364189,0.268223 0.702263,0.282673 0.500575,0.0213 1.046114,-0.40923 2.938644,-2.31963 z M 79.30143,70.733536 c 1.269319,-0.842984 1.689397,-1.585821 1.689397,-2.987471 0,-2.340949 -0.882817,-3.24528 -3.417324,-3.500526 -0.917398,-0.09238 -1.389162,-0.01384 -2.200663,0.370317 -1.498707,0.70794 -2.050304,1.571668 -2.050751,3.211059 0,2.318329 1.189866,3.399609 3.744448,3.40103 1.173946,6.59e-4 1.647042,-0.103986 2.234893,-0.494409 z M 75.698562,69.84751 c -1.373195,-0.67806 -1.396376,-3.176132 -0.03677,-3.959858 1.14526,-0.660122 2.035447,-0.498845 3.242514,0.587472 1.110022,0.99897 1.32998,1.66996 0.840199,2.562991 -0.534342,0.974223 -2.795919,1.426653 -4.046004,0.809395 z"
       inkscape:label="up" /></g><g
     inkscape:groupmode="layer"
     id="layer6"
     inkscape:label="patternpanel-up"
     inkscape:highlight-color="#a284de"><rect
       style="fill:none;stroke:#ff0000;stroke-width:0.184889"
       id="rect993-2-6"
       width="126.81512"
       height="482.41513"
       x="178.73346"
       y="13.689568"
       inkscape:label="frame1"
       transform="scale(-1,1)" /><path
       id="path422-2-63-5-0"
       style="display:inline;fill:none;stroke:#ff00ff;stroke-width:0.254;stroke-dasharray:none"
       inkscape:label="sakura"
       d="m -280.19469,376.28359 c -2.92478,2.20619 -5.35306,1.52754 -8.27386,-2.31234 -0.86792,-1.14103 -1.00518,-0.90811 0.88202,-1.49686 0.87675,-0.27351 3.07796,-1.3942 3.63513,-1.8507 1.19525,-0.97935 3.18232,0.0472 4.17425,2.15631 0.6969,1.48191 0.69241,1.56808 -0.0912,1.75126 -0.79638,0.18617 -0.7995,0.19996 -0.18846,0.82984 0.45851,0.47267 0.45851,0.47267 -0.13784,0.9225 z m -5.80915,4.65768 c -0.3675,0.47996 -1.13973,1.2043 -1.70628,1.60047 -0.36643,0.25623 -0.36643,0.25623 -0.73232,-0.34367 -0.45015,-0.7381 -0.42955,-0.732 -0.69295,-0.20482 -0.46488,0.93046 -0.42566,0.92389 -1.34738,0.22654 -2.16746,-1.63984 -2.55741,-3.03751 -1.56281,-5.6014 0.47582,-1.22653 0.72626,-1.69499 1.56764,-2.93225 0.62411,-0.91775 0.53397,-0.93377 1.42651,0.25388 1.21381,1.61512 2.29341,2.70418 3.26371,3.29231 0.7938,0.48115 0.67342,2.54719 -0.21612,3.70891 z m 2.87448,-11.80611 c -0.74688,1.07992 -2.21513,2.01341 -4.49987,2.86081 -0.62065,0.23019 -1.14637,0.41233 -1.16828,0.40472 -0.0219,-0.008 -0.041,-0.48274 -0.0425,-1.05589 -0.004,-1.69933 -0.25131,-3.51141 -0.62707,-4.60033 -0.48144,-1.39521 0.94315,-3.01771 2.92309,-3.3292 0.92088,-0.14487 2.11076,-0.16244 2.10336,-0.0311 -0.003,0.0619 -0.0308,0.40197 -0.0607,0.75576 -0.0544,0.64323 -0.0544,0.64323 0.59761,0.33143 0.74424,-0.35593 0.71117,-0.37579 1.03918,0.62463 0.5528,1.6861 0.468,2.97943 -0.26483,4.03913 z m -7.26071,2.41594 c -1.80322,-0.60257 -3.38758,-0.87521 -4.79032,-0.82445 -1.15364,0.0417 -2.18572,-1.93769 -1.96464,-3.76803 0.20494,-1.69667 0.47895,-2.11328 1.19084,-1.81054 0.37663,0.16016 0.69384,0.26509 0.70494,0.23307 0.0107,-0.0321 -0.0165,-0.32975 -0.0612,-0.66183 -0.1062,-0.78882 -0.1309,-0.7594 0.65108,-0.77607 3.70753,-0.079 5.28323,1.95315 5.35691,6.90878 0.017,1.14333 0.094,1.09384 -1.08759,0.69901 z m -0.07,1.33876 c -0.95073,1.24155 -1.47614,2.17525 -2.0273,3.6028 -0.68313,1.76931 -1.59515,2.29144 -3.44868,1.97435 -0.79135,-0.13536 -3.09267,-1.40237 -2.8727,-1.58155 0.98905,-0.80567 0.88166,-1.25186 -0.3193,-1.3266 -0.18855,-0.0117 -0.19103,-0.0541 -0.0377,-0.66612 0.87798,-3.50526 3.37203,-4.48629 7.92278,-3.1164 0.75154,0.22626 1.27873,0.4209 1.25809,0.46443 -0.0198,0.041 -0.23334,0.33334 -0.47513,0.64907 z m 82.72538,-226.55352 c -2.73199,-2.44087 -2.53761,-4.9547 0.66225,-8.56533 0.95085,-1.0729 0.69571,-1.16234 1.6396,0.57467 0.43851,0.80699 1.96516,2.74879 2.52114,3.20674 1.19274,0.98241 0.57149,3.13094 -1.305,4.51341 -1.31844,0.97132 -1.40384,0.98364 -1.73565,0.25049 -0.33723,-0.7451 -0.35135,-0.74549 -0.85064,-0.0238 -0.37467,0.54154 -0.37467,0.54154 -0.93172,0.0438 z m -5.69675,-4.7945 c -0.54216,-0.26734 -1.40263,-0.88429 -1.90124,-1.36316 -0.32249,-0.30972 -0.32249,-0.30972 0.19497,-0.78508 0.63668,-0.58489 0.63469,-0.56348 0.0664,-0.71953 -1.003,-0.27543 -0.98894,-0.23824 -0.48378,-1.27778 1.18791,-2.44457 2.48329,-3.0984 5.19147,-2.62041 1.29558,0.22866 1.80374,0.3834 3.18079,0.96862 1.02144,0.43409 1.01966,0.34255 0.0279,1.44865 -1.34877,1.50424 -2.20754,2.77471 -2.59614,3.84072 -0.31791,0.87211 -2.36802,1.15507 -3.68032,0.50797 z m 12.13953,0.52803 c -1.20437,-0.52304 -2.40511,-1.78216 -3.67989,-3.85894 -0.34629,-0.56416 -0.62702,-1.04453 -0.62382,-1.06749 0.003,-0.023 0.46561,-0.13395 1.02757,-0.24663 1.66617,-0.3341 3.39583,-0.92816 4.3911,-1.50815 1.27521,-0.74312 3.14338,0.33942 3.8333,2.22122 0.32087,0.87525 0.56908,2.03908 0.43876,2.05732 -0.0614,0.009 -0.40031,0.0478 -0.75317,0.0871 -0.64155,0.0715 -0.64155,0.0715 -0.20912,0.65059 0.49363,0.661 0.5067,0.62469 -0.41102,1.14066 -1.54673,0.86959 -2.83191,1.03747 -4.01371,0.52428 z m -3.77942,-6.65363 c 0.24108,-1.88588 0.20098,-3.49303 -0.12111,-4.85924 -0.26489,-1.1236 1.47655,-2.52028 3.31499,-2.6587 1.70417,-0.12832 2.16605,0.0596 2.00729,0.81663 -0.084,0.40056 -0.12536,0.73212 -0.0918,0.73678 0.0336,0.004 0.32028,-0.0802 0.63738,-0.18848 0.75319,-0.2573 0.71953,-0.27581 0.88768,0.48806 0.79722,3.62167 -0.89042,5.56186 -5.73749,6.59613 -1.11828,0.23861 -1.05479,0.30456 -0.89684,-0.93122 z m -1.32688,0.19124 c -1.40248,-0.69165 -2.42041,-1.02581 -3.9278,-1.28938 -1.86826,-0.32669 -2.55749,-1.11999 -2.60624,-2.99982 -0.0208,-0.80257 0.77536,-3.30606 0.99383,-3.12507 0.98234,0.81385 1.39919,0.62188 1.23938,-0.57074 -0.0251,-0.18723 0.016,-0.19789 0.64612,-0.16632 3.60902,0.18083 5.05553,2.43702 4.59507,7.16713 -0.0761,0.78115 -0.16467,1.3361 -0.21138,1.32431 -0.0441,-0.0114 -0.37229,-0.1642 -0.72895,-0.3401 z m 9.45061,153.70624 c -3.44751,1.23944 -5.56525,-0.1289 -7.21572,-4.6623 -0.49044,-1.34711 -0.69059,-1.16538 1.2863,-1.1679 0.91843,-10e-4 3.35299,-0.41854 4.02047,-0.68925 1.43195,-0.58077 3.02514,0.98895 3.34686,3.29736 0.22602,1.62193 0.19618,1.70289 -0.60651,1.64541 -0.81577,-0.0584 -0.82284,-0.0462 -0.4261,0.7366 0.29768,0.5874 0.29768,0.5874 -0.40526,0.84011 z m -6.92921,2.72511 c -0.49331,0.34937 -1.44564,0.81207 -2.1042,1.02238 -0.42594,0.13601 -0.42594,0.13601 -0.59742,-0.54541 -0.21099,-0.8384 -0.19313,-0.82647 -0.60102,-0.40113 -0.71995,0.7507 -0.68054,0.75606 -1.35396,-0.18329 -1.58355,-2.20892 -1.54141,-3.65935 0.16888,-5.81288 0.8182,-1.03021 1.19631,-1.40331 2.3668,-2.33534 0.86823,-0.69135 0.78691,-0.73338 1.28702,0.66555 0.68015,1.90246 1.38817,3.26273 2.14037,4.11218 0.61536,0.69494 -0.11238,2.63231 -1.30645,3.47792 z m 6.24681,-10.42229 c -1.03358,0.8098 -2.71262,1.26581 -5.1459,1.39742 -0.661,0.0358 -1.21708,0.0538 -1.23574,0.04 -0.0185,-0.0141 0.10403,-0.47318 0.27259,-1.02099 0.5002,-1.62405 0.80147,-3.42794 0.76559,-4.57931 -0.046,-1.47523 1.79575,-2.60219 3.77899,-2.31241 0.92241,0.13478 2.06397,0.47092 2.01794,0.59415 -0.0222,0.0579 -0.14864,0.37475 -0.28213,0.70375 -0.24273,0.59815 -0.24273,0.59815 0.47243,0.49377 0.81631,-0.11918 0.79063,-0.14795 0.80714,0.90474 0.0278,1.77419 -0.43674,2.98417 -1.45091,3.77883 z m -7.65056,0.15371 c -1.54335,-1.11028 -2.97556,-1.84058 -4.33024,-2.20815 -1.11409,-0.30235 -1.51264,-2.49878 -0.75863,-4.18118 0.69894,-1.55955 1.08418,-1.87614 1.67425,-1.37588 0.31218,0.26466 0.584,0.45896 0.60409,0.43167 0.0197,-0.0275 0.082,-0.31981 0.13785,-0.6502 0.13254,-0.78482 0.10024,-0.76405 0.85197,-0.54804 3.56413,1.0242 4.46619,3.43226 3.06673,8.18675 -0.32287,1.09693 -0.23466,1.0725 -1.24598,0.34498 z m -0.46392,1.25776 c -1.2762,0.9037 -2.0549,1.63955 -3.00467,2.83939 -1.17716,1.48708 -2.203,1.71521 -3.87908,0.86263 -0.71559,-0.36398 -2.53756,-2.25654 -2.27434,-2.36242 1.1835,-0.47606 1.21328,-0.93403 0.0885,-1.36161 -0.17658,-0.0671 -0.16638,-0.10832 0.16157,-0.64733 1.87813,-3.08712 4.55093,-3.28427 8.4906,-0.62628 0.65061,0.43898 1.09634,0.78123 1.06373,0.81668 -0.0311,0.0333 -0.32172,0.24913 -0.64627,0.47894 z m -55.22226,-29.04272 c -1.74098,3.22345 -4.23137,3.6172 -8.4855,1.34164 -1.26412,-0.6762 -1.29196,-0.40728 0.17888,-1.72817 0.68333,-0.61365 2.21827,-2.54891 2.53485,-3.19591 0.6791,-1.38801 2.91315,-1.28177 4.693,0.22302 1.25052,1.05732 1.28231,1.13754 0.64607,1.63028 -0.64661,0.50078 -0.64372,0.51462 0.17407,0.83298 0.61365,0.23891 0.61365,0.23891 0.25867,0.89616 z m -3.34311,6.65311 c -0.13435,0.58938 -0.53499,1.56943 -0.88521,2.16548 -0.22652,0.38551 -0.22652,0.38551 -0.80891,-0.008 -0.71655,-0.48373 -0.69528,-0.48676 -0.71532,0.10222 -0.0354,1.03953 -0.002,1.01723 -1.1308,0.76685 -2.65336,-0.58878 -3.58972,-1.69728 -3.75263,-4.4425 -0.0779,-1.31328 -0.0452,-1.84347 0.20477,-3.31868 0.18545,-1.09426 0.0968,-1.0713 1.40273,-0.36297 1.77596,0.96328 3.21093,1.50409 4.33798,1.63495 0.92205,0.10705 1.6726,2.0357 1.34738,3.46226 z m -2.30086,-11.93117 c -0.22956,1.29281 -1.17597,2.75275 -2.90063,4.47431 -0.46849,0.46765 -0.87069,0.8521 -0.89377,0.85429 -0.0232,0.002 -0.23822,-0.42186 -0.47817,-0.94237 -0.71101,-1.54344 -1.69018,-3.08811 -2.48511,-3.92179 -1.01852,-1.06818 -0.39862,-3.13643 1.27197,-4.24383 0.777,-0.51505 1.85158,-1.02633 1.89952,-0.90383 0.0221,0.058 0.13932,0.37831 0.2594,0.71244 0.21829,0.6075 0.21829,0.6075 0.68135,0.0526 0.52853,-0.63343 0.4902,-0.63772 1.20487,0.13537 1.20449,1.30297 1.66576,2.51422 1.44055,3.7828 z m -5.59608,5.21905 c -1.89039,0.20273 -3.44446,0.61435 -4.69876,1.24441 -1.03159,0.51814 -2.79394,-0.852 -3.35483,-2.60825 -0.51993,-1.62799 -0.44421,-2.12085 0.3291,-2.14192 0.40911,-0.0112 0.74122,-0.0478 0.73798,-0.0815 -0.004,-0.0336 -0.15227,-0.29295 -0.33114,-0.57629 -0.42492,-0.67302 -0.43513,-0.63599 0.26894,-0.97666 3.33817,-1.61514 5.61677,-0.42332 7.74662,4.05188 0.49138,1.03249 0.54079,0.95544 -0.69792,1.0883 z m 0.49363,1.24639 c -0.34764,1.52463 -0.4367,2.5923 -0.3436,4.11972 0.11537,1.8931 -0.49653,2.74748 -2.31384,3.23073 -0.77587,0.20633 -3.39574,0.0123 -3.27032,-0.24222 0.56392,-1.14425 0.28054,-1.50525 -0.84253,-1.07329 -0.17631,0.0679 -0.19622,0.0303 -0.31156,-0.58997 -0.66083,-3.5526 1.19851,-5.48279 5.90649,-6.13153 0.77751,-0.10711 1.33788,-0.14959 1.33723,-0.10142 -9.3e-4,0.0455 -0.0734,0.40022 -0.16182,0.78794 z m 7.68775,185.79938 c -2.92478,2.20619 -5.35306,1.52754 -8.27387,-2.31234 -0.86791,-1.14103 -1.00517,-0.90811 0.88202,-1.49686 0.87676,-0.27351 3.07797,-1.3942 3.63514,-1.8507 1.19525,-0.97935 3.18232,0.0472 4.17425,2.15631 0.6969,1.48191 0.69241,1.56808 -0.0912,1.75126 -0.79638,0.18617 -0.7995,0.19996 -0.18846,0.82984 0.45851,0.47267 0.45851,0.47267 -0.13785,0.9225 z m -5.80916,4.65768 c -0.36749,0.47996 -1.13973,1.2043 -1.70628,1.60047 -0.36643,0.25623 -0.36643,0.25623 -0.73231,-0.34367 -0.45015,-0.7381 -0.42955,-0.732 -0.69295,-0.20482 -0.46489,0.93046 -0.42566,0.92389 -1.34738,0.22654 -2.16746,-1.63984 -2.55742,-3.03751 -1.56281,-5.6014 0.47582,-1.22653 0.72626,-1.69499 1.56764,-2.93225 0.62411,-0.91775 0.53397,-0.93377 1.4265,0.25388 1.21382,1.61512 2.29342,2.70418 3.26372,3.29231 0.7938,0.48115 0.67341,2.54719 -0.21612,3.70891 z m 2.87449,-11.80611 c -0.74689,1.07992 -2.21513,2.01341 -4.49987,2.86081 -0.62065,0.23019 -1.14637,0.41233 -1.16828,0.40472 -0.0219,-0.008 -0.041,-0.48274 -0.0425,-1.05589 -0.004,-1.69933 -0.25131,-3.51141 -0.62707,-4.60033 -0.48144,-1.39521 0.94315,-3.01771 2.92309,-3.3292 0.92088,-0.14487 2.11076,-0.16244 2.10335,-0.0311 -0.004,0.0619 -0.0308,0.40197 -0.0607,0.75576 -0.0544,0.64323 -0.0544,0.64323 0.59762,0.33143 0.74424,-0.35593 0.71117,-0.37579 1.03917,0.62463 0.5528,1.6861 0.46801,2.97943 -0.26482,4.03913 z m -7.26071,2.41594 c -1.80322,-0.60257 -3.38759,-0.87521 -4.79033,-0.82445 -1.15363,0.0417 -2.18571,-1.93769 -1.96463,-3.76803 0.20493,-1.69667 0.47895,-2.11328 1.19084,-1.81054 0.37663,0.16016 0.69384,0.26509 0.70493,0.23307 0.0107,-0.0321 -0.0165,-0.32975 -0.0612,-0.66183 -0.1062,-0.78882 -0.13089,-0.7594 0.65109,-0.77607 3.70753,-0.079 5.28323,1.95315 5.35691,6.90878 0.017,1.14333 0.094,1.09384 -1.0876,0.69901 z m -0.07,1.33876 c -0.95073,1.24155 -1.47614,2.17525 -2.0273,3.6028 -0.68313,1.76931 -1.59515,2.29144 -3.44868,1.97435 -0.79135,-0.13536 -3.09267,-1.40237 -2.8727,-1.58155 0.98905,-0.80567 0.88166,-1.25186 -0.3193,-1.3266 -0.18855,-0.0117 -0.19103,-0.0541 -0.0377,-0.66612 0.87797,-3.50526 3.37203,-4.48629 7.92278,-3.1164 0.75154,0.22626 1.27873,0.4209 1.25809,0.46443 -0.0198,0.041 -0.23335,0.33334 -0.47513,0.64907 z m 80.96607,-73.20754 c -2.92477,2.20619 -5.35306,1.52754 -8.27386,-2.31234 -0.86792,-1.14103 -1.00517,-0.90811 0.88202,-1.49686 0.87676,-0.27351 3.07797,-1.3942 3.63513,-1.8507 1.19526,-0.97935 3.18233,0.0472 4.17425,2.15631 0.69691,1.48191 0.69242,1.56808 -0.0912,1.75126 -0.79638,0.18617 -0.7995,0.19996 -0.18845,0.82984 0.45851,0.47267 0.45851,0.47267 -0.13785,0.9225 z m -5.80915,4.65768 c -0.36749,0.47996 -1.13973,1.2043 -1.70628,1.60047 -0.36643,0.25623 -0.36643,0.25623 -0.73231,-0.34367 -0.45016,-0.7381 -0.42956,-0.732 -0.69295,-0.20482 -0.46489,0.93046 -0.42567,0.92389 -1.34739,0.22654 -2.16746,-1.63984 -2.55741,-3.03751 -1.5628,-5.6014 0.47581,-1.22653 0.72625,-1.69499 1.56763,-2.93225 0.62411,-0.91775 0.53398,-0.93377 1.42651,0.25388 1.21381,1.61512 2.29342,2.70418 3.26372,3.29231 0.7938,0.48115 0.67341,2.54719 -0.21612,3.70891 z m 2.87448,-11.80611 c -0.74688,1.07992 -2.21512,2.01341 -4.49987,2.86081 -0.62064,0.23019 -1.14637,0.41233 -1.16827,0.40472 -0.0219,-0.008 -0.041,-0.48274 -0.0425,-1.05589 -0.004,-1.69933 -0.25131,-3.51141 -0.62708,-4.60033 -0.48144,-1.39521 0.94315,-3.01771 2.92309,-3.3292 0.92088,-0.14487 2.11077,-0.16244 2.10336,-0.0311 -0.004,0.0619 -0.0308,0.40197 -0.0607,0.75576 -0.0544,0.64323 -0.0544,0.64323 0.59762,0.33143 0.74423,-0.35593 0.71117,-0.37579 1.03917,0.62463 0.5528,1.6861 0.46801,2.97943 -0.26483,4.03913 z m -7.26071,2.41594 c -1.80321,-0.60257 -3.38758,-0.87521 -4.79032,-0.82445 -1.15364,0.0417 -2.18572,-1.93769 -1.96464,-3.76803 0.20494,-1.69667 0.47895,-2.11328 1.19084,-1.81054 0.37663,0.16016 0.69384,0.26509 0.70494,0.23307 0.0107,-0.0321 -0.0165,-0.32975 -0.0612,-0.66183 -0.1062,-0.78882 -0.1309,-0.7594 0.65108,-0.77607 3.70753,-0.079 5.28323,1.95315 5.35692,6.90878 0.017,1.14333 0.094,1.09384 -1.0876,0.69901 z m -0.07,1.33876 c -0.95073,1.24155 -1.47614,2.17525 -2.0273,3.6028 -0.68313,1.76931 -1.59515,2.29144 -3.44868,1.97435 -0.79135,-0.13536 -3.09267,-1.40237 -2.8727,-1.58155 0.98905,-0.80567 0.88166,-1.25186 -0.3193,-1.3266 -0.18855,-0.0117 -0.19103,-0.0541 -0.0377,-0.66612 0.87798,-3.50526 3.37203,-4.48629 7.92279,-3.1164 0.75153,0.22626 1.27872,0.4209 1.25809,0.46443 -0.0198,0.041 -0.23335,0.33334 -0.47514,0.64907 z m -70.14406,-54.80619 c 0.80886,3.57313 -0.80802,5.50779 -5.50913,6.5919 -1.39694,0.32214 -1.24103,0.54301 -1.00196,-1.41938 0.11109,-0.91168 -0.006,-3.379 -0.19277,-4.07456 -0.40144,-1.49219 1.35121,-2.88161 3.68163,-2.91884 1.63739,-0.0261 1.7141,0.0134 1.55896,0.80304 -0.15766,0.80251 -0.14638,0.81103 0.67901,0.51292 0.61937,-0.22367 0.61937,-0.22367 0.78429,0.50488 z m 1.85793,7.21029 c 0.28647,0.5323 0.62933,1.53404 0.75758,2.21336 0.0829,0.43937 0.0829,0.43937 -0.61433,0.5263 -0.8579,0.10695 -0.84387,0.0907 -0.47157,0.5475 0.65711,0.80628 0.66724,0.76783 -0.34736,1.3214 -2.38588,1.30176 -3.82029,1.08269 -5.74868,-0.87795 -0.92251,-0.93796 -1.2466,-1.35883 -2.02862,-2.63444 -0.58006,-0.94621 -0.63172,-0.87063 0.81785,-1.19604 1.97131,-0.44257 3.4079,-0.97906 4.34291,-1.62182 0.76492,-0.52583 2.59884,0.43321 3.2922,1.72167 z m -9.58082,-7.47361 c 0.67743,1.12479 0.92484,2.84698 0.75812,5.2781 -0.0453,0.66041 -0.0954,1.21453 -0.1113,1.23137 -0.0163,0.0167 -0.45692,-0.16107 -0.98002,-0.39531 -1.55076,-0.69491 -3.30431,-1.21437 -4.45145,-1.31945 -1.46978,-0.13465 -2.36323,-2.10028 -1.83328,-4.03325 0.24649,-0.89902 0.71961,-1.99095 0.83629,-1.9302 0.0548,0.0291 0.35378,0.19331 0.664,0.36601 0.56401,0.314 0.56401,0.314 0.5478,-0.40855 -0.0185,-0.82476 -0.0502,-0.80278 0.9966,-0.69054 1.76429,0.18919 2.90843,0.79814 3.5732,1.90182 z m -0.78234,7.61201 c -1.29056,1.3961 -2.1904,2.72834 -2.72076,4.02794 -0.43622,1.0688 -2.6649,1.19596 -4.24255,0.24201 -1.46245,-0.88428 -1.72959,-1.30532 -1.16097,-1.82983 0.30083,-0.2775 0.52688,-0.52355 0.50225,-0.54682 -0.0249,-0.0229 -0.30738,-0.12051 -0.62848,-0.21627 -0.76275,-0.22746 -0.74608,-0.19285 -0.43982,-0.91256 1.45206,-3.41225 3.95231,-4.01329 8.50015,-2.04332 1.04925,0.4545 1.03579,0.36396 0.19013,1.27881 z m 1.19164,0.61415 c 0.74097,1.37705 1.37615,2.23984 2.45094,3.32911 1.33208,1.35007 1.43315,2.39609 0.38214,3.95543 -0.4487,0.66574 -2.54972,2.24279 -2.62264,1.96861 -0.32787,-1.23281 -0.77877,-1.31834 -1.34059,-0.25426 -0.0882,0.16707 -0.12784,0.1519 -0.62273,-0.23946 -2.83448,-2.24129 -2.70354,-4.91816 0.41597,-8.50349 0.51519,-0.59209 0.90934,-0.99266 0.94054,-0.95596 0.0292,0.0349 0.20795,0.34975 0.39638,0.69995 z m 89.09505,-127.05478 c -2.41828,2.752 -4.93363,2.57835 -8.57051,-0.59164 -1.0807,-0.94197 -1.16803,-0.68611 0.56114,-1.64428 0.80335,-0.44514 2.73249,-1.98776 3.18585,-2.54749 0.97254,-1.20079 3.12613,-0.59722 4.52403,1.26776 0.98214,1.31039 0.99517,1.39569 0.26478,1.73353 -0.74229,0.34335 -0.74256,0.35748 -0.0168,0.8508 0.54461,0.3702 0.54461,0.3702 0.0515,0.93132 z m -4.7474,5.73606 c -0.26286,0.54435 -0.87269,1.40988 -1.34743,1.91242 -0.30706,0.32502 -0.30706,0.32502 -0.78668,-0.1885 -0.59009,-0.63184 -0.56868,-0.63003 -0.72005,-0.0605 -0.26715,1.00524 -0.23006,0.99087 -1.27374,0.49429 -2.45426,-1.16772 -3.11877,-2.45767 -2.66311,-5.16971 0.21799,-1.2974 0.36854,-1.80682 0.94237,-3.18865 0.42565,-1.02499 0.33414,-1.02245 1.44837,-0.0398 1.51532,1.33633 2.79282,2.18461 3.862,2.5644 0.87469,0.31071 1.17454,2.35841 0.53827,3.676 z m 0.42797,-12.14346 c -0.51311,1.20863 -1.76228,2.41971 -3.82848,3.71157 -0.56129,0.35093 -1.03933,0.63561 -1.06232,0.63258 -0.0231,-0.003 -0.13776,-0.46448 -0.25512,-1.02549 -0.34751,-1.66342 -0.95611,-3.38806 -1.54429,-4.37851 -0.7536,-1.26905 0.31351,-3.14609 2.18957,-3.85148 0.87257,-0.32807 2.03432,-0.58587 2.05362,-0.45574 0.009,0.0614 0.0511,0.39989 0.0934,0.75242 0.0768,0.64094 0.0768,0.64094 0.65229,0.20375 0.6569,-0.49906 0.6205,-0.51183 1.14401,0.40161 0.88231,1.5395 1.06077,2.82326 0.55734,4.00925 z m -6.62225,3.83412 c -1.88781,-0.22552 -3.49457,-0.17218 -4.85809,0.16116 -1.12137,0.2741 -2.53235,-1.45572 -2.68593,-3.29296 -0.14236,-1.70306 0.0418,-2.16647 0.80016,-2.01393 0.40124,0.0807 0.73311,0.11933 0.7375,0.0857 0.004,-0.0336 -0.0828,-0.31961 -0.19376,-0.63579 -0.2635,-0.75105 -0.28173,-0.71725 0.48073,-0.89169 3.61497,-0.82701 5.56902,0.84456 6.64319,5.68294 0.24782,1.11628 0.31322,1.05224 -0.92379,0.90448 z m 0.20214,1.32526 c -0.68006,1.40814 -1.00583,2.42879 -1.25696,3.9383 -0.31127,1.87089 -1.09888,2.56664 -2.97824,2.63088 -0.80238,0.0274 -3.31235,-0.74808 -3.13315,-0.96804 0.80572,-0.98901 0.61033,-1.40427 -0.58094,-1.23464 -0.18702,0.0267 -0.19802,-0.0143 -0.1716,-0.64474 0.15108,-3.61038 2.39527,-5.07543 7.12901,-4.65398 0.78176,0.0696 1.33742,0.15365 1.32601,0.20046 -0.0111,0.0442 -0.16113,0.37363 -0.33408,0.73173 z m -73.61702,16.60789 c -2.92477,2.20619 -5.35306,1.52754 -8.27387,-2.31234 -0.86791,-1.14103 -1.00517,-0.90811 0.88202,-1.49686 0.87676,-0.27351 3.07797,-1.3942 3.63514,-1.8507 1.19525,-0.97935 3.18233,0.0472 4.17425,2.15631 0.6969,1.48191 0.69241,1.56808 -0.0912,1.75126 -0.79638,0.18617 -0.7995,0.19996 -0.18846,0.82984 0.45851,0.47267 0.45851,0.47267 -0.13784,0.9225 z m -5.80916,4.65768 c -0.36749,0.47996 -1.13973,1.2043 -1.70628,1.60047 -0.36643,0.25623 -0.36643,0.25623 -0.73231,-0.34367 -0.45016,-0.7381 -0.42955,-0.732 -0.69295,-0.20482 -0.46489,0.93046 -0.42566,0.92389 -1.34738,0.22654 -2.16746,-1.63984 -2.55742,-3.03751 -1.56281,-5.6014 0.47582,-1.22653 0.72625,-1.69499 1.56764,-2.93225 0.62411,-0.91775 0.53397,-0.93377 1.4265,0.25388 1.21381,1.61512 2.29342,2.70418 3.26372,3.29231 0.7938,0.48115 0.67341,2.54719 -0.21612,3.70891 z m 2.87449,-11.80611 c -0.74688,1.07992 -2.21513,2.01341 -4.49987,2.86081 -0.62065,0.23019 -1.14637,0.41233 -1.16828,0.40472 -0.0219,-0.008 -0.041,-0.48274 -0.0425,-1.05589 -0.004,-1.69933 -0.25131,-3.51141 -0.62707,-4.60033 -0.48144,-1.39521 0.94314,-3.01771 2.92309,-3.3292 0.92088,-0.14487 2.11076,-0.16244 2.10335,-0.0311 -0.003,0.0619 -0.0308,0.40197 -0.0607,0.75576 -0.0544,0.64323 -0.0544,0.64323 0.59763,0.33143 0.74423,-0.35593 0.71116,-0.37579 1.03917,0.62463 0.5528,1.6861 0.46801,2.97943 -0.26483,4.03913 z m -7.26071,2.41594 c -1.80322,-0.60257 -3.38759,-0.87521 -4.79033,-0.82445 -1.15364,0.0417 -2.18571,-1.93769 -1.96463,-3.76803 0.20493,-1.69667 0.47894,-2.11328 1.19084,-1.81054 0.37662,0.16016 0.69384,0.26509 0.70493,0.23307 0.0107,-0.0321 -0.0165,-0.32975 -0.0612,-0.66183 -0.1062,-0.78882 -0.13089,-0.7594 0.65109,-0.77607 3.70753,-0.079 5.28322,1.95315 5.35691,6.90878 0.017,1.14333 0.094,1.09384 -1.0876,0.69901 z m -0.07,1.33876 c -0.95073,1.24155 -1.47614,2.17525 -2.0273,3.6028 -0.68313,1.76931 -1.59515,2.29144 -3.44868,1.97435 -0.79135,-0.13536 -3.09267,-1.40237 -2.8727,-1.58155 0.98905,-0.80567 0.88166,-1.25186 -0.3193,-1.3266 -0.18855,-0.0117 -0.19103,-0.0541 -0.0377,-0.66612 0.87797,-3.50526 3.37203,-4.48629 7.92278,-3.1164 0.75154,0.22626 1.27873,0.4209 1.25809,0.46443 -0.0198,0.041 -0.23335,0.33334 -0.47513,0.64907 z m 14.95299,-78.87476 c -2.92477,2.20619 -5.35306,1.52754 -8.27386,-2.31234 -0.86792,-1.14103 -1.00518,-0.90811 0.88202,-1.49686 0.87675,-0.27351 3.07797,-1.3942 3.63513,-1.8507 1.19525,-0.97935 3.18233,0.0472 4.17425,2.15631 0.6969,1.48191 0.69241,1.56808 -0.0912,1.75126 -0.79638,0.18617 -0.7995,0.19996 -0.18846,0.82984 0.45851,0.47267 0.45851,0.47267 -0.13784,0.9225 z m -5.80915,4.65768 c -0.3675,0.47996 -1.13973,1.2043 -1.70628,1.60047 -0.36643,0.25623 -0.36643,0.25623 -0.73231,-0.34367 -0.45016,-0.7381 -0.42956,-0.732 -0.69295,-0.20482 -0.46489,0.93046 -0.42567,0.92389 -1.34739,0.22654 -2.16746,-1.63984 -2.55741,-3.03751 -1.56281,-5.6014 0.47582,-1.22653 0.72626,-1.69499 1.56764,-2.93225 0.62411,-0.91775 0.53398,-0.93377 1.42651,0.25388 1.21381,1.61512 2.29341,2.70418 3.26371,3.29231 0.7938,0.48115 0.67342,2.54719 -0.21611,3.70891 z m 2.87448,-11.80611 c -0.74688,1.07992 -2.21512,2.01341 -4.49987,2.86081 -0.62065,0.23019 -1.14637,0.41233 -1.16827,0.40472 -0.0219,-0.008 -0.041,-0.48274 -0.0425,-1.05589 -0.004,-1.69933 -0.25132,-3.51141 -0.62708,-4.60033 -0.48144,-1.39521 0.94315,-3.01771 2.92309,-3.3292 0.92088,-0.14487 2.11076,-0.16244 2.10336,-0.0311 -0.003,0.0619 -0.0308,0.40197 -0.0607,0.75576 -0.0544,0.64323 -0.0544,0.64323 0.59762,0.33143 0.74423,-0.35593 0.71116,-0.37579 1.03917,0.62463 0.5528,1.6861 0.46801,2.97943 -0.26483,4.03913 z m -7.26071,2.41594 c -1.80321,-0.60257 -3.38758,-0.87521 -4.79032,-0.82445 -1.15364,0.0417 -2.18571,-1.93769 -1.96463,-3.76803 0.20493,-1.69667 0.47894,-2.11328 1.19083,-1.81054 0.37663,0.16016 0.69384,0.26509 0.70494,0.23307 0.0107,-0.0321 -0.0165,-0.32975 -0.0612,-0.66183 -0.1062,-0.78882 -0.1309,-0.7594 0.65108,-0.77607 3.70753,-0.079 5.28323,1.95315 5.35691,6.90878 0.017,1.14333 0.094,1.09384 -1.08759,0.69901 z m -0.07,1.33876 c -0.95073,1.24155 -1.47614,2.17525 -2.0273,3.6028 -0.68313,1.76931 -1.59514,2.29144 -3.44868,1.97435 -0.79135,-0.13536 -3.09267,-1.40237 -2.8727,-1.58155 0.98905,-0.80567 0.88166,-1.25186 -0.3193,-1.3266 -0.18854,-0.0117 -0.19103,-0.0541 -0.0377,-0.66612 0.87798,-3.50526 3.37204,-4.48629 7.92279,-3.1164 0.75153,0.22626 1.27872,0.4209 1.25808,0.46443 -0.0198,0.041 -0.23334,0.33334 -0.47513,0.64907 z m 80.01241,-35.298092 c -3.42197,-1.308327 -4.13529,-3.726658 -2.43052,-8.239914 0.50658,-1.341124 0.23632,-1.333862 1.73677,-0.04669 0.69707,0.598 2.81501,1.86906 3.4976,2.099067 1.46434,0.493413 1.6487,2.722347 0.38734,4.682305 -0.88625,1.377054 -0.96167,1.418978 -1.53276,0.851984 -0.58039,-0.576217 -0.59373,-0.571553 -0.80337,0.28061 -0.15733,0.639449 -0.15733,0.639449 -0.85506,0.372682 z m -7.03041,-2.452257 c -0.60182,-0.05681 -1.62555,-0.326984 -2.26198,-0.596966 -0.41162,-0.17462 -0.41162,-0.17462 -0.0973,-0.803064 0.38674,-0.773224 0.3925,-0.752517 -0.1941,-0.69603 -1.03534,0.09971 -1.00896,0.129454 -0.90699,-1.021828 0.23978,-2.707305 1.21751,-3.779484 3.91843,-4.296963 1.2921,-0.247555 1.82205,-0.283865 3.31722,-0.227252 1.10906,0.04199 1.07481,-0.04294 0.54178,1.343826 -0.72487,1.885862 -1.07507,3.378831 -1.05869,4.513343 0.0134,0.928143 -1.80165,1.922434 -3.25834,1.784922 z m 11.53214,-3.82841 c -1.31167,-0.05996 -2.882,-0.809135 -4.81263,-2.296011 -0.52445,-0.403907 -0.9578,-0.752861 -0.96298,-0.775457 -0.005,-0.02268 0.38741,-0.290932 0.87244,-0.596303 1.43806,-0.905384 2.8429,-2.07631 3.56647,-2.97263 0.9271,-1.148417 3.05827,-0.801906 4.37293,0.710985 0.61145,0.703667 1.25774,1.702882 1.14245,1.76632 -0.0543,0.0299 -0.35706,0.187184 -0.6728,0.349571 -0.57405,0.295247 -0.57405,0.295247 0.0362,0.682411 0.69661,0.441942 0.6959,0.403369 0.022,1.212257 -1.1358,1.36327 -2.27701,1.977689 -3.56408,1.918857 z m -5.90058,-4.872154 c -0.44612,-1.848143 -1.05576,-3.335726 -1.84314,-4.497748 -0.64755,-0.955671 0.48255,-2.880823 2.15126,-3.664691 1.54683,-0.726617 2.04535,-0.715441 2.16651,0.04856 0.0641,0.404217 0.14349,0.728775 0.17652,0.721185 0.0329,-0.0075 0.27076,-0.188931 0.52851,-0.403045 0.61224,-0.508591 0.5742,-0.513904 1.00328,0.14005 2.03435,3.100553 1.14802,5.514457 -3.01326,8.206582 -0.96006,0.621107 -0.87725,0.66012 -1.1696,-0.550918 z m -1.17186,0.651094 c -1.55683,-0.147023 -2.62703,-0.09689 -4.12949,0.193456 -1.86216,0.359851 -2.78866,-0.136108 -3.50346,-1.875416 -0.30519,-0.742569 -0.45245,-3.365491 -0.18386,-3.274126 1.20772,0.410798 1.52892,0.08302 0.95499,-0.97459 -0.0901,-0.166032 -0.0555,-0.190624 0.54457,-0.385451 3.43694,-1.115879 5.59191,0.477508 6.84561,5.061628 0.20702,0.757054 0.32179,1.307192 0.27394,1.312797 -0.0453,0.0054 -0.40636,-0.02092 -0.80227,-0.05831 z" /></g><g
     inkscape:groupmode="layer"
     id="layer3"
     inkscape:label="jsalogo" /></svg>
